<svg width="553" height="524" viewBox="0 0 553 524" fill="none" xmlns="http://www.w3.org/2000/svg">
<path d="M498.11 240.588H459.862V284.603H450.021V259.68H401.38V299.138H394.94V206.543H352.672V231.963H331V263.58H324.44V243.696H286.015V303.044H274.769V254.794H239.625V218.152H215.727V197.283H188.081V289.843H178.792V251.219H133.255V306.511H126.954V261.379H80.7745V220.721H54.8896V410.088H498.11V240.588Z" fill="#EBEBEB"/>
<path d="M486.95 254.537H493.421V246.123H486.95V254.537Z" fill="white"/>
<path d="M475.734 254.537H482.205V246.123H475.734V254.537Z" fill="white"/>
<path d="M464.516 254.537H470.988V246.123H464.516V254.537Z" fill="white"/>
<path d="M486.95 267.198H493.421V258.783H486.95V267.198Z" fill="white"/>
<path d="M475.734 267.198H482.205V258.783H475.734V267.198Z" fill="white"/>
<path d="M464.516 267.198H470.988V258.783H464.516V267.198Z" fill="white"/>
<path d="M486.95 279.86H493.421V271.445H486.95V279.86Z" fill="white"/>
<path d="M475.734 279.86H482.205V271.445H475.734V279.86Z" fill="white"/>
<path d="M464.516 279.86H470.988V271.445H464.516V279.86Z" fill="white"/>
<path d="M486.95 292.521H493.421V284.105H486.95V292.521Z" fill="white"/>
<path d="M475.734 292.521H482.205V284.105H475.734V292.521Z" fill="white"/>
<path d="M464.516 292.521H470.988V284.105H464.516V292.521Z" fill="white"/>
<path d="M262.901 267.829H269.373V260.809H262.901V267.829Z" fill="white"/>
<path d="M251.684 267.829H258.155V260.809H251.684V267.829Z" fill="white"/>
<path d="M240.468 267.829H246.939V260.809H240.468V267.829Z" fill="white"/>
<path d="M262.901 278.392H269.373V271.372H262.901V278.392Z" fill="white"/>
<path d="M251.684 278.392H258.155V271.372H251.684V278.392Z" fill="white"/>
<path d="M240.468 278.392H246.939V271.372H240.468V278.392Z" fill="white"/>
<path d="M262.901 288.955H269.373V281.935H262.901V288.955Z" fill="white"/>
<path d="M251.684 288.955H258.155V281.935H251.684V288.955Z" fill="white"/>
<path d="M240.468 288.955H246.939V281.935H240.468V288.955Z" fill="white"/>
<path d="M262.901 299.519H269.373V292.498H262.901V299.519Z" fill="white"/>
<path d="M251.684 299.519H258.155V292.498H251.684V299.519Z" fill="white"/>
<path d="M240.468 299.519H246.939V292.498H240.468V299.519Z" fill="white"/>
<path d="M262.901 310.343H269.373V303.322H262.901V310.343Z" fill="white"/>
<path d="M251.684 310.343H258.155V303.322H251.684V310.343Z" fill="white"/>
<path d="M240.468 310.343H246.939V303.322H240.468V310.343Z" fill="white"/>
<path d="M262.901 321.168H269.373V314.147H262.901V321.168Z" fill="white"/>
<path d="M251.684 321.168H258.155V314.147H251.684V321.168Z" fill="white"/>
<path d="M240.468 321.168H246.939V314.147H240.468V321.168Z" fill="white"/>
<path d="M262.901 331.992H269.373V324.972H262.901V331.992Z" fill="white"/>
<path d="M251.684 331.992H258.155V324.972H251.684V331.992Z" fill="white"/>
<path d="M240.468 331.992H246.939V324.972H240.468V331.992Z" fill="white"/>
<path d="M262.901 342.817H269.373V335.796H262.901V342.817Z" fill="white"/>
<path d="M251.684 342.817H258.155V335.796H251.684V342.817Z" fill="white"/>
<path d="M240.468 342.817H246.939V335.796H240.468V342.817Z" fill="white"/>
<path d="M407.239 270.343H444.493V265.08H407.239V270.343Z" fill="white"/>
<path d="M407.239 280.555H444.493V275.292H407.239V280.555Z" fill="white"/>
<path d="M407.239 290.767H444.493V285.504H407.239V290.767Z" fill="white"/>
<path d="M407.239 300.978H444.493V295.715H407.239V300.978Z" fill="white"/>
<path d="M407.239 311.19H444.493V305.926H407.239V311.19Z" fill="white"/>
<path d="M407.239 321.401H444.493V316.138H407.239V321.401Z" fill="white"/>
<path d="M407.239 331.612H444.493V326.349H407.239V331.612Z" fill="white"/>
<path d="M407.239 341.825H444.493V336.562H407.239V341.825Z" fill="white"/>
<path d="M139.032 261.39H173.284V256.127H139.032V261.39Z" fill="white"/>
<path d="M139.032 271.601H173.284V266.338H139.032V271.601Z" fill="white"/>
<path d="M139.032 281.812H173.284V276.549H139.032V281.812Z" fill="white"/>
<path d="M139.032 292.024H173.284V286.761H139.032V292.024Z" fill="white"/>
<path d="M139.032 302.236H173.284V296.973H139.032V302.236Z" fill="white"/>
<path d="M139.032 312.447H173.284V307.184H139.032V312.447Z" fill="white"/>
<path d="M139.032 322.659H173.284V317.395H139.032V322.659Z" fill="white"/>
<path d="M139.032 332.87H173.284V327.607H139.032V332.87Z" fill="white"/>
<path d="M139.032 342.573H173.284V337.31H139.032V342.573Z" fill="white"/>
<path d="M139.032 352.276H173.284V347.013H139.032V352.276Z" fill="white"/>
<path d="M139.032 361.979H173.284V356.716H139.032V361.979Z" fill="white"/>
<path d="M139.032 371.681H173.284V366.418H139.032V371.681Z" fill="white"/>
<path d="M139.032 381.385H173.284V376.122H139.032V381.385Z" fill="white"/>
<path d="M83.6514 273.724H119.832V268.461H83.6514V273.724Z" fill="white"/>
<path d="M83.6514 283.935H119.832V278.672H83.6514V283.935Z" fill="white"/>
<path d="M83.6514 294.147H119.832V288.884H83.6514V294.147Z" fill="white"/>
<path d="M83.6514 304.358H119.832V299.095H83.6514V304.358Z" fill="white"/>
<path d="M83.6514 314.57H119.832V309.307H83.6514V314.57Z" fill="white"/>
<path d="M83.6514 324.782H119.832V319.519H83.6514V324.782Z" fill="white"/>
<path d="M83.6514 334.993H119.832V329.73H83.6514V334.993Z" fill="white"/>
<path d="M83.6514 345.205H119.832V339.942H83.6514V345.205Z" fill="white"/>
<path d="M83.6514 354.344H119.832V349.081H83.6514V354.344Z" fill="white"/>
<path d="M83.6514 363.484H119.832V358.221H83.6514V363.484Z" fill="white"/>
<path d="M83.6514 372.623H119.832V367.36H83.6514V372.623Z" fill="white"/>
<path d="M301.693 253.543H313.197V248.46H301.693V253.543Z" fill="white"/>
<path d="M301.693 263.404H313.197V258.321H301.693V263.404Z" fill="white"/>
<path d="M301.693 273.266H313.197V268.183H301.693V273.266Z" fill="white"/>
<path d="M301.693 283.127H313.197V278.045H301.693V283.127Z" fill="white"/>
<path d="M301.693 292.989H313.197V287.907H301.693V292.989Z" fill="white"/>
<path d="M301.693 302.851H313.197V297.768H301.693V302.851Z" fill="white"/>
<path d="M301.693 312.712H313.197V307.629H301.693V312.712Z" fill="white"/>
<path d="M301.693 322.573H313.197V317.49H301.693V322.573Z" fill="white"/>
<path d="M286.037 253.543H297.541V248.46H286.037V253.543Z" fill="white"/>
<path d="M286.037 263.404H297.541V258.321H286.037V263.404Z" fill="white"/>
<path d="M286.037 273.266H297.541V268.183H286.037V273.266Z" fill="white"/>
<path d="M286.037 283.127H297.541V278.045H286.037V283.127Z" fill="white"/>
<path d="M286.037 292.989H297.541V287.907H286.037V292.989Z" fill="white"/>
<path d="M286.037 302.851H297.541V297.768H286.037V302.851Z" fill="white"/>
<path d="M286.037 312.712H297.541V307.629H286.037V312.712Z" fill="white"/>
<path d="M286.037 322.573H297.541V317.49H286.037V322.573Z" fill="white"/>
<path d="M376.546 219.891H388.533V211.876H376.546V219.891Z" fill="white"/>
<path d="M358.678 219.891H370.663V211.876H358.678V219.891Z" fill="white"/>
<path d="M376.546 231.664H388.533V223.649H376.546V231.664Z" fill="white"/>
<path d="M358.678 231.664H370.663V223.649H358.678V231.664Z" fill="white"/>
<path d="M376.546 243.438H388.533V235.423H376.546V243.438Z" fill="white"/>
<path d="M358.678 243.438H370.663V235.423H358.678V243.438Z" fill="white"/>
<path d="M376.546 255.213H388.533V247.198H376.546V255.213Z" fill="white"/>
<path d="M358.678 255.213H370.663V247.198H358.678V255.213Z" fill="white"/>
<path d="M376.546 266.986H388.533V258.971H376.546V266.986Z" fill="white"/>
<path d="M358.678 266.986H370.663V258.971H358.678V266.986Z" fill="white"/>
<path d="M376.546 278.76H388.533V270.745H376.546V278.76Z" fill="white"/>
<path d="M358.678 278.76H370.663V270.745H358.678V278.76Z" fill="white"/>
<path d="M376.546 290.535H388.533V282.52H376.546V290.535Z" fill="white"/>
<path d="M358.678 290.535H370.663V282.52H358.678V290.535Z" fill="white"/>
<path d="M376.546 302.308H388.533V294.293H376.546V302.308Z" fill="white"/>
<path d="M358.678 302.308H370.663V294.293H358.678V302.308Z" fill="white"/>
<path d="M336.529 243.438H348.515V235.423H336.529V243.438Z" fill="white"/>
<path d="M336.529 255.213H348.515V247.198H336.529V255.213Z" fill="white"/>
<path d="M336.529 266.986H348.515V258.971H336.529V266.986Z" fill="white"/>
<path d="M336.529 278.76H348.515V270.745H336.529V278.76Z" fill="white"/>
<path d="M336.529 290.535H348.515V282.52H336.529V290.535Z" fill="white"/>
<path d="M336.529 302.308H348.515V294.293H336.529V302.308Z" fill="white"/>
<path d="M376.546 313.942H388.533V305.927H376.546V313.942Z" fill="white"/>
<path d="M358.678 313.942H370.663V305.927H358.678V313.942Z" fill="white"/>
<path d="M336.529 313.942H348.515V305.927H336.529V313.942Z" fill="white"/>
<path d="M376.546 325.575H388.533V317.56H376.546V325.575Z" fill="white"/>
<path d="M358.678 325.575H370.663V317.56H358.678V325.575Z" fill="white"/>
<path d="M336.529 325.575H348.515V317.56H336.529V325.575Z" fill="white"/>
<path d="M376.546 337.209H388.533V329.194H376.546V337.209Z" fill="white"/>
<path d="M358.678 337.209H370.663V329.194H358.678V337.209Z" fill="white"/>
<path d="M336.529 337.209H348.515V329.194H336.529V337.209Z" fill="white"/>
<path d="M376.546 348.843H388.533V340.828H376.546V348.843Z" fill="white"/>
<path d="M358.678 348.843H370.663V340.828H358.678V348.843Z" fill="white"/>
<path d="M336.529 348.843H348.515V340.828H336.529V348.843Z" fill="white"/>
<path d="M376.546 360.476H388.533V352.461H376.546V360.476Z" fill="white"/>
<path d="M358.678 360.476H370.663V352.461H358.678V360.476Z" fill="white"/>
<path d="M336.529 360.476H348.515V352.461H336.529V360.476Z" fill="white"/>
<path d="M228.273 230.336H234.744V223.315H228.273V230.336Z" fill="white"/>
<path d="M217.056 230.336H223.527V223.315H217.056V230.336Z" fill="white"/>
<path d="M228.273 240.899H234.744V233.879H228.273V240.899Z" fill="white"/>
<path d="M217.056 240.899H223.527V233.879H217.056V240.899Z" fill="white"/>
<path d="M228.273 251.461H234.744V244.441H228.273V251.461Z" fill="white"/>
<path d="M217.056 251.461H223.527V244.441H217.056V251.461Z" fill="white"/>
<path d="M228.273 262.024H234.744V255.004H228.273V262.024Z" fill="white"/>
<path d="M217.056 262.024H223.527V255.004H217.056V262.024Z" fill="white"/>
<path d="M228.273 272.849H234.744V265.828H228.273V272.849Z" fill="white"/>
<path d="M217.056 272.849H223.527V265.828H217.056V272.849Z" fill="white"/>
<path d="M228.273 283.673H234.744V276.653H228.273V283.673Z" fill="white"/>
<path d="M217.056 283.673H223.527V276.653H217.056V283.673Z" fill="white"/>
<path d="M228.273 294.499H234.744V287.478H228.273V294.499Z" fill="white"/>
<path d="M217.056 294.499H223.527V287.478H217.056V294.499Z" fill="white"/>
<path d="M228.273 305.323H234.744V298.303H228.273V305.323Z" fill="white"/>
<path d="M217.056 305.323H223.527V298.303H217.056V305.323Z" fill="white"/>
<path d="M228.273 316.262H234.744V309.242H228.273V316.262Z" fill="white"/>
<path d="M217.056 316.262H223.527V309.242H217.056V316.262Z" fill="white"/>
<path d="M228.273 327.202H234.744V320.182H228.273V327.202Z" fill="white"/>
<path d="M217.056 327.202H223.527V320.182H217.056V327.202Z" fill="white"/>
<path d="M228.273 338.141H234.744V331.121H228.273V338.141Z" fill="white"/>
<path d="M217.056 338.141H223.527V331.121H217.056V338.141Z" fill="white"/>
<path d="M228.273 349.082H234.744V342.061H228.273V349.082Z" fill="white"/>
<path d="M217.056 349.082H223.527V342.061H217.056V349.082Z" fill="white"/>
<path d="M70.2478 232.728H76.719V224.457H70.2478V232.728Z" fill="white"/>
<path d="M59.0318 232.728H65.5031V224.457H59.0318V232.728Z" fill="white"/>
<path d="M70.2478 245.172H76.719V236.901H70.2478V245.172Z" fill="white"/>
<path d="M59.0318 245.172H65.5031V236.901H59.0318V245.172Z" fill="white"/>
<path d="M70.2478 257.617H76.719V249.346H70.2478V257.617Z" fill="white"/>
<path d="M59.0318 257.617H65.5031V249.346H59.0318V257.617Z" fill="white"/>
<path d="M70.2478 270.06H76.719V261.79H70.2478V270.06Z" fill="white"/>
<path d="M59.0318 270.06H65.5031V261.79H59.0318V270.06Z" fill="white"/>
<path d="M70.2478 282.813H76.719V274.543H70.2478V282.813Z" fill="white"/>
<path d="M59.0318 282.813H65.5031V274.543H59.0318V282.813Z" fill="white"/>
<path d="M70.2478 295.566H76.719V287.295H70.2478V295.566Z" fill="white"/>
<path d="M59.0318 295.566H65.5031V287.295H59.0318V295.566Z" fill="white"/>
<path d="M70.2478 308.319H76.719V300.048H70.2478V308.319Z" fill="white"/>
<path d="M59.0318 308.319H65.5031V300.048H59.0318V308.319Z" fill="white"/>
<path d="M70.2478 321.071H76.719V312.8H70.2478V321.071Z" fill="white"/>
<path d="M59.0318 321.071H65.5031V312.8H59.0318V321.071Z" fill="white"/>
<path d="M70.2478 333.959H76.719V325.688H70.2478V333.959Z" fill="white"/>
<path d="M59.0318 333.959H65.5031V325.688H59.0318V333.959Z" fill="white"/>
<path d="M70.2478 346.848H76.719V338.577H70.2478V346.848Z" fill="white"/>
<path d="M59.0318 346.848H65.5031V338.577H59.0318V346.848Z" fill="white"/>
<path d="M70.2478 359.735H76.719V351.464H70.2478V359.735Z" fill="white"/>
<path d="M59.0318 359.735H65.5031V351.464H59.0318V359.735Z" fill="white"/>
<path d="M70.2478 372.623H76.719V364.352H70.2478V372.623Z" fill="white"/>
<path d="M59.0318 372.623H65.5031V364.352H59.0318V372.623Z" fill="white"/>
<path d="M204.286 230.336H210.757V223.315H204.286V230.336Z" fill="white"/>
<path d="M193.069 230.336H199.541V223.315H193.069V230.336Z" fill="white"/>
<path d="M204.286 219.505H210.757V212.485H204.286V219.505Z" fill="white"/>
<path d="M193.069 219.505H199.541V212.485H193.069V219.505Z" fill="white"/>
<path d="M204.286 208.675H210.757V201.655H204.286V208.675Z" fill="white"/>
<path d="M193.069 208.675H199.541V201.655H193.069V208.675Z" fill="white"/>
<path d="M204.286 240.899H210.757V233.879H204.286V240.899Z" fill="white"/>
<path d="M193.069 240.899H199.541V233.879H193.069V240.899Z" fill="white"/>
<path d="M204.286 251.461H210.757V244.441H204.286V251.461Z" fill="white"/>
<path d="M193.069 251.461H199.541V244.441H193.069V251.461Z" fill="white"/>
<path d="M204.286 262.024H210.757V255.004H204.286V262.024Z" fill="white"/>
<path d="M193.069 262.024H199.541V255.004H193.069V262.024Z" fill="white"/>
<path d="M204.286 272.849H210.757V265.828H204.286V272.849Z" fill="white"/>
<path d="M193.069 272.849H199.541V265.828H193.069V272.849Z" fill="white"/>
<path d="M204.286 283.673H210.757V276.653H204.286V283.673Z" fill="white"/>
<path d="M193.069 283.673H199.541V276.653H193.069V283.673Z" fill="white"/>
<path d="M204.286 294.499H210.757V287.478H204.286V294.499Z" fill="white"/>
<path d="M193.069 294.499H199.541V287.478H193.069V294.499Z" fill="white"/>
<path d="M204.286 305.323H210.757V298.303H204.286V305.323Z" fill="white"/>
<path d="M193.069 305.323H199.541V298.303H193.069V305.323Z" fill="white"/>
<path d="M204.286 316.262H210.757V309.242H204.286V316.262Z" fill="white"/>
<path d="M193.069 316.262H199.541V309.242H193.069V316.262Z" fill="white"/>
<path d="M204.286 327.202H210.757V320.182H204.286V327.202Z" fill="white"/>
<path d="M193.069 327.202H199.541V320.182H193.069V327.202Z" fill="white"/>
<path d="M204.286 338.141H210.757V331.121H204.286V338.141Z" fill="white"/>
<path d="M193.069 338.141H199.541V331.121H193.069V338.141Z" fill="white"/>
<path d="M204.286 349.082H210.757V342.061H204.286V349.082Z" fill="white"/>
<path d="M193.069 349.082H199.541V342.061H193.069V349.082Z" fill="white"/>
<path d="M493.402 182.197H374.316C374.316 182.197 386.123 151.637 404.295 151.637C422.467 151.637 428.159 172.73 428.159 172.73C428.159 172.73 440.42 161.27 450.49 161.27C460.562 161.27 469.319 176.415 469.319 176.415C469.319 176.415 483.551 168.271 493.402 182.197Z" fill="#695CFF"/>
<path d="M426.748 121.76H371.096C371.096 121.76 383.532 104.688 393.329 104.688C403.126 104.688 406.021 116.069 406.021 116.069C406.021 116.069 412.935 110.758 419.341 111.706C425.747 112.655 426.748 121.76 426.748 121.76Z" fill="#695CFF"/>
<path d="M167.998 173.094H59.5968C59.5968 173.094 74.4415 141.691 90.3215 139.728C106.201 137.765 113.796 163.062 113.796 163.062C113.796 163.062 124.038 154.121 132.093 154.121C140.148 154.121 146.363 165.897 146.363 165.897C146.363 165.897 162.475 157.829 167.998 173.094Z" fill="#695CFF"/>
<path d="M271.021 95.4078H197.795C197.795 95.4078 210.373 72.6557 224.019 72.3246C237.665 71.9934 244.837 89.5432 244.837 89.5432C244.837 89.5432 266.065 73.4019 271.021 95.4078Z" fill="#695CFF"/>
<path d="M321.032 464.555C420.62 464.555 501.352 459.494 501.352 453.25C501.352 447.005 420.62 441.944 321.032 441.944C221.444 441.944 140.712 447.005 140.712 453.25C140.712 459.494 221.444 464.555 321.032 464.555Z" fill="#EBEBEB"/>
<path d="M535.676 410.088L470.882 410.342L406.088 410.435L276.5 410.611L146.912 410.436L82.1183 410.343L17.3244 410.088L82.1183 409.831L146.912 409.739L276.5 409.565L406.088 409.74L470.882 409.833L535.676 410.088Z" fill="#263238"/>
<path d="M268.41 247.997C287.131 266.439 343.348 348.532 347.723 350.985C347.723 350.985 347.711 404.674 316.418 393.948C285.126 383.223 256.407 286.903 250.273 256.194C247.045 240.031 253.135 232.947 268.41 247.997Z" fill="#D3766A"/>
<path d="M263.653 311.466L321.032 305.286C321.032 305.286 285.435 260.546 267.039 244.577C247.867 227.934 238.467 230.27 247.354 261.79C256.295 293.503 263.653 311.466 263.653 311.466Z" fill="#695CFF"/>
<path d="M260.95 281.849C260.375 283.337 259.877 284.878 259.755 286.534C260.839 285.224 261.547 283.767 262.177 282.3C262.752 280.801 263.25 279.282 263.372 277.626C262.277 278.936 261.569 280.371 260.95 281.849ZM293.178 283.075C291.608 282.53 290.004 282.059 288.246 281.943C289.628 282.97 291.154 283.641 292.703 284.239C294.284 284.784 295.899 285.255 297.636 285.37C296.264 284.333 294.738 283.662 293.178 283.075ZM284.629 304.224C283.921 302.788 283.125 301.373 281.975 300.126C282.196 301.772 282.771 303.27 283.435 304.727C284.12 306.184 284.917 307.588 286.067 308.835C285.857 307.19 285.282 305.691 284.629 304.224ZM250.962 236.104C250.675 235.528 250.387 234.962 250.056 234.396C249.646 234.354 249.248 234.354 248.872 234.385C249.138 235.15 249.436 235.884 249.768 236.617C250.465 238.064 251.261 239.478 252.411 240.726C252.19 239.07 251.626 237.571 250.962 236.104ZM317.09 300.388C316.725 300.524 316.371 300.661 316.017 300.807C314.491 301.478 313.009 302.222 311.671 303.312C313.418 303.103 315 302.568 316.548 301.939C316.991 301.751 317.422 301.552 317.853 301.331C317.61 301.028 317.356 300.713 317.09 300.388ZM272.828 257.2C271.313 257.86 269.82 258.615 268.493 259.694C270.24 259.495 271.822 258.961 273.37 258.332C274.896 257.661 276.378 256.917 277.706 255.827C275.958 256.026 274.376 256.571 272.828 257.2ZM268.979 257.294C268.913 257.326 268.858 257.389 268.791 257.431C268.858 257.431 268.924 257.41 268.99 257.399C268.99 257.368 268.979 257.326 268.979 257.294Z" fill="white"/>
<path d="M266.399 301.689C267.743 301.394 269.143 301.275 270.509 301.099C271.915 300.917 273.32 300.73 274.725 300.543C277.573 300.166 280.429 299.836 283.285 299.519C288.992 298.886 294.696 298.234 300.414 297.692C301.986 297.543 303.559 297.398 305.134 297.288C306.791 297.172 308.458 297.171 310.11 297.052C310.213 297.045 310.213 297.188 310.116 297.201C308.709 297.398 307.315 297.706 305.905 297.91C304.462 298.118 303.014 298.31 301.565 298.483C298.714 298.823 295.859 299.143 293.003 299.44C287.379 300.024 281.752 300.628 276.117 301.099C274.544 301.23 272.97 301.347 271.396 301.478C269.751 301.615 268.077 301.84 266.424 301.832C266.34 301.833 266.309 301.709 266.399 301.689Z" fill="#263238"/>
<path opacity="0.1" d="M291.482 308.468L263.655 311.466C263.655 311.466 256.3 293.503 247.352 261.79C243.581 248.418 243.105 240.296 245.273 236.649L291.482 308.468Z" fill="black"/>
<path d="M279.561 423.287H192.287C191.568 420.625 190.871 418.005 190.175 415.427C189.378 412.461 188.593 409.569 187.841 406.75C187.675 406.121 187.498 405.492 187.332 404.874C186.757 402.715 186.193 400.608 185.64 398.565C185.308 397.318 184.976 396.091 184.656 394.876C184.313 393.639 183.992 392.423 183.671 391.239C183.583 390.925 183.505 390.61 183.417 390.306C183.328 389.961 183.24 389.625 183.151 389.29C183.041 388.871 182.93 388.472 182.82 388.064V388.053C182.698 387.624 182.587 387.204 182.477 386.785C182.256 385.989 182.045 385.203 181.846 384.438C181.537 383.306 181.238 382.195 180.95 381.116C180.829 380.644 180.696 380.172 180.574 379.711C180.364 378.957 180.165 378.223 179.977 377.5C179.844 377.018 179.723 376.546 179.601 376.085C179.081 374.188 178.606 372.407 178.163 370.74C178.042 370.3 177.931 369.87 177.809 369.451C177.621 368.728 177.433 368.036 177.256 367.366C177.135 366.947 177.024 366.538 176.925 366.14C176.538 364.714 176.184 363.415 175.885 362.272C175.797 361.969 175.719 361.675 175.642 361.392C175.443 360.638 175.255 359.967 175.1 359.37C175.033 359.128 174.978 358.898 174.912 358.688C174.845 358.447 174.79 358.227 174.735 358.028C174.702 357.881 174.657 357.735 174.624 357.609C174.569 357.399 174.514 357.211 174.469 357.043C174.447 356.949 174.425 356.865 174.403 356.791C174.27 356.299 174.204 356.047 174.204 356.047H259.156C259.156 356.047 261.954 365.186 266.433 379.921C267.34 382.918 268.324 386.156 269.375 389.594C272.35 399.414 275.823 410.879 279.561 423.287Z" fill="#37474F"/>
<path d="M206.576 423.287H204.398C201.168 410.617 198.016 397.926 195.008 385.213C194.278 382.122 193.559 379.03 192.84 375.928C192.774 375.635 192.707 375.352 192.641 375.058C192.608 374.901 192.851 374.838 192.895 374.995C192.928 375.09 192.951 375.184 192.984 375.278C193.968 378.6 194.952 381.933 195.915 385.266C199.598 397.905 203.126 410.585 206.576 423.287Z" fill="#263238"/>
<path d="M256.402 356.047L252.652 373.832L249.578 388.42L244.346 413.279L243.804 415.825L242.909 420.07L242.234 423.287H192.276C191.568 420.615 190.86 417.995 190.174 415.427C189.378 412.461 188.593 409.569 187.841 406.75C187.675 406.121 187.498 405.492 187.332 404.874C186.757 402.715 186.193 400.608 185.64 398.565C185.308 397.318 184.976 396.091 184.656 394.876C184.313 393.639 183.992 392.423 183.671 391.239C183.583 390.925 183.505 390.61 183.417 390.306C183.328 389.961 183.24 389.625 183.151 389.29C183.041 388.871 182.93 388.472 182.82 388.064V388.053C182.698 387.624 182.587 387.204 182.477 386.785C182.256 385.989 182.045 385.203 181.846 384.438C181.537 383.306 181.238 382.195 180.95 381.116C180.818 380.633 180.696 380.172 180.574 379.711C180.364 378.957 180.165 378.223 179.977 377.5C179.844 377.018 179.723 376.546 179.601 376.085C179.081 374.188 178.606 372.407 178.163 370.74C178.042 370.3 177.931 369.87 177.809 369.451C177.621 368.728 177.433 368.036 177.256 367.366C177.135 366.947 177.024 366.538 176.925 366.14C176.538 364.714 176.184 363.415 175.885 362.272C175.797 361.969 175.719 361.675 175.642 361.392C175.443 360.638 175.255 359.967 175.1 359.37C175.033 359.128 174.978 358.898 174.912 358.688C174.845 358.447 174.79 358.227 174.735 358.028C174.702 357.881 174.657 357.735 174.624 357.609C174.569 357.399 174.514 357.211 174.469 357.043C174.447 356.949 174.425 356.865 174.403 356.791C174.27 356.299 174.204 356.047 174.204 356.047H256.402Z" fill="#263238"/>
<path d="M256.413 356.016C256.413 356.016 256.413 356.027 256.413 356.048C256.38 356.488 256.059 361.288 255.241 368.613C255.008 370.751 254.732 373.098 254.411 375.614C253.913 379.586 253.294 383.966 252.531 388.598C251.226 396.678 249.522 405.492 247.31 414.107C246.525 417.209 245.663 420.279 244.745 423.287L135.085 423.325C136.379 407.49 137.562 393.168 138.502 381.881C139.818 365.993 140.659 356.048 140.659 356.048L240.133 356.016H256.413Z" fill="#37474F"/>
<path d="M256.181 365.563C256.059 369.284 255.893 372.994 255.639 376.693C255.373 380.707 254.986 384.71 254.433 388.714C254.422 388.86 254.4 389.007 254.378 389.154C253.858 392.906 253.272 396.647 252.597 400.378C251.967 403.857 251.502 407.609 249.876 410.826C249.268 412.042 248.394 413.205 247.31 414.107C246.304 414.945 245.132 415.574 243.804 415.825C243.594 415.878 243.373 415.909 243.152 415.93C243.097 415.941 243.03 415.93 242.964 415.941C243.041 415.993 243.097 416.056 243.086 416.161C243.041 417.408 243.074 418.676 242.931 419.913C242.92 419.965 242.92 420.017 242.909 420.07C242.776 421.149 242.566 422.218 242.356 423.287H240.475C240.486 423.266 240.486 423.245 240.497 423.224C240.829 422.051 241.106 420.866 241.415 419.682C241.747 418.477 242.168 417.293 242.466 416.067C242.477 416.014 242.521 415.983 242.555 415.951C240.166 415.983 237.755 414.777 236.892 412.587C236.262 410.994 236.549 409.338 236.803 407.703C237.146 405.576 237.478 403.449 237.821 401.321C238.462 397.412 239.292 393.545 240.022 389.657C240.133 389.07 240.243 388.473 240.354 387.886C241.825 379.973 243.362 372.061 245.209 364.222C245.275 363.897 245.353 363.572 245.43 363.247C245.474 363.027 245.851 363.09 245.828 363.3C245.773 363.824 245.718 364.358 245.651 364.882C245.331 367.89 244.955 370.887 244.512 373.874C243.981 377.385 243.616 380.917 243.097 384.427C242.92 385.622 242.743 386.817 242.555 388.012C241.703 393.786 240.818 399.56 239.779 405.314C239.292 407.986 237.533 412.776 241.592 413.604C242.599 413.813 243.528 413.656 244.346 413.279C246.149 412.43 247.465 410.481 248.118 408.762C249.268 405.702 249.677 402.327 250.275 399.141C250.938 395.62 251.524 392.099 252.044 388.567V388.556C252.708 384.144 253.393 379.743 254.123 375.341C254.488 373.098 254.864 370.856 255.24 368.613C255.417 367.576 255.594 366.538 255.771 365.5C255.816 365.28 256.181 365.343 256.181 365.563Z" fill="#263238"/>
<path d="M159.14 393.189C163.707 393.171 168.252 392.542 172.669 391.465C174.707 390.968 176.721 390.35 178.721 389.728C180.641 389.132 182.63 388.398 184.178 387.133C187.254 384.619 188.686 380.661 190.021 377.149C191.529 373.179 192.621 369.14 193.567 365.024C193.613 364.82 193.926 364.888 193.933 365.079C194.079 369.695 193.383 374.395 192.091 378.845C190.99 382.643 189.504 386.884 186.265 389.547C182.856 392.348 178.229 393.332 173.867 393.843C168.942 394.419 164.032 394.282 159.127 393.65C158.824 393.61 158.819 393.19 159.14 393.189Z" fill="#263238"/>
<path d="M151.542 365.144C151.299 370.961 151.044 376.787 150.768 382.604C150.137 396.165 149.441 409.726 148.699 423.287H146.642C147.582 409.695 148.567 396.113 149.617 382.541C150.071 376.735 150.535 370.94 151.011 365.134C151.044 364.809 151.553 364.83 151.542 365.144Z" fill="#263238"/>
<path d="M275.296 399.059L126.523 388.369C126.523 388.369 156.45 275.965 215.551 234.647C230.655 224.088 247.194 230.866 254.639 238.756C273.549 258.799 275.732 398.61 275.296 399.059Z" fill="#695CFF"/>
<path d="M222.428 239.761C221.853 241.25 221.366 242.79 221.233 244.436C222.317 243.126 223.047 241.679 223.666 240.212C224.242 238.713 224.728 237.194 224.861 235.538C223.777 236.838 223.069 238.284 222.428 239.761ZM206.28 300.399C205.694 301.897 205.207 303.427 205.097 305.083C206.158 303.773 206.888 302.327 207.508 300.849C208.083 299.351 208.57 297.831 208.702 296.175C207.618 297.485 206.91 298.921 206.28 300.399ZM153.126 326.4C152.551 327.898 152.053 329.428 151.931 331.084C153.015 329.774 153.723 328.328 154.353 326.85C154.929 325.362 155.426 323.843 155.548 322.176C154.475 323.497 153.756 324.932 153.126 326.4ZM196.027 364.725C195.441 366.213 194.944 367.733 194.833 369.399C195.917 368.079 196.625 366.643 197.244 365.165C197.83 363.667 198.317 362.147 198.439 360.491C197.366 361.801 196.647 363.237 196.027 364.725ZM260.95 281.849C260.375 283.337 259.877 284.878 259.755 286.534C260.839 285.224 261.547 283.767 262.177 282.3C262.752 280.801 263.25 279.282 263.372 277.626C262.277 278.936 261.569 280.371 260.95 281.849ZM234.516 358.07C233.919 359.558 233.432 361.099 233.311 362.744C234.395 361.445 235.114 359.988 235.733 358.521C236.319 357.022 236.795 355.503 236.927 353.847C235.843 355.157 235.136 356.593 234.516 358.07ZM180.864 278.978C180.289 280.466 179.791 281.996 179.67 283.652C180.754 282.342 181.461 280.906 182.092 279.418C182.667 277.919 183.165 276.4 183.275 274.744C182.191 276.054 181.484 277.489 180.864 278.978ZM240.301 258.898C238.73 258.342 237.126 257.881 235.368 257.766C236.75 258.793 238.277 259.464 239.825 260.051C241.407 260.606 243.021 261.078 244.769 261.183C243.386 260.156 241.86 259.485 240.301 258.898ZM257.156 309.422C255.586 308.867 253.96 308.405 252.223 308.29C253.606 309.317 255.132 309.998 256.681 310.575C258.262 311.13 259.866 311.602 261.613 311.717C260.242 310.69 258.716 310.009 257.156 309.422ZM261.68 369.808C260.109 369.263 258.494 368.791 256.747 368.676C258.129 369.713 259.656 370.384 261.204 370.971C262.786 371.516 264.4 371.988 266.137 372.103C264.765 371.086 263.239 370.405 261.68 369.808ZM155.78 364.84C154.21 364.295 152.606 363.824 150.847 363.708C152.23 364.735 153.756 365.406 155.305 366.004C156.886 366.548 158.501 367.02 160.237 367.135C158.866 366.108 157.34 365.438 155.78 364.84ZM194.059 326.054C192.488 325.498 190.874 325.037 189.126 324.911C190.509 325.938 192.024 326.62 193.594 327.217C195.176 327.762 196.78 328.223 198.527 328.349C197.145 327.322 195.629 326.651 194.059 326.054ZM250.962 236.104C250.808 235.79 250.653 235.486 250.487 235.182V235.171C249.945 234.783 249.37 234.406 248.773 234.039C249.038 234.93 249.392 235.779 249.768 236.617C250.465 238.064 251.261 239.478 252.411 240.726C252.19 239.07 251.626 237.571 250.962 236.104ZM207.486 268.665C206.789 267.219 205.993 265.815 204.842 264.557C205.052 266.202 205.628 267.701 206.28 269.168C206.988 270.615 207.784 272.019 208.934 273.277C208.724 271.621 208.149 270.122 207.486 268.665ZM245.875 392.675C245.178 391.229 244.382 389.825 243.243 388.567C243.453 390.223 244.028 391.721 244.68 393.178C245.344 394.53 246.074 395.851 247.103 397.035L247.28 397.045C247.058 395.494 246.505 394.059 245.875 392.675ZM231.751 319.671C231.043 318.215 230.247 316.821 229.108 315.563C229.318 317.209 229.893 318.707 230.557 320.175C231.254 321.61 232.039 323.025 233.189 324.283C232.979 322.627 232.404 321.128 231.751 319.671ZM130.42 375.362C130.353 375.582 130.287 375.802 130.209 376.012C130.353 376.159 130.486 376.316 130.619 376.463C130.574 376.085 130.508 375.719 130.42 375.362ZM174.626 347.402C173.919 345.966 173.133 344.551 171.983 343.304C172.193 344.939 172.757 346.448 173.421 347.905C174.129 349.361 174.925 350.766 176.075 352.013C175.854 350.367 175.29 348.858 174.626 347.402ZM184.116 387.75C183.408 386.303 182.623 384.899 181.473 383.641C181.694 385.297 182.258 386.796 182.921 388.253C183.629 389.699 184.403 391.103 185.565 392.371C185.355 390.715 184.779 389.217 184.116 387.75ZM258.516 339.206C257.001 339.877 255.508 340.621 254.181 341.711C255.928 341.501 257.51 340.967 259.047 340.338C260.585 339.667 262.056 338.934 263.394 337.833C261.646 338.032 260.065 338.577 258.516 339.206ZM141.17 345.327C140.982 345.809 140.794 346.291 140.606 346.773C141.767 346.217 142.873 345.578 143.902 344.729C142.951 344.834 142.044 345.054 141.17 345.327ZM217.019 380.246C215.504 380.906 214.011 381.65 212.684 382.74C214.431 382.541 216.013 381.996 217.561 381.378C219.088 380.707 220.559 379.952 221.897 378.863C220.149 379.062 218.568 379.607 217.019 380.246ZM149.188 389.594C148.934 389.709 148.68 389.825 148.425 389.94L151.024 390.129C152.086 389.605 153.115 388.997 154.055 388.221C152.318 388.42 150.737 388.976 149.188 389.594ZM175.246 303.417C173.731 304.088 172.248 304.842 170.91 305.922C172.658 305.723 174.239 305.178 175.788 304.549C177.303 303.889 178.796 303.145 180.123 302.055C178.376 302.254 176.794 302.788 175.246 303.417ZM213.381 343.555C211.854 344.226 210.372 344.981 209.045 346.071C210.793 345.871 212.374 345.327 213.923 344.698C215.438 344.037 216.931 343.283 218.258 342.193C216.511 342.392 214.929 342.937 213.381 343.555ZM233.255 288.378C231.74 289.049 230.247 289.803 228.92 290.883C230.656 290.684 232.249 290.139 233.786 289.521C235.313 288.85 236.795 288.106 238.122 287.016C236.385 287.215 234.793 287.76 233.255 288.378Z" fill="white"/>
<path d="M246.207 262.238C237.624 261.04 228.912 244.624 227.449 233.426C227.353 232.658 240.693 208.483 242.811 203.433C243.24 202.394 273.063 223.73 273.063 223.73C273.063 223.73 265.333 233.078 261.697 241.906C261.401 242.647 254.504 263.391 246.207 262.238Z" fill="#D3766A"/>
<path d="M273.06 223.725C273.06 223.725 265.329 233.075 261.691 241.904C261.623 242.081 261.183 243.374 260.452 245.234C245.125 237.854 238.877 224.797 236.353 216.146C239.254 210.653 241.953 205.483 242.806 203.437C243.245 202.398 273.06 223.725 273.06 223.725Z" fill="#263238"/>
<path d="M249.653 164.169C240.932 173.732 232.208 208.25 237.197 218.849C244.432 234.212 263.696 243.452 279.355 233.63C294.535 224.107 305.063 178.931 298.797 168.576C289.57 153.324 262.536 150.043 249.653 164.169Z" fill="#D3766A"/>
<path d="M272.969 192.198C271.833 192.292 270.768 192.199 269.633 192.182C268.353 192.162 267.332 192.272 266.235 191.551C265.647 191.165 265.474 190.183 265.817 189.606C266.617 188.264 268.191 187.919 269.732 187.882C271.405 187.844 272.705 188.218 274.025 189.186C275.303 190.124 274.467 192.074 272.969 192.198Z" fill="#263238"/>
<path d="M271.994 197.266C271.993 197.174 271.777 197.342 271.761 197.438C271.347 199.801 270.454 202.441 268.048 202.798C267.974 202.809 267.956 202.928 268.041 202.934C270.854 203.085 272.002 199.568 271.994 197.266Z" fill="#263238"/>
<path d="M270.294 194.398C266.369 193.361 264.47 200.878 268.107 201.837C271.687 202.783 273.586 195.267 270.294 194.398Z" fill="#263238"/>
<path d="M286.272 200.171C286.313 200.086 286.436 200.325 286.409 200.42C285.743 202.729 285.39 205.482 287.417 206.759C287.48 206.799 287.444 206.914 287.364 206.885C284.743 205.908 285.25 202.258 286.272 200.171Z" fill="#263238"/>
<path d="M289.08 198.238C293.103 198.85 291.515 206.43 287.787 205.863C284.119 205.304 285.708 197.723 289.08 198.238Z" fill="#263238"/>
<path d="M293.153 194.505C292.096 194.085 291.196 193.532 290.197 193.014C289.069 192.431 288.108 192.076 287.488 190.95C287.155 190.346 287.485 189.395 288.074 189.033C289.446 188.191 291.014 188.581 292.402 189.231C293.909 189.936 294.878 190.845 295.575 192.29C296.25 193.691 294.547 195.057 293.153 194.505Z" fill="#263238"/>
<path d="M263.767 217.437C264.218 218.116 264.615 219 265.489 219.273C266.327 219.535 267.421 219.397 268.278 219.287C268.362 219.276 268.422 219.372 268.354 219.43C267.491 220.179 266.007 220.434 264.916 219.987C263.85 219.551 263.53 218.515 263.503 217.489C263.5 217.345 263.7 217.338 263.767 217.437Z" fill="#263238"/>
<path d="M268.111 211.053C268.976 213.385 270.719 214.949 272.804 215.846C273.733 216.254 274.751 216.518 275.78 216.659C275.979 216.7 276.182 216.724 276.371 216.727C276.555 216.747 276.722 216.764 276.929 216.771C277.227 216.797 277.441 216.608 277.554 216.362L277.558 216.345C277.578 216.259 277.595 216.191 277.596 216.102C277.596 216.102 277.596 216.102 277.601 216.085L277.648 215.88C278.152 214.099 278.658 211.331 278.658 211.331C279.266 211.817 282.411 214.118 282.592 213.168C284.063 205.305 285.699 196.56 285.409 188.441C285.413 188.173 284.986 188.138 284.945 188.399C283.217 195.904 282.892 203.645 281.282 211.21C280.26 210.549 278.615 209.384 277.62 209.178C277.333 209.19 276.744 214.543 276.45 215.326C276.45 215.326 276.443 215.361 276.413 215.408C273.137 215.072 270.971 213.618 268.396 210.896C268.244 210.721 268.009 210.835 268.111 211.053Z" fill="#263238"/>
<path d="M274.894 215.498C274.894 215.498 272.674 217.262 270.183 217.515C269.264 217.61 268.323 217.518 267.43 217.059C265.591 216.125 265.973 214.407 266.702 213.029C267.297 211.894 268.146 210.994 268.146 210.994C268.146 210.994 270.368 214.186 274.894 215.498Z" fill="#263238"/>
<path d="M270.183 217.516C269.264 217.611 268.323 217.519 267.43 217.06C265.591 216.126 265.973 214.408 266.702 213.03C268.753 213.712 270.493 215.537 270.183 217.516Z" fill="#FF97B8"/>
<path d="M302.132 182.02C286.627 188.16 270.988 171.166 270.988 171.166C264.406 180.359 254.071 177.064 254.071 177.064C254.071 177.064 246.621 198.306 240.581 197.071C231.363 195.196 235.031 164.952 239.22 159.693C243.41 154.433 251.566 154.484 251.566 154.484C251.566 154.484 253.135 150.073 259.744 147.068C267.048 143.738 287.445 154.182 287.445 154.182C287.445 154.182 289.782 150.641 294.579 148.156C297.622 146.593 300.966 147.688 302.635 150.49C301.262 151.713 300.071 153.369 299.242 155.421C296.754 161.578 302.25 162.655 303.47 156.866C304.011 154.29 303.597 152.103 302.635 150.49C306.175 147.247 310.871 146.889 313.115 149.443C317.185 154.077 315.026 176.92 302.132 182.02Z" fill="#263238"/>
<path d="M264.154 208.928C259.62 207.543 256.462 203.375 256.773 198.666C257.143 193.098 262.222 188.852 268.097 189.201C273.974 189.549 278.453 194.361 278.086 199.93C277.718 205.496 272.639 209.743 266.763 209.396C265.855 209.341 264.982 209.181 264.154 208.928ZM270.268 190.954C269.551 190.735 268.793 190.597 268.009 190.549C262.919 190.248 258.519 193.926 258.198 198.75C257.882 203.572 261.764 207.748 266.851 208.045C271.942 208.346 276.342 204.668 276.663 199.844C276.93 195.766 274.197 192.155 270.268 190.954Z" fill="#695CFF"/>
<path d="M287.722 213.167C283.898 211.803 281.905 206.854 283.248 201.731C283.925 199.145 285.341 196.889 287.237 195.381C289.196 193.818 291.433 193.231 293.537 193.726C295.648 194.219 297.327 195.732 298.288 197.981C299.217 200.155 299.356 202.775 298.676 205.36C297.256 210.773 292.642 214.363 288.39 213.363C288.161 213.31 287.939 213.245 287.722 213.167ZM293.711 195.193C293.542 195.132 293.37 195.081 293.193 195.04C291.546 194.652 289.757 195.141 288.155 196.415C286.491 197.743 285.24 199.746 284.634 202.055C283.406 206.746 285.232 211.231 288.735 212.051C292.224 212.873 296.062 209.725 297.293 205.036C297.898 202.726 297.782 200.401 296.965 198.489C296.263 196.849 295.121 195.697 293.711 195.193Z" fill="#695CFF"/>
<path d="M277.495 201.013L276.807 199.827C278.659 198.861 282.687 197.848 284.705 200.92L283.493 201.635C281.689 198.879 277.666 200.926 277.495 201.013Z" fill="#695CFF"/>
<path d="M230.291 194.836L229.174 193.994C229.59 193.501 233.316 189.176 236.544 189.279C239.56 189.384 257.983 194.562 258.765 194.783L258.358 196.08C253.078 194.59 238.825 190.707 236.496 190.632C234.365 190.561 231.296 193.643 230.291 194.836Z" fill="#695CFF"/>
<path d="M244.526 195.051C244.526 195.051 241.553 181.56 235.404 182.127C229.257 182.694 228.218 200.078 233.128 204.508C238.04 208.938 242.457 204.718 242.457 204.718L244.526 195.051Z" fill="#D3766A"/>
<path d="M235.237 187.116C235.147 187.07 235.073 187.187 235.14 187.251C238.526 190.484 239.056 194.955 238.881 199.295C238.311 197.366 237.008 195.907 234.356 196.454C234.217 196.483 234.248 196.683 234.374 196.706C236.205 197.048 237.291 197.814 237.85 199.547C238.245 200.773 238.278 202.134 238.383 203.407C238.418 203.832 239.164 203.915 239.205 203.459C239.207 203.425 239.209 203.39 239.211 203.356C241.552 198.456 240.62 189.891 235.237 187.116Z" fill="#263238"/>
<path d="M320.351 289.795C323.147 282.817 388.032 295.449 385.44 306.153C375.945 345.351 349.467 380.369 342.77 388.373C333.993 398.865 316.517 396.528 310.147 390.177C300.913 380.971 317.582 296.705 320.351 289.795Z" fill="#D3766A"/>
<path d="M315.785 309.035C314.227 312.732 313.317 316.701 312.373 320.573C311.427 324.449 310.609 328.344 309.942 332.273C308.596 340.192 307.971 348.208 307.764 356.224C307.649 360.707 307.731 365.185 307.716 369.668C307.716 369.773 307.888 369.77 307.888 369.664C307.874 365.687 308.148 361.69 308.483 357.726C308.822 353.727 309.252 349.731 309.789 345.752C310.842 337.948 312.052 330.157 313.5 322.408C313.906 320.238 314.336 318.072 314.793 315.912C315.269 313.665 315.805 311.433 316.111 309.157C316.135 308.988 315.866 308.842 315.785 309.035Z" fill="#263238"/>
<path d="M304.703 179.323C304.36 184.144 303.486 189.604 302.181 195.18C301.971 196.07 301.739 196.982 301.507 197.883C300.578 201.468 299.472 205.073 298.211 208.542C297.912 209.38 297.603 210.208 297.282 211.025C293.356 221.076 288.168 229.722 282.329 233.39C280.769 234.364 279.177 235.161 277.573 235.79C264.279 228.443 254.148 216.056 250.575 200.702C249.801 197.338 249.359 193.995 249.259 190.673C248.673 190.516 248.076 190.359 247.49 190.212C247.766 189.803 248.054 189.384 248.33 188.944C248.64 188.451 248.95 187.948 249.248 187.424C249.68 173.758 255.597 160.941 265.374 151.405C279.276 147.862 295.921 152.924 302.922 164.484C304.659 167.355 305.179 172.742 304.703 179.323Z" fill="#D3766A"/>
<path d="M275.559 189.507C274.356 189.606 273.227 189.508 272.026 189.49C270.67 189.469 269.589 189.585 268.427 188.822C267.804 188.413 267.621 187.372 267.985 186.762C268.832 185.34 270.499 184.974 272.131 184.936C273.903 184.894 275.279 185.292 276.678 186.317C278.033 187.31 277.147 189.376 275.559 189.507Z" fill="#263238"/>
<path d="M274.528 194.875C274.527 194.776 274.298 194.954 274.28 195.057C273.842 197.56 272.896 200.357 270.349 200.735C270.27 200.747 270.251 200.873 270.342 200.879C273.319 201.037 274.536 197.312 274.528 194.875Z" fill="#263238"/>
<path d="M272.728 191.836C268.57 190.739 266.558 198.7 270.41 199.716C274.202 200.718 276.214 192.758 272.728 191.836Z" fill="#263238"/>
<path d="M289.649 197.951C289.692 197.861 289.823 198.114 289.794 198.215C289.089 200.662 288.715 203.576 290.861 204.93C290.929 204.972 290.89 205.095 290.805 205.063C288.031 204.028 288.568 200.162 289.649 197.951Z" fill="#263238"/>
<path d="M292.624 195.903C296.886 196.551 295.204 204.58 291.255 203.979C287.37 203.389 289.052 195.359 292.624 195.903Z" fill="#263238"/>
<path d="M296.939 191.95C295.82 191.505 294.865 190.918 293.808 190.371C292.612 189.753 291.595 189.378 290.939 188.184C290.586 187.544 290.936 186.537 291.56 186.154C293.013 185.263 294.674 185.676 296.145 186.364C297.74 187.111 298.768 188.073 299.506 189.604C300.218 191.088 298.414 192.535 296.939 191.95Z" fill="#263238"/>
<path d="M265.814 216.239C266.292 216.958 266.712 217.894 267.638 218.183C268.525 218.461 269.684 218.314 270.592 218.198C270.681 218.186 270.744 218.288 270.673 218.35C269.758 219.143 268.186 219.413 267.03 218.939C265.901 218.477 265.563 217.379 265.535 216.294C265.531 216.142 265.743 216.134 265.814 216.239Z" fill="#263238"/>
<path d="M270.415 209.477C271.331 211.948 273.177 213.604 275.385 214.555C276.37 214.987 277.448 215.267 278.538 215.416C278.749 215.459 278.964 215.486 279.163 215.489C279.359 215.51 279.536 215.527 279.755 215.535C280.07 215.562 280.297 215.362 280.416 215.101L280.421 215.083C280.442 214.993 280.458 214.92 280.46 214.825C280.46 214.825 280.46 214.825 280.464 214.808L280.514 214.59C281.048 212.704 281.583 209.772 281.583 209.772C282.228 210.285 285.558 212.723 285.75 211.718C287.307 203.39 289.04 194.127 288.732 185.527C288.738 185.243 288.284 185.207 288.241 185.482C286.41 193.431 286.067 201.631 284.362 209.643C283.279 208.944 281.537 207.709 280.483 207.491C280.179 207.505 279.555 213.175 279.244 214.004C279.244 214.004 279.235 214.04 279.204 214.09C275.735 213.733 273.441 212.194 270.713 209.311C270.555 209.126 270.308 209.246 270.415 209.477Z" fill="#263238"/>
<path d="M277.598 214.186C277.598 214.186 275.248 216.055 272.608 216.322C271.635 216.424 270.639 216.325 269.693 215.84C267.745 214.85 268.15 213.032 268.922 211.572C269.552 210.37 270.451 209.417 270.451 209.417C270.451 209.417 272.806 212.796 277.598 214.186Z" fill="#263238"/>
<path d="M272.608 216.322C271.635 216.424 270.639 216.325 269.693 215.84C267.745 214.85 268.15 213.032 268.922 211.572C271.095 212.293 272.938 214.227 272.608 216.322Z" fill="#FF97B8"/>
<path d="M306.451 178.726C305.864 178.956 305.278 179.156 304.703 179.323C288.865 183.976 273.459 167.229 273.459 167.229C266.491 176.965 255.541 173.475 255.541 173.475C255.541 173.475 252.81 181.273 249.248 187.424C249.68 173.758 255.597 160.941 265.374 151.405C268.581 148.271 272.209 145.483 276.19 143.146C283.733 145.578 290.889 149.246 290.889 149.246C290.889 149.246 293.367 145.494 298.454 142.863C301.673 141.208 305.212 142.36 306.981 145.326C305.533 146.626 304.272 148.376 303.387 150.556C300.755 157.074 306.572 158.217 307.866 152.086C308.441 149.35 307.999 147.034 306.981 145.326C310.731 141.899 315.708 141.522 318.086 144.226C322.388 149.13 320.11 173.329 306.451 178.726Z" fill="#263238"/>
<path d="M276.909 188.787C275.129 187.382 272.872 186.481 270.395 186.334C269.665 186.292 268.935 186.313 268.238 186.408C264.555 186.848 261.392 188.996 259.7 192.015C259.457 192.444 259.246 192.874 259.081 193.335C258.704 194.278 258.472 195.295 258.406 196.353C258.074 201.342 261.425 205.764 266.225 207.232C267.099 207.494 268.028 207.661 268.99 207.724C269.223 207.735 269.466 207.745 269.698 207.745C275.294 207.745 280.05 203.836 280.88 198.617C280.924 198.313 280.957 198.009 280.979 197.695C280.99 197.464 281.001 197.234 281.001 197.014C281.001 193.733 279.42 190.757 276.909 188.787ZM269.079 206.288C263.693 205.974 259.578 201.551 259.91 196.448C260.198 192.14 263.571 188.692 267.84 187.906C268.636 187.76 269.466 187.707 270.306 187.76C271.136 187.812 271.943 187.959 272.695 188.189C273.691 188.493 274.62 188.944 275.449 189.52C278.071 191.323 279.685 194.32 279.475 197.611C279.132 202.715 274.476 206.613 269.079 206.288Z" fill="#695CFF"/>
<path d="M302.38 195.63C302.314 195.483 302.248 195.326 302.181 195.18C301.396 193.597 300.257 192.392 298.863 191.69C298.388 191.438 297.879 191.25 297.348 191.124C296.574 190.946 295.778 190.904 294.992 190.998C293.51 191.166 292.028 191.794 290.668 192.874C289.772 193.587 288.987 194.456 288.323 195.442C287.848 196.144 287.427 196.898 287.096 197.705C286.874 198.208 286.686 198.732 286.543 199.277C286.498 199.382 286.476 199.487 286.443 199.602C285.768 202.18 285.89 204.716 286.642 206.823C287.472 209.149 289.064 210.952 291.188 211.717C291.42 211.801 291.652 211.864 291.896 211.927C293.709 212.356 295.59 211.989 297.282 211.025C299.792 209.6 301.894 206.865 302.79 203.448C303.509 200.713 303.365 197.936 302.38 195.63ZM301.319 203.102C300.744 205.314 299.615 207.2 298.211 208.542C296.474 210.208 294.307 211.015 292.261 210.533C288.544 209.663 286.609 204.915 287.914 199.948C288.555 197.506 289.883 195.379 291.641 193.974C293.344 192.622 295.236 192.109 296.983 192.518C297.171 192.56 297.348 192.612 297.525 192.675C299.018 193.209 300.235 194.435 300.976 196.175C301.208 196.71 301.385 197.286 301.507 197.883C301.85 199.518 301.783 201.31 301.319 203.102Z" fill="#695CFF"/>
<path d="M280.354 198.843L279.626 197.588C281.587 196.564 285.854 195.491 287.99 198.745L286.706 199.501C284.796 196.584 280.535 198.751 280.354 198.843Z" fill="#695CFF"/>
<path d="M260.518 192.245L260.087 193.618C259.777 193.534 259.446 193.44 259.081 193.335C256.592 192.643 252.92 191.637 249.259 190.673C248.673 190.516 248.076 190.359 247.49 190.212C247.766 189.803 248.054 189.384 248.33 188.944C248.629 189.028 248.927 189.101 249.226 189.185C253.65 190.338 257.93 191.522 259.7 192.015C260.153 192.14 260.43 192.224 260.518 192.245Z" fill="#695CFF"/>
<g opacity="0.3">
<path d="M318.545 241.865C287.771 248.281 257.347 229.846 250.577 200.708C243.795 171.548 263.249 142.709 294.011 136.293C324.774 129.878 355.209 148.312 361.979 177.461C368.75 206.609 349.296 235.449 318.545 241.865Z" fill="white"/>
<path d="M256.23 215.029C268.072 235.576 293.192 247.163 318.547 241.866C323.788 240.771 328.699 239.03 333.217 236.738L256.23 215.029Z" fill="#EBEBEB"/>
<path d="M257.868 160.501L363.309 190.234C363.411 186.032 362.972 181.747 361.983 177.461C360.849 172.533 359.019 167.914 356.621 163.67L278.774 141.711C270.106 146.232 262.958 152.752 257.868 160.501Z" fill="#EBEBEB"/>
<path d="M249.636 195.385L350.073 223.707C352.468 220.984 354.568 218.042 356.364 214.933L249.416 184.775C249.11 188.255 249.181 191.802 249.636 195.385Z" fill="#EBEBEB"/>
<path d="M254.21 167.035L362.609 197.611C362.72 196.961 362.821 196.317 362.906 195.667L255.088 165.263C254.779 165.842 254.476 166.43 254.21 167.035Z" fill="#EBEBEB"/>
<path d="M296.828 135.775L344.942 149.342C343.687 148.243 342.375 147.2 341.018 146.216L301.887 135.182C300.208 135.301 298.523 135.498 296.828 135.775Z" fill="#EBEBEB"/>
</g>
<path d="M326.39 308.671L341.039 305.615L326.86 244.587L312.211 247.643L326.39 308.671Z" fill="#EBEBEB"/>
<path d="M368.207 176.156C360.672 143.754 326.842 123.263 292.635 130.392C258.44 137.523 236.813 169.588 244.35 202.001C251.875 234.413 285.705 254.896 319.911 247.765C354.106 240.625 375.731 208.569 368.207 176.156ZM318.545 241.869C287.768 248.288 257.345 229.851 250.571 200.707C243.797 171.544 263.245 142.707 294.011 136.287C324.778 129.868 355.211 148.306 361.985 177.459C368.759 206.613 349.301 235.45 318.545 241.869Z" fill="#455A64"/>
<path d="M332.432 351.635L354.585 347.014L342.014 292.909L319.861 297.529L332.432 351.635Z" fill="#263238"/>
<path d="M342.092 181.996C342.076 181.932 342.057 181.868 342.038 181.803C341.781 180.907 342.334 182.675 342.13 182.085C341.887 181.379 341.642 180.676 341.367 179.98C340.401 177.552 339.209 175.203 337.833 172.96C337.64 172.643 337.433 172.334 337.239 172.018C337.176 171.913 337.733 172.749 337.281 172.088C337.153 171.899 337.026 171.711 336.895 171.524C336.393 170.802 335.871 170.093 335.327 169.399C334.128 167.869 332.827 166.41 331.427 165.042C331.092 164.714 330.746 164.399 330.405 164.076C329.946 163.642 330.952 164.542 330.305 163.989C330.09 163.806 329.877 163.621 329.66 163.44C328.835 162.75 327.98 162.091 327.101 161.465C326.148 160.788 325.165 160.15 324.155 159.554C323.692 159.28 323.222 159.018 322.75 158.76C321.931 158.313 323.106 158.923 322.501 158.631C322.209 158.489 321.919 158.343 321.625 158.204C318.983 156.954 316.219 156.015 313.373 155.276C313.315 155.261 312.8 155.14 313.229 155.239C313.666 155.341 312.997 155.19 312.922 155.174C312.496 155.085 312.071 154.996 311.644 154.915C310.821 154.76 309.994 154.625 309.165 154.511C307.408 154.269 305.64 154.122 303.867 154.046C301.831 153.956 300.325 151.915 300.543 150.088C300.784 148.06 302.677 146.85 304.72 146.938C315.971 147.426 326.92 151.266 335.199 158.604C340.742 163.518 345.13 169.597 347.94 176.286C348.568 177.781 349.138 179.324 349.549 180.886C350.028 182.705 348.31 184.772 346.407 184.973C344.224 185.204 342.606 183.945 342.092 181.996Z" fill="white"/>
<path d="M343.647 192.528C343.966 194.446 345.864 195.757 347.889 195.455C349.913 195.153 351.297 193.355 350.978 191.436C350.66 189.518 348.761 188.207 346.737 188.509C344.713 188.811 343.329 190.61 343.647 192.528Z" fill="white"/>
<path d="M381.08 318.404C381.08 318.404 396.925 293.734 377.204 270.215C369.084 260.533 349.927 243.163 311.058 245.587C301.839 246.162 289.132 253.177 304.549 257.42C315.501 260.434 323.407 259.21 329.44 262.063C329.44 262.063 314.394 272.804 315.363 281.533C315.795 285.433 316.12 293.952 318.489 302.07C318.489 302.07 321.614 304.16 324.151 303.801C324.151 303.801 330.969 322.457 355.514 328.196L381.08 318.404Z" fill="#D3766A"/>
<path d="M368.878 267.032C362.523 264.634 348.965 259.764 336.412 259.436C322.469 259.071 295.506 261.929 295.328 271.685C295.197 278.838 305.592 278.604 305.592 278.604C305.592 278.604 294.71 282.012 296.084 288.498C297.336 294.408 305.367 293.771 305.367 293.771C305.367 293.771 299.141 296.913 301.503 302.387C304.346 308.97 316.928 301.304 325.887 305.617C327.898 306.584 368.878 267.032 368.878 267.032Z" fill="#D3766A"/>
<path d="M338.461 273.46C332.095 272.132 316.819 272.633 305.738 278.367C305.487 278.497 305.456 278.746 305.712 278.674C319.328 274.816 332.738 273.724 338.458 273.585C338.534 273.582 338.533 273.475 338.461 273.46Z" fill="#263238"/>
<path d="M337.664 286.786C332.047 286.176 316.326 287.358 305.308 293.534C305.061 293.673 305.048 293.924 305.3 293.842C319.351 289.256 331.967 287.374 337.668 286.911C337.745 286.905 337.736 286.794 337.664 286.786Z" fill="#263238"/>
<path d="M360.299 329.778C357.485 329.233 354.755 328.314 352.063 327.386C349.342 326.448 346.675 325.292 344.135 323.979C339.017 321.33 334.414 317.803 330.742 313.517C329.62 312.207 328.568 310.843 327.564 309.451C326.514 307.999 325.541 306.479 324.4 305.089C324.318 304.989 324.107 305.049 324.166 305.188C325.389 308.07 327.091 310.9 328.887 313.499C330.579 315.947 332.501 318.179 334.793 320.151C339.184 323.931 344.556 326.66 350.236 328.283C353.52 329.221 356.843 329.644 360.242 329.998C360.39 330.015 360.455 329.809 360.299 329.778Z" fill="#263238"/>
<path d="M198.858 250.826C170.372 287.084 122.821 381.559 115.834 395.449C111.09 404.876 163.1 429.724 165.308 422.868C168.136 414.089 214.645 298.175 221.154 255.885C224.718 232.72 208.715 238.28 198.858 250.826Z" fill="#D3766A"/>
<path d="M166.71 418.136C165.503 426.686 159.378 443.895 154.815 446.519C150.251 449.143 126.317 448.581 114.252 448.581C102.186 448.581 99.8121 445.395 100.01 441.458C100.208 437.523 125.527 436.773 125.527 436.773C125.527 436.773 91.714 445.958 83.2088 447.456C74.7026 448.956 55.1098 453.641 52.2751 446.956C50.9977 443.944 56.3629 440.896 56.3629 440.896C56.3629 440.896 48.1398 443.171 46.8325 439.298C45.3438 434.889 51.8792 432.461 51.8792 432.461C51.8792 432.461 46.7418 433.442 46.6234 429.85C46.3591 421.822 78.5172 417.875 78.5172 417.875C78.5172 417.875 53.8954 429.235 53.1046 422.683C52.0097 413.614 102.472 403.668 107.726 399.715C112.979 395.76 118.417 389.871 118.417 389.871L166.71 418.136Z" fill="#D3766A"/>
<path d="M100.19 443.454C100.043 442.256 100.467 441.136 101.336 440.395C102.167 439.629 103.193 439.063 104.277 438.587C106.453 437.649 108.816 437.017 111.19 436.462C115.944 435.316 120.819 434.509 125.673 433.319C120.661 433.247 115.67 433.775 110.774 434.906C108.342 435.511 105.897 436.23 103.662 437.483C102.547 438.095 101.488 438.882 100.694 439.901C99.9083 440.931 99.6551 442.359 100.19 443.454Z" fill="#263238"/>
<path d="M56.3618 440.897C59.8412 440.092 63.2687 439.16 66.6918 438.223C70.1215 437.303 73.518 436.293 76.9245 435.319L87.1097 432.296C90.5051 431.286 93.8994 430.287 97.3302 429.318C93.7578 429.634 90.2474 430.34 86.7657 431.105C83.2763 431.858 79.8443 432.805 76.4257 433.787C73.0192 434.803 69.626 435.856 66.2859 437.057C62.9413 438.239 59.6123 439.467 56.3618 440.897Z" fill="#263238"/>
<path d="M89.1657 421.314C85.8798 421.477 82.6304 421.98 79.4108 422.591C76.1835 423.184 73.0082 424.001 69.8682 424.92C66.7372 425.865 63.6348 426.91 60.6342 428.188C57.6138 429.416 54.684 430.844 51.8792 432.461C54.9892 431.445 58.0174 430.313 61.1087 429.336C64.1889 428.342 67.2658 427.349 70.3748 426.449C73.4672 425.502 76.5938 424.655 79.7183 423.784C82.8494 422.93 85.9959 422.129 89.1657 421.314Z" fill="#263238"/>
<path d="M84.192 413.667C78.8821 413.966 73.6884 415.181 68.6649 416.773C63.6525 418.401 58.7784 420.505 54.3809 423.33C59.3811 421.641 64.242 419.86 69.2102 418.29C74.1584 416.669 79.1454 415.204 84.192 413.667Z" fill="#263238"/>
<path d="M210.966 312.965L153.24 311.458C153.24 311.458 184.668 263.997 201.555 246.595C219.155 228.46 228.732 230.026 222.722 262.15C216.676 294.472 210.966 312.965 210.966 312.965Z" fill="#695CFF"/>
<path d="M175.246 303.417C173.731 304.088 172.248 304.842 170.91 305.922C172.658 305.723 174.239 305.178 175.788 304.549C177.303 303.889 178.796 303.144 180.123 302.055C178.376 302.254 176.794 302.788 175.246 303.417ZM207.486 268.665C206.789 267.219 205.993 265.815 204.842 264.557C205.052 266.202 205.628 267.701 206.28 269.168C206.988 270.615 207.784 272.019 208.935 273.276C208.724 271.621 208.149 270.122 207.486 268.665ZM180.864 278.978C180.289 280.466 179.791 281.996 179.67 283.652C180.754 282.342 181.461 280.906 182.092 279.418C182.667 277.919 183.165 276.4 183.275 274.744C182.191 276.054 181.484 277.489 180.864 278.978ZM206.28 300.399C205.694 301.897 205.207 303.427 205.097 305.083C206.158 303.773 206.888 302.327 207.508 300.849C208.083 299.351 208.57 297.831 208.702 296.175C207.618 297.485 206.911 298.921 206.28 300.399ZM223.202 238.095C222.925 238.64 222.671 239.196 222.428 239.761C221.853 241.25 221.366 242.79 221.233 244.436C222.317 243.126 223.047 241.679 223.666 240.212C223.722 240.076 223.766 239.95 223.81 239.814C223.644 239.175 223.434 238.609 223.202 238.095Z" fill="white"/>
<path d="M207.347 303.447C205.983 303.263 204.576 303.258 203.2 303.193C201.782 303.127 200.366 303.053 198.949 302.981C196.077 302.835 193.203 302.739 190.328 302.655C184.585 302.487 178.842 302.299 173.098 302.223C171.518 302.202 169.938 302.187 168.359 302.204C166.697 302.223 165.036 302.356 163.379 302.372C163.277 302.373 163.289 302.515 163.387 302.521C164.806 302.604 166.223 302.798 167.645 302.886C169.102 302.977 170.562 303.05 172.021 303.105C174.892 303.212 177.765 303.3 180.639 303.364C186.295 303.489 191.955 303.636 197.612 303.648C199.192 303.651 200.771 303.64 202.35 303.643C204.002 303.646 205.691 303.734 207.336 303.594C207.42 303.587 207.44 303.459 207.347 303.447Z" fill="#263238"/>
<path d="M222.162 277.388C222.204 277.282 222.026 277.221 221.971 277.317C220.898 279.177 219.992 281.134 219.23 283.135C219.435 282.179 219.658 281.227 219.854 280.269C220.486 277.182 221.057 274.086 221.697 271.001C221.72 270.888 221.544 270.845 221.512 270.957C220.011 276.261 218.279 281.513 216.953 286.86C215.627 292.207 214.292 297.551 213.052 302.917C212.369 305.875 211.76 309.578 211.085 312.537C209.408 312.718 207.269 312.588 205.463 312.75C205.302 312.765 205.348 313.01 205.507 313.015C207.407 313.072 209.67 313.474 211.674 313.357C211.93 313.343 216.774 294.293 218.786 285.173C219.983 282.61 221.13 280.015 222.162 277.388Z" fill="#263238"/>
<path d="M263.256 247.747C262.454 250.257 261.533 252.723 260.484 255.149C259.545 257.322 258.588 259.489 257.261 261.48C254.879 265.054 251.2 268.003 246.545 267.992C242.097 267.983 238.075 265.559 235.242 262.461C232.145 259.075 230.088 254.83 228.247 250.743C227.109 248.215 226.068 245.643 225.153 243.034C224.689 241.712 224.216 240.392 223.816 239.051C223.416 237.714 223.077 236.355 222.596 235.041C222.557 234.936 222.352 234.956 222.385 235.074C223.201 238.096 225.575 247.628 226.535 250.082C228.278 254.539 230.249 259.144 233.403 262.893C236.382 266.435 240.447 269.114 245.302 269.559C250.088 269.998 254.316 267.578 256.986 263.93C258.625 261.692 259.725 259.095 260.64 256.524C261.663 253.645 262.527 250.706 263.314 247.762C263.324 247.724 263.268 247.712 263.256 247.747Z" fill="#263238"/>
<path d="M444.457 451.161H365.147L361.604 385.1H444.457V451.161Z" fill="#DBDBDB"/>
<path d="M444.457 385.1L472.943 351.301L495.625 385.1L492.082 451.161H444.457V385.1Z" fill="#C7C7C7"/>
<path d="M389.292 340.573H473.955L504.486 387.768H494.654L473.955 355.09L450.071 391.672H354.618L389.292 340.573Z" fill="#A6A6A6"/>
<path d="M399.101 355.504C399.101 355.504 381.854 355.504 380.894 355.504L371.185 366.53C372.624 366.53 392.152 366.53 392.152 366.53L399.101 355.504Z" fill="#C7C7C7"/>
<path d="M385.306 364.638V378.065H375.175V364.638L380.241 358.641L385.306 364.638Z" fill="#DBDBDB"/>
<path d="M385.306 364.635H393.277L385.306 378.061V364.635Z" fill="#C7C7C7"/>
<path d="M382.853 364.849H377.096V374.058H382.853V364.849Z" fill="#FBFAFF"/>
<path d="M379.659 365.487H377.805V368.453H379.659V365.487Z" fill="#EBEBEB"/>
<path d="M382.145 365.487H380.291V368.453H382.145V365.487Z" fill="#EBEBEB"/>
<path d="M379.659 368.992H377.805V373.387H379.659V368.992Z" fill="#EBEBEB"/>
<path d="M382.145 368.992H380.291V373.387H382.145V368.992Z" fill="#EBEBEB"/>
<path d="M443.677 355.504C443.677 355.504 426.43 355.504 425.47 355.504L416.355 366.53C417.794 366.53 436.727 366.53 436.727 366.53L443.677 355.504Z" fill="#C7C7C7"/>
<path d="M429.882 364.638V378.065H419.75V364.638L424.817 358.641L429.882 364.638Z" fill="#DBDBDB"/>
<path d="M429.882 364.635H437.852L429.882 378.061V364.635Z" fill="#C7C7C7"/>
<path d="M427.429 364.849H421.672V374.058H427.429V364.849Z" fill="#FBFAFF"/>
<path d="M424.234 365.487H422.38V368.453H424.234V365.487Z" fill="#EBEBEB"/>
<path d="M426.72 365.487H424.867V368.453H426.72V365.487Z" fill="#EBEBEB"/>
<path d="M424.234 368.992H422.38V373.387H424.234V368.992Z" fill="#EBEBEB"/>
<path d="M426.72 368.992H424.867V373.387H426.72V368.992Z" fill="#EBEBEB"/>
<path d="M458.765 338.662H448.635V351.301H458.765V338.662Z" fill="#DBDBDB"/>
<path d="M458.766 338.662H466.735V340.693L458.766 351.298V338.662Z" fill="#C7C7C7"/>
<path d="M458.765 334.364H447.499V338.662H458.765V334.364Z" fill="#C7C7C7"/>
<path d="M467.601 334.364H458.766V338.662H467.601V334.364Z" fill="#A6A6A6"/>
<path d="M386.074 397.076H373.529V417.144H386.074V397.076Z" fill="#FBFAFF"/>
<path d="M379.114 398.467H375.073V404.929H379.114V398.467Z" fill="#EBEBEB"/>
<path d="M384.531 398.467H380.491V404.929H384.531V398.467Z" fill="#EBEBEB"/>
<path d="M379.114 406.105H375.073V415.681H379.114V406.105Z" fill="#EBEBEB"/>
<path d="M384.531 406.105H380.491V415.681H384.531V406.105Z" fill="#EBEBEB"/>
<path d="M432.659 397.076H420.115V417.144H432.659V397.076Z" fill="#FBFAFF"/>
<path d="M425.698 398.467H421.658V404.929H425.698V398.467Z" fill="#EBEBEB"/>
<path d="M431.116 398.467H427.075V404.929H431.116V398.467Z" fill="#EBEBEB"/>
<path d="M425.698 406.105H421.658V415.681H425.698V406.105Z" fill="#EBEBEB"/>
<path d="M431.116 406.105H427.075V415.681H431.116V406.105Z" fill="#EBEBEB"/>
<path d="M386.074 424.963H373.529V445.031H386.074V424.963Z" fill="#FBFAFF"/>
<path d="M379.114 426.355H375.073V432.817H379.114V426.355Z" fill="#EBEBEB"/>
<path d="M384.531 426.355H380.491V432.817H384.531V426.355Z" fill="#EBEBEB"/>
<path d="M379.114 433.993H375.073V443.568H379.114V433.993Z" fill="#EBEBEB"/>
<path d="M384.531 433.993H380.491V443.568H384.531V433.993Z" fill="#EBEBEB"/>
<path d="M432.659 424.963H420.115V445.031H432.659V424.963Z" fill="#FBFAFF"/>
<path d="M425.698 426.355H421.658V432.817H425.698V426.355Z" fill="#EBEBEB"/>
<path d="M431.116 426.355H427.075V432.817H431.116V426.355Z" fill="#EBEBEB"/>
<path d="M425.698 433.993H421.658V443.568H425.698V433.993Z" fill="#EBEBEB"/>
<path d="M431.116 433.993H427.075V443.568H431.116V433.993Z" fill="#EBEBEB"/>
<path d="M409.303 397.076H396.759V417.144H409.303V397.076Z" fill="#FBFAFF"/>
<path d="M402.342 398.467H398.302V404.929H402.342V398.467Z" fill="#EBEBEB"/>
<path d="M407.759 398.467H403.719V404.929H407.759V398.467Z" fill="#EBEBEB"/>
<path d="M402.342 406.105H398.302V415.681H402.342V406.105Z" fill="#EBEBEB"/>
<path d="M407.759 406.105H403.719V415.681H407.759V406.105Z" fill="#EBEBEB"/>
<path d="M409.303 425.097H396.759V445.165H409.303V425.097Z" fill="#FBFAFF"/>
<path d="M402.342 426.489H398.302V432.951H402.342V426.489Z" fill="#EBEBEB"/>
<path d="M407.759 426.489H403.719V432.951H407.759V426.489Z" fill="#EBEBEB"/>
<path d="M402.342 434.126H398.302V443.701H402.342V434.126Z" fill="#EBEBEB"/>
<path d="M407.759 434.126H403.719V443.701H407.759V434.126Z" fill="#EBEBEB"/>
<path d="M466.994 417.145H479.538V397.077H466.994V417.145Z" fill="#FBFAFF"/>
<path d="M477.996 398.467H473.955V404.929H477.996V398.467Z" fill="#EBEBEB"/>
<path d="M472.578 398.467H468.538V404.929H472.578V398.467Z" fill="#EBEBEB"/>
<path d="M477.996 406.105H473.955V415.681H477.996V406.105Z" fill="#EBEBEB"/>
<path d="M472.578 406.105H468.538V415.681H472.578V406.105Z" fill="#EBEBEB"/>
<path d="M466.994 386.124H479.538V369.134H466.994V386.124Z" fill="#FBFAFF"/>
<path d="M477.996 370.526H473.955V376.988H477.996V370.526Z" fill="#EBEBEB"/>
<path d="M472.578 370.526H468.538V376.988H472.578V370.526Z" fill="#EBEBEB"/>
<path d="M477.996 378.226H473.955V384.688H477.996V378.226Z" fill="#EBEBEB"/>
<path d="M472.578 378.226H468.538V384.688H472.578V378.226Z" fill="#EBEBEB"/>
<path d="M465.196 451.297L480.407 451.365L480.537 425.193L465.326 425.125L465.196 451.297Z" fill="#FBFAFF"/>
<path d="M471.295 426.922L471.276 430.84L474.55 430.855L474.569 426.936L471.295 426.922Z" fill="#EBEBEB"/>
<path d="M467.005 426.902L466.985 430.821L470.259 430.836L470.278 426.917L467.005 426.902Z" fill="#EBEBEB"/>
<path d="M469.375 445.075L476.285 445.106L476.29 444.161L469.379 444.13L469.375 445.075Z" fill="#EBEBEB"/>
<path d="M475.589 426.942L475.57 430.861L478.844 430.876L478.863 426.957L475.589 426.942Z" fill="#EBEBEB"/>
<path d="M471.271 431.875L471.251 435.794L474.525 435.808L474.544 431.89L471.271 431.875Z" fill="#EBEBEB"/>
<path d="M467.014 431.887L466.995 435.806L470.269 435.821L470.288 431.902L467.014 431.887Z" fill="#EBEBEB"/>
<path d="M475.562 431.894L475.543 435.813L478.817 435.828L478.836 431.909L475.562 431.894Z" fill="#EBEBEB"/>
<path d="M471.246 436.829L471.227 440.748L474.5 440.763L474.52 436.844L471.246 436.829Z" fill="#EBEBEB"/>
<path d="M466.955 436.81L466.936 440.729L470.21 440.743L470.229 436.825L466.955 436.81Z" fill="#EBEBEB"/>
<path d="M475.536 436.847L475.517 440.766L478.791 440.78L478.81 436.862L475.536 436.847Z" fill="#EBEBEB"/>
<path d="M226.175 451.345H155.724L152.577 418.991H226.175V451.345Z" fill="#DBDBDB"/>
<path d="M226.155 418.953L251.46 388.929L271.608 418.953L268.462 451.305H226.155V418.953Z" fill="#C7C7C7"/>
<path d="M176.754 379.438H253.277L281.621 424.829H273.891L252.232 390.663L231.434 424.829H146.642L176.754 379.438Z" fill="#A6A6A6"/>
<path d="M174.477 430.997H163.334V446.09H174.477V430.997Z" fill="#FBFAFF"/>
<path d="M168.293 432.233H164.704V437.973H168.293V432.233Z" fill="#DBDBDB"/>
<path d="M173.107 432.233H169.518V437.973H173.107V432.233Z" fill="#DBDBDB"/>
<path d="M168.293 439.074H164.704V444.814H168.293V439.074Z" fill="#DBDBDB"/>
<path d="M173.107 439.074H169.518V444.814H173.107V439.074Z" fill="#DBDBDB"/>
<path d="M215.418 430.997H204.275V446.09H215.418V430.997Z" fill="#FBFAFF"/>
<path d="M209.234 432.233H205.645V437.973H209.234V432.233Z" fill="#DBDBDB"/>
<path d="M214.046 432.233H210.457V437.973H214.046V432.233Z" fill="#DBDBDB"/>
<path d="M209.234 439.074H205.645V444.814H209.234V439.074Z" fill="#DBDBDB"/>
<path d="M214.046 439.074H210.457V444.814H214.046V439.074Z" fill="#DBDBDB"/>
<path d="M195.025 430.195H182.732V451.345H195.025V430.195Z" fill="#FBFAFF"/>
<path d="M190.201 431.649H187.556V434.816H190.201V431.649Z" fill="#DBDBDB"/>
<path d="M193.669 431.649H191.024V434.816H193.669V431.649Z" fill="#DBDBDB"/>
<path d="M191.67 445.536H186.086V446.3H191.67V445.536Z" fill="#DBDBDB"/>
<path d="M186.733 431.649H184.087V434.816H186.733V431.649Z" fill="#DBDBDB"/>
<path d="M190.201 435.653H187.556V438.82H190.201V435.653Z" fill="#DBDBDB"/>
<path d="M193.669 435.653H191.024V438.82H193.669V435.653Z" fill="#DBDBDB"/>
<path d="M186.733 435.653H184.087V438.82H186.733V435.653Z" fill="#DBDBDB"/>
<path d="M190.201 439.656H187.556V442.823H190.201V439.656Z" fill="#DBDBDB"/>
<path d="M193.669 439.656H191.024V442.823H193.669V439.656Z" fill="#DBDBDB"/>
<path d="M186.733 439.656H184.087V442.823H186.733V439.656Z" fill="#DBDBDB"/>
<path d="M192.937 377.624H183.938V388.851H192.937V377.624Z" fill="#DBDBDB"/>
<path d="M192.937 377.624H200.017V379.427L192.937 388.848V377.624Z" fill="#C7C7C7"/>
<path d="M192.937 373.806H182.929V377.624H192.937V373.806Z" fill="#C7C7C7"/>
<path d="M200.785 373.806H192.937V377.624H200.785V373.806Z" fill="#A6A6A6"/>
<path d="M254.031 451.355H276.879L279.049 429.046H254.031V451.355Z" fill="#C7C7C7"/>
<path d="M254.031 429.046L242.734 424.206L242.989 451.355H254.031V429.046Z" fill="#DBDBDB"/>
<path d="M271.522 434.815H261.915V451.345H271.522V434.815Z" fill="#FBFAFF"/>
<path d="M267.752 435.952H265.684V438.427H267.752V435.952Z" fill="#DBDBDB"/>
<path d="M270.462 435.952H268.395V438.427H270.462V435.952Z" fill="#DBDBDB"/>
<path d="M268.901 445.69H264.536V446.288H268.901V445.69Z" fill="#DBDBDB"/>
<path d="M265.042 435.952H262.975V438.427H265.042V435.952Z" fill="#DBDBDB"/>
<path d="M241.005 423.098H274.205L284.938 430.832H253.059L241.005 423.098Z" fill="#A6A6A6"/>
<path d="M253.059 430.832H241.005V423.098L253.059 430.832Z" fill="#C7C7C7"/>
<path d="M245.926 411.789C245.926 414.769 248.475 417.185 251.621 417.185C254.766 417.185 257.315 414.769 257.315 411.789C257.315 408.808 254.766 406.392 251.621 406.392C248.475 406.392 245.926 408.809 245.926 411.789Z" fill="#FBFAFF"/>
<path d="M247.198 411.791C247.198 414.105 249.182 415.976 251.624 415.976C252.003 415.976 252.374 415.934 252.727 415.835C253.432 415.668 254.076 415.342 254.596 414.891C255.486 414.122 256.041 413.019 256.041 411.791C256.041 409.477 254.057 407.597 251.624 407.597C251.245 407.597 250.865 407.638 250.512 407.738C249.993 407.855 249.516 408.072 249.083 408.365C247.948 409.116 247.198 410.37 247.198 411.791Z" fill="#C7C7C7"/>
<path d="M251.009 416.711H252.232V406.775H251.009V416.711Z" fill="#FBFAFF"/>
<path d="M256.863 412.321V411.162H246.377V412.321H256.863Z" fill="#FBFAFF"/>
<path d="M286.589 451.355H250.982L248.555 426.401H286.589V451.355Z" fill="#695CFF"/>
<path opacity="0.2" d="M286.589 451.355H250.982L248.555 426.401H286.589V451.355Z" fill="black"/>
<path d="M286.589 426.401L306.107 403.244L321.646 426.401L319.219 451.355H286.589V426.401Z" fill="#695CFF"/>
<path d="M288.94 429.445H240.635L270.019 394.436H306.311L328.119 429.445H322.577L306.311 405.46L288.94 429.445Z" fill="#695CFF"/>
<path opacity="0.4" d="M288.94 429.445H240.635L270.019 394.436H306.311L328.119 429.445H322.577L306.311 405.46L288.94 429.445Z" fill="black"/>
<path d="M337.698 363.463H327.631V376.022H337.698V363.463Z" fill="#695CFF"/>
<path opacity="0.2" d="M337.698 363.463H327.631V376.022H337.698V363.463Z" fill="black"/>
<path d="M345.618 363.463H337.698V376.018H345.618V363.463Z" fill="#695CFF"/>
<path d="M337.699 359.194H326.504V363.464H337.699V359.194Z" fill="#695CFF"/>
<path opacity="0.5" d="M337.699 359.194H326.504V363.464H337.699V359.194Z" fill="black"/>
<path d="M346.478 359.194H337.698V363.464H346.478V359.194Z" fill="#695CFF"/>
<path opacity="0.4" d="M346.478 359.194H337.698V363.464H346.478V359.194Z" fill="black"/>
<path d="M373.063 451.321H294.259L290.739 415.132H373.063V451.321Z" fill="#695CFF"/>
<path opacity="0.2" d="M373.063 451.321H294.259L290.739 415.132H373.063V451.321Z" fill="black"/>
<path d="M373.063 415.132L401.367 381.549L423.903 415.132L420.384 451.321H373.063V415.132Z" fill="#695CFF"/>
<path d="M401.026 383.674L424.291 417.771H432.423L401.722 370.888H317.894L275.432 421.662H377.811L401.026 383.674Z" fill="#695CFF"/>
<path opacity="0.5" d="M401.026 383.674L424.291 417.771H432.423L401.722 370.888H317.894L275.432 421.662H377.811L401.026 383.674Z" fill="black"/>
<path d="M394.011 420.209H406.475V403.326H394.011V420.209Z" fill="#FBFAFF"/>
<path d="M404.942 404.709H400.927V411.13H404.942V404.709Z" fill="#695CFF"/>
<path d="M399.559 404.709H395.544V411.13H399.559V404.709Z" fill="#695CFF"/>
<path d="M404.942 412.361H400.927V418.782H404.942V412.361Z" fill="#695CFF"/>
<path d="M399.559 412.361H395.544V418.782H399.559V412.361Z" fill="#695CFF"/>
<path d="M315.235 428.561H302.771V445.443H315.235V428.561Z" fill="#FBFAFF"/>
<path d="M308.32 429.943H304.305V436.363H308.32V429.943Z" fill="#695CFF"/>
<path d="M313.703 429.943H309.688V436.363H313.703V429.943Z" fill="#695CFF"/>
<path d="M308.32 437.594H304.305V444.016H308.32V437.594Z" fill="#695CFF"/>
<path d="M313.703 437.594H309.688V444.016H313.703V437.594Z" fill="#695CFF"/>
<path d="M338.133 428.561H325.668V445.443H338.133V428.561Z" fill="#FBFAFF"/>
<path d="M331.215 429.943H327.201V436.363H331.215V429.943Z" fill="#695CFF"/>
<path d="M336.599 429.943H332.585V436.363H336.599V429.943Z" fill="#695CFF"/>
<path d="M331.215 437.594H327.201V444.016H331.215V437.594Z" fill="#695CFF"/>
<path d="M336.599 437.594H332.585V444.016H336.599V437.594Z" fill="#695CFF"/>
<path d="M361.03 428.561H348.566V445.443H361.03V428.561Z" fill="#FBFAFF"/>
<path d="M354.114 429.943H350.099V436.363H354.114V429.943Z" fill="#695CFF"/>
<path d="M359.495 429.943H355.482V436.363H359.495V429.943Z" fill="#695CFF"/>
<path d="M354.114 437.594H350.099V444.016H354.114V437.594Z" fill="#695CFF"/>
<path d="M359.495 437.594H355.482V444.016H359.495V437.594Z" fill="#695CFF"/>
<path d="M393.368 451.321H407.118V427.663H393.368V451.321Z" fill="#FBFAFF"/>
<path d="M401.722 429.29H398.764V432.832H401.722V429.29Z" fill="#695CFF"/>
<path d="M397.843 429.29H394.884V432.832H397.843V429.29Z" fill="#695CFF"/>
<path d="M397.12 445.679H403.366V444.824H397.12V445.679Z" fill="#695CFF"/>
<path d="M405.601 429.29H402.643V432.832H405.601V429.29Z" fill="#695CFF"/>
<path d="M401.722 433.768H398.764V437.31H401.722V433.768Z" fill="#695CFF"/>
<path d="M397.843 433.768H394.884V437.31H397.843V433.768Z" fill="#695CFF"/>
<path d="M405.601 433.768H402.643V437.31H405.601V433.768Z" fill="#695CFF"/>
<path d="M401.722 438.246H398.764V441.789H401.722V438.246Z" fill="#695CFF"/>
<path d="M397.843 438.246H394.884V441.789H397.843V438.246Z" fill="#695CFF"/>
<path d="M405.601 438.246H402.643V441.789H405.601V438.246Z" fill="#695CFF"/>
<path d="M350.348 383.043C350.348 383.043 333.21 383.043 332.257 383.043L322.958 393.998C324.388 393.998 343.443 393.998 343.443 393.998L350.348 383.043Z" fill="#695CFF"/>
<path opacity="0.4" d="M350.348 383.043C350.348 383.043 333.21 383.043 332.257 383.043L322.958 393.998C324.388 393.998 343.443 393.998 343.443 393.998L350.348 383.043Z" fill="black"/>
<path d="M336.641 392.119V405.46H326.574V392.119L331.608 386.16L336.641 392.119Z" fill="#695CFF"/>
<path opacity="0.2" d="M336.641 392.119V405.46H326.574V392.119L331.608 386.16L336.641 392.119Z" fill="black"/>
<path d="M336.641 392.115H344.56L336.641 405.455V392.115Z" fill="#695CFF"/>
<path d="M334.203 392.328H328.483V401.479H334.203V392.328Z" fill="#FBFAFF"/>
<path d="M331.03 392.962H329.188V395.909H331.03V392.962Z" fill="#695CFF"/>
<path d="M333.5 392.962H331.657V395.909H333.5V392.962Z" fill="#695CFF"/>
<path d="M331.03 396.445H329.188V400.811H331.03V396.445Z" fill="#695CFF"/>
<path d="M333.5 396.445H331.657V400.811H333.5V396.445Z" fill="#695CFF"/>
<path d="M455.253 255.628C469.927 267.46 471.701 288.335 459.214 302.24C454.168 307.859 447.564 311.479 440.501 313.017L432.746 328.033L425.235 313.122C419.784 312.017 414.546 309.641 410.022 305.994C395.347 294.162 393.573 273.287 406.06 259.382C418.548 245.477 440.578 243.796 455.253 255.628Z" fill="white"/>
<path d="M455.253 255.628C460.096 259.611 463.929 264.775 465.862 270.607C466.441 272.035 466.69 273.55 467.077 275.03C467.263 276.543 467.579 278.048 467.567 279.578C467.746 282.626 467.396 285.693 466.674 288.667C466.024 291.672 464.704 294.502 463.212 297.21C462.371 298.518 461.578 299.86 460.547 301.048C459.602 302.295 458.546 303.463 457.403 304.554C452.84 308.925 446.956 312.051 440.614 313.481L440.952 313.226L433.302 328.291L432.747 329.384L432.189 328.286L424.624 313.399L425.094 313.75C414.488 311.721 405.244 304.622 400.656 295.411C398.352 290.808 397.181 285.715 397.235 280.636C397.281 275.554 398.649 270.515 401.044 266.003C403.454 261.495 406.928 257.499 411.167 254.451C415.418 251.419 420.388 249.335 425.58 248.353C435.976 246.256 447.228 249.114 455.253 255.628ZM455.253 255.628C447.178 249.166 435.939 246.404 425.623 248.557C420.479 249.613 415.603 251.766 411.467 254.822C407.344 257.896 404.01 261.882 401.735 266.329C399.474 270.781 398.235 275.71 398.284 280.642C398.344 285.569 399.538 290.47 401.774 294.902C403.974 299.369 407.434 303.188 411.45 306.273C415.529 309.297 420.321 311.44 425.376 312.496L425.705 312.564L425.846 312.847L433.303 327.782L432.191 327.777L440.05 312.809L440.158 312.603L440.388 312.554C446.575 311.268 452.376 308.319 456.933 304.105C458.074 303.054 459.132 301.924 460.084 300.713C461.121 299.561 461.924 298.253 462.777 296.977C464.295 294.333 465.655 291.558 466.353 288.594C467.118 285.661 467.54 282.618 467.369 279.585C467.392 278.064 467.088 276.566 466.914 275.057C466.54 273.584 466.303 272.071 465.735 270.646C463.854 264.823 460.068 259.642 455.253 255.628Z" fill="#263238"/>
<path d="M442.118 272.415C441.829 272.112 441.403 271.786 440.845 271.434C440.286 271.086 439.638 270.753 438.901 270.435C438.166 270.117 437.358 269.843 436.48 269.618C435.597 269.388 434.694 269.248 433.765 269.185V278.599L434.679 278.781C436.405 279.173 437.967 279.614 439.357 280.098C440.748 280.582 441.923 281.174 442.884 281.874C443.846 282.57 444.588 283.424 445.119 284.443C445.646 285.456 445.907 286.693 445.907 288.148C445.907 289.757 445.603 291.126 444.997 292.263C444.387 293.403 443.548 294.351 442.479 295.105C441.405 295.864 440.158 296.434 438.734 296.811C437.312 297.189 435.785 297.396 434.153 297.426V302.199H431.657V297.333C429.354 297.181 427.163 296.753 425.081 296.038C423.003 295.327 421.097 294.332 419.372 293.06L421.821 288.697C422.172 289.059 422.683 289.456 423.356 289.877C424.027 290.302 424.812 290.713 425.707 291.105C426.602 291.501 427.585 291.849 428.659 292.152C429.729 292.456 430.842 292.667 431.995 292.788V283.374C431.803 283.315 431.6 283.26 431.393 283.215C431.186 283.171 430.987 283.118 430.796 283.055C429.097 282.63 427.621 282.186 426.355 281.716C425.09 281.247 424.044 280.676 423.212 280.01C422.38 279.343 421.748 278.563 421.317 277.668C420.884 276.772 420.669 275.688 420.669 274.415C420.669 272.931 420.939 271.613 421.486 270.458C422.029 269.308 422.797 268.316 423.789 267.48C424.777 266.647 425.937 265.996 427.265 265.527C428.593 265.057 430.058 264.76 431.659 264.639V260.047H434.154V264.639C436.232 264.761 438.153 265.157 439.91 265.823C441.671 266.49 443.222 267.292 444.566 268.232L442.118 272.415ZM426.282 273.595C426.282 274.868 426.751 275.823 427.696 276.459C428.641 277.095 430.07 277.658 431.991 278.143V269.184C430.038 269.276 428.597 269.706 427.672 270.479C426.743 271.253 426.282 272.292 426.282 273.595ZM440.15 288.694C440.15 287.357 439.587 286.351 438.471 285.67C437.351 284.986 435.785 284.372 433.765 283.828V292.831C435.816 292.802 437.39 292.439 438.495 291.739C439.595 291.043 440.15 290.026 440.15 288.694Z" fill="#FFC727"/>
</svg>
