<svg width="463" height="325" viewBox="0 0 463 325" fill="none" xmlns="http://www.w3.org/2000/svg">
<path d="M195.97 62.419C180.6 6.662 111.337 -11.299 71.6441 30.371C71.0741 30.969 70.5051 31.578 69.9351 32.196C13.0281 94.056 39.9111 246.499 158.675 285.136C277.439 323.773 400.969 253.218 407.909 190.146C414.849 127.074 360.057 107.256 275.027 124.892C226.985 134.856 205.538 97.129 195.97 62.419Z" fill="#EFEFEF"/>
<path d="M294.765 71.956C278.875 74.543 274.471 88.621 286.74 98.608C290.795 101.909 296.587 104.652 304.837 106.02C336.266 111.234 352.943 97.329 340.345 79.3C332.571 68.173 310.513 69.392 294.765 71.956Z" fill="#BEB9FA"/>
<path d="M48.8462 185.903C41.0432 171.821 26.3052 172.432 21.0502 187.353C19.3132 192.285 18.6882 198.662 20.1872 206.89C25.8962 238.232 44.6182 249.232 57.3312 231.285C65.1782 220.208 56.5792 199.859 48.8462 185.903Z" fill="#E0D5F8"/>
<path d="M419.109 197.476C417.645 205.139 423.973 210.567 431.143 207.614C433.513 206.638 435.903 204.756 438.03 201.448C446.131 188.846 442.028 178.036 430.749 179.146C423.786 179.831 420.559 189.882 419.109 197.476Z" fill="#E0D5F8"/>
<path d="M378.938 116.611C386.575 118.205 392.11 111.971 389.279 104.752C388.343 102.366 386.503 99.944 383.232 97.761C370.77 89.447 359.892 93.365 360.809 104.661C361.375 111.634 371.37 115.032 378.938 116.611Z" fill="#E0D5F8"/>
<path d="M193.317 34.609C199.364 39.539 207.147 36.551 207.956 28.839C208.224 26.29 207.704 23.292 205.804 19.849C198.566 6.732 187.105 5.205 182.721 15.656C180.015 22.108 187.325 29.724 193.317 34.609Z" fill="#E0D5F8"/>
<path d="M435.138 309.803C437.761 310.241 440.497 309.507 442.324 307.575C443.515 306.316 444.324 304.761 444.323 303.271C444.323 303.25 444.323 303.228 444.323 303.207C444.288 292.518 457.421 293.229 461.637 280.16C465.853 267.091 449.192 265.99 439.675 274.059C432.833 279.861 424.621 271.756 414.675 278.523C406.04 284.396 410.849 298.857 396.685 294.336C392.162 292.891 388.112 294.284 384.694 296.849C380.759 299.802 378.197 303.941 377.13 308.436L378.258 309.233C406.196 326.356 418.785 307.072 435.138 309.803Z" fill="#7D74F5"/>
<path d="M407.456 309.232L444.493 285.458C444.989 285.14 445.132 284.479 444.814 283.984C444.496 283.488 443.835 283.345 443.34 283.663L403.507 309.232H407.456Z" fill="#695CFF"/>
<path d="M405.461 238.502C403.898 215.199 403.64 190.763 405.375 174.561C407.641 153.394 412.766 138.659 420.609 130.767C421.129 130.244 421.974 130.241 422.498 130.761C423.021 131.281 423.024 132.127 422.504 132.65C408.793 146.447 403.863 183.494 408.218 239.86L405.461 238.502Z" fill="#5D51F2"/>
<path d="M408.967 155.861C408.967 155.861 397.803 155.843 398.601 136.216C398.601 136.216 415.682 141.089 408.967 155.861Z" fill="#695CFF"/>
<path d="M408.032 165.958C408.032 165.958 407.428 154.81 427.07 154.515C427.07 154.515 423.154 171.841 408.032 165.958Z" fill="#695CFF"/>
<path d="M416.57 138.427C416.57 138.427 412.283 128.118 430.702 121.291C430.702 121.291 432.789 138.932 416.57 138.427Z" fill="#695CFF"/>
<path d="M405.525 186.215C405.525 186.215 395.013 189.975 389.125 171.234C389.125 171.234 406.848 170.042 405.525 186.215Z" fill="#695CFF"/>
<path d="M406.13 196.646C406.13 196.646 403.608 185.77 422.902 182.083C422.902 182.083 422.041 199.825 406.13 196.646Z" fill="#695CFF"/>
<path d="M405.539 211.01C405.539 211.01 395.1 214.968 388.858 196.343C388.858 196.343 406.555 194.816 405.539 211.01Z" fill="#695CFF"/>
<path d="M81.5632 290.437L78.5212 290.317L76.9082 290.252L72.3382 290.069C72.3382 290.069 30.1002 218.364 56.5602 194.98C64.7062 187.781 78.9472 193.75 75.7992 226.836C72.8812 257.507 81.5632 290.437 81.5632 290.437Z" fill="#695CFF"/>
<path d="M78.5213 290.317L76.9083 290.252C69.5343 272.878 65.8123 254.215 63.9643 241.115C61.7703 225.56 61.6682 214.265 61.6682 214.153C61.6642 213.75 61.9892 213.42 62.3922 213.419C62.7952 213.415 63.1252 213.74 63.1272 214.142C63.1282 214.255 63.2283 225.471 65.4133 240.935C67.2723 254.099 71.0343 272.915 78.5213 290.317Z" fill="#5D51F2"/>
<path d="M89.9543 304.803L85.8233 306.337L83.6313 307.15L77.4223 309.452C77.4223 309.452 -18.9727 237.172 3.35628 191.183C10.2303 177.025 32.5853 177.065 46.8143 223.03C60.0053 265.638 89.9543 304.803 89.9543 304.803Z" fill="#7D74F5"/>
<path d="M85.8234 306.337L83.6314 307.15C64.0974 288.044 48.7244 265.179 38.9564 248.704C27.3574 229.141 20.9274 214.106 20.8664 213.956C20.6364 213.419 20.8874 212.798 21.4244 212.572C21.9614 212.342 22.5824 212.593 22.8094 213.128C22.8734 213.279 29.2574 228.21 40.7924 247.656C50.6114 264.21 66.1224 287.257 85.8234 306.337Z" fill="#695CFF"/>
<path d="M419.448 308.893C419.401 307.227 419.205 305.544 418.84 303.874C415.374 288.01 424.802 285.017 437.233 280.007C449.66 274.996 451.139 260.113 442.338 247.746C433.535 235.376 449.351 225.435 443.528 206.82C437.704 188.205 417.478 200.587 413.053 217.748C409.874 230.087 393.703 227.417 387.715 243.419C382.513 257.31 399.947 270.14 379.812 276.508C373.381 278.539 369.826 283.475 367.964 289.252C365.821 295.903 366.242 302.805 368.689 308.892L419.448 308.893Z" fill="#695CFF"/>
<path d="M394.821 308.893L427.986 227.02C428.3 226.245 427.925 225.361 427.149 225.047C426.374 224.733 425.49 225.108 425.176 225.884L391.551 308.893H394.821Z" fill="#5D51F2"/>
<path d="M118.486 61.37C118.486 61.37 119.183 46.63 110.218 43.799C96.2583 39.39 92.3723 46.63 90.2183 51.414C87.4573 57.545 88.6343 69.571 96.9633 70.732C109.397 72.466 117.718 65.489 118.486 61.37Z" fill="#403657"/>
<path d="M127.485 110.661C134.74 110.661 141.007 105.577 142.493 98.475C143.563 93.36 144.608 88.832 144.608 86.288V86.222C144.673 85.418 144.709 84.614 144.715 83.822C144.81 72.191 137.64 50.948 112.418 54.324C112.418 54.324 91.4904 56.712 89.1084 77.163C89.1084 77.163 88.1164 86.598 87.4574 93.43C87.4454 93.551 87.4334 93.671 87.4214 93.79C86.5014 102.82 93.6024 110.659 102.678 110.659H127.485V110.661Z" fill="#403657"/>
<path d="M157.428 134.97C157.428 134.97 161.888 170.301 166.982 188.439C166.982 188.439 174.22 185.068 183.693 180.491C193.965 175.529 208.732 166.475 208.732 166.475L212.464 175.465C212.464 175.465 174.319 211.466 161.684 213.505C149.049 215.543 141.305 170.301 141.305 170.301L157.428 134.97Z" fill="#695CFF"/>
<path d="M207.951 167.529C207.951 167.529 206.903 162.509 209.149 159.112C211.395 155.715 214.815 149.355 218.83 148.027C222.19 146.916 217.233 152.587 217.085 156.185C217.085 156.185 222.082 155.558 225.686 154.387C228.856 153.357 235.128 152.072 238.038 151.5C238.835 151.343 239.347 152.348 238.733 152.88C237.741 153.74 235.668 154.821 231.381 155.854C231.381 155.854 241.83 153.876 242.914 155.476C243.998 157.076 230.889 159.31 230.889 159.31C230.889 159.31 241.06 158.708 241.325 160.304C241.486 161.275 230.949 163.5 230.949 163.5C230.949 163.5 240.565 163.758 238.239 165.276C237.562 165.718 218.946 167.813 212.465 175.465C212.465 175.465 208.105 170.959 207.951 167.529Z" fill="#FFA681"/>
<path d="M93.1074 128.011C93.1074 128.011 71.7674 134.305 53.3894 138.451C53.3894 138.451 52.9124 130.481 52.4314 119.971C51.9094 108.575 52.8484 91.279 52.8484 91.279L43.1654 92.273C43.1654 92.273 29.6444 142.952 33.8614 155.035C38.0794 167.119 91.6374 150.192 91.6374 150.192L93.1074 128.011Z" fill="#695CFF"/>
<path d="M52.2934 92.469C52.2934 92.469 57.2074 91.003 59.1264 87.411C61.0464 83.819 66.3494 76.586 63.0764 73.908C61.8814 72.93 61.0204 77.196 57.9254 79.038C57.9254 79.038 56.1004 74.345 55.4154 70.617C54.8124 67.338 52.9594 61.21 52.0794 58.379C51.8384 57.604 50.7104 57.631 50.5354 58.424C50.2514 59.706 50.2864 62.044 51.4174 66.306C51.4174 66.306 48.1874 56.174 46.2634 55.982C44.3404 55.79 48.6114 68.383 48.6114 68.383C48.6114 68.383 44.3024 59.15 42.7734 59.677C41.8424 59.997 44.8974 70.324 44.8974 70.324C44.8974 70.324 40.0964 61.988 39.8674 64.756C39.8004 65.562 46.8134 82.933 43.1654 92.274C43.1654 92.274 49.2034 93.965 52.2934 92.469Z" fill="#FFA681"/>
<path d="M156.63 271.86L156.8 272.615C140.183 283.866 78.0254 276.184 78.0254 276.184C78.1324 274.88 78.2704 273.516 78.4524 272.106C78.6464 270.533 78.8874 268.905 79.1634 267.222C79.9144 262.697 80.9214 257.805 82.0524 252.77C82.4164 251.185 82.7794 249.577 83.1624 247.961C84.2844 243.156 85.4784 238.283 86.6084 233.537C86.9994 231.905 87.3834 230.296 87.7544 228.696C88.2724 226.475 88.7624 224.29 89.2324 222.172C89.8444 219.354 90.3904 216.647 90.8484 214.098C91.1564 212.383 91.4254 210.739 91.6304 209.178C91.8674 207.526 92.0294 205.965 92.1284 204.519C91.1404 200.868 90.2194 197.291 89.3624 193.822C88.9354 192.056 88.5164 190.329 88.1054 188.621C86.8284 183.156 85.7064 177.955 84.7264 173.083C84.3784 171.313 84.0344 169.59 83.7224 167.91C82.6354 162.164 81.7584 156.964 81.0514 152.427C80.7784 150.617 80.5214 148.93 80.2964 147.337C80.0474 145.594 79.8344 143.982 79.6484 142.52C78.8144 136.086 78.5264 132.439 78.5264 132.439C78.6724 132.321 78.8264 132.214 78.9844 132.099C80.8694 130.759 83.8174 129.499 87.0934 128.38C90.5514 127.194 94.3764 126.163 97.7474 125.349C98.2574 125.227 98.7594 125.108 99.2494 124.993C103.679 123.958 106.991 123.357 106.991 123.357C122.063 126.515 126.363 124.483 126.363 124.483L134.026 126.743L134.927 127.059L140.511 129.019L140.736 129.102L150.75 132.627L157.428 134.97L154.836 146.924L153.706 152.144L150.292 167.88L149.17 173.081L145.771 188.762L144.653 193.911L141.839 206.904L142.4 209.386L143.499 214.203L145.242 221.862L146.827 228.789L147.918 233.59L151.198 248.034L152.293 252.808L155.545 267.086L156.63 271.86Z" fill="#7D74F5"/>
<path d="M134.926 127.059C133.322 136.48 128.754 145.958 119.258 146.981C107.786 148.222 101.838 133.832 99.2505 124.992C103.68 123.957 108.271 122.945 108.271 122.945C123.343 126.102 126.251 124.179 126.251 124.179L134.025 126.743L134.926 127.059Z" fill="#FFA681"/>
<path d="M118.092 139.067C106.069 139.067 103.194 124.218 103.166 124.065C103.107 123.743 103.32 123.434 103.641 123.375C103.964 123.317 104.272 123.528 104.332 123.85C104.442 124.446 107.169 138.458 118.791 137.864C128.962 137.35 129.56 126.062 129.581 125.581C129.595 125.254 129.867 124.998 130.198 125.014C130.525 125.028 130.779 125.304 130.765 125.63C130.76 125.758 130.107 138.478 118.851 139.047C118.594 139.061 118.341 139.067 118.092 139.067Z" fill="white"/>
<path d="M96.5243 134.973C96.5243 136.594 95.2103 137.908 93.5893 137.908C91.9683 137.908 90.6543 136.594 90.6543 134.973C90.6543 133.352 91.9683 132.038 93.5893 132.038C95.2103 132.038 96.5243 133.352 96.5243 134.973Z" fill="#695CFF"/>
<path d="M90.6464 149.292C90.6464 150.913 89.3324 152.227 87.7114 152.227C86.0904 152.227 84.7764 150.913 84.7764 149.292C84.7764 147.671 86.0904 146.357 87.7114 146.357C89.3314 146.358 90.6464 147.672 90.6464 149.292Z" fill="#695CFF"/>
<path d="M109.384 156.062C109.384 157.683 108.07 158.997 106.449 158.997C104.828 158.997 103.514 157.683 103.514 156.062C103.514 154.441 104.828 153.127 106.449 153.127C108.071 153.127 109.384 154.442 109.384 156.062Z" fill="#695CFF"/>
<path d="M96.3143 164.068C96.9153 165.573 96.1833 167.281 94.6773 167.882C93.1723 168.483 91.4643 167.75 90.8633 166.245C90.2623 164.74 90.9953 163.032 92.5003 162.431C94.0053 161.83 95.7133 162.563 96.3143 164.068Z" fill="#695CFF"/>
<path d="M121.755 169.488C121.755 171.109 120.441 172.423 118.82 172.423C117.199 172.423 115.885 171.109 115.885 169.488C115.885 167.867 117.199 166.553 118.82 166.553C120.441 166.553 121.755 167.867 121.755 169.488Z" fill="#695CFF"/>
<path d="M140.474 175.536C140.474 177.157 139.16 178.471 137.539 178.471C135.918 178.471 134.604 177.157 134.604 175.536C134.604 173.915 135.918 172.601 137.539 172.601C139.16 172.601 140.474 173.915 140.474 175.536Z" fill="#695CFF"/>
<path d="M144.239 137.907C144.239 139.528 142.925 140.842 141.304 140.842C139.683 140.842 138.369 139.528 138.369 137.907C138.369 136.286 139.683 134.972 141.304 134.972C142.925 134.973 144.239 136.286 144.239 137.907Z" fill="#695CFF"/>
<path d="M122.942 188.229C122.942 189.85 121.628 191.164 120.007 191.164C118.386 191.164 117.072 189.85 117.072 188.229C117.072 186.608 118.386 185.294 120.007 185.294C121.628 185.295 122.942 186.609 122.942 188.229Z" fill="#695CFF"/>
<path d="M104.862 197.329C104.862 198.95 103.548 200.264 101.927 200.264C100.306 200.264 98.9924 198.95 98.9924 197.329C98.9924 195.708 100.306 194.394 101.927 194.394C103.548 194.395 104.862 195.709 104.862 197.329Z" fill="#695CFF"/>
<path d="M102.756 180.757C102.756 182.378 101.442 183.692 99.8215 183.692C98.2005 183.692 96.8865 182.378 96.8865 180.757C96.8865 179.136 98.2005 177.822 99.8215 177.822C101.442 177.822 102.756 179.136 102.756 180.757Z" fill="#695CFF"/>
<path d="M131.669 156.83C131.669 158.451 130.355 159.765 128.734 159.765C127.113 159.765 125.799 158.451 125.799 156.83C125.799 155.209 127.113 153.895 128.734 153.895C130.355 153.895 131.669 155.209 131.669 156.83Z" fill="#695CFF"/>
<path d="M147.895 153.127C147.895 154.748 146.581 156.062 144.96 156.062C143.339 156.062 142.025 154.748 142.025 153.127C142.025 151.506 143.339 150.192 144.96 150.192C146.581 150.192 147.895 151.507 147.895 153.127Z" fill="#695CFF"/>
<path d="M137.538 193.085C137.538 194.706 136.224 196.02 134.603 196.02C132.982 196.02 131.668 194.706 131.668 193.085C131.668 191.464 132.982 190.15 134.603 190.15C136.224 190.15 137.538 191.464 137.538 193.085Z" fill="#695CFF"/>
<path d="M138.325 216.305C138.325 217.926 137.011 219.24 135.39 219.24C133.769 219.24 132.455 217.926 132.455 216.305C132.455 214.684 133.769 213.37 135.39 213.37C137.012 213.37 138.325 214.684 138.325 216.305Z" fill="#695CFF"/>
<path d="M123.387 206.617C123.988 208.122 123.256 209.83 121.75 210.431C120.245 211.032 118.537 210.299 117.936 208.794C117.335 207.289 118.068 205.581 119.573 204.98C121.079 204.379 122.786 205.112 123.387 206.617Z" fill="#695CFF"/>
<path d="M103.408 215.217C104.009 216.722 103.276 218.43 101.771 219.031C100.266 219.632 98.5583 218.899 97.9573 217.394C97.3563 215.889 98.0893 214.181 99.5943 213.58C101.099 212.979 102.807 213.711 103.408 215.217Z" fill="#695CFF"/>
<path d="M162.848 308.872L162.24 305.215L159.872 291.031L159.06 286.172L156.799 272.615L152.689 272.8L98.1982 275.271L78.0262 276.182L76.7292 286.726L76.1222 291.638L74.3312 306.204L74.0022 308.872H162.848Z" fill="#7D74F5"/>
<path d="M162.845 308.872L162.289 305.567L162.243 305.22L161.85 302.885L161.457 300.573L159.862 291.025L159.4 288.205L159.053 286.171L159.007 285.87L156.949 273.501L156.81 272.622L156.625 271.859L156.463 271.188L155.538 267.096L153.712 259.097L153.18 256.808L152.278 252.808L151.191 248.022L150.451 244.739L149.919 242.45L147.908 233.595L147.168 230.358L146.821 228.786L146.659 228.069L145.249 221.85C123.101 228.393 99.6353 224.509 89.2313 222.174C88.7693 224.278 88.2603 226.474 87.7513 228.694C87.6353 229.18 87.5203 229.665 87.4043 230.15C87.2193 230.913 87.0343 231.676 86.8493 232.439C86.7803 232.809 86.6873 233.156 86.5953 233.526C85.7403 237.156 84.8383 240.855 83.9593 244.531C83.7743 245.294 83.6123 246.057 83.4273 246.797C83.3343 247.19 83.2423 247.56 83.1503 247.953C82.7803 249.571 82.4103 251.19 82.0403 252.762C81.5783 254.866 81.1383 256.923 80.7223 258.958C80.5603 259.721 80.3983 260.461 80.2603 261.201C79.8443 263.259 79.4743 265.27 79.1503 267.212C78.8723 268.9 78.6413 270.518 78.4563 272.113C78.3873 272.598 78.3403 273.084 78.2713 273.546C78.2023 274.332 78.1093 275.095 78.0403 275.858C78.0403 275.974 78.0173 276.066 78.0173 276.182L76.7223 286.724L76.5143 288.365L76.2373 290.654L76.1213 291.625L74.6883 303.161L74.4103 305.473L74.3183 306.213L73.9983 308.87H162.845V308.872Z" fill="#403657"/>
<path d="M136.043 87.63C136.043 87.63 139.646 83.066 142.325 86.84C145.004 90.614 141.216 101.762 134.658 99.041L136.043 87.63Z" fill="#F97853"/>
<path d="M136.089 95.596C136.331 95.596 136.554 95.444 136.622 95.211C137.638 91.77 141.391 90.374 141.429 90.361C141.714 90.257 141.858 89.953 141.75 89.682C141.642 89.41 141.322 89.273 141.036 89.376C140.861 89.439 136.725 90.964 135.555 94.927C135.472 95.207 135.644 95.497 135.939 95.576C135.989 95.59 136.04 95.596 136.089 95.596Z" fill="#EA5143"/>
<path d="M139.877 93.862C139.98 93.862 140.084 93.835 140.177 93.778C140.434 93.62 140.508 93.295 140.343 93.05C140.316 93.009 139.652 92.047 138.263 91.456C137.985 91.337 137.656 91.456 137.531 91.722C137.406 91.987 137.531 92.299 137.811 92.418C138.885 92.875 139.407 93.613 139.412 93.62C139.517 93.777 139.695 93.862 139.877 93.862Z" fill="#EA5143"/>
<path d="M134.421 98.969C133.801 99.659 133.42 100.568 133.42 101.565C133.42 103.718 135.172 105.47 137.325 105.47C139.478 105.47 141.23 103.718 141.23 101.565C141.23 100.324 140.649 99.219 139.744 98.505C139.29 98.146 138.756 97.886 138.172 97.756C138.074 97.492 138.122 97.245 138.312 97.017C139.059 97.18 139.738 97.521 140.305 97.995C141.33 98.847 141.982 100.133 141.982 101.567C141.982 104.136 139.894 106.224 137.325 106.224C134.758 106.224 132.668 104.136 132.668 101.567C132.668 100.46 133.061 99.448 133.709 98.65C133.946 98.755 134.183 98.862 134.421 98.969Z" fill="white"/>
<path d="M108.271 110.949V124.624C108.271 124.624 114.627 129.528 119.586 129.954C124.54 130.386 126.252 124.54 126.252 124.54V111.813L108.271 110.949Z" fill="#FFA681"/>
<path d="M108.271 112.289V117.744C111.598 121.436 117.505 122.745 126.25 121.454L126.252 113.153L108.271 112.289Z" fill="#F97853"/>
<path d="M138.208 92.829C138.05 94.149 137.863 95.493 137.626 96.831C136.055 105.724 130.43 115.329 123.327 116.941C107.99 120.422 101.621 108.376 99.1693 99.489C98.8983 98.502 99.4063 97.371 99.1923 96.202C98.6843 93.433 97.5653 90.287 97.3113 87.184C97.1363 85.034 97.0123 82.913 96.9213 80.997C96.6723 75.593 99.8023 70.626 104.695 68.687C111.745 65.883 122.451 63.662 132.592 69.61C136.338 71.807 138.688 75.873 138.773 80.325C138.835 83.726 138.75 88.172 138.208 92.829Z" fill="#FFA681"/>
<path d="M118.758 99.71C118.472 99.71 118.22 99.504 118.171 99.213C118.117 98.888 118.335 98.581 118.66 98.527L120.706 98.183L117.887 90.676C117.771 90.368 117.927 90.025 118.235 89.909C118.543 89.795 118.887 89.949 119.002 90.257L122.329 99.118L118.857 99.701C118.824 99.707 118.791 99.71 118.758 99.71Z" fill="#F97853"/>
<path d="M126.097 89.777C126.097 91.089 126.773 92.153 127.608 92.153C128.442 92.153 129.119 91.089 129.119 89.777C129.119 88.465 128.443 87.401 127.608 87.401C126.773 87.401 126.097 88.465 126.097 89.777Z" fill="#403657"/>
<path d="M109.398 89.777C109.398 91.089 110.074 92.153 110.909 92.153C111.744 92.153 112.42 91.089 112.42 89.777C112.42 88.465 111.744 87.401 110.909 87.401C110.074 87.401 109.398 88.465 109.398 89.777Z" fill="#403657"/>
<path d="M132.049 83.545C130.834 83.308 128.378 82.917 125.762 83.01C125.074 83.034 124.522 83.553 124.617 84.101L124.619 84.115C124.695 84.552 125.164 84.847 125.714 84.805C127.497 84.671 132.161 84.7 134.332 85.346C134.392 85.032 134.182 84.698 133.876 84.406C133.411 83.962 132.759 83.683 132.049 83.545Z" fill="#403657"/>
<path d="M107.761 83.831C108.972 83.578 111.423 83.153 114.04 83.209C114.729 83.224 115.287 83.735 115.2 84.284L115.198 84.298C115.128 84.737 114.664 85.037 114.113 85.003C112.328 84.893 107.666 84.986 105.504 85.662C105.439 85.348 105.645 85.012 105.948 84.715C106.404 84.267 107.053 83.979 107.761 83.831Z" fill="#403657"/>
<path d="M126.097 103.256C125.656 105.345 124.188 109.187 119.244 109.187C114.288 109.187 112.898 105.676 112.42 103.256H126.097Z" fill="white"/>
<path d="M119.314 112.777C120.741 112.777 122 112.009 122.054 111.976C122.328 111.806 122.413 111.447 122.244 111.172C122.075 110.898 121.716 110.813 121.441 110.981C121.431 110.987 120.403 111.609 119.315 111.609C118.137 111.609 117.082 110.985 117.072 110.979C116.795 110.813 116.437 110.902 116.271 111.178C116.105 111.454 116.193 111.812 116.468 111.979C116.521 112.012 117.802 112.777 119.314 112.777Z" fill="#F97853"/>
<path d="M138.828 91.433C138.685 91.553 138.547 91.511 138.418 91.277C136.392 87.706 138.296 80.581 132.301 77.849C127.735 75.766 126.096 71.493 126.096 71.493C125.052 73.28 122.332 74.919 122.332 74.919C122.332 74.919 115.436 79.005 108.27 81.766C106.14 82.587 104.623 83.42 103.561 84.135C103.644 84.158 103.688 84.171 103.688 84.171C103.688 84.171 101.704 87.394 103.155 92.405C104.607 97.413 102.739 105.677 99.5163 107.584C99.5733 107.444 101.991 101.729 100.625 97.067C99.8383 94.394 99.8453 90.142 99.0993 87.593C98.2733 87.024 96.3633 86.065 95.7163 85.68C95.5323 83.488 95.3993 81.327 95.3063 79.374C95.0443 73.865 98.3423 68.803 103.501 66.824C110.932 63.967 122.218 61.705 132.908 67.767C136.856 70.006 139.334 74.151 139.425 78.689C139.491 82.153 139.4 86.685 138.828 91.433Z" fill="#403657"/>
<path d="M99.1004 87.593C99.1004 87.593 94.9114 82.51 92.4394 86.175C89.9674 89.84 93.6174 101.076 99.6694 98.434L99.1004 87.593Z" fill="#FFA681"/>
<path d="M99.2693 98.615C99.7023 99.435 99.8523 100.409 99.6103 101.376C99.0883 103.465 96.9633 104.739 94.8743 104.217C92.7853 103.694 91.5113 101.57 92.0333 99.481C92.3343 98.277 93.1663 97.346 94.2183 96.873C94.7453 96.635 95.3263 96.512 95.9243 96.527C96.0283 96.304 96.0813 96.062 95.9673 95.776C95.2033 95.753 94.4613 95.919 93.7973 96.241C92.5963 96.819 91.6513 97.908 91.3043 99.299C90.6813 101.791 92.1993 104.324 94.6923 104.947C97.1823 105.57 99.7173 104.052 100.34 101.559C100.609 100.485 100.473 99.408 100.038 98.476C99.7813 98.523 99.5253 98.57 99.2693 98.615Z" fill="white"/>
<path d="M98.1923 94.677C97.9683 94.677 97.7633 94.529 97.7003 94.303C96.7623 90.961 93.3003 89.606 93.2653 89.593C93.0023 89.492 92.8693 89.197 92.9693 88.933C93.0693 88.669 93.3643 88.536 93.6283 88.636C93.7903 88.697 97.6063 90.178 98.6863 94.027C98.7623 94.299 98.6043 94.581 98.3323 94.658C98.2853 94.671 98.2383 94.677 98.1923 94.677Z" fill="#F97853"/>
<path d="M94.6972 92.994C94.6022 92.994 94.5062 92.968 94.4212 92.913C94.1832 92.76 94.1152 92.444 94.2682 92.206C94.2942 92.167 94.9062 91.232 96.1882 90.659C96.4442 90.543 96.7482 90.659 96.8642 90.917C96.9792 91.175 96.8642 91.477 96.6062 91.593C95.6152 92.036 95.1332 92.754 95.1292 92.76C95.0302 92.911 94.8652 92.994 94.6972 92.994Z" fill="#F97853"/>
<path d="M320.983 197.961C311.235 204.959 295.984 209.759 295.984 209.759L292.861 198.527L290.425 189.764L288.706 183.588L271.226 183.576C272.173 186.852 273.151 190.198 274.134 193.494C275.395 197.745 276.653 201.908 277.849 205.746C279.536 211.147 281.092 215.897 282.346 219.291C282.639 220.083 282.98 220.945 283.361 221.865C285.697 228.176 287.584 235.021 296.501 230.727C304.351 226.946 314.997 221.705 320.317 218.225L320.983 197.961Z" fill="#FFA681"/>
<path d="M274.132 193.494C275.393 197.744 276.65 201.908 277.847 205.745C284.982 204.989 289.922 201.453 292.861 198.527L290.425 189.765L274.132 193.494Z" fill="#F97853"/>
<path d="M270.421 132.191C270.421 132.191 288.656 175.68 296.499 189.77C296.499 189.77 285.508 199.115 274.802 199.37C274.802 199.37 268.632 151.623 270.421 132.191Z" fill="#5D51F2"/>
<path d="M227.726 308.903C227.909 305.859 228.082 302.963 228.24 300.277C228.885 289.299 229.301 281.806 229.301 281.806L225.002 281.613L222.578 281.504L193.349 280.206C193.349 280.206 192.817 288.586 192.19 300.892C192.062 303.41 191.929 306.094 191.796 308.902H227.726V308.903Z" fill="#9C78ED"/>
<path d="M225.001 281.614L229.3 281.807C229.3 281.807 228.885 289.3 228.239 300.278C217.009 301.214 204.748 301.595 192.189 300.893C192.816 288.587 193.348 280.207 193.348 280.207L222.577 281.505L225.001 281.614Z" fill="#695CFF"/>
<path d="M223.466 308.903C224.144 297.176 224.701 287.131 225.003 281.615L222.579 281.506C222.276 287.046 221.717 297.137 221.037 308.903H223.466Z" fill="#695CFF"/>
<path d="M237.146 308.903H273.076C272.943 306.094 272.811 303.411 272.682 300.893C272.055 288.587 271.523 280.207 271.523 280.207L242.294 281.505L239.871 281.614L235.572 281.807C235.572 281.807 235.987 289.3 236.632 300.278C236.79 302.963 236.963 305.86 237.146 308.903Z" fill="#9C78ED"/>
<path d="M239.871 281.614L235.571 281.807C235.571 281.807 235.986 289.3 236.632 300.278C247.862 301.214 260.123 301.595 272.682 300.893C272.055 288.587 271.523 280.207 271.523 280.207L242.294 281.505L239.871 281.614Z" fill="#695CFF"/>
<path d="M243.834 308.903C243.154 297.137 242.596 287.046 242.292 281.506L239.868 281.615C240.17 287.131 240.726 297.176 241.405 308.903H243.834Z" fill="#695CFF"/>
<path d="M187.005 259.366C187.001 259.968 187.005 260.562 187.005 261.147C187.018 271.837 187.071 280.121 187.124 284.188C197.449 286.985 207.773 288.792 218.102 289.627C218.573 289.662 219.034 289.697 219.505 289.732C219.756 289.75 220.006 289.767 220.257 289.78C220.811 289.82 221.369 289.855 221.919 289.881C222.535 289.921 223.146 289.951 223.766 289.982C230.793 290.307 237.819 290.18 244.851 289.604C246.271 289.485 247.683 289.349 249.103 289.195C249.195 289.186 249.283 289.177 249.376 289.169C249.737 289.129 250.097 289.085 250.462 289.041C250.682 289.015 250.902 288.988 251.117 288.962C259.291 287.986 267.466 286.39 275.645 284.187C275.667 282.34 275.676 279.601 275.676 276.149C275.676 275.507 275.676 274.848 275.672 274.157V274.153C275.668 269.215 275.637 263.068 275.584 256.12C275.58 255.526 275.575 254.928 275.571 254.321C275.531 249.695 275.483 244.74 275.421 239.573C275.412 238.975 275.408 238.377 275.399 237.775C275.333 232.476 275.254 226.971 275.162 221.382C275.105 217.97 275.043 214.527 274.973 211.079C274.903 207.588 274.828 204.092 274.744 200.618C274.726 199.862 274.709 199.105 274.687 198.349C273.887 165.497 272.502 135.302 270.211 131.934C268.624 129.603 264.987 126.864 260.704 124.103C260.181 123.769 259.649 123.43 259.108 123.092C257.283 121.953 242.399 116.896 240.508 115.784L224.775 114.685C224.678 114.742 209.635 119.817 209.539 119.869C208.893 120.238 208.237 120.612 207.591 120.986C202.02 124.2 196.523 127.586 193.357 130.502C192.895 130.924 192.482 131.337 192.13 131.742C191.849 132.063 191.598 132.375 191.396 132.683C191.207 132.96 191.022 133.426 190.846 134.064C188.942 140.981 187.944 168.164 187.447 197.74C187.412 199.86 187.381 201.992 187.35 204.129C187.337 205.066 187.324 206.007 187.31 206.948C187.297 207.594 187.288 208.245 187.284 208.892C187.28 209.217 187.275 209.538 187.271 209.864C187.249 211.473 187.231 213.078 187.218 214.675C187.205 215.858 187.192 217.036 187.178 218.215C187.036 233.11 186.992 247.577 187.005 259.366Z" fill="#695CFF"/>
<path d="M158.871 301.607C158.484 305.806 163.598 303.529 162.151 295.02C160.709 286.512 164.807 278.808 166.575 279.054C168.347 279.305 165.111 288.345 166.685 291.604C168.255 294.862 170.286 288.53 172.309 284.691C174.407 280.703 174.283 272.001 173.329 265.792C172.375 259.579 183.632 221.855 183.689 210.924L185.061 206.29L190.083 189.321L197.945 162.749C197.945 162.749 193.235 142.636 185.294 144.364C185.294 144.364 181.09 158.373 176.597 174.173C175.836 176.855 175.067 179.59 174.306 182.317C171.105 193.772 168.097 205.081 166.699 211.791C163.005 229.507 162.72 266.334 162.72 266.334C162.72 266.334 156.203 279.864 156.049 285.884C155.885 292.303 159.253 297.408 158.871 301.607Z" fill="#FFA681"/>
<path d="M174.305 182.315L185.061 206.289L190.083 189.32L176.597 174.172C175.835 176.854 175.066 179.589 174.305 182.315Z" fill="#F97853"/>
<path d="M173.772 175.174C178.49 183.265 183.288 191.312 188.067 199.372C189.641 194.1 191.273 189.039 192.803 184.386C192.807 184.373 192.812 184.364 192.816 184.351C193.427 182.491 194.025 180.697 194.597 178.982C194.606 178.951 194.615 178.92 194.628 178.894C194.826 178.292 195.019 177.698 195.217 177.118V177.114C197.499 170.215 199.267 164.731 199.772 161.535C201.135 152.93 197.42 136.071 192.187 132.746C192.051 133.049 191.638 132.113 191.392 132.685C190.473 134.809 186.392 140.055 184.373 145.164C184.114 145.815 183.85 146.492 183.577 147.182C180.653 154.696 177.078 164.471 173.772 175.174Z" fill="#695CFF"/>
<path d="M231.944 130.417C238.757 130.417 243.56 124.201 243.761 123.936C244.048 123.559 243.994 123.005 243.642 122.699C243.29 122.393 242.772 122.45 242.485 122.826C242.423 122.907 237.951 128.658 231.944 128.658C226.008 128.658 222.387 122.15 222.352 122.084C222.123 121.665 221.619 121.523 221.228 121.767C220.836 122.011 220.702 122.548 220.93 122.968C221.095 123.272 225.05 130.417 231.944 130.417Z" fill="#5D51F2"/>
<path d="M260.75 189.977C260.876 189.977 261.003 189.946 261.124 189.881C261.532 189.66 261.696 189.126 261.489 188.689L258.518 182.41C258.312 181.973 257.813 181.798 257.404 182.02C256.995 182.241 256.832 182.775 257.039 183.212L260.01 189.491C260.155 189.8 260.447 189.977 260.75 189.977Z" fill="#5D51F2"/>
<path d="M266.942 184.834C267.049 184.905 267.172 184.951 267.307 184.964C267.763 185.007 268.166 184.647 268.206 184.159L268.788 177.149C268.829 176.662 268.492 176.23 268.035 176.187C267.579 176.144 267.176 176.504 267.136 176.992L266.554 184.002C266.525 184.347 266.685 184.662 266.942 184.834Z" fill="#5D51F2"/>
<path d="M250.979 173.965C251.378 173.965 251.729 173.657 251.796 173.223L252.869 166.28C252.943 165.797 252.638 165.34 252.186 165.26C251.733 165.181 251.307 165.507 251.233 165.991L250.16 172.934C250.086 173.417 250.391 173.874 250.843 173.954C250.889 173.961 250.935 173.965 250.979 173.965Z" fill="#5D51F2"/>
<path d="M224.287 176.549C224.431 176.549 224.576 176.509 224.709 176.425C225.103 176.176 225.234 175.632 225 175.21L221.648 169.155C221.415 168.734 220.906 168.594 220.512 168.844C220.118 169.094 219.987 169.637 220.221 170.059L223.573 176.115C223.727 176.394 224.004 176.549 224.287 176.549Z" fill="#5D51F2"/>
<path d="M257.078 149.408C257.232 149.408 257.388 149.362 257.527 149.266L263.052 145.444C263.437 145.178 263.547 144.629 263.298 144.218C263.049 143.807 262.536 143.689 262.151 143.955L256.626 147.777C256.241 148.043 256.131 148.592 256.38 149.003C256.54 149.265 256.806 149.408 257.078 149.408Z" fill="#5D51F2"/>
<path d="M232.466 205.823C232.592 205.823 232.719 205.792 232.84 205.727C233.248 205.506 233.412 204.972 233.205 204.535L230.234 198.256C230.027 197.819 229.529 197.644 229.12 197.865C228.712 198.086 228.548 198.62 228.755 199.057L231.726 205.336C231.871 205.645 232.163 205.823 232.466 205.823Z" fill="#5D51F2"/>
<path d="M245.52 154.132C245.796 154.132 246.066 153.985 246.224 153.716C246.467 153.301 246.349 152.753 245.961 152.494L240.384 148.76C239.996 148.501 239.484 148.625 239.241 149.041C238.998 149.456 239.116 150.004 239.504 150.263L245.081 153.997C245.218 154.088 245.37 154.132 245.52 154.132Z" fill="#5D51F2"/>
<path d="M258.785 128.023C258.773 128.194 258.806 128.362 258.88 128.502C259.007 128.762 259.258 128.946 259.554 128.968C260.01 129.003 260.405 128.634 260.438 128.146L260.701 124.105C260.179 123.771 259.648 123.432 259.106 123.094L258.785 128.023Z" fill="#5D51F2"/>
<path d="M266.22 166.549C266.496 166.549 266.766 166.402 266.924 166.133C267.167 165.718 267.049 165.17 266.661 164.911L261.084 161.177C260.696 160.918 260.184 161.042 259.941 161.458C259.698 161.873 259.816 162.42 260.204 162.68L265.781 166.414C265.917 166.505 266.069 166.549 266.22 166.549Z" fill="#5D51F2"/>
<path d="M221.743 135.909C221.899 135.909 222.058 135.862 222.198 135.763C222.58 135.493 222.686 134.944 222.434 134.535L219.254 129.373C219.003 128.964 218.488 128.85 218.106 129.12C217.724 129.39 217.618 129.939 217.87 130.349L221.05 135.511C221.209 135.768 221.473 135.909 221.743 135.909Z" fill="#5D51F2"/>
<path d="M218.892 225.076C219.11 225.076 219.327 224.985 219.49 224.803L224.047 219.726C224.364 219.373 224.353 218.812 224.023 218.473C223.693 218.133 223.168 218.145 222.851 218.499L218.294 223.575C217.976 223.928 217.988 224.489 218.318 224.829C218.479 224.994 218.686 225.076 218.892 225.076Z" fill="#5D51F2"/>
<path d="M235.637 224.02C235.855 224.02 236.072 223.929 236.235 223.747L240.792 218.67C241.11 218.317 241.098 217.756 240.768 217.417C240.437 217.077 239.913 217.089 239.596 217.442L235.039 222.519C234.722 222.872 234.733 223.433 235.063 223.773C235.224 223.938 235.431 224.02 235.637 224.02Z" fill="#5D51F2"/>
<path d="M247.676 258.335C247.752 258.117 247.749 257.867 247.647 257.64L244.802 251.294C244.604 250.852 244.109 250.666 243.696 250.878C243.283 251.09 243.109 251.619 243.307 252.061L246.152 258.407C246.35 258.849 246.845 259.035 247.258 258.823C247.46 258.72 247.604 258.541 247.676 258.335Z" fill="#5D51F2"/>
<path d="M199.622 279.273C199.699 279.055 199.695 278.805 199.593 278.578L196.748 272.232C196.55 271.79 196.055 271.604 195.642 271.816C195.229 272.028 195.055 272.557 195.253 272.999L198.098 279.345C198.296 279.787 198.791 279.973 199.204 279.761C199.406 279.658 199.55 279.48 199.622 279.273Z" fill="#5D51F2"/>
<path d="M220.257 289.783C220.812 289.822 221.367 289.858 221.918 289.884L222.498 285.931C222.568 285.447 222.259 284.994 221.807 284.92C221.355 284.845 220.931 285.175 220.861 285.659L220.257 289.783Z" fill="#5D51F2"/>
<path d="M213.639 277.836C213.818 277.703 213.947 277.495 213.983 277.246L215.001 270.293C215.072 269.809 214.763 269.356 214.31 269.28C213.857 269.204 213.434 269.535 213.363 270.019L212.345 276.972C212.274 277.456 212.583 277.909 213.036 277.985C213.256 278.023 213.47 277.963 213.639 277.836Z" fill="#5D51F2"/>
<path d="M253.648 219.704C253.789 219.704 253.932 219.665 254.063 219.584C254.459 219.339 254.594 218.796 254.365 218.372L251.069 212.282C250.84 211.858 250.333 211.714 249.936 211.959C249.54 212.204 249.404 212.747 249.634 213.171L252.93 219.262C253.083 219.545 253.361 219.704 253.648 219.704Z" fill="#5D51F2"/>
<path d="M243.969 204.48C244.269 204.48 244.559 204.305 244.707 204L247.723 197.746C247.933 197.311 247.773 196.776 247.366 196.551C246.96 196.325 246.46 196.497 246.249 196.933L243.232 203.187C243.022 203.622 243.182 204.157 243.589 204.381C243.711 204.448 243.841 204.48 243.969 204.48Z" fill="#5D51F2"/>
<path d="M270.181 203.563C270.267 203.673 270.378 203.756 270.493 203.809C270.773 203.932 271.101 203.888 271.348 203.668L274.74 200.621C274.723 199.865 274.707 199.108 274.687 198.352L270.28 202.309C269.931 202.626 269.885 203.184 270.181 203.563Z" fill="#5D51F2"/>
<path d="M244.012 138.129C244.313 138.129 244.602 137.954 244.75 137.649L247.767 131.395C247.977 130.96 247.817 130.425 247.41 130.2C247.004 129.975 246.504 130.146 246.293 130.582L243.277 136.836C243.067 137.271 243.227 137.806 243.634 138.031C243.754 138.098 243.884 138.129 244.012 138.129Z" fill="#5D51F2"/>
<path d="M224.677 161.041C224.729 161.041 224.782 161.036 224.835 161.025C225.285 160.932 225.579 160.467 225.492 159.986L224.244 153.077C224.157 152.595 223.722 152.282 223.273 152.374C222.823 152.467 222.529 152.932 222.616 153.413L223.864 160.322C223.94 160.747 224.287 161.041 224.677 161.041Z" fill="#5D51F2"/>
<path d="M235.442 167.108C235.494 167.108 235.547 167.103 235.6 167.092C236.05 166.999 236.344 166.534 236.257 166.053L235.009 159.144C234.922 158.662 234.487 158.35 234.038 158.441C233.588 158.534 233.294 158.999 233.381 159.48L234.629 166.39C234.705 166.814 235.052 167.108 235.442 167.108Z" fill="#5D51F2"/>
<path d="M227.73 144.311C228.005 144.311 228.273 144.166 228.431 143.9L231.957 137.959C232.202 137.546 232.088 136.997 231.701 136.735C231.313 136.473 230.802 136.596 230.556 137.008L227.03 142.949C226.785 143.362 226.899 143.911 227.286 144.173C227.424 144.267 227.578 144.311 227.73 144.311Z" fill="#5D51F2"/>
<path d="M260.076 205.578C260.303 205.319 260.371 204.929 260.219 204.589L257.385 198.238C257.188 197.796 256.693 197.609 256.28 197.82C255.865 198.031 255.691 198.56 255.889 199.002L258.723 205.353C258.92 205.795 259.415 205.982 259.828 205.771C259.925 205.723 260.008 205.657 260.076 205.578Z" fill="#5D51F2"/>
<path d="M238.745 187.152C239.076 187.152 239.389 186.938 239.517 186.588L241.915 180.035C242.082 179.579 241.872 179.065 241.445 178.886C241.018 178.707 240.537 178.932 240.371 179.389L237.973 185.942C237.806 186.398 238.016 186.912 238.443 187.091C238.542 187.132 238.644 187.152 238.745 187.152Z" fill="#5D51F2"/>
<path d="M212.399 227.628C212.525 227.628 212.652 227.597 212.773 227.532C213.181 227.311 213.345 226.777 213.138 226.34L210.167 220.061C209.961 219.624 209.462 219.449 209.053 219.67C208.645 219.891 208.481 220.425 208.688 220.862L211.659 227.141C211.804 227.45 212.096 227.628 212.399 227.628Z" fill="#5D51F2"/>
<path d="M256.064 272.756C256.065 272.89 256.095 273.027 256.157 273.155C256.367 273.59 256.868 273.76 257.275 273.534L263.117 270.297C263.523 270.073 263.683 269.537 263.472 269.102C263.262 268.667 262.761 268.498 262.354 268.723L256.512 271.96C256.224 272.118 256.061 272.432 256.064 272.756Z" fill="#5D51F2"/>
<path d="M271.924 276.781C271.924 276.917 271.953 277.054 272.015 277.181C272.225 277.616 272.726 277.783 273.133 277.559L275.674 276.152C275.674 275.51 275.674 274.85 275.67 274.16L272.373 275.985C272.085 276.143 271.92 276.459 271.924 276.781Z" fill="#5D51F2"/>
<path d="M247.376 284.607L249.374 289.171C249.736 289.132 250.098 289.088 250.463 289.043C250.681 289.017 250.899 288.99 251.117 288.964L248.876 283.854C248.683 283.41 248.19 283.216 247.774 283.427C247.36 283.636 247.179 284.163 247.376 284.607Z" fill="#5D51F2"/>
<path d="M201.617 211.615C202.016 211.615 202.367 211.307 202.434 210.873L203.507 203.93C203.582 203.447 203.276 202.99 202.824 202.91C202.371 202.831 201.946 203.157 201.871 203.641L200.798 210.584C200.724 211.067 201.029 211.524 201.481 211.604C201.526 211.611 201.572 211.615 201.617 211.615Z" fill="#5D51F2"/>
<path d="M200.932 160.385C201.076 160.385 201.221 160.345 201.353 160.261C201.747 160.012 201.878 159.468 201.644 159.046L198.292 152.991C198.059 152.57 197.55 152.43 197.157 152.68C196.763 152.93 196.632 153.473 196.866 153.895L200.218 159.95C200.373 160.23 200.649 160.385 200.932 160.385Z" fill="#5D51F2"/>
<path d="M211.709 184.998C211.863 184.998 212.019 184.952 212.158 184.856L217.683 181.034C218.068 180.768 218.178 180.219 217.929 179.808C217.68 179.397 217.167 179.279 216.783 179.545L211.258 183.367C210.873 183.633 210.763 184.182 211.012 184.593C211.171 184.855 211.437 184.998 211.709 184.998Z" fill="#5D51F2"/>
<path d="M270.208 226.278C270.334 226.278 270.461 226.247 270.582 226.182C270.99 225.961 271.154 225.427 270.947 224.99L267.976 218.711C267.769 218.274 267.271 218.099 266.862 218.321C266.453 218.542 266.29 219.076 266.497 219.512L269.468 225.791C269.614 226.101 269.905 226.278 270.208 226.278Z" fill="#5D51F2"/>
<path d="M202.296 194.536C202.572 194.536 202.842 194.389 203 194.12C203.243 193.705 203.125 193.157 202.737 192.898L197.16 189.164C196.772 188.905 196.26 189.029 196.017 189.445C195.774 189.86 195.892 190.407 196.28 190.667L201.857 194.401C201.993 194.492 202.146 194.536 202.296 194.536Z" fill="#5D51F2"/>
<path d="M215.666 203.418C215.869 203.618 216.161 203.706 216.447 203.623C216.889 203.494 217.15 203.007 217.03 202.535L215.303 195.744C215.182 195.272 214.728 194.992 214.285 195.121C213.843 195.25 213.582 195.737 213.702 196.209L215.429 203C215.472 203.166 215.556 203.309 215.666 203.418Z" fill="#5D51F2"/>
<path d="M192.128 131.743L193.571 134.082C193.731 134.337 193.994 134.478 194.266 134.478C194.422 134.478 194.578 134.434 194.718 134.333C195.1 134.065 195.207 133.515 194.956 133.106L193.353 130.503C192.893 130.925 192.481 131.338 192.128 131.743Z" fill="#5D51F2"/>
<path d="M185.821 147.182L187.355 149.671C187.515 149.93 187.778 150.071 188.05 150.071C188.206 150.071 188.363 150.023 188.506 149.926C188.888 149.653 188.991 149.104 188.74 148.695L186.565 145.164C186.323 145.814 186.076 146.491 185.821 147.182Z" fill="#5D51F2"/>
<path d="M257.536 248.202C257.754 248.202 257.971 248.111 258.134 247.929L262.691 242.853C263.008 242.5 262.997 241.939 262.667 241.599C262.337 241.259 261.812 241.271 261.495 241.625L256.938 246.701C256.621 247.054 256.632 247.615 256.962 247.955C257.122 248.12 257.329 248.202 257.536 248.202Z" fill="#5D51F2"/>
<path d="M227.215 265.949C227.433 265.949 227.65 265.858 227.813 265.676L232.37 260.599C232.687 260.246 232.676 259.685 232.346 259.345C232.016 259.005 231.491 259.017 231.174 259.371L226.617 264.447C226.3 264.8 226.311 265.361 226.641 265.701C226.802 265.867 227.009 265.949 227.215 265.949Z" fill="#5D51F2"/>
<path d="M218.788 258.9C218.925 258.719 218.996 258.481 218.966 258.231L218.144 251.249C218.087 250.763 217.672 250.419 217.218 250.48C216.763 250.541 216.441 250.984 216.499 251.471L217.321 258.453C217.378 258.939 217.793 259.283 218.247 259.222C218.469 259.192 218.658 259.071 218.788 258.9Z" fill="#5D51F2"/>
<path d="M236.058 278.579C236.276 278.579 236.493 278.488 236.656 278.306L241.213 273.23C241.53 272.877 241.519 272.316 241.189 271.977C240.859 271.637 240.334 271.649 240.017 272.003L235.46 277.08C235.142 277.433 235.154 277.994 235.484 278.333C235.645 278.497 235.852 278.579 236.058 278.579Z" fill="#5D51F2"/>
<path d="M187.005 259.368C187.001 259.97 187.005 260.564 187.005 261.149L192.148 261.611C192.604 261.655 193.007 261.29 193.044 260.802C193.085 260.314 192.744 259.887 192.287 259.843L187.005 259.368Z" fill="#5D51F2"/>
<path d="M247.243 237.527C247.461 237.527 247.678 237.435 247.841 237.254L252.398 232.177C252.715 231.824 252.704 231.263 252.374 230.923C252.043 230.583 251.519 230.595 251.202 230.949L246.645 236.025C246.328 236.378 246.339 236.94 246.669 237.279C246.83 237.445 247.036 237.527 247.243 237.527Z" fill="#5D51F2"/>
<path d="M225.319 235.321C225.333 235.553 225.433 235.779 225.613 235.941L230.649 240.47C230.999 240.785 231.522 240.737 231.817 240.362C232.112 239.986 232.067 239.428 231.716 239.113L226.68 234.584C226.33 234.269 225.807 234.317 225.512 234.692C225.368 234.874 225.305 235.1 225.319 235.321Z" fill="#5D51F2"/>
<path d="M201.324 260.233C201.465 260.233 201.608 260.195 201.738 260.114C202.134 259.869 202.27 259.326 202.04 258.902L198.744 252.811C198.515 252.387 198.008 252.243 197.611 252.488C197.215 252.733 197.079 253.276 197.309 253.7L200.605 259.791C200.759 260.075 201.038 260.233 201.324 260.233Z" fill="#5D51F2"/>
<path d="M195.618 242.13C195.919 242.13 196.208 241.955 196.356 241.65L199.373 235.396C199.583 234.961 199.423 234.426 199.016 234.202C198.61 233.976 198.11 234.148 197.899 234.583L194.882 240.837C194.672 241.272 194.832 241.807 195.239 242.032C195.36 242.098 195.49 242.13 195.618 242.13Z" fill="#5D51F2"/>
<path d="M204.616 171.122C204.916 171.122 205.206 170.947 205.354 170.642L208.37 164.388C208.58 163.953 208.42 163.418 208.013 163.193C207.607 162.968 207.107 163.139 206.896 163.575L203.88 169.829C203.67 170.264 203.83 170.799 204.237 171.024C204.358 171.09 204.488 171.122 204.616 171.122Z" fill="#5D51F2"/>
<path d="M201.322 144.877C201.374 144.877 201.427 144.872 201.48 144.861C201.93 144.768 202.224 144.303 202.137 143.822L200.889 136.913C200.802 136.432 200.367 136.118 199.918 136.21C199.468 136.303 199.174 136.768 199.261 137.249L200.509 144.158C200.586 144.583 200.933 144.877 201.322 144.877Z" fill="#5D51F2"/>
<path d="M186.17 168.72C186.222 168.72 186.275 168.715 186.328 168.704C186.778 168.611 187.072 168.146 186.985 167.665L185.737 160.756C185.65 160.275 185.215 159.961 184.766 160.053C184.316 160.146 184.022 160.611 184.109 161.092L185.357 168.001C185.434 168.426 185.781 168.72 186.17 168.72Z" fill="#5D51F2"/>
<path d="M212.087 150.944C212.139 150.944 212.192 150.939 212.245 150.928C212.695 150.835 212.989 150.37 212.902 149.889L211.654 142.98C211.567 142.498 211.132 142.186 210.683 142.277C210.233 142.37 209.939 142.835 210.026 143.316L211.274 150.225C211.35 150.649 211.698 150.944 212.087 150.944Z" fill="#5D51F2"/>
<path d="M207.147 126.875C207.307 126.914 207.464 126.901 207.607 126.849C207.866 126.752 208.076 126.519 208.142 126.216L209.536 119.871C208.891 120.24 208.237 120.614 207.587 120.988L206.53 125.807C206.423 126.286 206.698 126.761 207.147 126.875Z" fill="#5D51F2"/>
<path d="M188.178 179.403C188.452 179.403 188.721 179.258 188.879 178.992L192.405 173.051C192.65 172.637 192.536 172.089 192.15 171.827C191.762 171.565 191.251 171.688 191.005 172.1L187.479 178.041C187.234 178.455 187.348 179.003 187.734 179.265C187.872 179.358 188.026 179.403 188.178 179.403Z" fill="#5D51F2"/>
<path d="M211.726 243.229C211.953 242.97 212.02 242.58 211.869 242.24L209.036 235.889C208.839 235.447 208.344 235.26 207.931 235.471C207.516 235.682 207.342 236.212 207.54 236.653L210.373 243.004C210.57 243.446 211.065 243.634 211.478 243.422C211.574 243.373 211.657 243.307 211.726 243.229Z" fill="#5D51F2"/>
<path d="M270.046 255.164L275.584 256.123C275.58 255.529 275.576 254.931 275.567 254.325L270.313 253.41C269.861 253.335 269.433 253.661 269.363 254.144C269.289 254.627 269.593 255.085 270.046 255.164Z" fill="#5D51F2"/>
<path d="M271.731 238.938L275.419 239.576C275.411 238.978 275.407 238.38 275.398 237.778L271.998 237.189C271.546 237.11 271.122 237.44 271.048 237.923C270.975 238.406 271.279 238.859 271.731 238.938Z" fill="#5D51F2"/>
<path d="M190.394 224.802C190.726 224.802 191.039 224.588 191.166 224.238L193.564 217.685C193.731 217.229 193.521 216.715 193.094 216.536C192.667 216.357 192.186 216.582 192.02 217.039L189.622 223.592C189.455 224.048 189.666 224.562 190.092 224.741C190.192 224.782 190.294 224.802 190.394 224.802Z" fill="#5D51F2"/>
<path d="M187.348 204.128C188.905 197.695 190.861 190.545 192.8 184.385C192.804 184.372 192.809 184.363 192.813 184.35C193.411 182.446 194.009 180.639 194.594 178.981C194.603 178.95 194.612 178.92 194.625 178.893C194.805 178.37 194.99 177.864 195.17 177.372C195.196 177.284 195.214 177.2 195.214 177.117V177.113C195.214 176.818 195.029 176.541 194.735 176.431C194.352 176.295 193.93 176.488 193.794 176.871C191.806 182.288 189.458 190.089 187.444 197.74C187.41 199.858 187.379 201.991 187.348 204.128Z" fill="#5D51F2"/>
<path d="M211.122 79.927C211.122 79.927 205.348 73.564 207.527 66.161C209.706 58.759 215.667 58.84 215.667 58.84C215.667 58.84 219.145 50.967 225.068 50.707C230.991 50.447 236.575 39.928 241.964 42.785C247.354 45.642 241.38 51.876 241.38 51.876C241.38 51.876 250.614 42.136 253.659 44.993C256.704 47.85 249.431 55.512 249.431 55.512C249.431 55.512 257.19 50.058 259.739 52.135C262.288 54.213 253.659 63.174 253.659 63.174C253.659 63.174 259.242 73.239 253.623 77.752L211.122 79.927Z" fill="#403657"/>
<path d="M251.461 82.057C251.461 82.057 255.153 77.134 257.898 81.205C260.643 85.275 256.762 97.298 250.041 94.363L251.461 82.057Z" fill="#F97853"/>
<path d="M251.509 90.648C251.757 90.648 251.985 90.484 252.056 90.233C253.098 86.521 256.943 85.016 256.982 85.002C257.275 84.89 257.422 84.562 257.311 84.27C257.2 83.977 256.872 83.829 256.58 83.94C256.4 84.008 252.163 85.653 250.963 89.927C250.878 90.229 251.055 90.542 251.357 90.627C251.407 90.641 251.458 90.648 251.509 90.648Z" fill="#EA5143"/>
<path d="M255.39 88.778C255.496 88.778 255.602 88.749 255.697 88.688C255.961 88.518 256.037 88.167 255.867 87.903C255.839 87.859 255.158 86.821 253.735 86.185C253.45 86.056 253.113 86.185 252.985 86.471C252.857 86.757 252.985 87.093 253.271 87.221C254.372 87.713 254.906 88.51 254.912 88.518C255.021 88.687 255.204 88.778 255.39 88.778Z" fill="#EA5143"/>
<path d="M213.413 82.057C213.413 82.057 209.721 77.134 206.976 81.205C204.231 85.275 208.112 97.298 214.833 94.363L213.413 82.057Z" fill="#F97853"/>
<path d="M213.366 90.648C213.118 90.648 212.89 90.484 212.819 90.233C211.778 86.521 207.932 85.016 207.893 85.002C207.6 84.89 207.453 84.562 207.564 84.27C207.675 83.977 208.003 83.829 208.295 83.94C208.475 84.008 212.713 85.653 213.912 89.927C213.997 90.229 213.821 90.542 213.518 90.627C213.468 90.641 213.417 90.648 213.366 90.648Z" fill="#EA5143"/>
<path d="M209.484 88.778C209.378 88.778 209.272 88.749 209.177 88.688C208.913 88.518 208.837 88.167 209.007 87.903C209.035 87.859 209.715 86.821 211.139 86.185C211.424 86.056 211.761 86.185 211.889 86.471C212.017 86.757 211.889 87.093 211.603 87.221C210.502 87.713 209.967 88.51 209.962 88.518C209.854 88.687 209.671 88.778 209.484 88.778Z" fill="#EA5143"/>
<path d="M223.349 104.561V116.517C223.349 116.517 226.915 122.606 231.736 123.02C236.553 123.44 240.834 117.778 240.834 117.778V105.401L223.349 104.561Z" fill="#FFA681"/>
<path d="M223.349 104.561V109.866C226.584 113.456 232.331 114.353 240.834 113.098V105.402L223.349 104.561Z" fill="#F97853"/>
<path d="M210.746 73.857C210.965 78.503 211.407 84.315 212.295 88.957V88.97C212.295 88.983 212.299 88.997 212.304 89.015C212.304 89.02 212.308 89.02 212.308 89.024C212.527 90.158 212.772 91.225 213.04 92.184C213.201 92.746 213.375 93.335 213.571 93.938C216.405 102.829 222.971 115.697 239.472 109.81C246.421 107.333 250.041 100.156 251.885 92.372C251.992 91.908 252.095 91.448 252.184 91.006C252.246 90.711 252.305 90.426 252.358 90.144L252.438 89.729C252.451 89.658 252.46 89.609 252.465 89.577C252.47 89.559 252.47 89.55 252.47 89.55C253.559 83.565 253.724 77.512 253.644 73.187C253.559 68.777 251.149 64.742 247.311 62.569C236.916 56.673 225.94 58.873 218.714 61.65C213.696 63.574 210.487 68.497 210.746 73.857Z" fill="#FFA681"/>
<path d="M212.29 88.957C212.29 88.957 212.29 88.961 212.294 88.97C212.294 88.983 212.298 88.997 212.303 89.015C212.303 89.02 212.307 89.02 212.307 89.024C212.414 89.412 212.994 91.541 213.57 93.938C216.404 102.829 222.97 115.697 239.471 109.81C246.42 107.333 250.04 100.156 251.884 92.372C251.991 91.908 252.094 91.448 252.183 91.006C252.245 90.711 252.304 90.426 252.357 90.144L252.437 89.729C252.45 89.658 252.459 89.609 252.464 89.577C252.469 89.559 252.469 89.55 252.469 89.55L250.041 89.059C249.577 91.358 248.55 93.522 247.291 95.446C245.238 90.527 234.82 93.795 234.82 93.795L234.771 93.813C234.137 94.009 233.486 94.112 232.829 94.112C232.155 94.112 231.485 94.005 230.834 93.795C230.834 93.795 220.541 90.385 218.408 95.076C216.275 91.773 214.828 88.778 214.828 88.778L212.293 88.957H212.29ZM232.804 96.023C244.583 94.434 242.731 100.776 242.731 100.776C241.423 101.968 240.227 102.838 239.424 103.289C236.853 104.722 234.322 105.266 232.488 105.177C230.68 105.101 230.185 105.472 225.614 102.999C224.806 102.566 223.989 101.923 223.19 101.16C223.19 101.16 223.19 101.16 223.186 101.16V101.156C222.989 99.915 220.994 93.992 232.804 96.023Z" fill="#403657"/>
<path d="M222.131 82.503C222.131 83.779 222.789 84.814 223.6 84.814C224.411 84.814 225.069 83.779 225.069 82.503C225.069 81.227 224.411 80.192 223.6 80.192C222.788 80.192 222.131 81.227 222.131 82.503Z" fill="#403657"/>
<path d="M240.496 82.503C240.496 83.779 241.154 84.814 241.965 84.814C242.777 84.814 243.434 83.779 243.434 82.503C243.434 81.227 242.776 80.192 241.965 80.192C241.154 80.192 240.496 81.227 240.496 82.503Z" fill="#403657"/>
<path d="M218.369 74.711C218.369 74.711 224.44 72.312 229.114 74.331L228.647 76.931C228.647 76.931 221.786 76.351 218.33 77.751C218.02 76.751 217.974 75.739 218.369 74.711Z" fill="#403657"/>
<path d="M247.235 74.723C247.235 74.723 241.119 72.306 236.411 74.34L236.882 76.959C236.882 76.959 243.793 76.374 247.275 77.786C247.587 76.778 247.632 75.759 247.235 74.723Z" fill="#403657"/>
<path d="M232.24 92.831C231.282 92.831 230.331 92.458 230.184 92.398C229.894 92.28 229.755 91.948 229.873 91.658C229.991 91.368 230.323 91.228 230.613 91.346C231.126 91.554 232.358 91.881 232.891 91.561C232.994 91.499 233.135 91.377 233.17 91.032C233.375 89.048 232.832 82.4 232.827 82.333C232.801 82.02 233.034 81.746 233.347 81.72C233.661 81.694 233.934 81.927 233.96 82.239C233.983 82.517 234.517 89.06 234.301 91.148C234.22 91.934 233.807 92.336 233.475 92.535C233.112 92.755 232.675 92.831 232.24 92.831Z" fill="#F97853"/>
<path d="M239.481 97.158C239.05 99.328 237.616 103.319 232.788 103.319C227.948 103.319 226.591 99.672 226.125 97.158H239.481Z" fill="white"/>
<path d="M210.744 73.855C210.966 78.501 211.409 84.312 212.295 88.958L214.834 88.778C214.834 88.778 214.219 84.855 213.935 82.299C213.651 79.743 213.169 74.965 215.35 74.369C217.525 73.779 216.249 68.328 219.276 65.965C222.303 63.597 229.075 62.947 233.54 65.696C238.004 68.439 243.035 65.488 245.092 65.965C247.154 66.437 249.948 69.276 249.193 71.929C248.432 74.576 250.704 76.189 251.255 78.932C251.806 81.675 250.045 89.059 250.045 89.059L252.47 89.548C253.561 83.561 253.725 77.512 253.646 73.19C253.561 68.777 251.153 64.744 247.313 62.569C236.913 56.673 225.94 58.871 218.715 61.649C213.698 63.575 210.488 68.499 210.744 73.855Z" fill="#403657"/>
<path d="M315.264 201.794C313.72 215.876 304.526 247.336 298.16 253.498C289.872 261.521 262.597 278.412 248.39 287.072C245.827 288.634 257.866 299.038 257.866 299.038C257.866 299.038 295.588 282.907 309.994 270.189C314.069 266.591 322.344 255.244 331.685 233.629C334.517 227.075 341.38 213.858 341.024 205.24C340.614 195.321 324.856 196.953 315.264 201.794Z" fill="#695CFF"/>
<path d="M285.83 282.685C285.83 282.685 275.57 286.581 271.934 290.867C268.298 295.153 263.493 298.789 264.661 300.477C265.83 302.165 271.154 297.23 271.154 297.23C271.154 297.23 272.614 302.655 277.777 303.24C282.941 303.825 292.712 293.723 292.712 293.723L285.83 282.685Z" fill="#FFA681"/>
<path d="M387.103 241.112C387.106 242.003 387.098 243.057 387.082 244.252C387.066 245.442 387.04 246.769 387.004 248.221C386.975 249.216 386.944 250.268 386.908 251.372C386.874 252.302 386.838 253.265 386.799 254.265C386.755 255.286 386.708 256.338 386.656 257.423C385.942 272.171 384.215 292.534 380.417 308.859H300.598C303.26 296.994 307.333 278.28 310.564 254C310.699 252.979 310.834 251.948 310.967 250.906C311.1 249.864 311.229 248.813 311.359 247.753C311.429 247.189 311.497 246.62 311.564 246.052C311.619 245.582 311.673 245.114 311.725 244.652C311.873 243.343 312.008 242.055 312.128 240.792C312.229 239.737 312.323 238.701 312.411 237.678C313.78 221.354 313.297 209.12 315.263 201.793C317.554 193.263 344.265 183.484 344.265 183.484L361 184.359C361 184.359 376.956 189.569 385.485 197.057C394.017 204.548 386.882 226.898 387.09 239.589C387.098 240.026 387.1 240.535 387.103 241.112Z" fill="#7D74F5"/>
<path d="M387.082 244.252C379.825 245.133 372.254 245.481 364.825 245.481C340.496 245.481 317.657 241.762 312.127 240.793C312.228 239.738 312.322 238.702 312.41 237.679C318.836 238.817 356.022 244.967 387.102 241.113C387.105 242.003 387.098 243.057 387.082 244.252Z" fill="#E0D5F8"/>
<path d="M387.004 248.221C386.975 249.216 386.944 250.268 386.908 251.372C379.703 252.237 372.194 252.577 364.825 252.577C339.122 252.577 315.083 248.426 311.358 247.754C311.428 247.19 311.496 246.621 311.563 246.053C311.618 245.583 311.672 245.115 311.724 244.653C315.424 245.327 354.524 252.226 387.004 248.221Z" fill="#E0D5F8"/>
<path d="M386.799 254.265C386.755 255.286 386.708 256.338 386.656 257.423C379.16 258.376 371.311 258.748 363.615 258.748C338.73 258.748 315.408 254.86 310.564 254C310.699 252.979 310.834 251.948 310.967 250.906C316.727 251.933 355.14 258.408 386.799 254.265Z" fill="#E0D5F8"/>
<path d="M349.092 199.539C357.413 199.539 365.089 190.694 365.422 190.306C365.633 190.06 365.604 189.689 365.358 189.478C365.113 189.267 364.742 189.295 364.53 189.541C364.45 189.634 356.41 198.897 348.375 198.339C348.054 198.316 347.771 198.561 347.749 198.884C347.726 199.207 347.97 199.488 348.294 199.51C348.56 199.53 348.827 199.539 349.092 199.539Z" fill="#695CFF"/>
<path d="M356.306 299.006C356.6 299.006 356.854 298.785 356.888 298.486C356.925 298.164 356.694 297.873 356.372 297.835C334.878 295.361 325.974 258.155 325.886 257.78C325.813 257.464 325.497 257.268 325.181 257.341C324.865 257.415 324.669 257.73 324.742 258.046C325.107 259.612 333.929 296.434 356.237 299.002C356.261 299.005 356.284 299.006 356.306 299.006Z" fill="#695CFF"/>
<path d="M347.747 287.748C347.944 287.748 348.136 287.649 348.247 287.469C348.417 287.193 348.332 286.831 348.056 286.661C336.624 279.612 334.924 269.223 334.908 269.119C334.859 268.799 334.563 268.575 334.24 268.627C333.92 268.675 333.699 268.974 333.747 269.294C333.814 269.741 335.522 280.313 347.44 287.661C347.535 287.72 347.642 287.748 347.747 287.748Z" fill="#695CFF"/>
<path d="M354.422 168.356C367.427 168.356 377.969 157.814 377.969 144.809C377.969 131.804 367.427 121.262 354.422 121.262C341.418 121.262 330.875 131.804 330.875 144.809C330.875 157.814 341.418 168.356 354.422 168.356Z" fill="#403657"/>
<path d="M331.26 140.587C331.26 140.587 324.592 138.746 325.471 132.274C326.219 126.766 332.69 130.337 332.121 126.032C331.552 121.727 330.288 117.813 335.857 116.737C340.728 115.796 340.81 119.134 347.207 114.291C354.764 108.57 360.569 121.818 367.314 122.216C377.262 122.803 378.517 128.429 379.496 132.93C380.474 137.431 376.645 140.587 376.645 140.587H331.26Z" fill="#403657"/>
<path d="M334.831 151.398C334.831 151.398 331.101 146.425 328.328 150.537C325.555 154.649 329.476 166.795 336.266 163.83L334.831 151.398Z" fill="#F97853"/>
<path d="M334.783 160.077C334.532 160.077 334.302 159.911 334.231 159.658C333.178 155.908 329.294 154.388 329.255 154.373C328.959 154.26 328.81 153.929 328.923 153.633C329.035 153.337 329.366 153.188 329.662 153.3C329.844 153.369 334.125 155.03 335.337 159.348C335.422 159.653 335.245 159.97 334.939 160.056C334.886 160.07 334.834 160.077 334.783 160.077Z" fill="#EA5143"/>
<path d="M330.861 158.188C330.754 158.188 330.647 158.159 330.551 158.097C330.284 157.925 330.208 157.57 330.379 157.304C330.408 157.26 331.095 156.211 332.533 155.568C332.821 155.438 333.162 155.568 333.291 155.857C333.42 156.146 333.291 156.486 333.002 156.615C331.89 157.113 331.35 157.917 331.345 157.925C331.235 158.096 331.05 158.188 330.861 158.188Z" fill="#EA5143"/>
<path d="M361.883 174.133V186.212C361.883 186.212 356.917 191.535 352.046 191.954C347.18 192.378 344.219 186.597 344.219 186.597V174.982L361.883 174.133Z" fill="#FFA681"/>
<path d="M361.884 174.133V179.492C358.615 183.119 352.81 184.025 344.219 182.757V174.982L361.884 174.133Z" fill="#F97853"/>
<path d="M374.618 143.112C374.394 147.806 373.946 153.676 373.051 158.37C372.827 159.541 372.576 160.643 372.293 161.629C369.751 170.529 363.393 185.792 345.594 179.435C337.733 176.629 334.089 167.872 332.465 158.967C331.363 152.919 331.198 146.808 331.278 142.441C331.364 137.983 333.796 133.909 337.675 131.711C348.182 125.755 359.268 127.975 366.567 130.781C371.634 132.726 374.876 137.701 374.618 143.112Z" fill="#FFA681"/>
<path d="M353.263 151.643V152.596C353.263 154.515 354.011 156.316 355.373 157.668C356.714 159.002 358.487 159.733 360.372 159.733H360.604C362.239 159.698 363.725 159.04 365.028 157.776C366.334 156.501 367.083 154.679 367.083 152.77V151.644C367.083 151.332 367.024 151.034 366.917 150.757C366.792 150.421 366.598 150.123 366.349 149.874C365.895 149.42 365.272 149.14 364.579 149.14H355.769C354.772 149.14 353.912 149.722 353.51 150.567C353.361 150.875 353.274 151.218 353.267 151.578C353.263 151.598 353.263 151.623 353.263 151.643ZM354.302 151.643C354.302 150.833 354.96 150.178 355.767 150.178H364.577C365.388 150.178 366.043 150.833 366.043 151.643V152.769C366.043 154.397 365.409 155.953 364.3 157.03C363.195 158.104 361.944 158.662 360.583 158.693H360.371C358.764 158.693 357.25 158.069 356.103 156.93C354.943 155.776 354.302 154.238 354.302 152.596V151.643Z" fill="#403657"/>
<path d="M335.623 151.643V152.596C335.623 154.515 336.375 156.316 337.733 157.668C339.074 159.002 340.847 159.733 342.732 159.733H342.967C344.599 159.698 346.088 159.04 347.388 157.776C348.694 156.501 349.446 154.679 349.446 152.77V151.644C349.446 151.627 349.446 151.613 349.442 151.596C349.438 151.257 349.362 150.931 349.231 150.636C348.843 149.753 347.963 149.14 346.941 149.14H338.128C337.356 149.14 336.663 149.493 336.202 150.044C335.98 150.314 335.811 150.63 335.72 150.972C335.654 151.186 335.623 151.411 335.623 151.643ZM336.663 151.643C336.663 150.833 337.321 150.178 338.128 150.178H346.941C347.748 150.178 348.406 150.833 348.406 151.643V152.769C348.406 154.397 347.769 155.953 346.664 157.03C345.559 158.104 344.308 158.662 342.947 158.693H342.732C341.124 158.693 339.611 158.069 338.467 156.93C337.303 155.776 336.662 154.238 336.662 152.596V151.643H336.663Z" fill="#403657"/>
<path d="M373.361 148.719C370.369 148.59 368.232 149.453 367.387 149.874C367.151 149.988 366.521 150.398 366.494 150.415L366.989 151.297C366.996 151.293 367.685 150.882 367.955 150.757C368.784 150.37 370.624 149.594 373.361 149.755V148.719Z" fill="#403657"/>
<path d="M353.961 151.682L354.302 150.7C354.241 150.679 352.782 150.177 351.179 150.177C349.473 150.177 348.375 150.701 348.328 150.723L348.782 151.658C348.79 151.654 349.727 151.216 351.179 151.216C352.601 151.217 353.948 151.678 353.961 151.682Z" fill="#403657"/>
<path d="M331.984 148.969V150.011C334.136 150.189 336.124 151.15 336.153 151.162L336.61 150.23C336.493 150.171 334.359 149.142 331.984 148.969Z" fill="#403657"/>
<path d="M343.78 152.975C343.78 154.264 343.116 155.31 342.296 155.31C341.476 155.31 340.812 154.265 340.812 152.975C340.812 151.686 341.477 150.64 342.296 150.64C343.115 150.64 343.78 151.685 343.78 152.975Z" fill="#403657"/>
<path d="M361.159 152.975C361.159 154.264 360.494 155.31 359.675 155.31C358.855 155.31 358.191 154.265 358.191 152.975C358.191 151.686 358.856 150.64 359.675 150.64C360.495 150.64 361.159 151.685 361.159 152.975Z" fill="#403657"/>
<path d="M337.468 145.805C337.468 145.805 343.646 143.363 348.403 145.419L348.006 147.627C348.006 147.627 342.854 146.477 337.809 148.358C337.494 147.34 337.066 146.852 337.468 145.805Z" fill="#403657"/>
<path d="M365.739 145.805C365.739 145.805 359.561 143.363 354.803 145.419L355.2 147.627C355.2 147.627 360.352 146.477 365.397 148.358C365.712 147.34 366.141 146.852 365.739 145.805Z" fill="#403657"/>
<path d="M351.896 162.759C352.864 162.759 353.824 162.382 353.973 162.322C354.266 162.202 354.406 161.868 354.287 161.574C354.168 161.281 353.832 161.14 353.539 161.259C353.021 161.469 351.777 161.799 351.237 161.476C351.133 161.413 350.991 161.29 350.955 160.942C350.748 158.938 351.296 152.222 351.302 152.154C351.328 151.838 351.093 151.561 350.778 151.535C350.461 151.508 350.185 151.744 350.159 152.06C350.136 152.341 349.596 158.951 349.814 161.06C349.896 161.854 350.313 162.26 350.648 162.461C351.016 162.681 351.457 162.759 351.896 162.759Z" fill="#F97853"/>
<path d="M344.783 165.672C345.252 168.031 346.81 172.372 352.062 172.372C357.326 172.372 358.802 168.405 359.309 165.672H344.783Z" fill="white"/>
<path d="M351.991 175.368C353.476 175.368 354.735 174.616 354.788 174.584C355.059 174.42 355.146 174.067 354.981 173.796C354.817 173.524 354.464 173.438 354.193 173.602C354.184 173.608 353.147 174.22 351.99 174.22C350.928 174.22 349.912 173.611 349.902 173.604C349.633 173.438 349.279 173.521 349.113 173.791C348.946 174.06 349.03 174.414 349.3 174.58C349.351 174.613 350.589 175.368 351.991 175.368Z" fill="#F97853"/>
<path d="M334.242 155.226C333.809 152.86 333.38 149.805 333.692 148.24C334.251 145.469 336.545 143.84 335.78 141.169C335.015 138.487 337.839 135.616 339.921 135.14C341.997 134.658 346.856 135.693 351.639 133.422C356.204 131.252 364.139 132.804 365.433 135.734C366.998 139.281 364.868 139.616 369.139 143.452C370.839 144.981 368.821 148.952 368.533 151.534C368.404 152.722 368.385 153.302 368.432 154.578L368.449 155.226H373.56C374.123 151.221 374.445 146.805 374.621 143.11C374.88 137.698 371.633 132.728 366.568 130.781C359.268 127.975 348.186 125.752 337.674 131.71C333.798 133.91 331.362 137.98 331.28 142.439C331.215 145.902 331.307 150.465 331.899 155.225H334.242V155.226Z" fill="#403657"/>
<path d="M371.293 157.434C371.277 156.097 371.372 154.76 371.605 153.444C371.924 151.644 372.446 150.01 374.289 149.26C375.771 148.656 377.354 148.644 378.48 150.315C381.253 154.427 378.164 167.224 371.374 164.259L371.293 157.434Z" fill="#FFA681"/>
<path d="M372.687 160.533C372.933 160.484 373.126 160.276 373.147 160.014C373.445 156.131 376.957 153.88 376.992 153.857C377.26 153.688 377.341 153.334 377.173 153.066C377.005 152.798 376.651 152.716 376.383 152.884C376.218 152.987 372.345 155.454 372.002 159.926C371.978 160.242 372.214 160.518 372.531 160.542C372.584 160.546 372.637 160.542 372.687 160.533Z" fill="#F97853"/>
<path d="M376.163 157.912C376.268 157.891 376.367 157.841 376.449 157.762C376.677 157.542 376.682 157.178 376.462 156.951C376.425 156.913 375.546 156.019 374.01 155.67C373.703 155.599 373.394 155.793 373.324 156.102C373.253 156.411 373.447 156.718 373.756 156.789C374.944 157.059 375.631 157.743 375.638 157.749C375.779 157.895 375.978 157.949 376.163 157.912Z" fill="#F97853"/>
<path d="M382.091 194.438C373.705 207.149 341.609 251.095 334.367 256.2C324.94 262.846 299.241 272.296 284.486 282.148C279.473 285.496 291.317 294.969 291.317 294.969C291.317 294.969 327.283 284.858 343.481 274.518C348.063 271.593 367.121 252.502 379.272 235.569C383.435 229.768 390.206 221.711 391.186 213.142C392.313 203.279 389.215 198.002 382.091 194.438Z" fill="#695CFF"/>
<path d="M318.478 308.859H218.494C217.216 308.859 216.18 307.823 216.18 306.545V298.578C216.18 297.3 217.216 296.264 218.494 296.264H318.478C319.756 296.264 320.792 297.3 320.792 298.578V306.545C320.791 307.823 319.756 308.859 318.478 308.859Z" fill="#1A0B42"/>
<path d="M216.202 308.859L196.539 235.22C195.435 231.084 198.552 227.025 202.833 227.025H246.101C249.02 227.025 251.583 228.967 252.373 231.778L274.025 308.859H216.202Z" fill="#403657"/>
<path d="M252.375 231.779L273.847 308.225H278.791L257.319 231.779C256.524 228.967 253.965 227.023 251.045 227.023H246.101C249.021 227.022 251.58 228.967 252.375 231.779Z" fill="#1A0B42"/>
<path d="M241.251 271.239C242.375 276.096 239.349 280.034 234.492 280.034C229.635 280.034 224.786 276.097 223.662 271.239C222.538 266.382 225.564 262.444 230.421 262.444C235.278 262.444 240.127 266.382 241.251 271.239Z" fill="#614C6E"/>
<path d="M375.328 37.635C371.687 37.635 368.725 34.673 368.725 31.032C368.725 27.391 371.687 24.429 375.328 24.429C378.969 24.429 381.931 27.391 381.931 31.032C381.931 34.673 378.969 37.635 375.328 37.635ZM375.328 26.499C372.829 26.499 370.796 28.532 370.796 31.031C370.796 33.53 372.829 35.563 375.328 35.563C377.827 35.563 379.86 33.53 379.86 31.031C379.859 28.532 377.826 26.499 375.328 26.499Z" fill="#695CFF"/>
<path d="M399.099 60.801C395.458 60.801 392.496 57.839 392.496 54.198C392.496 50.557 395.458 47.595 399.099 47.595C402.74 47.595 405.702 50.557 405.702 54.198C405.702 57.839 402.74 60.801 399.099 60.801ZM399.099 49.666C396.6 49.666 394.567 51.699 394.567 54.198C394.567 56.697 396.6 58.73 399.099 58.73C401.598 58.73 403.631 56.697 403.631 54.198C403.631 51.699 401.598 49.666 399.099 49.666Z" fill="#7D74F5"/>
<path d="M407.258 82.259C406.686 82.259 406.222 81.795 406.222 81.223V76.655C406.222 76.083 406.686 75.619 407.258 75.619C407.83 75.619 408.294 76.083 408.294 76.655V81.223C408.293 81.795 407.83 82.259 407.258 82.259Z" fill="#695CFF"/>
<path d="M407.258 90.252C406.686 90.252 406.222 89.788 406.222 89.216V84.648C406.222 84.076 406.686 83.612 407.258 83.612C407.83 83.612 408.294 84.076 408.294 84.648V89.216C408.293 89.789 407.83 90.252 407.258 90.252Z" fill="#695CFF"/>
<path d="M413.669 83.972H409.566C408.994 83.972 408.53 83.508 408.53 82.936C408.53 82.364 408.994 81.9 409.566 81.9H413.669C414.241 81.9 414.705 82.364 414.705 82.936C414.705 83.508 414.241 83.972 413.669 83.972Z" fill="#695CFF"/>
<path d="M404.949 83.972H400.846C400.274 83.972 399.81 83.508 399.81 82.936C399.81 82.364 400.274 81.9 400.846 81.9H404.949C405.521 81.9 405.985 82.364 405.985 82.936C405.985 83.508 405.521 83.972 404.949 83.972Z" fill="#695CFF"/>
<path d="M370.796 56.663C370.224 56.663 369.76 56.199 369.76 55.627V51.059C369.76 50.487 370.224 50.023 370.796 50.023C371.368 50.023 371.832 50.487 371.832 51.059V55.627C371.832 56.199 371.368 56.663 370.796 56.663Z" fill="#5D51F2"/>
<path d="M370.796 64.657C370.224 64.657 369.76 64.193 369.76 63.621V59.053C369.76 58.481 370.224 58.017 370.796 58.017C371.368 58.017 371.832 58.481 371.832 59.053V63.621C371.832 64.193 371.368 64.657 370.796 64.657Z" fill="#5D51F2"/>
<path d="M377.208 58.376H373.105C372.533 58.376 372.069 57.912 372.069 57.34C372.069 56.768 372.533 56.304 373.105 56.304H377.208C377.78 56.304 378.244 56.768 378.244 57.34C378.243 57.912 377.78 58.376 377.208 58.376Z" fill="#5D51F2"/>
<path d="M368.488 58.376H364.385C363.813 58.376 363.349 57.912 363.349 57.34C363.349 56.768 363.813 56.304 364.385 56.304H368.488C369.06 56.304 369.524 56.768 369.524 57.34C369.523 57.912 369.06 58.376 368.488 58.376Z" fill="#5D51F2"/>
<path d="M68.8774 7.317C68.8774 3.676 71.8394 0.714005 75.4804 0.714005C79.1214 0.714005 82.0834 3.676 82.0834 7.317C82.0834 10.958 79.1214 13.92 75.4804 13.92C71.8394 13.921 68.8774 10.958 68.8774 7.317ZM70.9494 7.317C70.9494 9.816 72.9824 11.849 75.4814 11.849C77.9804 11.849 80.0134 9.816 80.0134 7.317C80.0134 4.818 77.9804 2.785 75.4814 2.785C72.9824 2.785 70.9494 4.818 70.9494 7.317Z" fill="#695CFF"/>
<path d="M42.3594 32.487C42.3594 28.846 45.3214 25.883 48.9624 25.883C52.6034 25.883 55.5654 28.845 55.5654 32.487C55.5654 36.129 52.6034 39.09 48.9624 39.09C45.3214 39.09 42.3594 36.128 42.3594 32.487ZM44.4304 32.487C44.4304 34.986 46.4634 37.019 48.9624 37.019C51.4614 37.019 53.4944 34.986 53.4944 32.487C53.4944 29.988 51.4614 27.955 48.9624 27.955C46.4634 27.955 44.4304 29.988 44.4304 32.487Z" fill="#7D74F5"/>
<path d="M28.6302 41.753C29.2022 41.753 29.6662 41.289 29.6662 40.717V36.149C29.6662 35.577 29.2022 35.113 28.6302 35.113C28.0582 35.113 27.5942 35.577 27.5942 36.149V40.717C27.5942 41.289 28.0582 41.753 28.6302 41.753Z" fill="#695CFF"/>
<path d="M28.6302 49.747C29.2022 49.747 29.6662 49.283 29.6662 48.711V44.143C29.6662 43.571 29.2022 43.107 28.6302 43.107C28.0582 43.107 27.5942 43.571 27.5942 44.143V48.711C27.5942 49.283 28.0582 49.747 28.6302 49.747Z" fill="#695CFF"/>
<path d="M22.2193 43.466H26.3223C26.8943 43.466 27.3583 43.002 27.3583 42.43C27.3583 41.858 26.8943 41.394 26.3223 41.394H22.2193C21.6473 41.394 21.1833 41.858 21.1833 42.43C21.1833 43.002 21.6473 43.466 22.2193 43.466Z" fill="#695CFF"/>
<path d="M30.9393 43.466H35.0423C35.6143 43.466 36.0783 43.002 36.0783 42.43C36.0783 41.858 35.6143 41.394 35.0423 41.394H30.9393C30.3673 41.394 29.9033 41.858 29.9033 42.43C29.9033 43.002 30.3673 43.466 30.9393 43.466Z" fill="#695CFF"/>
<path d="M52.4972 6.64C53.0692 6.64 53.5332 6.176 53.5332 5.604V1.036C53.5332 0.464003 53.0692 0 52.4972 0C51.9252 0 51.4612 0.464003 51.4612 1.036V5.604C51.4622 6.176 51.9262 6.64 52.4972 6.64Z" fill="#5D51F2"/>
<path d="M52.4972 14.634C53.0692 14.634 53.5332 14.17 53.5332 13.598V9.03C53.5332 8.458 53.0692 7.994 52.4972 7.994C51.9252 7.994 51.4612 8.458 51.4612 9.03V13.598C51.4622 14.17 51.9262 14.634 52.4972 14.634Z" fill="#5D51F2"/>
<path d="M46.0863 8.353H50.1893C50.7613 8.353 51.2253 7.889 51.2253 7.317C51.2253 6.745 50.7613 6.281 50.1893 6.281H46.0863C45.5143 6.281 45.0503 6.745 45.0503 7.317C45.0503 7.889 45.5143 8.353 46.0863 8.353Z" fill="#5D51F2"/>
<path d="M54.8063 8.353H58.9093C59.4813 8.353 59.9453 7.889 59.9453 7.317C59.9453 6.745 59.4813 6.281 58.9093 6.281H54.8063C54.2343 6.281 53.7703 6.745 53.7703 7.317C53.7703 7.889 54.2343 8.353 54.8063 8.353Z" fill="#5D51F2"/>
<path d="M323.611 14.328V34.435C323.611 37.093 321.455 39.249 318.797 39.249H282.288L271.266 43.203C270.134 43.61 269.051 42.497 269.485 41.377L273.654 30.61V14.327C273.654 11.669 275.81 9.513 278.47 9.513H318.796C321.454 9.513 323.611 11.67 323.611 14.328Z" fill="#7D74F5"/>
<g opacity="0.5">
<path d="M315.914 20.016H282.421C281.687 20.016 281.092 19.421 281.092 18.687C281.092 17.953 281.687 17.359 282.421 17.359H315.914C316.648 17.359 317.243 17.954 317.243 18.687C317.243 19.422 316.648 20.016 315.914 20.016Z" fill="#E0D5F8"/>
<path d="M315.914 25.367H282.421C281.687 25.367 281.092 24.772 281.092 24.038C281.092 23.304 281.687 22.71 282.421 22.71H315.914C316.648 22.71 317.243 23.305 317.243 24.038C317.243 24.772 316.648 25.367 315.914 25.367Z" fill="#E0D5F8"/>
<path d="M315.914 30.717H282.421C281.687 30.717 281.092 30.122 281.092 29.389C281.092 28.655 281.687 28.06 282.421 28.06H315.914C316.648 28.06 317.243 28.655 317.243 29.389C317.243 30.122 316.648 30.717 315.914 30.717Z" fill="#E0D5F8"/>
</g>
<path d="M431.302 316.379V317.098C431.302 321.243 427.941 324.604 423.793 324.604H34.3593C30.2123 324.604 26.8533 321.243 26.8533 317.098V316.379C26.8533 312.234 30.2123 308.873 34.3593 308.873H423.793C427.941 308.873 431.302 312.234 431.302 316.379Z" fill="#5B23A9"/>
<path d="M431.302 316.379V316.738H26.8533V316.379C26.8533 312.234 30.2123 308.873 34.3593 308.873H423.793C427.941 308.873 431.302 312.234 431.302 316.379Z" fill="#7846D1"/>
</svg>
