<svg width="357" height="375" viewBox="0 0 357 375" fill="none" xmlns="http://www.w3.org/2000/svg">
<path d="M178.5 366.963C256.203 366.963 319.194 329.376 319.194 283.011C319.194 236.646 256.203 199.059 178.5 199.059C100.797 199.059 37.8062 236.646 37.8062 283.011C37.8062 329.376 100.797 366.963 178.5 366.963Z" fill="#F5F5F5"/>
<path d="M237.052 335.945L132.023 272.249C127.975 269.794 127.977 263.655 132.028 261.203L142.388 254.343C146.026 252.14 150.507 252.143 154.144 254.348L259.173 318.044C263.221 320.499 263.219 326.638 259.169 329.09L248.808 335.951C245.17 338.153 240.689 338.151 237.052 335.945Z" fill="#E0E0E0"/>
<path d="M77.3621 277.877C89.9507 277.877 100.156 271.722 100.156 264.131C100.156 256.539 89.9507 250.385 77.3621 250.385C64.7735 250.385 54.5684 256.539 54.5684 264.131C54.5684 271.722 64.7735 277.877 77.3621 277.877Z" fill="#E6E6E6"/>
<path d="M274.287 281.026L284.289 287.065C284.289 287.065 279.183 270.212 281.902 253.22C282.929 246.807 285.134 243.613 285.91 241.899C286.686 240.185 292.654 229.566 287.339 224.71C282.023 219.853 269.643 229.624 270.313 255.77C270.657 269.188 274.287 281.026 274.287 281.026Z" fill="#695CFF"/>
<path opacity="0.5" d="M274.287 281.026L284.289 287.065C284.289 287.065 279.183 270.212 281.902 253.22C282.929 246.807 285.134 243.613 285.91 241.899C286.686 240.185 292.654 229.566 287.339 224.71C282.023 219.853 269.643 229.624 270.313 255.77C270.657 269.188 274.287 281.026 274.287 281.026Z" fill="black"/>
<path d="M278.937 284.209C278.792 284.209 278.656 284.116 278.602 283.964C278.564 283.855 274.75 272.889 274.871 255.26C274.994 237.547 283.806 228.067 283.896 227.974C284.035 227.827 284.261 227.828 284.4 227.974C284.54 228.12 284.54 228.357 284.401 228.504C284.314 228.595 275.705 237.877 275.585 255.265C275.465 272.745 279.233 283.595 279.271 283.703C279.34 283.897 279.246 284.113 279.061 284.185C279.021 284.201 278.978 284.209 278.937 284.209Z" fill="white"/>
<path d="M278.458 283.605L292.126 291.823C295.086 293.602 298.958 292.835 300.851 289.853C301.633 288.62 302.114 286.996 301.927 284.866C301.273 277.412 298.187 275.693 301.967 272.367C305.748 269.042 306.73 268.812 306.512 265.602C306.293 262.391 304.219 261.015 303.237 259.754C302.254 258.493 299.525 255.856 301.381 251.957C303.237 248.059 305.767 244.283 301.927 242.555C299.634 241.523 295.813 242.899 293.303 245.765C290.792 248.632 288.718 250.696 286.316 251.384C283.915 252.071 278.894 252.186 279.112 256.544C279.331 260.901 280.424 262.393 279.44 264.341C277.585 268.01 269.507 270.074 278.458 283.605Z" fill="#695CFF"/>
<path d="M285.215 288.043C285.032 288.043 284.877 287.897 284.86 287.702C284.837 287.444 282.758 261.706 299.605 244.579C299.747 244.435 299.973 244.438 300.11 244.588C300.247 244.736 300.243 244.974 300.101 245.118C283.497 261.997 285.547 287.378 285.571 287.633C285.589 287.839 285.444 288.022 285.249 288.041C285.237 288.042 285.226 288.043 285.215 288.043Z" fill="white"/>
<path d="M287.92 265.889C287.737 265.889 287.581 265.741 287.565 265.546C287.006 258.715 282.447 255.28 282.401 255.246C282.239 255.127 282.2 254.893 282.314 254.724C282.427 254.554 282.651 254.513 282.811 254.633C283.009 254.779 287.688 258.306 288.276 265.481C288.293 265.688 288.147 265.87 287.951 265.887C287.941 265.888 287.931 265.889 287.92 265.889Z" fill="white"/>
<path d="M286.754 270.307C286.67 270.307 286.586 270.277 286.518 270.214C286.371 270.077 286.356 269.84 286.485 269.685C286.66 269.476 290.874 264.584 300.771 265.885C300.967 265.911 301.105 266.098 301.081 266.304C301.057 266.509 300.871 266.65 300.682 266.629C291.185 265.378 287.063 270.132 287.022 270.18C286.952 270.265 286.853 270.307 286.754 270.307Z" fill="white"/>
<path d="M233.852 328.334L141.483 272.317C134.965 268.364 129.683 257.761 129.683 248.633V40.8683C129.683 31.7408 134.966 27.5453 141.483 31.4978L233.852 87.5153C240.369 91.4678 245.652 102.071 245.652 111.199V318.963C245.653 328.091 240.369 332.287 233.852 328.334Z" fill="#455A64"/>
<path d="M244.488 81.003L152.12 24.9855C149.333 23.2958 146.774 23.0993 144.756 24.1373L144.754 24.1388C144.506 24.2663 144.266 24.4133 144.035 24.5775L133.687 30.897C135.766 29.5913 138.495 29.685 141.484 31.4985L233.853 87.516C240.37 91.4685 245.653 102.072 245.653 111.2V318.964C245.653 323.789 244.176 327.235 241.82 328.828L252.033 322.579L252.031 322.578C254.632 321.124 256.289 317.561 256.289 312.451V104.687C256.289 95.559 251.005 84.9555 244.488 81.003Z" fill="#37474F"/>
<path d="M245.653 111.2V318.964C245.653 323.789 244.175 327.235 241.82 328.829L252.032 322.579L252.031 322.578C254.632 321.124 256.288 317.561 256.288 312.452V104.687C256.288 104.681 256.288 104.675 256.288 104.67L245.651 111.158C245.652 111.172 245.653 111.185 245.653 111.2Z" fill="#263238"/>
<path d="M256.289 120.816L245.653 127.267V132.304L256.289 125.853V120.816Z" fill="#37474F"/>
<path d="M251.629 154.336C250.677 154.913 249.906 154.301 249.906 152.968V142.132C249.906 140.8 250.677 139.252 251.629 138.675C252.58 138.098 253.352 138.71 253.352 140.043V150.878C253.351 152.211 252.58 153.759 251.629 154.336Z" fill="#37474F"/>
<path d="M249.906 152.968V142.132C249.906 140.8 250.677 139.252 251.629 138.675C252.044 138.424 252.419 138.409 252.716 138.571L252.718 138.558L251.431 137.857L251.429 137.868C251.128 137.689 250.741 137.696 250.312 137.956C249.361 138.533 248.589 140.081 248.589 141.413V152.248C248.589 152.968 248.819 153.467 249.175 153.693L249.173 153.704L250.524 154.444L250.526 154.431C250.15 154.218 249.906 153.71 249.906 152.968Z" fill="#455A64"/>
<path d="M251.629 180.566C250.677 181.143 249.906 180.531 249.906 179.198V168.363C249.906 167.03 250.677 165.482 251.629 164.905C252.58 164.329 253.352 164.941 253.352 166.273V177.109C253.351 178.442 252.58 179.99 251.629 180.566Z" fill="#37474F"/>
<path d="M249.906 179.198V168.363C249.906 167.03 250.677 165.482 251.629 164.905C252.044 164.654 252.419 164.64 252.716 164.801L252.718 164.788L251.431 164.087L251.429 164.098C251.128 163.919 250.741 163.927 250.312 164.186C249.361 164.764 248.589 166.311 248.589 167.644V178.479C248.589 179.198 248.819 179.698 249.175 179.923L249.173 179.935L250.524 180.674L250.526 180.661C250.15 180.448 249.906 179.941 249.906 179.198Z" fill="#455A64"/>
<path d="M230.641 93.3585L139.862 38.2943C138.192 37.2818 136.106 38.547 136.106 40.5713V248.632C136.106 255.58 140.793 264.107 146.52 267.58L235.093 321.297C236.932 322.411 239.23 321.018 239.23 318.789V108.985C239.23 103.256 235.365 96.2235 230.641 93.3585Z" fill="#695CFF"/>
<path opacity="0.9" d="M230.641 93.3585L139.862 38.2943C138.192 37.2818 136.106 38.547 136.106 40.5713V248.632C136.106 255.58 140.793 264.107 146.52 267.58L235.093 321.297C236.932 322.411 239.23 321.018 239.23 318.789V108.985C239.23 103.256 235.365 96.2235 230.641 93.3585Z" fill="white"/>
<path d="M167.005 52.6695L168.411 58.8915L198.5 77.1142L203.695 74.205L167.005 52.6695Z" fill="#455A64"/>
<path d="M175.848 58.6808C175.848 59.7128 175.158 60.1305 174.308 59.6145C173.457 59.0985 172.768 57.8445 172.768 56.8125C172.768 55.7813 173.457 55.3628 174.308 55.8788C175.159 56.3948 175.848 57.6495 175.848 58.6808Z" fill="#263238"/>
<path d="M196.12 71.8418C195.96 71.8418 195.799 71.8005 195.651 71.7128L180.283 62.6925C179.819 62.4195 179.652 61.803 179.911 61.3155C180.171 60.8273 180.759 60.6533 181.222 60.9255L196.59 69.9458C197.054 70.2188 197.221 70.8353 196.962 71.3228C196.785 71.6543 196.458 71.8418 196.12 71.8418Z" fill="#263238"/>
<path d="M155.134 81.5985C154.199 81.0315 153.522 81.5243 153.522 82.779C153.522 84.0473 154.199 85.3763 155.134 85.9433C155.69 86.2808 156.392 86.2875 156.903 85.9365L158.395 88.77C157.526 89.3903 156.203 89.3295 155.001 88.6005C152.609 87.15 150.874 84.033 150.874 81.213C150.874 78.4335 152.654 77.4893 155.102 78.9735C156.292 79.6958 157.593 81.1598 158.395 82.698L156.903 83.9393C156.436 82.887 155.735 81.963 155.134 81.5985Z" fill="#695CFF"/>
<path d="M166.982 90.9968C166.982 93.8033 165.18 94.7753 162.699 93.2708C160.219 91.7663 158.417 88.6223 158.417 85.8023C158.417 82.9958 160.219 82.0785 162.699 83.583C165.18 85.0868 166.982 88.203 166.982 90.9968ZM161.064 87.4215C161.064 88.7168 161.842 90.147 162.733 90.687C163.623 91.227 164.335 90.7005 164.335 89.4053C164.335 88.1093 163.623 86.7473 162.733 86.2073C161.832 85.6605 161.064 86.1255 161.064 87.4215Z" fill="#695CFF"/>
<path d="M169.864 88.0215L172.944 94.7475V89.8898L175.28 91.3065V100.765L173.123 99.456L170.052 92.7638V97.5945L167.705 96.171V86.7128L169.864 88.0215Z" fill="#695CFF"/>
<path d="M182.912 95.9348V98.4038L180.688 97.0545V104.044L178.107 102.479V95.4893L175.893 94.1468V91.677L182.912 95.9348Z" fill="#695CFF"/>
<path d="M187.94 107.108L185.014 105.333L184.615 106.426L181.968 104.82L185.26 97.3583L187.908 98.964L191.077 110.345L188.33 108.679L187.94 107.108ZM187.306 104.483L186.506 101.231L185.683 103.499L187.306 104.483Z" fill="#695CFF"/>
<path d="M195.173 105.88C194.237 105.313 193.56 105.806 193.56 107.06C193.56 108.329 194.237 109.658 195.173 110.225C195.728 110.562 196.43 110.569 196.941 110.218L198.433 113.051C197.564 113.672 196.241 113.611 195.039 112.882C192.647 111.431 190.912 108.314 190.912 105.494C190.912 102.715 192.692 101.771 195.14 103.255C196.33 103.977 197.631 105.441 198.433 106.979L196.941 108.221C196.473 107.168 195.773 106.244 195.173 105.88Z" fill="#695CFF"/>
<path d="M205.473 109.617V112.086L203.249 110.737V117.726L200.668 116.161V109.172L198.454 107.829V105.36L205.473 109.617Z" fill="#695CFF"/>
<path d="M213.094 121.229C213.728 121.613 214.217 121.316 214.217 120.371V114.92L216.798 116.486V121.937C216.798 124.447 215.341 125.195 213.083 123.826C210.813 122.45 209.312 119.906 209.312 117.397V111.946L211.892 113.511V118.962C211.893 119.892 212.449 120.837 213.094 121.229Z" fill="#695CFF"/>
<path d="M220.959 121.262C220.67 121.088 220.481 121.08 220.481 121.364C220.481 122.551 224.519 124.258 224.519 127.685C224.519 129.79 222.994 129.796 221.236 128.73C219.88 127.907 218.367 126.437 217.332 124.851L218.289 123.083C219.089 124.379 220.469 125.876 221.259 126.355C221.637 126.585 221.882 126.585 221.882 126.247C221.882 125.019 217.844 123.38 217.844 120.061C217.844 118.172 219.157 117.781 221.181 119.008C222.415 119.757 223.695 120.978 224.574 122.186L223.64 123.994C222.85 122.989 221.638 121.673 220.959 121.262Z" fill="#695CFF"/>
<path d="M142.15 128.206C144.727 124.886 146.274 120.649 146.274 116.032C146.274 105.386 138.059 96.7567 127.925 96.7567C117.79 96.7567 109.575 105.386 109.575 116.032C109.575 126.677 117.79 135.307 127.925 135.307C131.367 135.307 134.586 134.309 137.339 132.577L146.275 136.653L142.15 128.206Z" fill="#695CFF"/>
<path opacity="0.4" d="M142.15 128.206C144.727 124.886 146.274 120.649 146.274 116.032C146.274 105.386 138.059 96.7567 127.925 96.7567C117.79 96.7567 109.575 105.386 109.575 116.032C109.575 126.677 117.79 135.307 127.925 135.307C131.367 135.307 134.586 134.309 137.339 132.577L146.275 136.653L142.15 128.206Z" fill="black"/>
<path d="M121.131 115.007C121.131 114.709 120.931 114.549 120.564 114.549C119.939 114.549 119.114 114.983 118.311 115.664L117.296 113.594C118.476 112.739 119.691 112.231 120.99 112.231C122.7 112.231 123.999 113.173 123.999 114.586C123.999 115.589 123.302 116.557 122.37 117.523L121.096 118.849H124.117V121.055H117.627L117.615 119.245L120.506 116.11C120.848 115.738 121.131 115.305 121.131 115.007Z" fill="white"/>
<path d="M129.399 112.355L127.428 117.325H128.231V115.651H130.72V117.325H131.663V119.37H130.72V121.055H128.231V119.37H124.703V117.511L126.827 112.355H129.399Z" fill="white"/>
<path d="M139.331 116.731V121.056H136.676V117.536C136.676 116.966 136.369 116.607 135.909 116.607C135.39 116.607 135.06 117.041 135.06 117.697V121.057H132.405V111.86H135.06V115.243C135.496 114.55 136.169 114.153 137.019 114.153C138.375 114.152 139.331 115.168 139.331 116.731Z" fill="white"/>
<path d="M225.936 186.423V279.607C225.936 284.236 221.164 287.133 217.348 284.815L169.565 255.833L161.102 250.705C159.314 249.622 157.733 248.257 156.399 246.683C153.298 243.044 151.511 238.284 151.511 233.251V140.058C151.511 135.429 156.276 132.54 160.099 134.851L216.338 168.967C222.279 172.564 225.936 179.222 225.936 186.423Z" fill="#695CFF"/>
<path opacity="0.5" d="M225.936 186.423V279.607C225.936 284.236 221.164 287.133 217.348 284.815L169.565 255.833L161.102 250.705C159.314 249.622 157.733 248.257 156.399 246.683C153.298 243.044 151.511 238.284 151.511 233.251V140.058C151.511 135.429 156.276 132.54 160.099 134.851L216.338 168.967C222.279 172.564 225.936 179.222 225.936 186.423Z" fill="white"/>
<path d="M198.415 241.559C198.415 241.559 207.362 257.143 200.896 274.719L169.565 255.832L198.415 241.559Z" fill="#263238"/>
<path d="M212.676 171.534C213.353 165.758 209.445 160.499 203.946 159.788C198.447 159.077 193.441 163.183 192.763 168.959C192.086 174.735 195.995 179.994 201.494 180.705C206.993 181.416 211.999 177.31 212.676 171.534Z" fill="#263238"/>
<path d="M202.765 140.69C202.765 140.69 205.845 135.415 206.791 135.822C207.736 136.228 206.175 141.211 206.175 141.211C206.175 141.211 210.833 142.227 209.962 143.447C209.091 144.668 203.408 144.386 203.408 144.386L202.765 140.69Z" fill="#263238"/>
<path d="M204.932 154.22C202.766 171.127 189.222 171.127 189.222 171.127L160.792 157.991C160.792 157.991 158.648 156.019 157.994 151.484C157.767 149.931 157.712 148.067 157.987 145.886C157.987 145.872 157.994 145.85 157.994 145.835C158.902 138.729 163.962 131.081 174.99 128.734C177.189 128.257 179.631 127.997 182.325 127.997C183.556 127.997 184.739 128.055 185.873 128.185C194.474 129.066 200.449 133.269 203.309 139.798C203.934 141.227 204.409 142.766 204.726 144.413C205.31 147.374 205.385 150.66 204.932 154.22Z" fill="#263238"/>
<path d="M136.697 186.92C136.697 186.92 126.607 186.558 122.72 196.886C122.72 196.886 127.014 199.923 132.628 196.899C138.241 193.875 136.697 186.92 136.697 186.92Z" fill="#695CFF"/>
<path opacity="0.5" d="M136.697 186.92C136.697 186.92 126.607 186.558 122.72 196.886C122.72 196.886 127.014 199.923 132.628 196.899C138.241 193.875 136.697 186.92 136.697 186.92Z" fill="black"/>
<path d="M136.407 191.893C136.407 191.893 133.56 178.862 132.05 178.7C130.463 178.531 130.248 182.678 130.371 185.009L126.776 176.942C126.301 175.878 125.073 175.467 124.093 176.033C120.517 178.097 114.261 184.366 127.467 199.871L136.407 191.893Z" fill="#945959"/>
<path d="M172.966 182.883L170.838 182.587C166.44 181.976 162.071 183.902 159.407 187.628L146.665 205.45L136.698 186.92C136.698 186.92 135.494 199.523 122.721 196.886L136.442 221.132C140.191 227.757 149.073 228.441 153.703 222.461L165.44 207.3L172.966 182.883Z" fill="#695CFF"/>
<path d="M200.168 224.468C197.315 232.073 196.998 233.56 198.772 237.359C200.539 241.15 201.646 246.09 201.646 246.09C201.646 246.09 188.411 261.675 169.566 255.833L161.102 250.705C159.314 249.622 157.733 248.257 156.399 246.683L158.93 226.533C159.061 225.472 158.958 224.381 158.627 223.37L155.925 215.043C153.23 206.731 155.314 197.537 161.295 191.405L170.391 182.067L194.283 185.231L197.831 186.307C202.657 187.766 205.738 192.734 205.05 197.963C203.873 206.854 201.962 219.687 200.168 224.468Z" fill="#695CFF"/>
<path opacity="0.5" d="M200.168 224.468C197.315 232.073 196.998 233.56 198.772 237.359C200.539 241.15 201.646 246.09 201.646 246.09C201.646 246.09 188.411 261.675 169.566 255.833L161.102 250.705C159.314 249.622 157.733 248.257 156.399 246.683L158.93 226.533C159.061 225.472 158.958 224.381 158.627 223.37L155.925 215.043C153.23 206.731 155.314 197.537 161.295 191.405L170.391 182.067L194.283 185.231L197.831 186.307C202.657 187.766 205.738 192.734 205.05 197.963C203.873 206.854 201.962 219.687 200.168 224.468Z" fill="black"/>
<path d="M185.764 201.774L180.979 197.493C179.946 196.568 178.525 196.286 177.241 196.749L171.457 198.838L170.679 195.436C170.169 193.201 167.985 191.865 165.883 192.501L163.375 193.259L167.621 184.724C169.004 181.945 171.136 179.655 173.751 178.141L175.412 177.179L189.158 177.922C189.158 177.922 194.282 180.151 194.282 185.234L185.764 201.774Z" fill="#695CFF"/>
<path d="M189.219 184.286L175.435 195.568V159.653H189.219V184.286Z" fill="#945959"/>
<path d="M175.649 181.331L171.457 198.837L189.158 184.286L175.649 181.331Z" fill="#945959"/>
<path d="M175.435 178.727C180.737 176.577 186.279 172.262 189.219 164.957V159.653H175.435V178.727Z" fill="#703838"/>
<path d="M178.41 133.037C173.182 133.037 162.067 136.098 160.785 150.464C159.502 164.831 160.74 175.98 167.8 177.048C174.86 178.116 191.248 172.748 193.442 154.149C195.637 135.551 183.509 133.037 178.41 133.037Z" fill="#945959"/>
<path d="M170.179 156.545V165.018L165.456 163.495L170.179 156.545Z" fill="#703838"/>
<path d="M175.435 159.737C176.342 159.737 177.078 158.964 177.078 158.011C177.078 157.057 176.342 156.284 175.435 156.284C174.527 156.284 173.791 157.057 173.791 158.011C173.791 158.964 174.527 159.737 175.435 159.737Z" fill="#263238"/>
<path d="M166.269 156.807C166.269 157.76 165.534 158.533 164.626 158.533C163.718 158.533 162.982 157.76 162.982 156.807C162.982 155.854 163.718 155.081 164.626 155.081C165.533 155.081 166.269 155.854 166.269 156.807Z" fill="#263238"/>
<path d="M162.623 153.212L165.837 151.208C165.837 151.208 164.603 149.861 163.376 150.67C162.148 151.479 162.623 153.212 162.623 153.212Z" fill="#263238"/>
<path d="M167.958 168.452C167.958 168.452 170.566 168.702 172.384 167.207C172.384 167.207 172.686 169.655 170.733 170.124C168.78 170.593 167.958 168.452 167.958 168.452Z" fill="#703838"/>
<path d="M165.156 137.923C165.156 137.923 167.121 157.764 192.8 158.383C192.8 158.383 200.559 138.668 185.225 132.263C169.891 125.858 165.156 137.923 165.156 137.923Z" fill="#263238"/>
<path d="M200.36 155.413L200.361 155.412L200.347 155.404C200.343 155.402 200.34 155.399 200.336 155.397L197.179 153.482L197.178 153.485C195.982 152.744 194.324 152.84 192.489 153.952C188.847 156.161 185.894 161.534 185.894 165.952C185.894 168.164 186.634 169.717 187.831 170.44L190.931 172.31C190.99 172.349 191.05 172.385 191.111 172.419L191.216 172.483L191.221 172.474C192.396 173.071 193.957 172.929 195.678 171.886C199.321 169.677 202.274 164.304 202.274 159.886C202.273 157.688 201.542 156.142 200.36 155.413Z" fill="#695CFF"/>
<path d="M200.337 166.718C202.913 162.032 202.913 156.967 200.337 155.405C197.762 153.843 193.586 156.375 191.01 161.062C188.434 165.748 188.434 170.813 191.01 172.375C193.585 173.937 197.761 171.404 200.337 166.718Z" fill="#695CFF"/>
<path opacity="0.5" d="M200.337 166.718C202.913 162.032 202.913 156.967 200.337 155.405C197.762 153.843 193.586 156.375 191.01 161.062C188.434 165.748 188.434 170.813 191.01 172.375C193.585 173.937 197.761 171.404 200.337 166.718Z" fill="black"/>
<path d="M201.629 159.574L201.629 159.573L201.62 159.567C201.617 159.566 201.615 159.564 201.612 159.563L199.452 158.252L199.452 158.254C198.633 157.747 197.499 157.813 196.244 158.573C193.751 160.085 191.73 163.761 191.73 166.784C191.73 168.298 192.237 169.361 193.056 169.855L195.176 171.134C195.217 171.161 195.258 171.185 195.3 171.209L195.372 171.253L195.375 171.247C196.179 171.655 197.248 171.559 198.425 170.845C200.918 169.333 202.938 165.657 202.938 162.634C202.938 161.13 202.438 160.073 201.629 159.574Z" fill="#695CFF"/>
<path d="M202.938 162.634C202.938 165.657 200.917 169.333 198.425 170.845C195.932 172.357 193.912 171.131 193.912 168.108C193.912 165.085 195.932 161.408 198.425 159.897C200.917 158.385 202.938 159.611 202.938 162.634Z" fill="#695CFF"/>
<path opacity="0.3" d="M202.938 162.634C202.938 165.657 200.917 169.333 198.425 170.845C195.932 172.357 193.912 171.131 193.912 168.108C193.912 165.085 195.932 161.408 198.425 159.897C200.917 158.385 202.938 159.611 202.938 162.634Z" fill="black"/>
<path d="M190.557 129.161C188.518 127.487 186.001 126.604 183.414 126.564C183.207 126.561 183 126.56 182.792 126.56C179.926 126.56 177.331 126.836 174.991 127.343C175.461 127.323 175.93 127.325 176.4 127.343H174.991V128.734H176.316C179.155 128.839 181.979 129.659 184.52 131.196C189.972 134.504 193.361 140.672 193.361 147.287V153.187C193.361 154.17 194.162 154.949 195.11 154.846C195.166 154.84 195.217 154.823 195.27 154.811L196.679 154.35V154.348C196.584 154.378 196.487 154.401 196.385 154.412C197.263 154.318 197.896 153.472 197.896 152.545V147.071C197.896 137.168 193.82 131.841 190.557 129.161Z" fill="#695CFF"/>
<path d="M181.572 176.636C180.993 176.636 180.41 176.507 179.862 176.24L175.397 174.071C175.131 173.942 175.015 173.609 175.138 173.33C175.262 173.049 175.579 172.93 175.844 173.057L180.308 175.225C181.474 175.792 182.856 175.519 183.747 174.545L188.006 169.893C188.21 169.671 188.546 169.664 188.758 169.877C188.97 170.091 188.977 170.445 188.773 170.667L184.514 175.319C183.728 176.18 182.658 176.636 181.572 176.636Z" fill="#695CFF"/>
<path opacity="0.5" d="M181.572 176.636C180.993 176.636 180.41 176.507 179.862 176.24L175.397 174.071C175.131 173.942 175.015 173.609 175.138 173.33C175.262 173.049 175.579 172.93 175.844 173.057L180.308 175.225C181.474 175.792 182.856 175.519 183.747 174.545L188.006 169.893C188.21 169.671 188.546 169.664 188.758 169.877C188.97 170.091 188.977 170.445 188.773 170.667L184.514 175.319C183.728 176.18 182.658 176.636 181.572 176.636Z" fill="black"/>
<path d="M176.574 172.482C176.574 173.692 175.64 174.672 174.489 174.672C173.337 174.672 172.404 173.692 172.404 172.482C172.404 171.272 173.337 170.292 174.489 170.292C175.64 170.292 176.574 171.272 176.574 172.482Z" fill="#695CFF"/>
<path opacity="0.5" d="M176.574 172.482C176.574 173.692 175.64 174.672 174.489 174.672C173.337 174.672 172.404 173.692 172.404 172.482C172.404 171.272 173.337 170.292 174.489 170.292C175.64 170.292 176.574 171.272 176.574 172.482Z" fill="black"/>
<path d="M197.896 147.072V152.546C197.896 153.473 197.262 154.319 196.385 154.414C195.377 154.523 194.525 153.695 194.525 152.65V147.073C194.525 140.039 190.921 133.48 185.123 129.962C182.001 128.073 178.477 127.198 174.99 127.343C177.33 126.836 179.925 126.56 182.791 126.56C182.999 126.56 183.207 126.562 183.413 126.565C186 126.605 188.518 127.488 190.556 129.162C193.819 131.841 197.896 137.168 197.896 147.072Z" fill="#695CFF"/>
<path opacity="0.5" d="M197.896 147.072V152.546C197.896 153.473 197.262 154.319 196.385 154.414C195.377 154.523 194.525 153.695 194.525 152.65V147.073C194.525 140.039 190.921 133.48 185.123 129.962C182.001 128.073 178.477 127.198 174.99 127.343C177.33 126.836 179.925 126.56 182.791 126.56C182.999 126.56 183.207 126.562 183.413 126.565C186 126.605 188.518 127.488 190.556 129.162C193.819 131.841 197.896 137.168 197.896 147.072Z" fill="black"/>
<path d="M189.872 250.255C189.872 250.255 186.415 260.266 198.769 264.739C198.769 264.739 202.804 258.519 198.769 253.427C194.734 248.336 189.872 250.255 189.872 250.255Z" fill="#695CFF"/>
<path opacity="0.7" d="M189.872 250.255C189.872 250.255 186.415 260.266 198.769 264.739C198.769 264.739 202.804 258.519 198.769 253.427C194.734 248.336 189.872 250.255 189.872 250.255Z" fill="black"/>
<path d="M194.186 250.708C194.186 250.708 182.123 255.356 182.184 257.15C182.245 258.944 187.314 257.724 187.314 257.724L185.462 258.997C183.516 260.333 182.009 262.266 181.144 264.533C180.75 265.568 181.162 266.749 182.099 267.27L186.684 269.821C187.775 270.427 189.127 269.968 189.673 268.805C190.18 267.722 191.091 266.921 192.182 266.539C194.673 265.666 199.301 263.159 201.183 256.309L194.186 250.708Z" fill="#945959"/>
<path d="M197.828 186.307C197.828 186.307 191.408 190.068 194.813 201.444C198.218 212.819 204.634 230.493 204.634 230.493L189.872 250.256C189.872 250.256 194.813 250.604 197.806 255.232C200.799 259.86 198.769 264.74 198.769 264.74L217.089 240.019C220.533 235.372 221.511 229.214 219.689 223.644L211.809 199.551C209.859 193.586 205.365 188.923 199.664 186.945L197.828 186.307Z" fill="#695CFF"/>
<path d="M89.3586 119.055L60.9635 101.834C60.1067 101.314 59.3206 101.254 58.6994 101.573L58.6987 101.574C58.6223 101.613 58.5488 101.658 58.4774 101.709L52.302 105.511C52.3141 105.503 52.3277 105.498 52.3398 105.491C51.5644 105.952 51.0718 107.033 51.0718 108.577V141.742C51.0718 144.547 52.6961 147.807 54.6996 149.022L83.0947 166.243C84.0643 166.831 84.9425 166.828 85.593 166.354C85.5758 166.366 85.5608 166.383 85.5437 166.394L91.677 162.613L91.6762 162.613C92.4759 162.166 92.985 161.071 92.985 159.499V126.334C92.9857 123.529 91.3621 120.27 89.3586 119.055Z" fill="#695CFF"/>
<path d="M91.9702 122.198C91.3104 120.838 90.3851 119.677 89.3584 119.055L60.9633 101.834C60.1065 101.314 59.3204 101.254 58.6992 101.573L58.6985 101.574C58.6221 101.613 58.5485 101.658 58.4771 101.709L52.3018 105.511C52.9408 105.109 53.7797 105.138 54.6987 105.696L83.0937 122.917C84.1562 123.561 85.1093 124.783 85.7726 126.205L91.9702 122.198Z" fill="#695CFF"/>
<path d="M86.7225 163.362C86.7225 164.846 86.2684 165.905 85.5444 166.394L91.6777 162.614L91.677 162.613C92.4767 162.166 92.9857 161.071 92.9857 159.5V126.335C92.9857 124.967 92.5973 123.492 91.9697 122.198L85.7729 126.203C86.3605 127.463 86.7218 128.878 86.7218 130.196L86.7225 163.362Z" fill="#695CFF"/>
<path opacity="0.3" d="M91.9702 122.198C91.3104 120.838 90.3851 119.677 89.3584 119.055L60.9633 101.834C60.1065 101.314 59.3204 101.254 58.6992 101.573L58.6985 101.574C58.6221 101.613 58.5485 101.658 58.4771 101.709L52.3018 105.511C52.9408 105.109 53.7797 105.138 54.6987 105.696L83.0937 122.917C84.1562 123.561 85.1093 124.783 85.7726 126.205L91.9702 122.198Z" fill="black"/>
<path opacity="0.6" d="M86.7225 163.362C86.7225 164.846 86.2684 165.905 85.5444 166.394L91.6777 162.614L91.677 162.613C92.4767 162.166 92.9857 161.071 92.9857 159.5V126.335C92.9857 124.967 92.5973 123.492 91.9697 122.198L85.7729 126.203C86.3605 127.463 86.7218 128.878 86.7218 130.196L86.7225 163.362Z" fill="black"/>
<path d="M78.4001 139.704C78.4001 143.998 76.7786 145.46 74.346 143.985C73.0016 143.17 72.0527 141.875 71.6371 140.255C70.9445 141.178 69.8178 141.238 68.2549 140.291C65.7045 138.744 63.6867 135.074 63.6867 131.452C63.6867 127.855 65.6845 126.619 68.2549 128.179C69.5601 128.97 70.589 130.145 71.3001 131.608V130.193L73.9897 131.825V139.596C73.9897 140.747 74.4053 141.383 74.9394 141.706C75.849 142.258 76.4023 141.322 76.4023 138.541C76.4023 133.672 73.4357 128.515 69.046 125.852C64.6363 123.178 61.689 125.037 61.689 130.05C61.689 135.159 64.5771 140.531 68.9668 143.194C70.212 143.949 71.6164 144.489 72.8616 144.501L73.4949 147.091C72.2883 147.103 70.5283 146.443 68.9668 145.496C63.2512 142.03 59.4741 135.038 59.4741 128.707C59.4741 122.446 63.2905 120.084 69.0453 123.574C74.6031 126.944 78.4001 133.684 78.4001 139.704ZM71.3401 136.094C71.3401 134.008 70.2919 132.196 68.8682 131.333C67.4245 130.458 66.4163 131.069 66.4163 133.108C66.4163 135.171 67.4245 137.03 68.8682 137.905C70.2919 138.769 71.3401 138.205 71.3401 136.094Z" fill="#695CFF"/>
<g opacity="0.9">
<path d="M78.4001 139.704C78.4001 143.998 76.7786 145.46 74.346 143.985C73.0016 143.17 72.0527 141.875 71.6371 140.255C70.9445 141.178 69.8178 141.238 68.2549 140.291C65.7045 138.744 63.6867 135.074 63.6867 131.452C63.6867 127.855 65.6845 126.619 68.2549 128.179C69.5601 128.97 70.589 130.145 71.3001 131.608V130.193L73.9897 131.825V139.596C73.9897 140.747 74.4053 141.383 74.9394 141.706C75.849 142.258 76.4023 141.322 76.4023 138.541C76.4023 133.672 73.4357 128.515 69.046 125.852C64.6363 123.178 61.689 125.037 61.689 130.05C61.689 135.159 64.5771 140.531 68.9668 143.194C70.212 143.949 71.6164 144.489 72.8616 144.501L73.4949 147.091C72.2883 147.103 70.5283 146.443 68.9668 145.496C63.2512 142.03 59.4741 135.038 59.4741 128.707C59.4741 122.446 63.2905 120.084 69.0453 123.574C74.6031 126.944 78.4001 133.684 78.4001 139.704ZM71.3401 136.094C71.3401 134.008 70.2919 132.196 68.8682 131.333C67.4245 130.458 66.4163 131.069 66.4163 133.108C66.4163 135.171 67.4245 137.03 68.8682 137.905C70.2919 138.769 71.3401 138.205 71.3401 136.094Z" fill="white"/>
</g>
<path d="M89.3586 178.136L60.9635 160.916C60.1067 160.396 59.3206 160.336 58.6994 160.655L58.6987 160.655C58.6223 160.694 58.5488 160.739 58.4774 160.79L52.302 164.592C52.3141 164.585 52.3277 164.579 52.3398 164.573C51.5644 165.034 51.0718 166.115 51.0718 167.658V200.823C51.0718 203.629 52.6961 206.888 54.6996 208.103L83.0947 225.324C84.0643 225.912 84.9425 225.909 85.593 225.436C85.5758 225.448 85.5608 225.464 85.5437 225.476L91.677 221.695L91.6762 221.694C92.4759 221.247 92.985 220.152 92.985 218.581V185.416C92.9857 182.612 91.3621 179.351 89.3586 178.136Z" fill="#695CFF"/>
<path d="M91.9702 181.28C91.3104 179.92 90.3851 178.76 89.3584 178.137L60.9633 160.916C60.1065 160.397 59.3204 160.337 58.6992 160.655L58.6985 160.656C58.6221 160.695 58.5485 160.74 58.4771 160.791L52.3018 164.593C52.9408 164.192 53.7797 164.22 54.6987 164.778L83.0937 181.999C84.1562 182.643 85.1093 183.865 85.7726 185.287L91.9702 181.28Z" fill="#695CFF"/>
<path d="M86.7225 222.444C86.7225 223.928 86.2684 224.987 85.5444 225.476L91.6777 221.696L91.677 221.695C92.4767 221.248 92.9857 220.153 92.9857 218.582V185.417C92.9857 184.049 92.5973 182.574 91.9697 181.28L85.7729 185.285C86.3605 186.545 86.7218 187.96 86.7218 189.278L86.7225 222.444Z" fill="#695CFF"/>
<path opacity="0.3" d="M91.9702 181.28C91.3104 179.92 90.3851 178.76 89.3584 178.137L60.9633 160.916C60.1065 160.397 59.3204 160.337 58.6992 160.655L58.6985 160.656C58.6221 160.695 58.5485 160.74 58.4771 160.791L52.3018 164.593C52.9408 164.192 53.7797 164.22 54.6987 164.778L83.0937 181.999C84.1562 182.643 85.1093 183.865 85.7726 185.287L91.9702 181.28Z" fill="black"/>
<path opacity="0.6" d="M86.7225 222.444C86.7225 223.928 86.2684 224.987 85.5444 225.476L91.6777 221.696L91.677 221.695C92.4767 221.248 92.9857 220.153 92.9857 218.582V185.417C92.9857 184.049 92.5973 182.574 91.9697 181.28L85.7729 185.285C86.3605 186.545 86.7218 187.96 86.7218 189.278L86.7225 222.444Z" fill="black"/>
<path d="M65.7203 192.965L58.8745 181.28V197.117L65.7203 192.965Z" fill="#695CFF"/>
<path d="M72.0854 196.332L78.9191 208.766V192.956L72.0854 196.332Z" fill="#695CFF"/>
<path d="M59.915 180.767L66.9465 192.77C66.9736 192.802 67.0058 192.827 67.0265 192.866C67.0422 192.894 67.0443 192.926 67.0558 192.956L69.1164 196.475L70.8856 195.6C70.9156 195.572 70.9406 195.538 70.977 195.515C71.0506 195.471 71.1291 195.449 71.2084 195.44L78.3177 191.927L59.915 180.767Z" fill="#695CFF"/>
<path d="M71.049 196.845L69.1405 197.788C69.0627 197.827 68.9791 197.845 68.8984 197.845C68.7057 197.845 68.5186 197.742 68.4115 197.56L66.3188 193.988L59.4458 198.156L77.9313 209.367L71.049 196.845Z" fill="#695CFF"/>
<g opacity="0.9">
<path d="M65.7203 192.965L58.8745 181.28V197.117L65.7203 192.965Z" fill="white"/>
<path d="M72.0854 196.332L78.9191 208.766V192.956L72.0854 196.332Z" fill="white"/>
<path d="M59.915 180.767L66.9465 192.77C66.9736 192.802 67.0058 192.827 67.0265 192.866C67.0422 192.894 67.0443 192.926 67.0558 192.956L69.1164 196.475L70.8856 195.6C70.9156 195.572 70.9406 195.538 70.977 195.515C71.0506 195.471 71.1291 195.449 71.2084 195.44L78.3177 191.927L59.915 180.767Z" fill="white"/>
<path d="M71.049 196.845L69.1405 197.788C69.0627 197.827 68.9791 197.845 68.8984 197.845C68.7057 197.845 68.5186 197.742 68.4115 197.56L66.3188 193.988L59.4458 198.156L77.9313 209.367L71.049 196.845Z" fill="white"/>
</g>
<path d="M89.3586 59.9738L60.9635 42.753C60.1067 42.2333 59.3206 42.1733 58.6994 42.492L58.6987 42.4928C58.6223 42.5318 58.5488 42.5768 58.4774 42.6278L52.302 46.4295C52.3141 46.422 52.3277 46.4168 52.3398 46.41C51.5644 46.8713 51.0718 47.952 51.0718 49.4955V82.6605C51.0718 85.4663 52.6961 88.7265 54.6996 89.9415L83.0947 107.162C84.0643 107.75 84.9425 107.747 85.593 107.274C85.5758 107.286 85.5608 107.303 85.5437 107.314L91.677 103.533L91.6762 103.532C92.4759 103.085 92.985 101.99 92.985 100.419V67.254C92.9857 64.4483 91.3621 61.1888 89.3586 59.9738Z" fill="#695CFF"/>
<path d="M91.9702 63.117C91.3104 61.7565 90.3851 60.5963 89.3584 59.973L60.9633 42.753C60.1065 42.2333 59.3204 42.1733 58.6992 42.492L58.6985 42.4928C58.6221 42.5318 58.5485 42.5768 58.4771 42.6278L52.3018 46.4295C52.9408 46.0283 53.7797 46.0568 54.6987 46.6148L83.0937 63.8355C84.1562 64.4798 85.1093 65.7015 85.7726 67.1235L91.9702 63.117Z" fill="#695CFF"/>
<path d="M86.7225 104.281C86.7225 105.764 86.2684 106.823 85.5444 107.313L91.6777 103.532L91.677 103.532C92.4767 103.085 92.9857 101.99 92.9857 100.418V67.2533C92.9857 65.8853 92.5973 64.4108 91.9697 63.1163L85.7729 67.122C86.3605 68.3813 86.7218 69.7965 86.7218 71.115L86.7225 104.281Z" fill="#695CFF"/>
<path opacity="0.3" d="M91.9702 63.117C91.3104 61.7565 90.3851 60.5963 89.3584 59.973L60.9633 42.753C60.1065 42.2333 59.3204 42.1733 58.6992 42.492L58.6985 42.4928C58.6221 42.5318 58.5485 42.5768 58.4771 42.6278L52.3018 46.4295C52.9408 46.0283 53.7797 46.0568 54.6987 46.6148L83.0937 63.8355C84.1562 64.4798 85.1093 65.7015 85.7726 67.1235L91.9702 63.117Z" fill="black"/>
<path opacity="0.6" d="M86.7225 104.281C86.7225 105.764 86.2684 106.823 85.5444 107.313L91.6777 103.532L91.677 103.532C92.4767 103.085 92.9857 101.99 92.9857 100.418V67.2533C92.9857 65.8853 92.5973 64.4108 91.9697 63.1163L85.7729 67.122C86.3605 68.3813 86.7218 69.7965 86.7218 71.115L86.7225 104.281Z" fill="black"/>
<path d="M77.4354 89.9738C76.3437 88.0883 75.2427 86.2095 74.1495 84.3248C73.6476 83.4593 73.0828 82.9575 72.4302 82.8105C71.9004 82.6913 71.3699 82.5698 70.8302 82.3995C70.6874 82.3545 70.4596 82.161 70.3611 81.981C68.5404 78.6683 67.1188 75.2655 66.1299 71.7788C66.0842 71.6168 66.1163 71.4 66.1892 71.3235C66.524 70.9703 66.8803 70.647 67.2409 70.3335C67.6857 69.9473 67.7628 69.288 67.5151 68.3468C66.9874 66.3435 66.4776 64.3433 65.9542 62.3408C65.6122 61.0305 64.8397 60.084 63.9094 59.847C62.6142 59.517 61.4468 59.5598 60.41 59.9805C59.9731 60.1583 59.7482 60.5715 59.7432 61.2803C59.9238 62.6543 60.0488 64.0103 60.2937 65.4045C62.0594 75.4635 66.307 84.729 73.01 93.1875C73.5376 93.8535 74.066 94.1685 74.6001 94.1438C75.7775 94.0898 76.7863 93.69 77.616 92.9235C78.2522 92.3378 78.1872 91.272 77.4354 89.9738Z" fill="#695CFF"/>
<path d="M77.3503 79.7768C77.2346 77.772 76.6698 75.7073 75.6624 73.5945C74.9341 72.066 74.0395 70.6898 72.9877 69.4643C72.705 69.1343 72.4672 69.0278 72.3308 69.2805C72.1916 69.5385 72.3266 69.879 72.6015 70.2023C72.695 70.3125 72.7878 70.4235 72.8778 70.539C74.9477 73.1768 76.1358 76.0088 76.4356 79.035C76.4585 79.266 76.4192 79.4948 76.4985 79.719C76.5827 79.9575 76.7648 80.2815 76.9212 80.3985C77.069 80.5088 77.2389 80.3978 77.361 80.388C77.3567 80.0933 77.3596 79.9388 77.3503 79.7768Z" fill="#695CFF"/>
<path d="M70.8796 73.62C71.8313 74.7728 72.329 76.0028 72.4275 77.3415C72.4425 77.5425 72.6017 77.8148 72.6517 77.9453C73.0858 78.3233 73.3 78.1958 73.3007 77.7248C73.3022 76.3148 72.3718 74.0918 71.2915 72.9135C71.0231 72.6203 70.7967 72.5318 70.6682 72.7778C70.5504 73.0058 70.6404 73.3305 70.8796 73.62Z" fill="#695CFF"/>
<g opacity="0.9">
<path d="M77.4354 89.9738C76.3437 88.0883 75.2427 86.2095 74.1495 84.3248C73.6476 83.4593 73.0828 82.9575 72.4302 82.8105C71.9004 82.6913 71.3699 82.5698 70.8302 82.3995C70.6874 82.3545 70.4596 82.161 70.3611 81.981C68.5404 78.6683 67.1188 75.2655 66.1299 71.7788C66.0842 71.6168 66.1163 71.4 66.1892 71.3235C66.524 70.9703 66.8803 70.647 67.2409 70.3335C67.6857 69.9473 67.7628 69.288 67.5151 68.3468C66.9874 66.3435 66.4776 64.3433 65.9542 62.3408C65.6122 61.0305 64.8397 60.084 63.9094 59.847C62.6142 59.517 61.4468 59.5598 60.41 59.9805C59.9731 60.1583 59.7482 60.5715 59.7432 61.2803C59.9238 62.6543 60.0488 64.0103 60.2937 65.4045C62.0594 75.4635 66.307 84.729 73.01 93.1875C73.5376 93.8535 74.066 94.1685 74.6001 94.1438C75.7775 94.0898 76.7863 93.69 77.616 92.9235C78.2522 92.3378 78.1872 91.272 77.4354 89.9738Z" fill="white"/>
<path d="M77.3503 79.7768C77.2346 77.772 76.6698 75.7073 75.6624 73.5945C74.9341 72.066 74.0395 70.6898 72.9877 69.4643C72.705 69.1343 72.4672 69.0278 72.3308 69.2805C72.1916 69.5385 72.3266 69.879 72.6015 70.2023C72.695 70.3125 72.7878 70.4235 72.8778 70.539C74.9477 73.1768 76.1358 76.0088 76.4356 79.035C76.4585 79.266 76.4192 79.4948 76.4985 79.719C76.5827 79.9575 76.7648 80.2815 76.9212 80.3985C77.069 80.5088 77.2389 80.3978 77.361 80.388C77.3567 80.0933 77.3596 79.9388 77.3503 79.7768Z" fill="white"/>
<path d="M70.8796 73.62C71.8313 74.7728 72.329 76.0028 72.4275 77.3415C72.4425 77.5425 72.6017 77.8148 72.6517 77.9453C73.0858 78.3233 73.3 78.1958 73.3007 77.7248C73.3022 76.3148 72.3718 74.0918 71.2915 72.9135C71.0231 72.6203 70.7967 72.5318 70.6682 72.7778C70.5504 73.0058 70.6404 73.3305 70.8796 73.62Z" fill="white"/>
</g>
<path d="M235.046 40.11L241.738 44.109V41.6212C241.727 41.4442 241.716 41.2665 241.716 41.0925C241.716 40.9185 241.727 40.7542 241.738 40.59V40.5315L241.74 40.533C241.981 37.236 244.357 35.9722 247.258 37.7317C248.494 38.481 249.632 39.6675 250.554 41.0557C251.208 36.5775 254.685 34.9612 258.889 37.5112C263.56 40.3432 267.345 47.2312 267.345 52.8952L267.35 58.2248C267.35 59.0828 267.784 59.877 268.488 60.3112L272.425 62.7368C274.162 63.807 275.229 65.7637 275.229 67.8795C275.229 69.7695 273.28 70.9507 271.722 70.005L235.148 47.8125C233.171 46.6132 231.953 44.3977 231.953 41.9992C231.953 40.332 233.667 39.285 235.046 40.11Z" fill="#E6E6E6"/>
<path d="M286.047 39.0705L290.913 41.979V40.17C290.905 40.041 290.898 39.912 290.898 39.786C290.898 39.6593 290.905 39.54 290.913 39.4208V39.378L290.915 39.3788C291.09 36.981 292.819 36.0623 294.928 37.3418C295.827 37.887 296.654 38.7495 297.324 39.759C297.8 36.5025 300.329 35.3273 303.386 37.1813C306.783 39.2408 309.535 44.25 309.535 48.369L309.538 52.2443C309.539 52.8683 309.854 53.4458 310.366 53.7615L313.229 55.5255C314.492 56.304 315.268 57.7268 315.268 59.265C315.268 60.6398 313.851 61.4985 312.718 60.8108L286.121 44.6715C284.684 43.7993 283.798 42.1883 283.798 40.4445C283.798 39.2325 285.044 38.4713 286.047 39.0705Z" fill="#E6E6E6"/>
</svg>
