<svg width="28" height="16" viewBox="0 0 28 16" fill="none" xmlns="http://www.w3.org/2000/svg">
<path d="M25.4844 9.60293H2.51562C1.84868 9.60234 1.20926 9.39713 0.737657 9.03232C0.266052 8.6675 0.000767117 8.17288 0 7.65696L0 1.0999C0.000419771 0.808285 0.150359 0.528711 0.416921 0.322511C0.683484 0.116311 1.0449 0.000324715 1.42188 0H26.5781C26.9551 0.000324715 27.3165 0.116311 27.5831 0.322511C27.8496 0.528711 27.9996 0.808285 28 1.0999V7.65696C27.9992 8.17288 27.7339 8.6675 27.2623 9.03232C26.7907 9.39713 26.1513 9.60234 25.4844 9.60293ZM1.42188 0.507644C1.21889 0.507812 1.02427 0.570264 0.880736 0.681296C0.737201 0.792328 0.656467 0.942872 0.65625 1.0999V7.65696C0.6568 8.0383 0.852875 8.4039 1.20146 8.67354C1.55004 8.94319 2.02266 9.09486 2.51562 9.09529H25.4844C25.9773 9.09486 26.45 8.94319 26.7985 8.67354C27.1471 8.4039 27.3432 8.0383 27.3438 7.65696V1.0999C27.3435 0.942872 27.2628 0.792328 27.1193 0.681296C26.9757 0.570264 26.7811 0.507812 26.5781 0.507644H1.42188Z" fill="#6A6A6A"/>
<path d="M23.625 9.60306H4.375C4.28798 9.60306 4.20452 9.57632 4.14298 9.52872C4.08145 9.48112 4.04688 9.41656 4.04688 9.34924V6.38798C4.04729 6.09637 4.19723 5.8168 4.4638 5.6106C4.73036 5.4044 5.09177 5.28841 5.46875 5.28809H22.5312C22.9082 5.28841 23.2696 5.4044 23.5362 5.6106C23.8028 5.8168 23.9527 6.09637 23.9531 6.38798V9.34924C23.9531 9.41656 23.9186 9.48112 23.857 9.52872C23.7955 9.57632 23.712 9.60306 23.625 9.60306ZM4.70312 9.09542H23.2969V6.38798C23.2967 6.23096 23.2159 6.08041 23.0724 5.96938C22.9289 5.85835 22.7342 5.7959 22.5312 5.79573H5.46875C5.26576 5.7959 5.07115 5.85835 4.92761 5.96938C4.78408 6.08041 4.70334 6.23096 4.70312 6.38798V9.09542Z" fill="#6A6A6A"/>
<path d="M23.625 7.06477H4.375C4.28798 7.06477 4.20452 7.03803 4.14298 6.99043C4.08145 6.94283 4.04688 6.87827 4.04688 6.81095C4.04688 6.74363 4.08145 6.67907 4.14298 6.63147C4.20452 6.58387 4.28798 6.55713 4.375 6.55713H23.625C23.712 6.55713 23.7955 6.58387 23.857 6.63147C23.9186 6.67907 23.9531 6.74363 23.9531 6.81095C23.9531 6.87827 23.9186 6.94283 23.857 6.99043C23.7955 7.03803 23.712 7.06477 23.625 7.06477Z" fill="#6A6A6A"/>
<path d="M23.625 8.33382H4.375C4.28798 8.33382 4.20452 8.30707 4.14298 8.25947C4.08145 8.21187 4.04688 8.14731 4.04688 8.07999C4.04688 8.01268 4.08145 7.94812 4.14298 7.90051C4.20452 7.85291 4.28798 7.82617 4.375 7.82617H23.625C23.712 7.82617 23.7955 7.85291 23.857 7.90051C23.9186 7.94812 23.9531 8.01268 23.9531 8.07999C23.9531 8.14731 23.9186 8.21187 23.857 8.25947C23.7955 8.30707 23.712 8.33382 23.625 8.33382Z" fill="#6A6A6A"/>
<path d="M15.9141 2.62295H12.0859C11.7814 2.62295 11.4892 2.52935 11.2739 2.36275C11.0585 2.19614 10.9375 1.97018 10.9375 1.73457C10.9375 1.49896 11.0585 1.27299 11.2739 1.10639C11.4892 0.939788 11.7814 0.846191 12.0859 0.846191H15.9141C16.2186 0.846191 16.5108 0.939788 16.7261 1.10639C16.9415 1.27299 17.0625 1.49896 17.0625 1.73457C17.0625 1.97018 16.9415 2.19614 16.7261 2.36275C16.5108 2.52935 16.2186 2.62295 15.9141 2.62295ZM12.0859 1.35384C11.9554 1.35384 11.8302 1.39395 11.7379 1.46535C11.6456 1.53675 11.5938 1.63359 11.5938 1.73457C11.5938 1.83555 11.6456 1.93239 11.7379 2.00379C11.8302 2.07519 11.9554 2.1153 12.0859 2.1153H15.9141C16.0446 2.1153 16.1698 2.07519 16.2621 2.00379C16.3544 1.93239 16.4062 1.83555 16.4062 1.73457C16.4062 1.63359 16.3544 1.53675 16.2621 1.46535C16.1698 1.39395 16.0446 1.35384 15.9141 1.35384H12.0859Z" fill="#6A6A6A"/>
<path d="M20.8906 4.31506C20.6851 4.31506 20.4842 4.26792 20.3134 4.1796C20.1425 4.09128 20.0093 3.96575 19.9307 3.81888C19.852 3.67201 19.8314 3.5104 19.8715 3.35448C19.9116 3.19857 20.0106 3.05535 20.1559 2.94294C20.3012 2.83053 20.4864 2.75398 20.6879 2.72296C20.8895 2.69195 21.0984 2.70787 21.2883 2.7687C21.4781 2.82954 21.6404 2.93256 21.7546 3.06474C21.8687 3.19692 21.9297 3.35232 21.9297 3.51129C21.9294 3.72439 21.8198 3.9287 21.625 4.07938C21.4302 4.23007 21.1661 4.31482 20.8906 4.31506ZM20.8906 3.21516C20.8149 3.21516 20.7409 3.23253 20.6779 3.26507C20.615 3.29761 20.5659 3.34386 20.537 3.39797C20.508 3.45208 20.5004 3.51162 20.5152 3.56906C20.5299 3.6265 20.5664 3.67927 20.6199 3.72068C20.6735 3.7621 20.7417 3.7903 20.8159 3.80173C20.8902 3.81315 20.9672 3.80729 21.0371 3.78487C21.1071 3.76246 21.1669 3.72451 21.2089 3.67581C21.251 3.62711 21.2734 3.56986 21.2734 3.51129C21.2733 3.43278 21.233 3.35751 21.1612 3.302C21.0894 3.24648 20.9921 3.21525 20.8906 3.21516Z" fill="#6A6A6A"/>
<path d="M23.4063 4.31506C23.2007 4.31506 22.9999 4.26792 22.829 4.1796C22.6581 4.09128 22.5249 3.96575 22.4463 3.81888C22.3676 3.67201 22.3471 3.5104 22.3872 3.35448C22.4272 3.19857 22.5262 3.05535 22.6715 2.94294C22.8168 2.83053 23.002 2.75398 23.2035 2.72296C23.4051 2.69195 23.614 2.70787 23.8039 2.7687C23.9937 2.82954 24.156 2.93256 24.2702 3.06474C24.3844 3.19692 24.4453 3.35232 24.4453 3.51129C24.445 3.72439 24.3354 3.9287 24.1406 4.07938C23.9458 4.23007 23.6817 4.31482 23.4063 4.31506ZM23.4063 3.21516C23.3305 3.21516 23.2565 3.23253 23.1936 3.26507C23.1306 3.29761 23.0816 3.34386 23.0526 3.39797C23.0236 3.45208 23.016 3.51162 23.0308 3.56906C23.0456 3.6265 23.082 3.67927 23.1356 3.72068C23.1891 3.7621 23.2573 3.7903 23.3316 3.80173C23.4058 3.81315 23.4828 3.80729 23.5527 3.78487C23.6227 3.76246 23.6825 3.72451 23.7245 3.67581C23.7666 3.62711 23.7891 3.56986 23.7891 3.51129C23.7889 3.43278 23.7486 3.35751 23.6768 3.302C23.605 3.24648 23.5077 3.21525 23.4063 3.21516Z" fill="#6A6A6A"/>
<path d="M19.4171 16C19.1259 16.0027 18.8369 15.9604 18.5671 15.8756C18.2973 15.7908 18.052 15.6652 17.8457 15.5062C16.1542 14.2403 16.4134 10.912 16.4252 10.7711C16.4308 10.7039 16.4708 10.6412 16.5362 10.5968C16.6016 10.5524 16.6871 10.5299 16.7739 10.5342C16.8608 10.5386 16.9418 10.5695 16.9992 10.62C17.0566 10.6706 17.0857 10.7368 17.0801 10.804C17.0774 10.8362 16.8285 14.0389 18.3024 15.1416C18.6642 15.4123 19.0947 15.5241 19.619 15.4845C19.7052 15.4785 19.791 15.4991 19.8576 15.5418C19.9243 15.5845 19.9664 15.6458 19.9749 15.7125C19.9834 15.7791 19.9575 15.8456 19.9028 15.8975C19.8482 15.9494 19.7693 15.9826 19.6832 15.9897C19.5929 15.9966 19.5042 16 19.4171 16Z" fill="#6A6A6A"/>
<path d="M21.6761 13.5373C21.6507 13.5373 21.6255 13.535 21.6009 13.5306L21.5122 13.5144C19.084 13.0741 18.1758 12.9095 18.1758 10.7875C18.1758 10.7202 18.2104 10.6556 18.2719 10.608C18.3334 10.5604 18.4169 10.5337 18.5039 10.5337C18.5909 10.5337 18.6744 10.5604 18.7359 10.608C18.7975 10.6556 18.832 10.7202 18.832 10.7875C18.832 12.507 19.2641 12.5854 21.662 13.0202L21.7507 13.0363C21.8291 13.0504 21.8981 13.0864 21.9444 13.1374C21.9908 13.1883 22.0113 13.2506 22.0021 13.3125C21.9929 13.3744 21.9546 13.4315 21.8944 13.473C21.8343 13.5144 21.7566 13.5373 21.6761 13.5373Z" fill="#6A6A6A"/>
<path d="M8.5828 16C8.49563 16 8.40693 15.9966 8.31669 15.9897C8.23064 15.9826 8.15171 15.9494 8.09708 15.8975C8.04245 15.8456 8.01655 15.7791 8.02501 15.7125C8.03348 15.6458 8.07563 15.5845 8.14228 15.5418C8.20894 15.4991 8.2947 15.4785 8.3809 15.4845C8.90518 15.5243 9.33568 15.4122 9.6975 15.1416C11.1716 14.0389 10.9225 10.8362 10.9198 10.804C10.9142 10.7368 10.9433 10.6706 11.0007 10.62C11.0581 10.5695 11.1391 10.5386 11.226 10.5342C11.3128 10.5299 11.3984 10.5524 11.4638 10.5968C11.5291 10.6412 11.5691 10.7039 11.5747 10.7711C11.5865 10.9121 11.8457 14.2403 10.1542 15.5062C9.94788 15.6652 9.70264 15.7908 9.43282 15.8755C9.163 15.9603 8.87402 16.0027 8.5828 16Z" fill="#6A6A6A"/>
<path d="M5.61336 13.5373C5.53283 13.5373 5.4551 13.5144 5.39498 13.473C5.33486 13.4315 5.29654 13.3744 5.28732 13.3125C5.27809 13.2506 5.29862 13.1883 5.34497 13.1374C5.39133 13.0864 5.46029 13.0504 5.53871 13.0363L5.62741 13.0202C8.02535 12.5853 8.45738 12.507 8.45738 10.7875C8.45738 10.7202 8.49195 10.6556 8.55349 10.608C8.61502 10.5604 8.69848 10.5337 8.78551 10.5337C8.87253 10.5337 8.95599 10.5604 9.01753 10.608C9.07906 10.6556 9.11363 10.7202 9.11363 10.7875C9.11363 12.9093 8.20516 13.0741 5.77726 13.5144L5.68856 13.5306C5.6639 13.535 5.63867 13.5373 5.61336 13.5373Z" fill="#6A6A6A"/>
</svg>
