<svg width="50" height="35" viewBox="0 0 50 35" fill="none" xmlns="http://www.w3.org/2000/svg">
<rect width="49.0762" height="34.2549" rx="5.76117" fill="#0060AF"/>
<path fill-rule="evenodd" clip-rule="evenodd" d="M10.0958 20.4097C10.0958 19.95 10.1012 18.7211 10.0889 18.5697C10.0997 16.7412 8.65639 15.4513 7.7446 15.5519C7.11368 15.6023 6.5848 15.8393 6.301 16.5211C6.03775 17.1564 6.27312 18.0015 7.14799 18.1998C8.08338 18.4128 8.62975 18.59 9.02508 18.84C9.50948 19.146 9.90492 19.7307 9.91542 20.4104" fill="white"/>
<path fill-rule="evenodd" clip-rule="evenodd" d="M9.703 20.4104C9.70605 19.8211 9.34898 19.3 8.88231 19.0199C8.46835 18.7725 7.91261 18.6099 7.01606 18.4004C6.73892 18.3351 6.44903 18.19 6.35928 18.0051C6.12188 18.2255 6.07876 18.7209 6.12053 19.0105C6.16907 19.3454 6.59409 19.8976 7.23404 19.9192C7.62486 19.9337 8.11897 19.8418 8.35592 19.7954C8.76468 19.7141 9.41141 19.9499 9.51436 20.4096" fill="white"/>
<path fill-rule="evenodd" clip-rule="evenodd" d="M10.4234 12.7021C9.33822 12.7021 8.40103 13.3613 8.40431 14.502C8.40769 15.4612 9.24509 15.9747 9.54401 16.3414C9.99556 16.8941 10.24 17.5483 10.2652 18.5493C10.2851 19.3459 10.2841 20.1326 10.2885 20.4114H10.5279C10.5239 20.1197 10.513 19.2846 10.5253 18.5246C10.5416 17.5233 10.7948 16.8941 11.2466 16.3414C11.5481 15.9747 12.3847 15.4612 12.3865 14.502C12.3907 13.3613 11.4538 12.7021 10.3698 12.7021" fill="white"/>
<path fill-rule="evenodd" clip-rule="evenodd" d="M10.7015 20.4097C10.7015 19.95 10.6959 18.7211 10.7079 18.5697C10.6973 16.7412 12.1397 15.4513 13.0523 15.5519C13.6832 15.6023 14.2114 15.8393 14.4961 16.5211C14.759 17.1564 14.5224 18.0015 13.6487 18.1998C12.7126 18.4128 12.167 18.59 11.7707 18.84C11.2868 19.146 10.919 19.7307 10.9078 20.4104" fill="white"/>
<path fill-rule="evenodd" clip-rule="evenodd" d="M11.0899 20.4104C11.0865 19.8211 11.4434 19.3 11.9088 19.0199C12.3245 18.7725 12.8808 18.6099 13.7766 18.4004C14.0543 18.3351 14.3438 18.19 14.432 18.0051C14.6705 18.2255 14.7137 18.7209 14.6718 19.0105C14.6223 19.3454 14.1983 19.8976 13.5595 19.9192C13.1689 19.9337 12.6721 19.8418 12.4362 19.7954C12.029 19.7141 11.3804 19.9499 11.277 20.4096" fill="white"/>
<path fill-rule="evenodd" clip-rule="evenodd" d="M11.4258 22.3129L11.2871 21.3796L11.6223 21.3328C11.7038 21.3226 11.8031 21.3357 11.8429 21.3827C11.8868 21.4319 11.9002 21.4726 11.9087 21.5371C11.9214 21.6169 11.8964 21.7091 11.7988 21.755V21.7578C11.9076 21.7578 11.9735 21.8299 11.9927 21.9516C11.9954 21.9773 12.0037 22.0393 11.9954 22.0911C11.9732 22.2143 11.8935 22.2541 11.7588 22.2714L11.4258 22.3129ZM11.643 22.146C11.6827 22.1407 11.723 22.1387 11.7545 22.1202C11.8028 22.0912 11.7984 22.0292 11.7917 21.983C11.775 21.8818 11.7463 21.8432 11.6297 21.8592L11.5563 21.8696L11.6028 22.1511L11.643 22.146ZM11.573 21.7148C11.6173 21.7083 11.6774 21.7033 11.7025 21.6645C11.7157 21.6386 11.7324 21.618 11.7213 21.5604C11.7076 21.4922 11.6832 21.4497 11.5889 21.4662L11.5012 21.4792L11.5358 21.7183L11.573 21.7148Z" fill="white"/>
<path fill-rule="evenodd" clip-rule="evenodd" d="M12.8783 21.7519C12.8809 21.7693 12.884 21.7886 12.8851 21.806C12.9122 21.9761 12.8783 22.1171 12.6706 22.1559C12.3635 22.2103 12.3047 22.0346 12.2507 21.7886L12.2219 21.6554C12.1796 21.4201 12.1614 21.2418 12.4608 21.1868C12.6295 21.1585 12.7411 21.2204 12.7875 21.3751C12.7947 21.3982 12.8037 21.421 12.8071 21.4443L12.6235 21.4792C12.6022 21.421 12.5741 21.3171 12.4915 21.3259C12.3432 21.3424 12.3921 21.5123 12.4074 21.5834L12.4626 21.8389C12.4792 21.9162 12.5121 22.0396 12.6405 22.0158C12.7447 21.9966 12.6992 21.847 12.6899 21.7857" fill="white"/>
<path fill-rule="evenodd" clip-rule="evenodd" d="M13.1728 22.034L13.1094 21.0681L13.356 20.9988L13.8734 21.8388L13.6791 21.8923L13.5565 21.6789L13.3408 21.7385L13.3687 21.9813L13.1728 22.034ZM13.3226 21.5827L13.4785 21.5411L13.2715 21.1503L13.3226 21.5827Z" fill="white"/>
<path fill-rule="evenodd" clip-rule="evenodd" d="M7.07591 21.3036C7.15312 21.076 7.22221 20.9083 7.51696 20.9827C7.67466 21.0234 7.77242 21.0874 7.76779 21.2561C7.767 21.2937 7.75357 21.332 7.74476 21.3691L7.56132 21.3225C7.58537 21.2292 7.60061 21.1553 7.47598 21.1199C7.33193 21.0835 7.29683 21.2445 7.27696 21.3139L7.20234 21.567C7.17863 21.6422 7.15019 21.7665 7.27696 21.7986C7.38172 21.8245 7.44516 21.7299 7.48309 21.5916L7.35485 21.5602L7.39921 21.4138L7.70096 21.5031L7.55771 21.9911L7.41886 21.9564L7.45013 21.8532H7.44618C7.38217 21.9377 7.30428 21.9465 7.23598 21.9343C6.93423 21.8593 6.96573 21.6776 7.03775 21.4349" fill="white"/>
<path fill-rule="evenodd" clip-rule="evenodd" d="M8.2007 21.7159L8.10982 22.113L7.90527 22.0723L8.12326 21.1453L8.47197 21.2177C8.67607 21.2584 8.7377 21.342 8.7088 21.5144C8.69232 21.6133 8.63938 21.7198 8.51012 21.7112L8.50877 21.7096C8.61804 21.7448 8.6273 21.7956 8.60822 21.8833C8.59998 21.9207 8.5432 22.1472 8.58237 22.1838L8.58372 22.2117L8.37206 22.1607C8.36326 22.098 8.39328 21.9851 8.40514 21.9225C8.41699 21.8671 8.43607 21.7892 8.37511 21.7599C8.32747 21.7364 8.30963 21.7376 8.25567 21.7262L8.2007 21.7159ZM8.23676 21.5725L8.37448 21.6067C8.45813 21.618 8.50464 21.578 8.52112 21.4849C8.53602 21.3995 8.51672 21.3662 8.44165 21.3497L8.294 21.322L8.23676 21.5725Z" fill="white"/>
<path fill-rule="evenodd" clip-rule="evenodd" d="M9.51248 21.3524L9.71478 21.3741L9.62763 22.0259C9.5853 22.2325 9.4986 22.3227 9.25183 22.2946C9.00077 22.2652 8.94116 22.16 8.95629 21.9517L9.04412 21.3005L9.24799 21.322L9.1605 21.9586C9.15113 22.0277 9.13386 22.1302 9.26729 22.1426C9.38571 22.151 9.41258 22.0786 9.42601 21.9887" fill="white"/>
<path fill-rule="evenodd" clip-rule="evenodd" d="M9.93652 22.3299L9.99748 21.3979L10.386 21.4134C10.5698 21.4219 10.6178 21.56 10.6122 21.6918C10.6067 21.772 10.5796 21.8615 10.5038 21.9101C10.4416 21.9514 10.3615 21.9611 10.2875 21.9578L10.1608 21.9514L10.1355 22.342L9.93652 22.3299ZM10.1674 21.8093L10.2703 21.8146C10.354 21.8174 10.4094 21.7869 10.4166 21.6738C10.4208 21.5652 10.3761 21.5467 10.2677 21.5423L10.1862 21.5397L10.1674 21.8093Z" fill="white"/>
<path fill-rule="evenodd" clip-rule="evenodd" d="M37.3491 13.6027L35.8044 16.1855C35.2213 15.7493 34.5095 15.4284 33.6011 15.4284C31.4514 15.4284 30.5781 16.9044 30.5781 17.9442C30.5781 18.7161 31.1267 19.8548 33.0395 19.8548C33.8424 19.8548 34.9837 19.3403 35.3122 19.1061L33.7845 22.1027C33.0563 22.2365 32.817 22.3195 32.2006 22.3371C28.7769 22.4312 27.3936 20.4938 27.3945 18.5143C27.3969 15.8972 29.9226 12.7145 34.11 12.7145C34.3664 12.7145 34.6803 12.7964 34.9486 12.8869L35.2199 12.5674" fill="white"/>
<path fill-rule="evenodd" clip-rule="evenodd" d="M43.7267 12.6482L44.1641 22.0353H40.9087L40.9069 20.4255H38.6869L37.9564 22.0353H34.4258L38.117 15.3321L37.2846 15.3271L38.866 12.6482H43.7267ZM40.8855 15.5197L39.6305 18.2502H40.9234L40.8855 15.5197Z" fill="white"/>
<path fill-rule="evenodd" clip-rule="evenodd" d="M25.342 12.6485C26.9542 12.6568 27.8652 13.4629 27.8652 14.6273C27.8652 15.7008 26.9044 16.651 25.8497 17.1423C26.9356 17.5101 27.0295 18.4127 27.0295 19.0512C27.0295 20.5941 25.349 22.0356 23.1646 22.0356H18.4004L20.2587 15.4258L19.4954 15.4217L21.0558 12.6485C21.0558 12.6485 24.0311 12.6402 25.342 12.6485ZM23.7617 16.4544C24.0952 16.4544 24.684 16.3766 24.8312 15.7821C24.9925 15.1366 24.4399 15.1193 24.1749 15.1193L23.2277 15.1155L22.8974 16.4544H23.7617ZM22.4229 18.1133L21.9868 19.656H23.1022C23.5408 19.656 24.1388 19.4553 24.2853 18.9533C24.43 18.4499 24.012 18.1133 23.5749 18.1133H22.4229Z" fill="white"/>
<path fill-rule="evenodd" clip-rule="evenodd" d="M10.4687 23.189C8.81911 23.189 7.12399 22.8147 5.43103 22.0745L5.38948 22.0557L5.36962 22.0167C4.60989 20.5395 4.20801 18.9238 4.20801 17.343C4.20801 15.7644 4.5934 14.2178 5.35359 12.7425L5.37458 12.7033L5.41692 12.6838C6.983 12.0004 8.66761 11.6543 10.4258 11.6543C12.0635 11.6543 13.8127 12.0396 15.4832 12.7706L15.526 12.7882L15.5458 12.8281C16.32 14.3326 16.7283 15.948 16.7283 17.5027C16.7283 19.0512 16.3363 20.5992 15.5611 22.1028L15.5407 22.1422L15.4976 22.1605C13.9554 22.833 12.2163 23.189 10.4687 23.189ZM5.5882 21.8717C7.23273 22.5844 8.8731 22.9442 10.4692 22.9442C12.1616 22.9442 13.8446 22.6035 15.343 21.9575C16.0873 20.5005 16.4645 19.001 16.4645 17.5024C16.4645 15.9976 16.0708 14.4325 15.3259 12.9722C13.7048 12.2702 12.0117 11.8979 10.4263 11.8979C8.7242 11.8979 7.09264 12.2305 5.57397 12.8866C4.84495 14.3165 4.47389 15.8148 4.47389 17.3427C4.47389 18.8733 4.8594 20.4392 5.5882 21.8717Z" fill="white"/>
</svg>
