<svg width="50" height="50" viewBox="0 0 50 50" fill="none" xmlns="http://www.w3.org/2000/svg">
<rect width="50" height="50" rx="25" fill="#EFEFEF"/>
<path fill-rule="evenodd" clip-rule="evenodd" d="M15.5234 22.29L15.511 22.2983C14.9314 22.6847 14.5833 23.3351 14.5833 24.0317V32.2917C14.5833 32.867 15.0496 33.3334 15.6249 33.3334H16.6666C17.2419 33.3334 17.7083 32.867 17.7083 32.2917V31.2501H32.2916V32.2917C32.2916 32.867 32.758 33.3334 33.3333 33.3334H34.3749C34.9502 33.3334 35.4166 32.867 35.4166 32.2917V24.0317C35.4166 23.3351 35.0685 22.6847 34.4889 22.2983L34.4764 22.29C34.8561 22.0707 35.1999 21.8553 35.2667 21.7593C35.4278 21.5279 35.5019 20.8334 35.2667 20.8334H33.3333L32.1136 18.3942C31.5843 17.3355 30.5022 16.6667 29.3186 16.6667H20.6813C19.4976 16.6667 18.4155 17.3355 17.8862 18.3942L16.6666 20.8334H14.7331C14.498 20.8334 14.572 21.5279 14.7331 21.7593C14.7999 21.8553 15.1438 22.0707 15.5234 22.29ZM18.8561 18.8114L17.0751 22.1508C16.8901 22.4977 17.1415 22.9167 17.5346 22.9167H32.4652C32.8584 22.9167 33.1098 22.4977 32.9248 22.1508L31.1437 18.8114C30.7816 18.1325 30.0749 17.7084 29.3055 17.7084H20.6944C19.925 17.7084 19.2182 18.1325 18.8561 18.8114ZM15.6249 26.1249V24.8652C15.6249 24.4632 16.061 24.2128 16.4082 24.4153L19.8861 26.4441C20.3654 26.7237 20.1334 27.4591 19.5804 27.413L16.5801 27.163C16.0402 27.118 15.6249 26.6667 15.6249 26.1249ZM34.3749 24.8652V26.1249C34.3749 26.6667 33.9596 27.118 33.4198 27.163L30.4194 27.413C29.8664 27.4591 29.6344 26.7237 30.1137 26.4441L33.5917 24.4153C33.9389 24.2128 34.3749 24.4632 34.3749 24.8652Z" fill="#6A6A6A" stroke="#6A6A6A"/>
</svg>
