<svg width="49" height="47" viewBox="0 0 49 47" fill="none" xmlns="http://www.w3.org/2000/svg">
<path d="M21.6417 31.725L36.0354 17.9188L33.1771 15.1771L21.6417 26.2417L15.8229 20.6604L12.9646 23.4021L21.6417 31.725ZM10.2083 41.125C9.08542 41.125 8.12413 40.7415 7.32448 39.9745C6.52483 39.2075 6.125 38.2854 6.125 37.2083V9.79167C6.125 8.71458 6.52483 7.79253 7.32448 7.02552C8.12413 6.25851 9.08542 5.875 10.2083 5.875H38.7917C39.9146 5.875 40.8759 6.25851 41.6755 7.02552C42.4752 7.79253 42.875 8.71458 42.875 9.79167V37.2083C42.875 38.2854 42.4752 39.2075 41.6755 39.9745C40.8759 40.7415 39.9146 41.125 38.7917 41.125H10.2083ZM10.2083 37.2083H38.7917V9.79167H10.2083V37.2083Z" fill="#6A6A6A"/>
</svg>
