<svg width="20" height="19" viewBox="0 0 20 19" fill="none" xmlns="http://www.w3.org/2000/svg">
<path d="M14 5.5H18C18.5523 5.5 19 5.94772 19 6.5V17.5L15.667 14.731C15.4875 14.5818 15.2608 14.5 15.0273 14.5H7C6.44771 14.5 6 14.0523 6 13.5V10.5M14 5.5V2.5C14 1.94772 13.5523 1.5 13 1.5H2C1.44772 1.5 1 1.94772 1 2.5V13.5003L4.33301 10.7308C4.51255 10.5817 4.73924 10.5 4.97266 10.5H6M14 5.5V9.5C14 10.0523 13.5523 10.5 13 10.5H6" stroke="#1A1A1A" stroke-width="2" stroke-linecap="round" stroke-linejoin="round"/>
</svg>
