<svg width="19" height="19" viewBox="0 0 19 19" fill="none" xmlns="http://www.w3.org/2000/svg">
<path d="M10.1254 16.6251L2.375 8.87463V10.458C2.375 10.8776 2.54125 11.2813 2.84208 11.5742L9.00917 17.7413C9.62667 18.3588 10.6321 18.3588 11.2496 17.7413L16.1658 12.8251C16.7833 12.2076 16.7833 11.2021 16.1658 10.5846L10.1254 16.6251Z" fill="#EF4444"/>
<path d="M9.00917 13.7829C9.31792 14.0917 9.72167 14.25 10.1254 14.25C10.5292 14.25 10.9329 14.0917 11.2417 13.7829L16.1579 8.86667C16.7754 8.24917 16.7754 7.24375 16.1579 6.62625L9.99083 0.459167C9.69792 0.16625 9.29417 0 8.87458 0H3.95833C3.0875 0 2.375 0.7125 2.375 1.58333V6.49958C2.375 6.91917 2.54125 7.32292 2.84208 7.61583L9.00917 13.7829ZM3.95833 1.58333H8.87458L15.0417 7.75042L10.1254 12.6667L3.95833 6.49958V1.58333Z" fill="#EF4444"/>
<path d="M5.73958 4.35417C6.28612 4.35417 6.72917 3.91112 6.72917 3.36458C6.72917 2.81805 6.28612 2.375 5.73958 2.375C5.19305 2.375 4.75 2.81805 4.75 3.36458C4.75 3.91112 5.19305 4.35417 5.73958 4.35417Z" fill="#EF4444"/>
</svg>
