<svg width="50" height="50" viewBox="0 0 50 50" fill="none" xmlns="http://www.w3.org/2000/svg">
<path d="M5.69193 26.5461H32.7819C33.6466 26.5461 34.3454 25.8461 34.3454 24.9836C34.3454 24.1211 33.6466 23.4211 32.7819 23.4211H5.78965L11.4456 17.7687C12.0562 17.1586 12.0562 16.1695 11.4456 15.5594C10.8351 14.9492 9.84537 14.9492 9.23482 15.5594L0 25.032L9.23482 34.5047C9.54049 34.8102 9.93996 34.9625 10.3402 34.9625C10.7405 34.9625 11.1399 34.8102 11.4456 34.5047C12.0562 33.8945 12.0562 32.9055 11.4456 32.2953L5.69193 26.5461ZM46.8722 0H20.2926C18.565 0 17.1656 1.39922 17.1656 3.125V17.1875H20.313V5.03047C20.313 3.98672 21.1604 3.13984 22.2048 3.13984H44.9108C45.9559 3.13984 46.8026 3.98672 46.8026 5.03047L46.8518 44.9859C46.8518 46.0297 46.0052 46.8766 44.96 46.8766H22.2056C21.1612 46.8766 20.3138 46.0297 20.3138 44.9859V32.7609L17.1665 32.7648V46.875C17.1665 48.6008 18.5658 50 20.2935 50H46.8722C48.5999 50 50 48.6008 50 46.875V3.125C49.9993 1.39922 48.5991 0 46.8722 0Z" fill="#6A6A6A"/>
</svg>
