<svg width="24" height="25" viewBox="0 0 24 25" fill="none" xmlns="http://www.w3.org/2000/svg">
<g clip-path="url(#clip0_417_4924)">
<path d="M11.9998 10.3181V14.9654H18.4579C18.1743 16.46 17.3233 17.7255 16.047 18.5764L19.9415 21.5982C22.2106 19.5037 23.5197 16.4273 23.5197 12.7728C23.5197 11.9219 23.4433 11.1037 23.3015 10.3183L11.9998 10.3181Z" fill="#4285F4"/>
<path d="M5.27461 14.784L4.39625 15.4564L1.28711 17.8782C3.26165 21.7945 7.30862 24.5 11.9995 24.5C15.2394 24.5 17.9557 23.4309 19.9412 21.5982L16.0467 18.5764C14.9776 19.2964 13.614 19.7328 11.9995 19.7328C8.87951 19.7328 6.22868 17.6273 5.27952 14.7909L5.27461 14.784Z" fill="#34A853"/>
<path d="M1.28718 7.12182C0.469042 8.7363 0 10.5581 0 12.4999C0 14.4417 0.469042 16.2636 1.28718 17.878C1.28718 17.8889 5.27997 14.7799 5.27997 14.7799C5.03998 14.0599 4.89812 13.2963 4.89812 12.4998C4.89812 11.7033 5.03998 10.9397 5.27997 10.2197L1.28718 7.12182Z" fill="#FBBC05"/>
<path d="M11.9997 5.27818C13.767 5.27818 15.3379 5.88907 16.5925 7.06727L20.0288 3.63095C17.9452 1.68917 15.2398 0.5 11.9997 0.5C7.30887 0.5 3.26165 3.19454 1.28711 7.12183L5.27978 10.22C6.22882 7.38362 8.87976 5.27818 11.9997 5.27818Z" fill="#EA4335"/>
</g>
<defs>
<clipPath id="clip0_417_4924">
<rect width="24" height="24" fill="white" transform="translate(0 0.5)"/>
</clipPath>
</defs>
</svg>
