<svg width="41" height="41" viewBox="0 0 41 41" fill="none" xmlns="http://www.w3.org/2000/svg">
<g clip-path="url(#clip0_1218_5171)">
<path d="M39 36.75H1.5V39.25H39V36.75Z" stroke="#393939" stroke-width="2" stroke-linejoin="round"/>
<path d="M17.75 4.25H22.75C23.0815 4.25 23.3995 4.3817 23.6339 4.61612C23.8683 4.85054 24 5.16848 24 5.5V11.75H16.5V5.5C16.5 5.16848 16.6317 4.85054 16.8661 4.61612C17.1005 4.3817 17.4185 4.25 17.75 4.25Z" stroke="#393939" stroke-width="2" stroke-linejoin="round"/>
<path d="M16.5 6.75H24" stroke="#393939" stroke-width="2" stroke-linejoin="round"/>
<path d="M16.5 9.25H17.75C18.0815 9.25 18.3995 9.3817 18.6339 9.61612C18.8683 9.85054 19 10.1685 19 10.5V11.75" stroke="#393939" stroke-width="2" stroke-linejoin="round"/>
<path d="M21.5 11.75V10.5C21.5 10.1685 21.6317 9.85054 21.8661 9.61612C22.1005 9.3817 22.4185 9.25 22.75 9.25H24" stroke="#393939" stroke-width="2" stroke-linejoin="round"/>
<path d="M22.75 11.75V13.625" stroke="#393939" stroke-width="2" stroke-linejoin="round"/>
<path d="M17.75 11.75V13.625" stroke="#393939" stroke-width="2" stroke-linejoin="round"/>
<path d="M27.75 1.75H12.75V15.5H27.75V1.75Z" stroke="#393939" stroke-width="2" stroke-linejoin="round"/>
<path d="M12.75 14.25H1.5V6.75H12.75" stroke="#393939" stroke-width="2" stroke-linejoin="round"/>
<path d="M27.75 6.75H39V14.25H27.75" stroke="#393939" stroke-width="2" stroke-linejoin="round"/>
<path d="M2.75 14.25V36.75" stroke="#393939" stroke-width="2" stroke-linejoin="round"/>
<path d="M5.25 14.25V36.75" stroke="#393939" stroke-width="2" stroke-linejoin="round"/>
<path d="M35.25 14.25V36.75" stroke="#393939" stroke-width="2" stroke-linejoin="round"/>
<path d="M37.75 14.25V36.75" stroke="#393939" stroke-width="2" stroke-linejoin="round"/>
<path d="M29.625 30.5H10.875V33H29.625V30.5Z" stroke="#393939" stroke-width="2" stroke-linejoin="round"/>
<path d="M12.125 33V36.75" stroke="#393939" stroke-width="2" stroke-linejoin="round"/>
<path d="M14.625 33V36.75" stroke="#393939" stroke-width="2" stroke-linejoin="round"/>
<path d="M25.875 33V36.75" stroke="#393939" stroke-width="2" stroke-linejoin="round"/>
<path d="M28.375 33V36.75" stroke="#393939" stroke-width="2" stroke-linejoin="round"/>
<path d="M12.125 30.5V24.25C12.125 23.9185 12.2567 23.6005 12.4911 23.3661C12.7255 23.1317 13.0435 23 13.375 23H27.125C27.4565 23 27.7745 23.1317 28.0089 23.3661C28.2433 23.6005 28.375 23.9185 28.375 24.25V30.5" stroke="#393939" stroke-width="2" stroke-linejoin="round"/>
<path d="M28.375 28H35.25" stroke="#393939" stroke-width="2" stroke-linejoin="round"/>
<path d="M5.25 28H12.125" stroke="#393939" stroke-width="2" stroke-linejoin="round"/>
<path d="M12.125 25.5H7.75V18H19V23" stroke="#393939" stroke-width="2" stroke-linejoin="round"/>
<path d="M21.5 23V18H32.75V25.5H28.375" stroke="#393939" stroke-width="2" stroke-linejoin="round"/>
<path d="M9.625 20.5H17.125" stroke="#393939" stroke-width="2" stroke-linejoin="round"/>
<path d="M23.375 20.5H30.875" stroke="#393939" stroke-width="2" stroke-linejoin="round"/>
</g>
<defs>
<clipPath id="clip0_1218_5171">
<rect width="40" height="40" fill="white" transform="translate(0.25 0.5)"/>
</clipPath>
</defs>
</svg>
