<svg width="44" height="37" viewBox="0 0 44 37" fill="none" xmlns="http://www.w3.org/2000/svg">
<path d="M1.16669 35.6667H5.33335M5.33335 35.6667H17.8334M5.33335 35.6667V17.8587C5.33335 16.7455 5.33335 16.1886 5.46871 15.6706C5.58866 15.2115 5.78709 14.7771 6.05357 14.3845C6.35427 13.9416 6.77219 13.5742 7.60996 12.8412L17.6133 4.08829C19.1664 2.72934 19.943 2.04982 20.8176 1.79117C21.5888 1.5631 22.4108 1.5631 23.1821 1.79117C24.0573 2.05001 24.835 2.73017 26.3905 4.09118L36.3905 12.8412C37.2282 13.5742 37.6463 13.9416 37.947 14.3845C38.2135 14.7771 38.4104 15.2115 38.5304 15.6706C38.6657 16.1886 38.6667 16.7455 38.6667 17.8587V35.6667M17.8334 35.6667H26.1667M17.8334 35.6667V27.3334C17.8334 25.0322 19.6988 23.1667 22 23.1667C24.3012 23.1667 26.1667 25.0322 26.1667 27.3334V35.6667M26.1667 35.6667H38.6667M38.6667 35.6667H42.8334" stroke="#1A1A1A" stroke-width="2" stroke-linecap="round" stroke-linejoin="round"/>
</svg>
