<svg width="24" height="24" viewBox="0 0 24 24" fill="none" xmlns="http://www.w3.org/2000/svg">
<path d="M12.0039 0C6.99403 0 5.52883 0.00516967 5.24402 0.0288024C4.2159 0.114287 3.57615 0.276208 2.87917 0.623314C2.34204 0.890106 1.91843 1.19936 1.50035 1.63288C0.738959 2.42347 0.277507 3.3961 0.110461 4.55226C0.0292458 5.11354 0.00561946 5.22801 0.000820359 8.09496C-0.00102545 9.05061 0.000820359 10.3083 0.000820359 11.9953C0.000820359 17.0025 0.00635778 18.4666 0.0303533 18.7509C0.113415 19.7516 0.270308 20.3812 0.602553 21.0699C1.23751 22.3882 2.45021 23.3778 3.87886 23.7471C4.37354 23.8745 4.9199 23.9446 5.6213 23.9778C5.91848 23.9908 8.94744 24 11.9783 24C15.0091 24 18.0399 23.9963 18.3297 23.9815C19.1418 23.9433 19.6134 23.88 20.1349 23.7452C20.8433 23.5635 21.5035 23.2293 22.0693 22.7659C22.6352 22.3026 23.0932 21.7212 23.4112 21.0625C23.737 20.3905 23.9022 19.7369 23.9769 18.7884C23.9932 18.5816 24 15.2847 24 11.9922C24 8.69907 23.9926 5.40821 23.9764 5.20143C23.9007 4.23765 23.7355 3.5896 23.3992 2.90462C23.1232 2.34389 22.8168 1.92515 22.372 1.49699C21.5783 0.738524 20.6074 0.276947 19.4503 0.11004C18.8897 0.0289871 18.778 0.00498504 15.9096 0H12.0039Z" fill="url(#paint0_radial_898_7003)"/>
<path d="M12.0039 0C6.99403 0 5.52883 0.00516967 5.24402 0.0288024C4.2159 0.114287 3.57615 0.276208 2.87917 0.623314C2.34204 0.890106 1.91843 1.19936 1.50035 1.63288C0.738959 2.42347 0.277507 3.3961 0.110461 4.55226C0.0292458 5.11354 0.00561946 5.22801 0.000820359 8.09496C-0.00102545 9.05061 0.000820359 10.3083 0.000820359 11.9953C0.000820359 17.0025 0.00635778 18.4666 0.0303533 18.7509C0.113415 19.7516 0.270308 20.3812 0.602553 21.0699C1.23751 22.3882 2.45021 23.3778 3.87886 23.7471C4.37354 23.8745 4.9199 23.9446 5.6213 23.9778C5.91848 23.9908 8.94744 24 11.9783 24C15.0091 24 18.0399 23.9963 18.3297 23.9815C19.1418 23.9433 19.6134 23.88 20.1349 23.7452C20.8433 23.5635 21.5035 23.2293 22.0693 22.7659C22.6352 22.3026 23.0932 21.7212 23.4112 21.0625C23.737 20.3905 23.9022 19.7369 23.9769 18.7884C23.9932 18.5816 24 15.2847 24 11.9922C24 8.69907 23.9926 5.40821 23.9764 5.20143C23.9007 4.23765 23.7355 3.5896 23.3992 2.90462C23.1232 2.34389 22.8168 1.92515 22.372 1.49699C21.5783 0.738524 20.6074 0.276947 19.4503 0.11004C18.8897 0.0289871 18.778 0.00498504 15.9096 0H12.0039Z" fill="url(#paint1_radial_898_7003)"/>
<path d="M11.9986 3.13867C9.59242 3.13867 9.29044 3.1492 8.34539 3.19222C7.40218 3.23542 6.75836 3.38479 6.19502 3.60394C5.6123 3.8303 5.118 4.13309 4.62553 4.62587C4.1327 5.11847 3.82999 5.61291 3.60296 6.19561C3.38331 6.75929 3.2338 7.40346 3.19134 8.34656C3.14926 9.29187 3.13818 9.59411 3.13818 12.001C3.13818 14.4078 3.14889 14.7089 3.19171 15.6543C3.23509 16.5977 3.38441 17.2417 3.60333 17.8052C3.82981 18.3881 4.13252 18.8825 4.62517 19.3751C5.11744 19.8681 5.61175 20.1716 6.1941 20.398C6.75781 20.6171 7.40181 20.7665 8.34484 20.8097C9.28989 20.8527 9.59168 20.8632 11.9977 20.8632C14.4041 20.8632 14.7051 20.8527 15.6502 20.8097C16.5934 20.7665 17.2379 20.6171 17.8016 20.398C18.3842 20.1716 18.8777 19.8681 19.37 19.3751C19.8629 18.8825 20.1656 18.3881 20.3926 17.8054C20.6104 17.2417 20.7599 16.5975 20.8042 15.6544C20.8467 14.7091 20.8577 14.4078 20.8577 12.001C20.8577 9.59411 20.8467 9.29205 20.8042 8.34674C20.7599 7.40328 20.6104 6.75929 20.3926 6.19579C20.1656 5.61291 19.8629 5.11847 19.37 4.62587C18.8772 4.13291 18.3844 3.83012 17.8011 3.60394C17.2363 3.38479 16.5921 3.23542 15.6489 3.19222C14.7038 3.1492 14.403 3.13867 11.996 3.13867H11.9986ZM11.2038 4.73573C11.4397 4.73536 11.7029 4.73573 11.9986 4.73573C14.3642 4.73573 14.6446 4.74422 15.5787 4.78669C16.4426 4.8262 16.9114 4.97058 17.2237 5.09188C17.6372 5.25251 17.932 5.44453 18.2419 5.75471C18.552 6.06489 18.7439 6.3603 18.9049 6.77387C19.0261 7.0859 19.1707 7.55486 19.21 8.41893C19.2524 9.35317 19.2617 9.6338 19.2617 11.9989C19.2617 14.364 19.2524 14.6447 19.21 15.5789C19.1705 16.443 19.0261 16.912 18.9049 17.224C18.7443 17.6376 18.552 17.932 18.2419 18.242C17.9318 18.5522 17.6374 18.7442 17.2237 18.9049C16.9118 19.0267 16.4426 19.1707 15.5787 19.2102C14.6448 19.2527 14.3642 19.2619 11.9986 19.2619C9.63284 19.2619 9.35246 19.2527 8.41848 19.2102C7.55465 19.1704 7.08581 19.026 6.77332 18.9047C6.35985 18.7441 6.06453 18.552 5.75443 18.2419C5.44433 17.9317 5.25237 17.637 5.09142 17.2232C4.97015 16.9112 4.82562 16.4423 4.7863 15.5782C4.74385 14.644 4.73536 14.3633 4.73536 11.9967C4.73536 9.63011 4.74385 9.35095 4.7863 8.41672C4.8258 7.55265 4.97015 7.08368 5.09142 6.77129C5.252 6.35771 5.44433 6.0623 5.75443 5.75212C6.06453 5.44194 6.35985 5.24993 6.77332 5.08893C7.08563 4.96707 7.55465 4.82306 8.41848 4.78336C9.23581 4.74644 9.55255 4.73536 11.2038 4.73351V4.73573ZM16.7279 6.20724C16.5176 6.20724 16.3121 6.26962 16.1372 6.38649C15.9624 6.50336 15.8261 6.66948 15.7456 6.86382C15.6652 7.05817 15.6442 7.27202 15.6852 7.47832C15.7263 7.68463 15.8276 7.87412 15.9763 8.02283C16.125 8.17155 16.3145 8.27281 16.5207 8.3138C16.727 8.35479 16.9408 8.33368 17.1351 8.25313C17.3293 8.17258 17.4953 8.03621 17.6121 7.86128C17.7289 7.68634 17.7912 7.48069 17.7911 7.27034C17.7911 6.68322 17.3149 6.20687 16.7279 6.20687V6.20724ZM11.9986 7.4498C9.48591 7.4498 7.4487 9.48758 7.4487 12.001C7.4487 14.5143 9.48591 16.5512 11.9986 16.5512C14.5113 16.5512 16.548 14.5143 16.548 12.001C16.548 9.48758 14.5111 7.4498 11.9984 7.4498H11.9986ZM11.9986 9.04686C13.6296 9.04686 14.9519 10.3694 14.9519 12.001C14.9519 13.6324 13.6296 14.9551 11.9986 14.9551C10.3675 14.9551 9.04532 13.6324 9.04532 12.001C9.04532 10.3694 10.3675 9.04686 11.9986 9.04686Z" fill="white"/>
<defs>
<radialGradient id="paint0_radial_898_7003" cx="0" cy="0" r="1" gradientUnits="userSpaceOnUse" gradientTransform="translate(6.37503 25.8485) rotate(-90) scale(23.7858 22.1226)">
<stop stop-color="#FFDD55"/>
<stop offset="0.1" stop-color="#FFDD55"/>
<stop offset="0.5" stop-color="#FF543E"/>
<stop offset="1" stop-color="#C837AB"/>
</radialGradient>
<radialGradient id="paint1_radial_898_7003" cx="0" cy="0" r="1" gradientUnits="userSpaceOnUse" gradientTransform="translate(-4.02013 1.72892) rotate(78.6806) scale(10.6323 43.827)">
<stop stop-color="#3771C8"/>
<stop offset="0.128" stop-color="#3771C8"/>
<stop offset="1" stop-color="#6600FF" stop-opacity="0"/>
</radialGradient>
</defs>
</svg>
