<svg width="50" height="50" viewBox="0 0 50 50" fill="none" xmlns="http://www.w3.org/2000/svg">
<rect width="50" height="50" rx="25" fill="#EFEFEF"/>
<g clip-path="url(#clip0_1218_4038)">
<path d="M15.625 14.5293C15.625 14.1016 15.9707 13.75 16.4043 13.75C16.6094 13.75 16.8086 13.832 16.9551 13.9785L17.8281 14.8516C17.6172 15.3789 17.5 15.959 17.5 16.5625C17.5 17.7285 17.9219 18.7891 18.625 19.6094C18.3145 20.1484 18.3906 20.8457 18.8477 21.3086C19.3984 21.8594 20.2891 21.8594 20.834 21.3086L26.9336 15.2148C27.4844 14.6641 27.4844 13.7734 26.9336 13.2285C26.4707 12.7656 25.7734 12.6953 25.2344 13.0059C24.4141 12.2969 23.3535 11.875 22.1875 11.875C21.584 11.875 21.0039 11.9922 20.4766 12.1973L19.6035 11.3242C18.7539 10.4746 17.5996 10 16.4043 10C13.9023 10 11.875 12.0273 11.875 14.5293V25C10.8379 25 10 25.8379 10 26.875C10 27.9121 10.8379 28.75 11.875 28.75H38.125C39.1621 28.75 40 27.9121 40 26.875C40 25.8379 39.1621 25 38.125 25H15.625V14.5293ZM11.875 30.625V31.5625C11.875 33.2266 12.6016 34.7266 13.75 35.7578V38.125C13.75 39.1621 14.5879 40 15.625 40C16.6621 40 17.5 39.1621 17.5 38.125V37.1875H32.5V38.125C32.5 39.1621 33.3379 40 34.375 40C35.4121 40 36.25 39.1621 36.25 38.125V35.7578C37.3984 34.7266 38.125 33.2324 38.125 31.5625V30.625H11.875Z" fill="#6A6A6A"/>
</g>
<defs>
<clipPath id="clip0_1218_4038">
<rect width="30" height="30" fill="white" transform="translate(10 10)"/>
</clipPath>
</defs>
</svg>
