<svg width="50" height="50" viewBox="0 0 50 50" fill="none" xmlns="http://www.w3.org/2000/svg">
<rect width="50" height="50" rx="25" fill="#EFEFEF"/>
<path d="M13 23.25H12.5V23.75V31.5C12.5 31.9303 12.7058 32.3199 13.0314 32.5912C13.3543 32.8603 13.7756 33 14.2 33H35.8C36.2244 33 36.6457 32.8603 36.9686 32.5912C37.2942 32.3199 37.5 31.9303 37.5 31.5V23.75V23.25H37H13ZM37 21.75H37.5V21.25V18.5C37.5 18.0697 37.2942 17.6801 36.9686 17.4088C36.6457 17.1397 36.2244 17 35.8 17H14.2C13.7756 17 13.3543 17.1397 13.0314 17.4088C12.7058 17.6801 12.5 18.0697 12.5 18.5V21.25V21.75H13H37ZM11.5546 16.4129C12.2438 15.8385 13.194 15.5031 14.2008 15.5H35.7992C36.806 15.5031 37.7562 15.8385 38.4454 16.4129C39.1319 16.985 39.4965 17.7386 39.5 18.5013V31.4987C39.4965 32.2614 39.1319 33.015 38.4454 33.5871C37.7562 34.1615 36.8059 34.4969 35.7992 34.5C35.7989 34.5 35.7987 34.5 35.7985 34.5H14.2015C14.2013 34.5 14.2011 34.5 14.2009 34.5C13.1941 34.4969 12.2438 34.1615 11.5546 33.5871C10.8681 33.0151 10.5036 32.2615 10.5 31.4989V18.5011C10.5036 17.7385 10.8681 16.9849 11.5546 16.4129Z" fill="#6A6A6A" stroke="#6A6A6A"/>
</svg>
