<svg width="51" height="50" viewBox="0 0 51 50" fill="none" xmlns="http://www.w3.org/2000/svg">
<rect x="0.5" width="50" height="50" rx="25" fill="#EFEFEF"/>
<path d="M13 33.75V26.25C13 25.6875 13.1146 25.1771 13.3438 24.7188C13.5729 24.2604 13.875 23.8542 14.25 23.5V20C14.25 18.9583 14.6146 18.0729 15.3438 17.3438C16.0729 16.6146 16.9583 16.25 18 16.25H23C23.4792 16.25 23.9271 16.3385 24.3438 16.5156C24.7604 16.6927 25.1458 16.9375 25.5 17.25C25.8542 16.9375 26.2396 16.6927 26.6562 16.5156C27.0729 16.3385 27.5208 16.25 28 16.25H33C34.0417 16.25 34.9271 16.6146 35.6562 17.3438C36.3854 18.0729 36.75 18.9583 36.75 20V23.5C37.125 23.8542 37.4271 24.2604 37.6562 24.7188C37.8854 25.1771 38 25.6875 38 26.25V33.75H35.5V31.25H15.5V33.75H13ZM26.75 22.5H34.25V20C34.25 19.6458 34.1302 19.349 33.8906 19.1094C33.651 18.8698 33.3542 18.75 33 18.75H28C27.6458 18.75 27.349 18.8698 27.1094 19.1094C26.8698 19.349 26.75 19.6458 26.75 20V22.5ZM16.75 22.5H24.25V20C24.25 19.6458 24.1302 19.349 23.8906 19.1094C23.651 18.8698 23.3542 18.75 23 18.75H18C17.6458 18.75 17.349 18.8698 17.1094 19.1094C16.8698 19.349 16.75 19.6458 16.75 20V22.5ZM15.5 28.75H35.5V26.25C35.5 25.8958 35.3802 25.599 35.1406 25.3594C34.901 25.1198 34.6042 25 34.25 25H16.75C16.3958 25 16.099 25.1198 15.8594 25.3594C15.6198 25.599 15.5 25.8958 15.5 26.25V28.75Z" fill="#6A6A6A"/>
</svg>
