<svg width="51" height="50" viewBox="0 0 51 50" fill="none" xmlns="http://www.w3.org/2000/svg">
<rect x="0.5" width="50" height="50" rx="25" fill="#EFEFEF"/>
<path d="M19.2451 38.0569V38.5569V38.5585V38.5602V38.5619V38.5636V38.5653V38.5669V38.5686V38.5703V38.572V38.5737V38.5753V38.577V38.5787V38.5804V38.5821V38.5837V38.5854V38.5871V38.5888V38.5905V38.5921V38.5938V38.5955V38.5972V38.5989V38.6005V38.6022V38.6039V38.6056V38.6073V38.6089V38.6106V38.6123V38.614V38.6157V38.6173V38.619V38.6207V38.6224V38.6241V38.6258V38.6274V38.6291V38.6308V38.6325V38.6342V38.6358V38.6375V38.6392V38.6409V38.6426V38.6442V38.6459V38.6476V38.6493V38.651V38.6526V38.6543V38.656V38.6577V38.6594V38.661V38.6627V38.6644V38.6661V38.6678V38.6694V38.6711V38.6728V38.6745V38.6762V38.6778V38.6795V38.6812V38.6829V38.6846V38.6862V38.6879V38.6896V38.6913V38.693V38.6946V38.6963V38.698V38.6997V38.7014V38.703V38.7047V38.7064V38.7081V38.7098V38.7114V38.7131V38.7148V38.7165V38.7182V38.7198V38.7215V38.7232V38.7249V38.7266V38.7282V38.7299V38.7316V38.7333V38.735V38.7366V38.7383V38.74V38.7417V38.7434V38.745V38.7467V38.7484V38.7501V38.7518V38.7534V38.7551V38.7568V38.7585V38.7602V38.7618V38.7635V38.7652V38.7669V38.7685V38.7702V38.7719V38.7736V38.7753V38.7769V38.7786V38.7803V38.782V38.7837V38.7853V38.787V38.7887V38.7904V38.7921V38.7937V38.7954V38.7971V38.7988V38.8005V38.8021V38.8038V38.8055V38.8072V38.8089V38.8105V38.8122V38.8139V38.8156V38.8173V38.8189V38.8206V38.8223V38.824V38.8257V38.8273V38.829V38.8307V38.8324V38.8341V38.8357V38.8374V38.8391V38.8408V38.8424V38.8441V38.8458V38.8475V38.8492V38.8508V38.8525V38.8542V38.8559V38.8576V38.8592V38.8609V38.8626V38.8643V38.866V38.8676V38.8693V38.871V38.8727V38.8744V38.876V38.8777V38.8794V38.8811V38.8828V38.8844V38.8861V38.8878V38.8895V38.8912V38.8928V38.8945V38.8962V38.8979V38.8995V38.9012V38.9029V38.9046V38.9063V38.9079V38.9096V38.9113V38.913V38.9147V38.9163V38.918V38.9197V38.9214V38.9231V38.9247V38.9264V38.9281V38.9298V38.9315V38.9331V38.9348V38.9365V38.9382V38.9399V38.9415V38.9432V38.9449V38.9466V38.9482V38.9499V38.9516V38.9533V38.955V38.9566V38.9583V38.96V38.9617V38.9634V38.965V38.9667V38.9684V38.9701V38.9718V38.9734V38.9751V38.9768V38.9785V38.9802V38.9818V38.9835V38.9852V38.9869V38.9886V38.9902V38.9919V38.9936V38.9953V38.997V38.9986V39.0003V39.002V39.0037V39.0053V39.007V39.0087V39.0104V39.0121V39.0137V39.0154V39.0171V39.0188V39.0205V39.0221V39.0238V39.0255V39.0272V39.0289V39.0305V39.0322V39.0339V39.0356V39.0373V39.0389V39.0406V39.0423V39.044V39.0457V39.0473V39.049V39.0507V39.0524V39.054V39.0557V39.0574V39.0591V39.0608V39.0624V39.0641V39.0658V39.0675V39.0692V39.0708V39.0725V39.0742V39.0759V39.0776V39.0792V39.0809V39.0826V39.0843V39.086V39.0876V39.0893V39.091V39.0927V39.0944V39.096V39.0977V39.0994V39.1011V39.1027V39.1044V39.1061V39.1078V39.1095V39.1111V39.1128V39.1145V39.1162V39.1179V39.1195V39.1212V39.1229V39.1246V39.1263V39.1279V39.1296V39.1313V39.133V39.1347V39.1363V39.138V39.1397V39.1414V39.1431V39.1447V39.1464V39.1481V39.1498V39.1515V39.1531V39.1548V39.1565V39.1582V39.1599V39.1615V39.1632V39.1649V39.1666V39.1682V39.1699V39.1716V39.1733V39.175V39.1766V39.1783V39.18V39.1817V39.1834V39.185V39.1867V39.1884V39.1901V39.1918V39.1934V39.1951V39.1968V39.1985V39.2002V39.2018V39.2035V39.2052V39.2069V39.2086V39.2102V39.2119V39.2136V39.2153V39.217V39.2186V39.2203V39.222V39.2237V39.2254V39.227V39.2287V39.2304V39.2321V39.2338V39.2354V39.2371V39.2388V39.2405V39.2422V39.2438V39.2455V39.2472V39.2489V39.2506V39.2522V39.2539V39.2556V39.2573V39.259V39.2606V39.2623V39.264V39.2657V39.2674V39.269V39.2707V39.2724V39.2741V39.2758V39.2774V39.2791V39.2808V39.2825V39.2842V39.2858V39.2875V39.2892V39.2909V39.2926V39.2942V39.2959V39.2976V39.2993V39.301V39.3026V39.3043V39.306V39.3077V39.3094V39.311V39.3127V39.3144V39.3161V39.3178V39.3194V39.3211V39.3228V39.3245V39.3262V39.3278V39.3295V39.3312V39.3329V39.3346V39.3362V39.3379V39.3396V39.3413V39.343V39.3446V39.3463V39.348V39.3497V39.3514V39.353V39.3547V39.3564V39.3581V39.3598V39.3614V39.3631V39.3648V39.3665V39.3682V39.3698V39.3715V39.3732V39.3749V39.3766V39.3782V39.3799V39.3816V39.3833V39.385V39.3866V39.3883V39.39V39.3917V39.3934V39.395V39.3967V39.3984V39.4001V39.4018V39.4035V39.4051V39.4068V39.4085V39.4102V39.4119V39.4135V39.4152V39.4169C19.2451 39.447 19.2507 39.4601 19.252 39.4629C19.2534 39.4659 19.2551 39.4686 19.2595 39.4723C19.2713 39.4823 19.305 39.5 19.3583 39.5C19.4116 39.5 19.4452 39.4823 19.4568 39.4725C19.4611 39.4689 19.4628 39.4663 19.4642 39.4632C19.4655 39.4604 19.4711 39.4472 19.4711 39.4169V39.4152V39.4135V39.4119V39.4102V39.4085V39.4068V39.4051V39.4035V39.4018V39.4001V39.3984V39.3967V39.395V39.3934V39.3917V39.39V39.3883V39.3866V39.385V39.3833V39.3816V39.3799V39.3782V39.3766V39.3749V39.3732V39.3715V39.3698V39.3682V39.3665V39.3648V39.3631V39.3614V39.3598V39.3581V39.3564V39.3547V39.353V39.3514V39.3497V39.348V39.3463V39.3446V39.343V39.3413V39.3396V39.3379V39.3362V39.3346V39.3329V39.3312V39.3295V39.3278V39.3262V39.3245V39.3228V39.3211V39.3194V39.3178V39.3161V39.3144V39.3127V39.311V39.3094V39.3077V39.306V39.3043V39.3026V39.301V39.2993V39.2976V39.2959V39.2942V39.2926V39.2909V39.2892V39.2875V39.2858V39.2842V39.2825V39.2808V39.2791V39.2774V39.2758V39.2741V39.2724V39.2707V39.269V39.2674V39.2657V39.264V39.2623V39.2606V39.259V39.2573V39.2556V39.2539V39.2522V39.2506V39.2489V39.2472V39.2455V39.2438V39.2422V39.2405V39.2388V39.2371V39.2354V39.2338V39.2321V39.2304V39.2287V39.227V39.2254V39.2237V39.222V39.2203V39.2186V39.217V39.2153V39.2136V39.2119V39.2102V39.2086V39.2069V39.2052V39.2035V39.2018V39.2002V39.1985V39.1968V39.1951V39.1934V39.1918V39.1901V39.1884V39.1867V39.185V39.1834V39.1817V39.18V39.1783V39.1766V39.175V39.1733V39.1716V39.1699V39.1682V39.1666V39.1649V39.1632V39.1615V39.1599V39.1582V39.1565V39.1548V39.1531V39.1515V39.1498V39.1481V39.1464V39.1447V39.1431V39.1414V39.1397V39.138V39.1363V39.1347V39.133V39.1313V39.1296V39.1279V39.1263V39.1246V39.1229V39.1212V39.1195V39.1179V39.1162V39.1145V39.1128V39.1111V39.1095V39.1078V39.1061V39.1044V39.1027V39.1011V39.0994V39.0977V39.096V39.0944V39.0927V39.091V39.0893V39.0876V39.086V39.0843V39.0826V39.0809V39.0792V39.0776V39.0759V39.0742V39.0725V39.0708V39.0692V39.0675V39.0658V39.0641V39.0624V39.0608V39.0591V39.0574V39.0557V39.054V39.0524V39.0507V39.049V39.0473V39.0457V39.044V39.0423V39.0406V39.0389V39.0373V39.0356V39.0339V39.0322V39.0305V39.0289V39.0272V39.0255V39.0238V39.0221V39.0205V39.0188V39.0171V39.0154V39.0137V39.0121V39.0104V39.0087V39.007V39.0053V39.0037V39.002V39.0003V38.9986V38.997V38.9953V38.9936V38.9919V38.9902V38.9886V38.9869V38.9852V38.9835V38.9818V38.9802V38.9785V38.9768V38.9751V38.9734V38.9718V38.9701V38.9684V38.9667V38.965V38.9634V38.9617V38.96V38.9583V38.9566V38.955V38.9533V38.9516V38.9499V38.9482V38.9466V38.9449V38.9432V38.9415V38.9399V38.9382V38.9365V38.9348V38.9331V38.9315V38.9298V38.9281V38.9264V38.9247V38.9231V38.9214V38.9197V38.918V38.9163V38.9147V38.913V38.9113V38.9096V38.9079V38.9063V38.9046V38.9029V38.9012V38.8995V38.8979V38.8962V38.8945V38.8928V38.8912V38.8895V38.8878V38.8861V38.8844V38.8828V38.8811V38.8794V38.8777V38.876V38.8744V38.8727V38.871V38.8693V38.8676V38.866V38.8643V38.8626V38.8609V38.8592V38.8576V38.8559V38.8542V38.8525V38.8508V38.8492V38.8475V38.8458V38.8441V38.8424V38.8408V38.8391V38.8374V38.8357V38.8341V38.8324V38.8307V38.829V38.8273V38.8257V38.824V38.8223V38.8206V38.8189V38.8173V38.8156V38.8139V38.8122V38.8105V38.8089V38.8072V38.8055V38.8038V38.8021V38.8005V38.7988V38.7971V38.7954V38.7937V38.7921V38.7904V38.7887V38.787V38.7853V38.7837V38.782V38.7803V38.7786V38.7769V38.7753V38.7736V38.7719V38.7702V38.7685V38.7669V38.7652V38.7635V38.7618V38.7602V38.7585V38.7568V38.7551V38.7534V38.7518V38.7501V38.7484V38.7467V38.745V38.7434V38.7417V38.74V38.7383V38.7366V38.735V38.7333V38.7316V38.7299V38.7282V38.7266V38.7249V38.7232V38.7215V38.7198V38.7182V38.7165V38.7148V38.7131V38.7114V38.7098V38.7081V38.7064V38.7047V38.703V38.7014V38.6997V38.698V38.6963V38.6946V38.693V38.6913V38.6896V38.6879V38.6862V38.6846V38.6829V38.6812V38.6795V38.6778V38.6762V38.6745V38.6728V38.6711V38.6694V38.6678V38.6661V38.6644V38.6627V38.661V38.6594V38.6577V38.656V38.6543V38.6526V38.651V38.6493V38.6476V38.6459V38.6442V38.6426V38.6409V38.6392V38.6375V38.6358V38.6342V38.6325V38.6308V38.6291V38.6274V38.6258V38.6241V38.6224V38.6207V38.619V38.6173V38.6157V38.614V38.6123V38.6106V38.6089V38.6073V38.6056V38.6039V38.6022V38.6005V38.5989V38.5972V38.5955V38.5938V38.5921V38.5905V38.5888V38.5871V38.5854V38.5837V38.5821V38.5804V38.5787V38.577V38.5753V38.5737V38.572V38.5703V38.5686V38.5669V38.5653V38.5636V38.5619V38.5602V38.5585V38.5569V38.0569H19.9711H31.1029H31.6029V38.5569V38.5585V38.5602V38.5619V38.5636V38.5653V38.5669V38.5686V38.5703V38.572V38.5737V38.5753V38.577V38.5787V38.5804V38.5821V38.5837V38.5854V38.5871V38.5888V38.5905V38.5921V38.5938V38.5955V38.5972V38.5989V38.6005V38.6022V38.6039V38.6056V38.6073V38.6089V38.6106V38.6123V38.614V38.6157V38.6173V38.619V38.6207V38.6224V38.6241V38.6258V38.6274V38.6291V38.6308V38.6325V38.6342V38.6358V38.6375V38.6392V38.6409V38.6426V38.6442V38.6459V38.6476V38.6493V38.651V38.6526V38.6543V38.656V38.6577V38.6594V38.661V38.6627V38.6644V38.6661V38.6678V38.6694V38.6711V38.6728V38.6745V38.6762V38.6778V38.6795V38.6812V38.6829V38.6846V38.6862V38.6879V38.6896V38.6913V38.693V38.6946V38.6963V38.698V38.6997V38.7014V38.703V38.7047V38.7064V38.7081V38.7098V38.7114V38.7131V38.7148V38.7165V38.7182V38.7198V38.7215V38.7232V38.7249V38.7266V38.7282V38.7299V38.7316V38.7333V38.735V38.7366V38.7383V38.74V38.7417V38.7434V38.745V38.7467V38.7484V38.7501V38.7518V38.7534V38.7551V38.7568V38.7585V38.7602V38.7618V38.7635V38.7652V38.7669V38.7685V38.7702V38.7719V38.7736V38.7753V38.7769V38.7786V38.7803V38.782V38.7837V38.7853V38.787V38.7887V38.7904V38.7921V38.7937V38.7954V38.7971V38.7988V38.8005V38.8021V38.8038V38.8055V38.8072V38.8089V38.8105V38.8122V38.8139V38.8156V38.8173V38.8189V38.8206V38.8223V38.824V38.8257V38.8273V38.829V38.8307V38.8324V38.8341V38.8357V38.8374V38.8391V38.8408V38.8424V38.8441V38.8458V38.8475V38.8492V38.8508V38.8525V38.8542V38.8559V38.8576V38.8592V38.8609V38.8626V38.8643V38.866V38.8676V38.8693V38.871V38.8727V38.8744V38.876V38.8777V38.8794V38.8811V38.8828V38.8844V38.8861V38.8878V38.8895V38.8912V38.8928V38.8945V38.8962V38.8979V38.8995V38.9012V38.9029V38.9046V38.9063V38.9079V38.9096V38.9113V38.913V38.9147V38.9163V38.918V38.9197V38.9214V38.9231V38.9247V38.9264V38.9281V38.9298V38.9315V38.9331V38.9348V38.9365V38.9382V38.9399V38.9415V38.9432V38.9449V38.9466V38.9482V38.9499V38.9516V38.9533V38.955V38.9566V38.9583V38.96V38.9617V38.9634V38.965V38.9667V38.9684V38.9701V38.9718V38.9734V38.9751V38.9768V38.9785V38.9802V38.9818V38.9835V38.9852V38.9869V38.9886V38.9902V38.9919V38.9936V38.9953V38.997V38.9986V39.0003V39.002V39.0037V39.0053V39.007V39.0087V39.0104V39.0121V39.0137V39.0154V39.0171V39.0188V39.0205V39.0221V39.0238V39.0255V39.0272V39.0289V39.0305V39.0322V39.0339V39.0356V39.0373V39.0389V39.0406V39.0423V39.044V39.0457V39.0473V39.049V39.0507V39.0524V39.054V39.0557V39.0574V39.0591V39.0608V39.0624V39.0641V39.0658V39.0675V39.0692V39.0708V39.0725V39.0742V39.0759V39.0776V39.0792V39.0809V39.0826V39.0843V39.086V39.0876V39.0893V39.091V39.0927V39.0944V39.096V39.0977V39.0994V39.1011V39.1027V39.1044V39.1061V39.1078V39.1095V39.1111V39.1128V39.1145V39.1162V39.1179V39.1195V39.1212V39.1229V39.1246V39.1263V39.1279V39.1296V39.1313V39.133V39.1347V39.1363V39.138V39.1397V39.1414V39.1431V39.1447V39.1464V39.1481V39.1498V39.1515V39.1531V39.1548V39.1565V39.1582V39.1599V39.1615V39.1632V39.1649V39.1666V39.1682V39.1699V39.1716V39.1733V39.175V39.1766V39.1783V39.18V39.1817V39.1834V39.185V39.1867V39.1884V39.1901V39.1918V39.1934V39.1951V39.1968V39.1985V39.2002V39.2018V39.2035V39.2052V39.2069V39.2086V39.2102V39.2119V39.2136V39.2153V39.217V39.2186V39.2203V39.222V39.2237V39.2254V39.227V39.2287V39.2304V39.2321V39.2338V39.2354V39.2371V39.2388V39.2405V39.2422V39.2438V39.2455V39.2472V39.2489V39.2506V39.2522V39.2539V39.2556V39.2573V39.259V39.2606V39.2623V39.264V39.2657V39.2674V39.269V39.2707V39.2724V39.2741V39.2758V39.2774V39.2791V39.2808V39.2825V39.2842V39.2858V39.2875V39.2892V39.2909V39.2926V39.2942V39.2959V39.2976V39.2993V39.301V39.3026V39.3043V39.306V39.3077V39.3094V39.311V39.3127V39.3144V39.3161V39.3178V39.3194V39.3211V39.3228V39.3245V39.3262V39.3278V39.3295V39.3312V39.3329V39.3346V39.3362V39.3379V39.3396V39.3413V39.343V39.3446V39.3463V39.348V39.3497V39.3514V39.353V39.3547V39.3564V39.3581V39.3598V39.3614V39.3631V39.3648V39.3665V39.3682V39.3698V39.3715V39.3732V39.3749V39.3766V39.3782V39.3799V39.3816V39.3833V39.385V39.3866V39.3883V39.39V39.3917V39.3934V39.395V39.3967V39.3984V39.4001V39.4018V39.4035V39.4051V39.4068V39.4085V39.4102V39.4119V39.4135V39.4152V39.4169C31.6029 39.447 31.6085 39.4601 31.6098 39.4629C31.6112 39.4659 31.6129 39.4686 31.6174 39.4723C31.6291 39.4823 31.6629 39.5 31.7161 39.5C31.7694 39.5 31.803 39.4823 31.8146 39.4725C31.8189 39.4689 31.8206 39.4663 31.822 39.4632C31.8233 39.4604 31.829 39.4472 31.829 39.4169L19.2451 38.0569ZM19.2451 38.0569H18.7451M19.2451 38.0569H18.7451M18.7451 38.0569H18.5842C17.7036 38.0569 17 37.3531 17 36.5045V12.0523C17 11.2038 17.7036 10.5 18.5842 10.5H32.4158V10L18.7451 38.0569ZM31.829 38.0569H32.329H31.829ZM31.829 38.0569V38.5569M31.829 38.0569V38.5569M31.829 38.5569V38.5585M31.829 38.5569V38.5585M17.726 20.576H17.226V21.076H17.726V20.576ZM17.726 20.576H33.274M17.726 20.576V12.0523C17.726 11.5863 18.111 11.2073 18.5842 11.2073H32.4158C32.889 11.2073 33.274 11.5863 33.274 12.0523V20.576M33.274 20.576H33.774V21.076H33.274V20.576ZM17.726 21.7833V21.2833H17.226V21.7833H17.726ZM17.726 21.7833V36.5045C17.726 36.9705 18.111 37.3496 18.5842 37.3496H32.4158C32.889 37.3496 33.274 36.9705 33.274 36.504V21.7833M17.726 21.7833H33.274M33.274 21.7833V21.2833H33.774V21.7833H33.274ZM31.829 38.5585V38.5602M31.829 38.5585V38.5602M31.829 38.5602V38.5619M31.829 38.5602V38.5619M31.829 38.5619V38.5636M31.829 38.5619V38.5636M31.829 38.5636V38.5653M31.829 38.5636V38.5653M31.829 38.5653V38.5669M31.829 38.5653V38.5669M31.829 38.5669V38.5686M31.829 38.5669V38.5686M31.829 38.5686V38.5703M31.829 38.5686V38.5703M31.829 38.5703V38.572M31.829 38.5703V38.572M31.829 38.572V38.5737M31.829 38.572V38.5737M31.829 38.5737V38.5753M31.829 38.5737V38.5753M31.829 38.5753V38.577M31.829 38.5753V38.577M31.829 38.577V38.5787M31.829 38.577V38.5787M31.829 38.5787V38.5804M31.829 38.5787V38.5804M31.829 38.5804V38.5821M31.829 38.5804V38.5821M31.829 38.5821V38.5837M31.829 38.5821V38.5837M31.829 38.5837V38.5854M31.829 38.5837V38.5854M31.829 38.5854V38.5871M31.829 38.5854V38.5871M31.829 38.5871V38.5888M31.829 38.5871V38.5888M31.829 38.5888V38.5905M31.829 38.5888V38.5905M31.829 38.5905V38.5921M31.829 38.5905V38.5921M31.829 38.5921V38.5938M31.829 38.5921V38.5938M31.829 38.5938V38.5955M31.829 38.5938V38.5955M31.829 38.5955V38.5972M31.829 38.5955V38.5972M31.829 38.5972V38.5989M31.829 38.5972V38.5989M31.829 38.5989V38.6005M31.829 38.5989V38.6005M31.829 38.6005V38.6022M31.829 38.6005V38.6022M31.829 38.6022V38.6039M31.829 38.6022V38.6039M31.829 38.6039V38.6056M31.829 38.6039V38.6056M31.829 38.6056V38.6073M31.829 38.6056V38.6073M31.829 38.6073V38.6089M31.829 38.6073V38.6089M31.829 38.6089V38.6106M31.829 38.6089V38.6106M31.829 38.6106V38.6123M31.829 38.6106V38.6123M31.829 38.6123V38.614M31.829 38.6123V38.614M31.829 38.614V38.6157M31.829 38.614V38.6157M31.829 38.6157V38.6173M31.829 38.6157V38.6173M31.829 38.6173V38.619M31.829 38.6173V38.619M31.829 38.619V38.6207M31.829 38.619V38.6207M31.829 38.6207V38.6224M31.829 38.6207V38.6224M31.829 38.6224V38.6241M31.829 38.6224V38.6241M31.829 38.6241V38.6258M31.829 38.6241V38.6258M31.829 38.6258V38.6274M31.829 38.6258V38.6274M31.829 38.6274V38.6291M31.829 38.6274V38.6291M31.829 38.6291V38.6308M31.829 38.6291V38.6308M31.829 38.6308V38.6325M31.829 38.6308V38.6325M31.829 38.6325V38.6342M31.829 38.6325V38.6342M31.829 38.6342V38.6358M31.829 38.6342V38.6358M31.829 38.6358V38.6375M31.829 38.6358V38.6375M31.829 38.6375V38.6392M31.829 38.6375V38.6392M31.829 38.6392V38.6409M31.829 38.6392V38.6409M31.829 38.6409V38.6426M31.829 38.6409V38.6426M31.829 38.6426V38.6442M31.829 38.6426V38.6442M31.829 38.6442V38.6459M31.829 38.6442V38.6459M31.829 38.6459V38.6476M31.829 38.6459V38.6476M31.829 38.6476V38.6493M31.829 38.6476V38.6493M31.829 38.6493V38.651M31.829 38.6493V38.651M31.829 38.651V38.6526M31.829 38.651V38.6526M31.829 38.6526V38.6543M31.829 38.6526V38.6543M31.829 38.6543V38.656M31.829 38.6543V38.656M31.829 38.656V38.6577M31.829 38.656V38.6577M31.829 38.6577V38.6594M31.829 38.6577V38.6594M31.829 38.6594V38.661M31.829 38.6594V38.661M31.829 38.661V38.6627M31.829 38.661V38.6627M31.829 38.6627V38.6644M31.829 38.6627V38.6644M31.829 38.6644V38.6661M31.829 38.6644V38.6661M31.829 38.6661V38.6678M31.829 38.6661V38.6678M31.829 38.6678V38.6694M31.829 38.6678V38.6694M31.829 38.6694V38.6711M31.829 38.6694V38.6711M31.829 38.6711V38.6728M31.829 38.6711V38.6728M31.829 38.6728V38.6745M31.829 38.6728V38.6745M31.829 38.6745V38.6762M31.829 38.6745V38.6762M31.829 38.6762V38.6778M31.829 38.6762V38.6778M31.829 38.6778V38.6795M31.829 38.6778V38.6795M31.829 38.6795V38.6812M31.829 38.6795V38.6812M31.829 38.6812V38.6829M31.829 38.6812V38.6829M31.829 38.6829V38.6846M31.829 38.6829V38.6846M31.829 38.6846V38.6862M31.829 38.6846V38.6862M31.829 38.6862V38.6879M31.829 38.6862V38.6879M31.829 38.6879V38.6896M31.829 38.6879V38.6896M31.829 38.6896V38.6913M31.829 38.6896V38.6913M31.829 38.6913V38.693M31.829 38.6913V38.693M31.829 38.693V38.6946M31.829 38.693V38.6946M31.829 38.6946V38.6963M31.829 38.6946V38.6963M31.829 38.6963V38.698M31.829 38.6963V38.698M31.829 38.698V38.6997M31.829 38.698V38.6997M31.829 38.6997V38.7014M31.829 38.6997V38.7014M31.829 38.7014V38.703M31.829 38.7014V38.703M31.829 38.703V38.7047M31.829 38.703V38.7047M31.829 38.7047V38.7064M31.829 38.7047V38.7064M31.829 38.7064V38.7081M31.829 38.7064V38.7081M31.829 38.7081V38.7098M31.829 38.7081V38.7098M31.829 38.7098V38.7114M31.829 38.7098V38.7114M31.829 38.7114V38.7131M31.829 38.7114V38.7131M31.829 38.7131V38.7148M31.829 38.7131V38.7148M31.829 38.7148V38.7165M31.829 38.7148V38.7165M31.829 38.7165V38.7182M31.829 38.7165V38.7182M31.829 38.7182V38.7198M31.829 38.7182V38.7198M31.829 38.7198V38.7215M31.829 38.7198V38.7215M31.829 38.7215V38.7232M31.829 38.7215V38.7232M31.829 38.7232V38.7249M31.829 38.7232V38.7249M31.829 38.7249V38.7266M31.829 38.7249V38.7266M31.829 38.7266V38.7282M31.829 38.7266V38.7282M31.829 38.7282V38.7299M31.829 38.7282V38.7299M31.829 38.7299V38.7316M31.829 38.7299V38.7316M31.829 38.7316V38.7333M31.829 38.7316V38.7333M31.829 38.7333V38.735M31.829 38.7333V38.735M31.829 38.735V38.7366M31.829 38.735V38.7366M31.829 38.7366V38.7383M31.829 38.7366V38.7383M31.829 38.7383V38.74M31.829 38.7383V38.74M31.829 38.74V38.7417M31.829 38.74V38.7417M31.829 38.7417V38.7434M31.829 38.7417V38.7434M31.829 38.7434V38.745M31.829 38.7434V38.745M31.829 38.745V38.7467M31.829 38.745V38.7467M31.829 38.7467V38.7484M31.829 38.7467V38.7484M31.829 38.7484V38.7501M31.829 38.7484V38.7501M31.829 38.7501V38.7518M31.829 38.7501V38.7518M31.829 38.7518V38.7534M31.829 38.7518V38.7534M31.829 38.7534V38.7551M31.829 38.7534V38.7551M31.829 38.7551V38.7568M31.829 38.7551V38.7568M31.829 38.7568V38.7585M31.829 38.7568V38.7585M31.829 38.7585V38.7602M31.829 38.7585V38.7602M31.829 38.7602V38.7618M31.829 38.7602V38.7618M31.829 38.7618V38.7635M31.829 38.7618V38.7635M31.829 38.7635V38.7652M31.829 38.7635V38.7652M31.829 38.7652V38.7669M31.829 38.7652V38.7669M31.829 38.7669V38.7685M31.829 38.7669V38.7685M31.829 38.7685V38.7702M31.829 38.7685V38.7702M31.829 38.7702V38.7719M31.829 38.7702V38.7719M31.829 38.7719V38.7736M31.829 38.7719V38.7736M31.829 38.7736V38.7753M31.829 38.7736V38.7753M31.829 38.7753V38.7769M31.829 38.7753V38.7769M31.829 38.7769V38.7786M31.829 38.7769V38.7786M31.829 38.7786V38.7803M31.829 38.7786V38.7803M31.829 38.7803V38.782M31.829 38.7803V38.782M31.829 38.782V38.7837M31.829 38.782V38.7837M31.829 38.7837V38.7853M31.829 38.7837V38.7853M31.829 38.7853V38.787M31.829 38.7853V38.787M31.829 38.787V38.7887M31.829 38.787V38.7887M31.829 38.7887V38.7904M31.829 38.7887V38.7904M31.829 38.7904V38.7921M31.829 38.7904V38.7921M31.829 38.7921V38.7937M31.829 38.7921V38.7937M31.829 38.7937V38.7954M31.829 38.7937V38.7954M31.829 38.7954V38.7971M31.829 38.7954V38.7971M31.829 38.7971V38.7988M31.829 38.7971V38.7988M31.829 38.7988V38.8005M31.829 38.7988V38.8005M31.829 38.8005V38.8021M31.829 38.8005V38.8021M31.829 38.8021V38.8038M31.829 38.8021V38.8038M31.829 38.8038V38.8055M31.829 38.8038V38.8055M31.829 38.8055V38.8072M31.829 38.8055V38.8072M31.829 38.8072V38.8089M31.829 38.8072V38.8089M31.829 38.8089V38.8105M31.829 38.8089V38.8105M31.829 38.8105V38.8122M31.829 38.8105V38.8122M31.829 38.8122V38.8139M31.829 38.8122V38.8139M31.829 38.8139V38.8156M31.829 38.8139V38.8156M31.829 38.8156V38.8173M31.829 38.8156V38.8173M31.829 38.8173V38.8189M31.829 38.8173V38.8189M31.829 38.8189V38.8206M31.829 38.8189V38.8206M31.829 38.8206V38.8223M31.829 38.8206V38.8223M31.829 38.8223V38.824M31.829 38.8223V38.824M31.829 38.824V38.8257M31.829 38.824V38.8257M31.829 38.8257V38.8273M31.829 38.8257V38.8273M31.829 38.8273V38.829M31.829 38.8273V38.829M31.829 38.829V38.8307M31.829 38.829V38.8307M31.829 38.8307V38.8324M31.829 38.8307V38.8324M31.829 38.8324V38.8341M31.829 38.8324V38.8341M31.829 38.8341V38.8357M31.829 38.8341V38.8357M31.829 38.8357V38.8374M31.829 38.8357V38.8374M31.829 38.8374V38.8391M31.829 38.8374V38.8391M31.829 38.8391V38.8408M31.829 38.8391V38.8408M31.829 38.8408V38.8424M31.829 38.8408V38.8424M31.829 38.8424V38.8441M31.829 38.8424V38.8441M31.829 38.8441V38.8458M31.829 38.8441V38.8458M31.829 38.8458V38.8475M31.829 38.8458V38.8475M31.829 38.8475V38.8492M31.829 38.8475V38.8492M31.829 38.8492V38.8508M31.829 38.8492V38.8508M31.829 38.8508V38.8525M31.829 38.8508V38.8525M31.829 38.8525V38.8542M31.829 38.8525V38.8542M31.829 38.8542V38.8559M31.829 38.8542V38.8559M31.829 38.8559V38.8576M31.829 38.8559V38.8576M31.829 38.8576V38.8592M31.829 38.8576V38.8592M31.829 38.8592V38.8609M31.829 38.8592V38.8609M31.829 38.8609V38.8626M31.829 38.8609V38.8626M31.829 38.8626V38.8643M31.829 38.8626V38.8643M31.829 38.8643V38.866M31.829 38.8643V38.866M31.829 38.866V38.8676M31.829 38.866V38.8676M31.829 38.8676V38.8693M31.829 38.8676V38.8693M31.829 38.8693V38.871M31.829 38.8693V38.871M31.829 38.871V38.8727M31.829 38.871V38.8727M31.829 38.8727V38.8744M31.829 38.8727V38.8744M31.829 38.8744V38.876M31.829 38.8744V38.876M31.829 38.876V38.8777M31.829 38.876V38.8777M31.829 38.8777V38.8794M31.829 38.8777V38.8794M31.829 38.8794V38.8811M31.829 38.8794V38.8811M31.829 38.8811V38.8828M31.829 38.8811V38.8828M31.829 38.8828V38.8844M31.829 38.8828V38.8844M31.829 38.8844V38.8861M31.829 38.8844V38.8861M31.829 38.8861V38.8878M31.829 38.8861V38.8878M31.829 38.8878V38.8895M31.829 38.8878V38.8895M31.829 38.8895V38.8912M31.829 38.8895V38.8912M31.829 38.8912V38.8928M31.829 38.8912V38.8928M31.829 38.8928V38.8945M31.829 38.8928V38.8945M31.829 38.8945V38.8962M31.829 38.8945V38.8962M31.829 38.8962V38.8979M31.829 38.8962V38.8979M31.829 38.8979V38.8995M31.829 38.8979V38.8995M31.829 38.8995V38.9012M31.829 38.8995V38.9012M31.829 38.9012V38.9029M31.829 38.9012V38.9029M31.829 38.9029V38.9046M31.829 38.9029V38.9046M31.829 38.9046V38.9063M31.829 38.9046V38.9063M31.829 38.9063V38.9079M31.829 38.9063V38.9079M31.829 38.9079V38.9096M31.829 38.9079V38.9096M31.829 38.9096V38.9113M31.829 38.9096V38.9113M31.829 38.9113V38.913M31.829 38.9113V38.913M31.829 38.913V38.9147M31.829 38.913V38.9147M31.829 38.9147V38.9163M31.829 38.9147V38.9163M31.829 38.9163V38.918M31.829 38.9163V38.918M31.829 38.918V38.9197M31.829 38.918V38.9197M31.829 38.9197V38.9214M31.829 38.9197V38.9214M31.829 38.9214V38.9231M31.829 38.9214V38.9231M31.829 38.9231V38.9247M31.829 38.9231V38.9247M31.829 38.9247V38.9264M31.829 38.9247V38.9264M31.829 38.9264V38.9281M31.829 38.9264V38.9281M31.829 38.9281V38.9298M31.829 38.9281V38.9298M31.829 38.9298V38.9315M31.829 38.9298V38.9315M31.829 38.9315V38.9331M31.829 38.9315V38.9331M31.829 38.9331V38.9348M31.829 38.9331V38.9348M31.829 38.9348V38.9365M31.829 38.9348V38.9365M31.829 38.9365V38.9382M31.829 38.9365V38.9382M31.829 38.9382V38.9399M31.829 38.9382V38.9399M31.829 38.9399V38.9415M31.829 38.9399V38.9415M31.829 38.9415V38.9432M31.829 38.9415V38.9432M31.829 38.9432V38.9449M31.829 38.9432V38.9449M31.829 38.9449V38.9466M31.829 38.9449V38.9466M31.829 38.9466V38.9482M31.829 38.9466V38.9482M31.829 38.9482V38.9499M31.829 38.9482V38.9499M31.829 38.9499V38.9516M31.829 38.9499V38.9516M31.829 38.9516V38.9533M31.829 38.9516V38.9533M31.829 38.9533V38.955M31.829 38.9533V38.955M31.829 38.955V38.9566M31.829 38.955V38.9566M31.829 38.9566V38.9583M31.829 38.9566V38.9583M31.829 38.9583V38.96M31.829 38.9583V38.96M31.829 38.96V38.9617M31.829 38.96V38.9617M31.829 38.9617V38.9634M31.829 38.9617V38.9634M31.829 38.9634V38.965M31.829 38.9634V38.965M31.829 38.965V38.9667M31.829 38.965V38.9667M31.829 38.9667V38.9684M31.829 38.9667V38.9684M31.829 38.9684V38.9701M31.829 38.9684V38.9701M31.829 38.9701V38.9718M31.829 38.9701V38.9718M31.829 38.9718V38.9734M31.829 38.9718V38.9734M31.829 38.9734V38.9751M31.829 38.9734V38.9751M31.829 38.9751V38.9768M31.829 38.9751V38.9768M31.829 38.9768V38.9785M31.829 38.9768V38.9785M31.829 38.9785V38.9802M31.829 38.9785V38.9802M31.829 38.9802V38.9818M31.829 38.9802V38.9818M31.829 38.9818V38.9835M31.829 38.9818V38.9835M31.829 38.9835V38.9852M31.829 38.9835V38.9852M31.829 38.9852V38.9869M31.829 38.9852V38.9869M31.829 38.9869V38.9886M31.829 38.9869V38.9886M31.829 38.9886V38.9902M31.829 38.9886V38.9902M31.829 38.9902V38.9919M31.829 38.9902V38.9919M31.829 38.9919V38.9936M31.829 38.9919V38.9936M31.829 38.9936V38.9953M31.829 38.9936V38.9953M31.829 38.9953V38.997M31.829 38.9953V38.997M31.829 38.997V38.9986M31.829 38.997V38.9986M31.829 38.9986V39.0003M31.829 38.9986V39.0003M31.829 39.0003V39.002M31.829 39.0003V39.002M31.829 39.002V39.0037M31.829 39.002V39.0037M31.829 39.0037V39.0053M31.829 39.0037V39.0053M31.829 39.0053V39.007M31.829 39.0053V39.007M31.829 39.007V39.0087M31.829 39.007V39.0087M31.829 39.0087V39.0104M31.829 39.0087V39.0104M31.829 39.0104V39.0121M31.829 39.0104V39.0121M31.829 39.0121V39.0137M31.829 39.0121V39.0137M31.829 39.0137V39.0154M31.829 39.0137V39.0154M31.829 39.0154V39.0171M31.829 39.0154V39.0171M31.829 39.0171V39.0188M31.829 39.0171V39.0188M31.829 39.0188V39.0205M31.829 39.0188V39.0205M31.829 39.0205V39.0221M31.829 39.0205V39.0221M31.829 39.0221V39.0238M31.829 39.0221V39.0238M31.829 39.0238V39.0255M31.829 39.0238V39.0255M31.829 39.0255V39.0272M31.829 39.0255V39.0272M31.829 39.0272V39.0289M31.829 39.0272V39.0289M31.829 39.0289V39.0305M31.829 39.0289V39.0305M31.829 39.0305V39.0322M31.829 39.0305V39.0322M31.829 39.0322V39.0339M31.829 39.0322V39.0339M31.829 39.0339V39.0356M31.829 39.0339V39.0356M31.829 39.0356V39.0373M31.829 39.0356V39.0373M31.829 39.0373V39.0389M31.829 39.0373V39.0389M31.829 39.0389V39.0406M31.829 39.0389V39.0406M31.829 39.0406V39.0423M31.829 39.0406V39.0423M31.829 39.0423V39.044M31.829 39.0423V39.044M31.829 39.044V39.0457M31.829 39.044V39.0457M31.829 39.0457V39.0473M31.829 39.0457V39.0473M31.829 39.0473V39.049M31.829 39.0473V39.049M31.829 39.049V39.0507M31.829 39.049V39.0507M31.829 39.0507V39.0524M31.829 39.0507V39.0524M31.829 39.0524V39.054M31.829 39.0524V39.054M31.829 39.054V39.0557M31.829 39.054V39.0557M31.829 39.0557V39.0574M31.829 39.0557V39.0574M31.829 39.0574V39.0591M31.829 39.0574V39.0591M31.829 39.0591V39.0608M31.829 39.0591V39.0608M31.829 39.0608V39.0624M31.829 39.0608V39.0624M31.829 39.0624V39.0641M31.829 39.0624V39.0641M31.829 39.0641V39.0658M31.829 39.0641V39.0658M31.829 39.0658V39.0675M31.829 39.0658V39.0675M31.829 39.0675V39.0692M31.829 39.0675V39.0692M31.829 39.0692V39.0708M31.829 39.0692V39.0708M31.829 39.0708V39.0725M31.829 39.0708V39.0725M31.829 39.0725V39.0742M31.829 39.0725V39.0742M31.829 39.0742V39.0759M31.829 39.0742V39.0759M31.829 39.0759V39.0776M31.829 39.0759V39.0776M31.829 39.0776V39.0792M31.829 39.0776V39.0792M31.829 39.0792V39.0809M31.829 39.0792V39.0809M31.829 39.0809V39.0826M31.829 39.0809V39.0826M31.829 39.0826V39.0843M31.829 39.0826V39.0843M31.829 39.0843V39.086M31.829 39.0843V39.086M31.829 39.086V39.0876M31.829 39.086V39.0876M31.829 39.0876V39.0893M31.829 39.0876V39.0893M31.829 39.0893V39.091M31.829 39.0893V39.091M31.829 39.091V39.0927M31.829 39.091V39.0927M31.829 39.0927V39.0944M31.829 39.0927V39.0944M31.829 39.0944V39.096M31.829 39.0944V39.096M31.829 39.096V39.0977M31.829 39.096V39.0977M31.829 39.0977V39.0994M31.829 39.0977V39.0994M31.829 39.0994V39.1011M31.829 39.0994V39.1011M31.829 39.1011V39.1027M31.829 39.1011V39.1027M31.829 39.1027V39.1044M31.829 39.1027V39.1044M31.829 39.1044V39.1061M31.829 39.1044V39.1061M31.829 39.1061V39.1078M31.829 39.1061V39.1078M31.829 39.1078V39.1095M31.829 39.1078V39.1095M31.829 39.1095V39.1111M31.829 39.1095V39.1111M31.829 39.1111V39.1128M31.829 39.1111V39.1128M31.829 39.1128V39.1145M31.829 39.1128V39.1145M31.829 39.1145V39.1162M31.829 39.1145V39.1162M31.829 39.1162V39.1179M31.829 39.1162V39.1179M31.829 39.1179V39.1195M31.829 39.1179V39.1195M31.829 39.1195V39.1212M31.829 39.1195V39.1212M31.829 39.1212V39.1229M31.829 39.1212V39.1229M31.829 39.1229V39.1246M31.829 39.1229V39.1246M31.829 39.1246V39.1263M31.829 39.1246V39.1263M31.829 39.1263V39.1279M31.829 39.1263V39.1279M31.829 39.1279V39.1296M31.829 39.1279V39.1296M31.829 39.1296V39.1313M31.829 39.1296V39.1313M31.829 39.1313V39.133M31.829 39.1313V39.133M31.829 39.133V39.1347M31.829 39.133V39.1347M31.829 39.1347V39.1363M31.829 39.1347V39.1363M31.829 39.1363V39.138M31.829 39.1363V39.138M31.829 39.138V39.1397M31.829 39.138V39.1397M31.829 39.1397V39.1414M31.829 39.1397V39.1414M31.829 39.1414V39.1431M31.829 39.1414V39.1431M31.829 39.1431V39.1447M31.829 39.1431V39.1447M31.829 39.1447V39.1464M31.829 39.1447V39.1464M31.829 39.1464V39.1481M31.829 39.1464V39.1481M31.829 39.1481V39.1498M31.829 39.1481V39.1498M31.829 39.1498V39.1515M31.829 39.1498V39.1515M31.829 39.1515V39.1531M31.829 39.1515V39.1531M31.829 39.1531V39.1548M31.829 39.1531V39.1548M31.829 39.1548V39.1565M31.829 39.1548V39.1565M31.829 39.1565V39.1582M31.829 39.1565V39.1582M31.829 39.1582V39.1599M31.829 39.1582V39.1599M31.829 39.1599V39.1615M31.829 39.1599V39.1615M31.829 39.1615V39.1632M31.829 39.1615V39.1632M31.829 39.1632V39.1649M31.829 39.1632V39.1649M31.829 39.1649V39.1666M31.829 39.1649V39.1666M31.829 39.1666V39.1682M31.829 39.1666V39.1682M31.829 39.1682V39.1699M31.829 39.1682V39.1699M31.829 39.1699V39.1716M31.829 39.1699V39.1716M31.829 39.1716V39.1733M31.829 39.1716V39.1733M31.829 39.1733V39.175M31.829 39.1733V39.175M31.829 39.175V39.1766M31.829 39.175V39.1766M31.829 39.1766V39.1783M31.829 39.1766V39.1783M31.829 39.1783V39.18M31.829 39.1783V39.18M31.829 39.18V39.1817M31.829 39.18V39.1817M31.829 39.1817V39.1834M31.829 39.1817V39.1834M31.829 39.1834V39.185M31.829 39.1834V39.185M31.829 39.185V39.1867M31.829 39.185V39.1867M31.829 39.1867V39.1884M31.829 39.1867V39.1884M31.829 39.1884V39.1901M31.829 39.1884V39.1901M31.829 39.1901V39.1918M31.829 39.1901V39.1918M31.829 39.1918V39.1934M31.829 39.1918V39.1934M31.829 39.1934V39.1951M31.829 39.1934V39.1951M31.829 39.1951V39.1968M31.829 39.1951V39.1968M31.829 39.1968V39.1985M31.829 39.1968V39.1985M31.829 39.1985V39.2002M31.829 39.1985V39.2002M31.829 39.2002V39.2018M31.829 39.2002V39.2018M31.829 39.2018V39.2035M31.829 39.2018V39.2035M31.829 39.2035V39.2052M31.829 39.2035V39.2052M31.829 39.2052V39.2069M31.829 39.2052V39.2069M31.829 39.2069V39.2086M31.829 39.2069V39.2086M31.829 39.2086V39.2102M31.829 39.2086V39.2102M31.829 39.2102V39.2119M31.829 39.2102V39.2119M31.829 39.2119V39.2136M31.829 39.2119V39.2136M31.829 39.2136V39.2153M31.829 39.2136V39.2153M31.829 39.2153V39.217M31.829 39.2153V39.217M31.829 39.217V39.2186M31.829 39.217V39.2186M31.829 39.2186V39.2203M31.829 39.2186V39.2203M31.829 39.2203V39.222M31.829 39.2203V39.222M31.829 39.222V39.2237M31.829 39.222V39.2237M31.829 39.2237V39.2254M31.829 39.2237V39.2254M31.829 39.2254V39.227M31.829 39.2254V39.227M31.829 39.227V39.2287M31.829 39.227V39.2287M31.829 39.2287V39.2304M31.829 39.2287V39.2304M31.829 39.2304V39.2321M31.829 39.2304V39.2321M31.829 39.2321V39.2338M31.829 39.2321V39.2338M31.829 39.2338V39.2354M31.829 39.2338V39.2354M31.829 39.2354V39.2371M31.829 39.2354V39.2371M31.829 39.2371V39.2388M31.829 39.2371V39.2388M31.829 39.2388V39.2405M31.829 39.2388V39.2405M31.829 39.2405V39.2422M31.829 39.2405V39.2422M31.829 39.2422V39.2438M31.829 39.2422V39.2438M31.829 39.2438V39.2455M31.829 39.2438V39.2455M31.829 39.2455V39.2472M31.829 39.2455V39.2472M31.829 39.2472V39.2489M31.829 39.2472V39.2489M31.829 39.2489V39.2506M31.829 39.2489V39.2506M31.829 39.2506V39.2522M31.829 39.2506V39.2522M31.829 39.2522V39.2539M31.829 39.2522V39.2539M31.829 39.2539V39.2556M31.829 39.2539V39.2556M31.829 39.2556V39.2573M31.829 39.2556V39.2573M31.829 39.2573V39.259M31.829 39.2573V39.259M31.829 39.259V39.2606M31.829 39.259V39.2606M31.829 39.2606V39.2623M31.829 39.2606V39.2623M31.829 39.2623V39.264M31.829 39.2623V39.264M31.829 39.264V39.2657M31.829 39.264V39.2657M31.829 39.2657V39.2674M31.829 39.2657V39.2674M31.829 39.2674V39.269M31.829 39.2674V39.269M31.829 39.269V39.2707M31.829 39.269V39.2707M31.829 39.2707V39.2724V39.2707Z" fill="black" stroke="#6A6A6A"/>
<path d="M20.1636 27.2852V27.2788V27.2724V27.266V27.2596V27.2532V27.2468V27.2404V27.234V27.2276V27.2212V27.2148V27.2084V27.202V27.1957V27.1893V27.1829V27.1765V27.1701V27.1637V27.1573V27.1509V27.1445V27.1381V27.1317V27.1253V27.1189V27.1125V27.1061V27.0997V27.0933V27.0869V27.0805V27.0741V27.0677V27.0613V27.0549V27.0485V27.0421V27.0357V27.0293V27.0229V27.0165V27.0101V27.0037V26.9973V26.9909V26.9845V26.9781V26.9717V26.9653V26.9589V26.9525V26.9461V26.9397V26.9333V26.9269V26.9205V26.9141V26.9077V26.9013V26.8949V26.8886V26.8822V26.8758V26.8694V26.863V26.8566V26.8502V26.8438V26.8374V26.831V26.8246V26.8182V26.8118V26.8054V26.799V26.7926V26.7862V26.7798V26.7734V26.767V26.7606V26.7542V26.7478V26.7414V26.735V26.7286V26.7222V26.7158V26.7094V26.703V26.6966V26.6902V26.6838V26.6774V26.671V26.6646V26.6582V26.6518V26.6454V26.639V26.6326V26.6262V26.6198V26.6134V26.607V26.6006V26.5942V26.5878V26.5814V26.575V26.5686V26.5622V26.5558V26.5494V26.543V26.5366V26.5302V26.5238V26.5174V26.511V26.5046V26.4982V26.4918V26.4854V26.479V26.4726V26.4662V26.4599V26.4535V26.4471V26.4407V26.4343V26.4279V26.4215V26.4151V26.4087V26.4023V26.3959V26.3895V26.3831V26.3767V26.3703V26.3639V26.3575V26.3511V26.3447V26.3383V26.3319V26.3255V26.3191V26.3127V26.3063V26.2999V26.2935V26.2871V26.2807V26.2743V26.2679V26.2615V26.2551V26.2487V26.2423V26.2359V26.2295V26.2231V26.2167V26.2103V26.2039V26.1975V26.1911V26.1847V26.1783V26.1719V26.1655V26.1591V26.1527V26.1463V26.1399V26.1335V26.1271V26.1207V26.1143V26.1079V26.1015V26.0951V26.0887V26.0823V26.0759V26.0695V26.0631V26.0567V26.0503V26.0439V26.0375V26.0311V26.0247V26.0183V26.0119V26.0055V25.9991V25.9927V25.9863V25.9799V25.9735V25.9671V25.9607V25.9543V25.9479V25.9415V25.9351V25.9287V25.9223V25.9159V25.9095V25.9031V25.8967V25.8903V25.8839V25.8775V25.8711V25.8647V25.8583V25.8519V25.8455V25.8391V25.8327V25.8263V25.8199V25.8135V25.8071V25.8007V25.7943V25.7879V25.7815V25.7751V25.7687V25.7623V25.7559V25.7495V25.7431V25.7367V25.7303V25.7239V25.7175V25.7111V25.7047V25.6983V25.6919V25.6855V25.6791V25.6727V25.6663V25.6599V25.6535V25.6471V25.6407V25.6343V25.6279V25.6215V25.6151V25.6087V25.6023V25.5959V25.5895V25.5831V25.5767V25.5703V25.5639V25.5575V25.5511V25.5447V25.5383V25.5319V25.5255V25.5192V25.5128V25.5064V25.5V25.4936V25.4872V25.4808V25.4744V25.468V25.4616V25.4552V25.4488V25.4424V25.436V25.4296V25.4232V25.4168V25.4104V25.404V25.3976V25.3912V25.3848V25.3784V25.372V25.3656V25.3592V25.3528V25.3464V25.34V25.3336V25.3272V25.3208V25.3144V25.308V25.3016V25.2952V25.2888V25.2824V25.276V25.2696V25.2632V25.2568V25.2504V25.244V25.2376V25.2312V25.2248V25.2184V25.212V25.2056V25.1992V25.1928V25.1864V25.18V25.1736V25.1672V25.1608V25.1544V25.148V25.1416V25.1352V25.1288V25.1224V25.116V25.1096V25.1032V25.0968V25.0904V25.084V25.0776V25.0712V25.0648V25.0584V25.052V25.0456V25.0392V25.0328V25.0264V25.02V25.0136V25.0072V25.0008V24.9944V24.988V24.9816V24.9752V24.9688V24.9624V24.956V24.9496V24.9432V24.9368V24.9304V24.924V24.9176V24.9112V24.9048V24.8984V24.892V24.8856V24.8792V24.8728V24.8664V24.86V24.8535V24.8471V24.8407V24.8343V24.8279V24.8215V24.8151V24.8087V24.8023V24.7959V24.7895V24.7831V24.7767V24.7703V24.7639V24.7575V24.7511V24.7447V24.7383V24.7319V24.7255V24.7191V24.7127V24.7063V24.6999V24.6935V24.6871V24.6807V24.6743V24.6679V24.6615V24.6551V24.6487V24.6423V24.6359V24.6295V24.6231V24.6167V24.6103V24.6039V24.5975V24.5911V24.5847V24.5783V24.5719V24.5655V24.5591V24.5527V24.5463V24.5399V24.5335V24.5271V24.5207V24.5143V24.5079V24.5015V24.4951V24.4887V24.4823V24.4759V24.4695V24.4631V24.4567V24.4503V24.4439V24.4375V24.4311V24.4247V24.4183V24.4119V24.4055V24.3991V24.3927V24.3863V24.3799V24.3735V24.3671V24.3607V24.3543V24.3479V24.3415V24.3351V24.3287V24.3223V24.3159V24.3095V24.3031V24.2967V24.2903V24.2839V24.2775V24.2711V24.2647V24.2583V24.2519V24.2455V24.2391V24.2327V24.2263V24.2199V24.2135V24.2071V24.2007V24.1943V24.1879V24.1815V24.1751V24.1687V24.1623V24.1559V24.1495V24.1431V24.1367V24.1303V24.1239V24.1175V24.1111V24.1047V24.0983V24.0919V24.0855V24.0791V24.0727V24.0663V24.0599V24.0535V24.0471V24.0407V24.0343V24.0279V24.0215V24.0151V24.0087C20.1636 23.9968 20.1649 23.9896 20.1657 23.9862C20.1665 23.9828 20.1672 23.9814 20.1673 23.981C20.1676 23.9806 20.1681 23.9797 20.1694 23.9781C20.1709 23.9763 20.1739 23.9733 20.1791 23.9693C20.2037 23.9506 20.2616 23.9257 20.3444 23.9258C20.4272 23.9258 20.4853 23.9507 20.5102 23.9696C20.5155 23.9737 20.5185 23.9768 20.52 23.9785C20.5214 23.9802 20.5219 23.9811 20.5221 23.9815C20.5223 23.9819 20.523 23.9832 20.5238 23.9865C20.5246 23.9899 20.5258 23.9969 20.5258 24.0087V24.0151V24.0215V24.0279V24.0343V24.0407V24.0471V24.0535V24.0599V24.0663V24.0727V24.0791V24.0855V24.0919V24.0983V24.1047V24.1111V24.1175V24.1239V24.1303V24.1367V24.1431V24.1495V24.1559V24.1623V24.1687V24.175V24.1814V24.1878V24.1942V24.2006V24.207V24.2134V24.2198V24.2262V24.2326V24.239V24.2454V24.2518V24.2582V24.2646V24.271V24.2774V24.2838V24.2902V24.2966V24.303V24.3094V24.3158V24.3222V24.3286V24.335V24.3414V24.3478V24.3542V24.3606V24.367V24.3734V24.3798V24.3862V24.3926V24.399V24.4054V24.4118V24.4182V24.4246V24.431V24.4374V24.4438V24.4502V24.4566V24.463V24.4694V24.4758V24.4822V24.4886V24.495V24.5014V24.5077V24.5141V24.5205V24.5269V24.5333V24.5397V24.5461V24.5525V24.5589V24.5653V24.5717V24.5781V24.5845V24.5909V24.5973V24.6037V24.6101V24.6165V24.6229V24.6293V24.6357V24.6421V24.6485V24.6549V24.6613V24.6677V24.6741V24.6805V24.6869V24.6933V24.6997V24.7061V24.7125V24.7189V24.7253V24.7317V24.7381V24.7445V24.7509V24.7573V24.7637V24.7701V24.7765V24.7829V24.7893V24.7957V24.8021V24.8085V24.8149V24.8213V24.8277V24.8341V24.8405V24.8469V24.8533V24.8597V24.8661V24.8725V24.8789V24.8853V24.8917V24.8981V24.9045V24.9109V24.9173V24.9237V24.9301V24.9365V24.9429V24.9493V24.9557V24.9621V24.9685V24.9749V24.9813V24.9876V24.994V25.0004V25.0068V25.0132V25.0196V25.026V25.0324V25.0388V25.0452V25.0516V25.058V25.0644V25.0708V25.0772V25.0836V25.09V25.0964V25.1028V25.1092V25.1156V25.122V25.1284V25.1348V25.1412V25.1476V25.154V25.1604V25.1668V25.1732V25.1796V25.186V25.1924V25.1988V25.2052V25.2116V25.218V25.2244V25.2308V25.2372V25.2436V25.25V25.2564V25.2628V25.2692V25.2756V25.282V25.2884V25.2948V25.3012V25.3076V25.314V25.3204V25.3268V25.3332V25.3396V25.346V25.3524V25.3588V25.3652V25.3716V25.378V25.3844V25.3908V25.3972V25.4036V25.41V25.4164V25.4228V25.4292V25.4356V25.442V25.4484V25.4548V25.4612V25.4676V25.474V25.4804V25.4868V25.4932V25.4996V25.506V25.5124V25.5188V25.5252V25.5316V25.538V25.5444V25.5508V25.5572V25.5636V25.57V25.5764V25.5828V25.5892V25.5956V25.602V25.6084V25.6148V25.6212V25.6276V25.634V25.6404V25.6468V25.6532V25.6596V25.666V25.6724V25.6788V25.6852V25.6916V25.698V25.7044V25.7108V25.7172V25.7236V25.73V25.7364V25.7428V25.7492V25.7556V25.762V25.7684V25.7748V25.7812V25.7876V25.794V25.8004V25.8068V25.8132V25.8196V25.826V25.8324V25.8388V25.8452V25.8516V25.858V25.8644V25.8708V25.8772V25.8836V25.89V25.8964V25.9028V25.9092V25.9156V25.922V25.9284V25.9348V25.9412V25.9476V25.954V25.9604V25.9668V25.9732V25.9796V25.986V25.9924V25.9988V26.0052V26.0116V26.018V26.0244V26.0308V26.0372V26.0436V26.05V26.0564V26.0628V26.0692V26.0756V26.082V26.0884V26.0948V26.1012V26.1076V26.114V26.1204V26.1268V26.1332V26.1396V26.146V26.1524V26.1588V26.1652V26.1716V26.178V26.1844V26.1908V26.1972V26.2036V26.21V26.2164V26.2228V26.2292V26.2356V26.242V26.2484V26.2548V26.2612V26.2676V26.274V26.2804V26.2868V26.2932V26.2996V26.306V26.3124V26.3188V26.3252V26.3316V26.338V26.3444V26.3508V26.3572V26.3636V26.37V26.3764V26.3828V26.3892V26.3956V26.402V26.4084V26.4148V26.4212V26.4276V26.434V26.4404V26.4468V26.4532V26.4596V26.466V26.4724V26.4788V26.4852V26.4916V26.498V26.5044V26.5108V26.5172V26.5236V26.53V26.5364V26.5428V26.5492V26.5556V26.562V26.5684V26.5748V26.5812V26.5876V26.594V26.6004V26.6068V26.6132V26.6196V26.626V26.6324V26.6388V26.6452V26.6516V26.658V26.6644V26.6708V26.6772V26.6836V26.69V26.6964V26.7028V26.7092V26.7156V26.722V26.7284V26.7348V26.7412V26.7476V26.754V26.7604V26.7668V26.7732V26.7796V26.786V26.7924V26.7988V26.8052V26.8116V26.818V26.8244V26.8308V26.8372V26.8436V26.85V26.8564V26.8628V26.8692V26.8756V26.882V26.8884V26.8948V26.9012V26.9076V26.914V26.9204V26.9268V26.9332V26.9396V26.946V26.9524V26.9588V26.9652V26.9716V26.978V26.9844V26.9908V26.9972V27.0036V27.01V27.0164V27.0228V27.0292V27.0356V27.042V27.0484V27.0548V27.0612V27.0676V27.074V27.0804V27.0868V27.0932V27.0996V27.106V27.1124V27.1188V27.1252V27.1316V27.138V27.1444V27.1508V27.1572V27.1636V27.17V27.1764V27.1828V27.1892V27.1956V27.202V27.2084V27.2148V27.2212V27.2276V27.234V27.2404V27.2468V27.2532V27.2596V27.266V27.2724V27.2788V27.2852C20.5258 27.2971 20.5245 27.3043 20.5237 27.3078C20.5229 27.3112 20.5222 27.3126 20.522 27.313C20.5218 27.3134 20.5213 27.3143 20.5199 27.316C20.5184 27.3177 20.5155 27.3208 20.5102 27.3248C20.4856 27.3435 20.4276 27.3684 20.3449 27.3683C20.2621 27.3683 20.2041 27.3434 20.1792 27.3245C20.1739 27.3205 20.171 27.3174 20.1695 27.3157C20.168 27.314 20.1675 27.313 20.1673 27.3126C20.1671 27.3123 20.1664 27.3109 20.1656 27.3075C20.1648 27.3041 20.1636 27.297 20.1636 27.2852Z" fill="black" stroke="#6A6A6A"/>
<path d="M20.5258 15.3912V15.3976V15.404V15.4104V15.4168V15.4232V15.4296V15.436V15.4424V15.4488V15.4552V15.4616V15.468V15.4744V15.4808V15.4872V15.4936V15.5V15.5064V15.5128V15.5192V15.5256V15.532V15.5384V15.5448V15.5512V15.5576V15.564V15.5703V15.5767V15.5831V15.5895V15.5959V15.6023V15.6087V15.6151V15.6215V15.6279V15.6343V15.6407V15.6471V15.6535V15.6599V15.6663V15.6727V15.6791V15.6855V15.6919V15.6983V15.7047V15.7111V15.7175V15.7239V15.7303V15.7367V15.7431V15.7495V15.7559V15.7623V15.7687V15.7751V15.7815V15.7879V15.7943V15.8007V15.8071V15.8135V15.8199V15.8263V15.8327V15.8391V15.8455V15.8519V15.8583V15.8647V15.8711V15.8775V15.8839V15.8903V15.8967V15.9031V15.9094V15.9158V15.9222V15.9286V15.935V15.9414V15.9478V15.9542V15.9606V15.967V15.9734V15.9798V15.9862V15.9926V15.999V16.0054V16.0118V16.0182V16.0246V16.031V16.0374V16.0438V16.0502V16.0566V16.063V16.0694V16.0758V16.0822V16.0886V16.095V16.1014V16.1078V16.1142V16.1206V16.127V16.1334V16.1398V16.1462V16.1526V16.159V16.1654V16.1718V16.1782V16.1846V16.191V16.1974V16.2038V16.2102V16.2166V16.223V16.2294V16.2358V16.2422V16.2486V16.255V16.2614V16.2678V16.2742V16.2806V16.287V16.2934V16.2998V16.3062V16.3126V16.319V16.3254V16.3318V16.3382V16.3446V16.351V16.3574V16.3638V16.3702V16.3766V16.383V16.3894V16.3958V16.4022V16.4085V16.4149V16.4213V16.4277V16.4341V16.4405V16.4469V16.4533V16.4597V16.4661V16.4725V16.4789V16.4853V16.4917V16.4981V16.5045V16.5109V16.5173V16.5237V16.5301V16.5365V16.5429V16.5493V16.5557V16.5621V16.5685V16.5749V16.5813V16.5877V16.5941V16.6005V16.6069V16.6133V16.6197V16.6261V16.6325V16.6389V16.6453V16.6517V16.6581V16.6645V16.6709V16.6773V16.6837V16.6901V16.6965V16.7029V16.7093V16.7157V16.7221V16.7285V16.7349V16.7413V16.7477V16.7541V16.7605V16.7669V16.7733V16.7797V16.7861V16.7925V16.7989V16.8053V16.8117V16.8181V16.8245V16.8309V16.8373V16.8437V16.8501V16.8565V16.8629V16.8693V16.8757V16.8821V16.8885V16.8949V16.9013V16.9077V16.9141V16.9205V16.9269V16.9333V16.9397V16.9461V16.9525V16.9589V16.9653V16.9717V16.9781V16.9845V16.9909V16.9973V17.0037V17.0101V17.0165V17.0229V17.0293V17.0357V17.0421V17.0485V17.0549V17.0613V17.0677V17.0741V17.0805V17.0869V17.0933V17.0997V17.1061V17.1125V17.1189V17.1253V17.1317V17.1381V17.1445V17.1509V17.1573V17.1637V17.1701V17.1765V17.1829V17.1893V17.1957V17.2021V17.2085V17.2149V17.2213V17.2277V17.2341V17.2405V17.2469V17.2533V17.2597V17.2661V17.2725V17.2789V17.2853V17.2917V17.2981V17.3045V17.3109V17.3173V17.3237V17.3301V17.3365V17.3429V17.3493V17.3557V17.3621V17.3685V17.3749V17.3813V17.3877V17.3941V17.4005V17.4069V17.4133V17.4197V17.4261V17.4325V17.4389V17.4453V17.4517V17.4581V17.4645V17.4709V17.4773V17.4837V17.4901V17.4965V17.5029V17.5093V17.5157V17.5221V17.5285V17.5349V17.5413V17.5477V17.5541V17.5605V17.5669V17.5733V17.5797V17.5861V17.5925V17.5989V17.6053V17.6117V17.6181V17.6245V17.6309V17.6373V17.6437V17.6501V17.6565V17.6629V17.6693V17.6757V17.6821V17.6885V17.6949V17.7013V17.7077V17.7141V17.7205V17.7269V17.7333V17.7397V17.7461V17.7525V17.7589V17.7653V17.7717V17.7781V17.7845V17.7909V17.7973V17.8037V17.8101V17.8165V17.8229V17.8293V17.8357V17.8421V17.8485V17.8549V17.8613V17.8677V17.8741V17.8805V17.8869V17.8933V17.8997V17.9061V17.9125V17.9189V17.9253V17.9317V17.9381V17.9445V17.9509V17.9573V17.9637V17.9701V17.9765V17.9829V17.9893V17.9957V18.0021V18.0085V18.0149V18.0213V18.0277V18.0341V18.0405V18.0469V18.0533V18.0597V18.0661V18.0725V18.0789V18.0853V18.0917V18.0981V18.1045V18.1109V18.1173V18.1237V18.1301V18.1365V18.1429V18.1493V18.1557V18.1621V18.1685V18.1749V18.1813V18.1877V18.1941V18.2005V18.2069V18.2133V18.2197V18.2261V18.2325V18.2389V18.2453V18.2517V18.2581V18.2645V18.2709V18.2773V18.2837V18.2901V18.2965V18.3029V18.3093V18.3157V18.3221V18.3285V18.3349V18.3413V18.3477V18.3541V18.3605V18.3669V18.3733V18.3797V18.3861V18.3925V18.3989V18.4053V18.4117V18.4181V18.4245V18.4309V18.4373V18.4437V18.4501V18.4565V18.4629V18.4693V18.4757V18.4821V18.4885V18.4949V18.5013V18.5077V18.5141V18.5205V18.5269V18.5333V18.5397V18.5461V18.5525V18.5589V18.5653V18.5717V18.5781V18.5845V18.5909V18.5973V18.6037V18.6101V18.6165V18.6229V18.6293V18.6357V18.6421V18.6485V18.6549V18.6613V18.6677C20.5258 18.6797 20.5245 18.6868 20.5237 18.6903C20.5229 18.6937 20.5222 18.6951 20.522 18.6954C20.5218 18.6958 20.5213 18.6967 20.52 18.6984C20.5185 18.7001 20.5155 18.7032 20.5103 18.7071C20.4857 18.7259 20.4278 18.7507 20.345 18.7507C20.2622 18.7506 20.2041 18.7257 20.1792 18.7068C20.1739 18.7028 20.1709 18.6997 20.1694 18.6979C20.168 18.6962 20.1675 18.6953 20.1673 18.6949C20.1671 18.6946 20.1664 18.6932 20.1656 18.6899C20.1648 18.6865 20.1636 18.6795 20.1636 18.6677V18.6613V18.6549V18.6485V18.6421V18.6357V18.6293V18.6229V18.6165V18.6101V18.6037V18.5974V18.591V18.5846V18.5782V18.5718V18.5654V18.559V18.5526V18.5462V18.5398V18.5334V18.527V18.5206V18.5142V18.5078V18.5014V18.495V18.4886V18.4822V18.4758V18.4694V18.463V18.4566V18.4502V18.4438V18.4374V18.431V18.4246V18.4182V18.4118V18.4054V18.399V18.3926V18.3862V18.3798V18.3734V18.367V18.3606V18.3542V18.3478V18.3414V18.335V18.3286V18.3222V18.3158V18.3094V18.303V18.2966V18.2903V18.2839V18.2775V18.2711V18.2647V18.2583V18.2519V18.2455V18.2391V18.2327V18.2263V18.2199V18.2135V18.2071V18.2007V18.1943V18.1879V18.1815V18.1751V18.1687V18.1623V18.1559V18.1495V18.1431V18.1367V18.1303V18.1239V18.1175V18.1111V18.1047V18.0983V18.0919V18.0855V18.0791V18.0727V18.0663V18.0599V18.0535V18.0471V18.0407V18.0343V18.0279V18.0215V18.0151V18.0087V18.0023V17.9959V17.9895V17.9831V17.9767V17.9703V17.9639V17.9575V17.9511V17.9447V17.9383V17.9319V17.9255V17.9191V17.9127V17.9063V17.8999V17.8935V17.8871V17.8807V17.8744V17.868V17.8616V17.8552V17.8488V17.8424V17.836V17.8296V17.8232V17.8168V17.8104V17.804V17.7976V17.7912V17.7848V17.7784V17.772V17.7656V17.7592V17.7528V17.7464V17.74V17.7336V17.7272V17.7208V17.7144V17.708V17.7016V17.6952V17.6888V17.6824V17.676V17.6696V17.6632V17.6568V17.6504V17.644V17.6376V17.6312V17.6248V17.6184V17.612V17.6056V17.5992V17.5928V17.5864V17.58V17.5736V17.5672V17.5608V17.5544V17.548V17.5416V17.5352V17.5288V17.5224V17.516V17.5096V17.5032V17.4968V17.4904V17.484V17.4776V17.4712V17.4648V17.4584V17.452V17.4456V17.4392V17.4328V17.4264V17.42V17.4136V17.4072V17.4008V17.3944V17.388V17.3816V17.3752V17.3688V17.3624V17.356V17.3496V17.3432V17.3368V17.3304V17.324V17.3176V17.3112V17.3048V17.2984V17.292V17.2856V17.2792V17.2728V17.2664V17.26V17.2536V17.2472V17.2408V17.2344V17.228V17.2216V17.2152V17.2088V17.2024V17.196V17.1896V17.1832V17.1768V17.1704V17.164V17.1576V17.1512V17.1448V17.1384V17.132V17.1256V17.1192V17.1128V17.1064V17.1V17.0936V17.0872V17.0808V17.0744V17.068V17.0616V17.0552V17.0488V17.0424V17.036V17.0297V17.0233V17.0169V17.0105V17.0041V16.9977V16.9913V16.9849V16.9785V16.9721V16.9657V16.9593V16.9529V16.9465V16.9401V16.9337V16.9273V16.9209V16.9145V16.9081V16.9017V16.8953V16.8889V16.8825V16.8761V16.8697V16.8633V16.8569V16.8505V16.8441V16.8377V16.8313V16.8249V16.8185V16.8121V16.8057V16.7993V16.7929V16.7865V16.7801V16.7737V16.7673V16.7609V16.7545V16.7481V16.7417V16.7353V16.7289V16.7225V16.7161V16.7097V16.7033V16.6969V16.6905V16.6841V16.6777V16.6713V16.6649V16.6585V16.6521V16.6457V16.6393V16.6329V16.6265V16.6201V16.6137V16.6073V16.6009V16.5945V16.5881V16.5817V16.5753V16.5689V16.5625V16.5561V16.5497V16.5433V16.5369V16.5305V16.5241V16.5177V16.5113V16.5049V16.4985V16.4921V16.4857V16.4793V16.4729V16.4665V16.4601V16.4537V16.4473V16.4409V16.4345V16.4281V16.4217V16.4153V16.4089V16.4025V16.3961V16.3897V16.3833V16.3769V16.3705V16.3641V16.3577V16.3513V16.3449V16.3385V16.3321V16.3257V16.3193V16.3129V16.3065V16.3001V16.2937V16.2873V16.2809V16.2745V16.2681V16.2617V16.2553V16.2489V16.2425V16.2361V16.2297V16.2233V16.2169V16.2105V16.2041V16.1977V16.1913V16.1849V16.1785V16.1721V16.1657V16.1593V16.1529V16.1465V16.1401V16.1337V16.1273V16.1209V16.1145V16.1081V16.1017V16.0953V16.0889V16.0824V16.076V16.0696V16.0632V16.0568V16.0504V16.044V16.0376V16.0312V16.0248V16.0184V16.012V16.0056V15.9992V15.9928V15.9864V15.98V15.9736V15.9672V15.9608V15.9544V15.948V15.9416V15.9352V15.9288V15.9224V15.916V15.9096V15.9032V15.8968V15.8904V15.884V15.8776V15.8712V15.8648V15.8584V15.852V15.8456V15.8392V15.8328V15.8264V15.82V15.8136V15.8072V15.8008V15.7944V15.788V15.7816V15.7752V15.7688V15.7624V15.756V15.7496V15.7432V15.7368V15.7304V15.724V15.7176V15.7112V15.7048V15.6984V15.692V15.6856V15.6792V15.6728V15.6664V15.66V15.6536V15.6472V15.6408V15.6344V15.628V15.6216V15.6152V15.6088V15.6024V15.596V15.5896V15.5832V15.5768V15.5704V15.564V15.5576V15.5512V15.5448V15.5384V15.532V15.5256V15.5192V15.5128V15.5064V15.5V15.4936V15.4872V15.4808V15.4744V15.468V15.4616V15.4552V15.4488V15.4424V15.436V15.4296V15.4232V15.4168V15.4104V15.404V15.3976V15.3912C20.1636 15.3793 20.1649 15.3721 20.1657 15.3687C20.1665 15.3653 20.1672 15.3638 20.1674 15.3635C20.1676 15.363 20.1681 15.3621 20.1695 15.3605C20.171 15.3587 20.1739 15.3557 20.1792 15.3517C20.2038 15.3329 20.2618 15.3081 20.3445 15.3081C20.4273 15.3081 20.4853 15.333 20.5102 15.3519C20.5154 15.3559 20.5184 15.359 20.5199 15.3608C20.5214 15.3624 20.5219 15.3634 20.5221 15.3638C20.5223 15.3642 20.523 15.3656 20.5238 15.3689C20.5246 15.3723 20.5258 15.3794 20.5258 15.3912Z" fill="black" stroke="#6A6A6A"/>
</svg>
