<svg width="24" height="25" viewBox="0 0 24 25" fill="none" xmlns="http://www.w3.org/2000/svg">
<path d="M9.23047 9.5H7.2002C6.08009 9.5 5.51962 9.5 5.0918 9.71799C4.71547 9.90973 4.40973 10.2155 4.21799 10.5918C4 11.0196 4 11.5801 4 12.7002V18.3002C4 19.4203 4 19.9801 4.21799 20.4079C4.40973 20.7842 4.71547 21.0905 5.0918 21.2822C5.5192 21.5 6.07902 21.5 7.19694 21.5H16.8031C17.921 21.5 18.48 21.5 18.9074 21.2822C19.2837 21.0905 19.5905 20.7842 19.7822 20.4079C20 19.9805 20 19.4215 20 18.3036V12.6969C20 11.579 20 11.0192 19.7822 10.5918C19.5905 10.2155 19.2837 9.90973 18.9074 9.71799C18.4796 9.5 17.9203 9.5 16.8002 9.5H14.7689M9.23047 9.5H14.7689M9.23047 9.5C9.10302 9.5 9 9.39668 9 9.26923V6.5C9 4.84315 10.3431 3.5 12 3.5C13.6569 3.5 15 4.84315 15 6.5V9.26923C15 9.39668 14.8964 9.5 14.7689 9.5" stroke="#1A1A1A" stroke-width="2" stroke-linecap="round" stroke-linejoin="round"/>
</svg>
