<svg width="21" height="21" viewBox="0 0 21 21" fill="none" xmlns="http://www.w3.org/2000/svg">
<path d="M3.5 5.25L8.84418 9.28573L8.84596 9.28721C9.43937 9.72237 9.73625 9.94008 10.0614 10.0242C10.3488 10.0985 10.6509 10.0985 10.9384 10.0242C11.2638 9.94001 11.5616 9.72166 12.156 9.28573C12.156 9.28573 15.5838 6.6552 17.5 5.25M2.625 13.8252V7.17517C2.625 6.19508 2.625 5.70467 2.81574 5.33032C2.98352 5.00104 3.25104 4.73352 3.58032 4.56574C3.95467 4.375 4.44508 4.375 5.42517 4.375H15.5752C16.5553 4.375 17.0446 4.375 17.419 4.56574C17.7483 4.73352 18.0167 5.00104 18.1844 5.33032C18.375 5.7043 18.375 6.19412 18.375 7.1723V13.8281C18.375 14.8063 18.375 15.2954 18.1844 15.6694C18.0167 15.9987 17.7483 16.2667 17.419 16.4344C17.045 16.625 16.5559 16.625 15.5777 16.625H5.4223C4.44412 16.625 3.9543 16.625 3.58032 16.4344C3.25104 16.2667 2.98352 15.9987 2.81574 15.6694C2.625 15.2951 2.625 14.8053 2.625 13.8252Z" stroke="#C9C9C9" stroke-width="2" stroke-linecap="round" stroke-linejoin="round"/>
</svg>
