<svg width="21" height="17" viewBox="0 0 21 17" fill="none" xmlns="http://www.w3.org/2000/svg">
<g clip-path="url(#clip0_779_11367)">
<path d="M3.9375 2.5666C3.9375 2.32422 4.17949 2.125 4.48301 2.125C4.62656 2.125 4.76602 2.17148 4.86855 2.25449L5.47969 2.74922C5.33203 3.04805 5.25 3.37676 5.25 3.71875C5.25 4.37949 5.54531 4.98047 6.0375 5.44531C5.82012 5.75078 5.87344 6.1459 6.19336 6.4082C6.57891 6.72031 7.20234 6.72031 7.58379 6.4082L11.8535 2.95508C12.2391 2.64297 12.2391 2.13828 11.8535 1.82949C11.5295 1.56719 11.0414 1.52734 10.6641 1.70332C10.0898 1.30156 9.34746 1.0625 8.53125 1.0625C8.10879 1.0625 7.70273 1.12891 7.33359 1.24512L6.72246 0.750391C6.12773 0.268945 5.31973 0 4.48301 0C2.73164 0 1.3125 1.14883 1.3125 2.5666V8.5C0.586523 8.5 0 8.9748 0 9.5625C0 10.1502 0.586523 10.625 1.3125 10.625H19.6875C20.4135 10.625 21 10.1502 21 9.5625C21 8.9748 20.4135 8.5 19.6875 8.5H3.9375V2.5666ZM1.3125 11.6875V12.2188C1.3125 13.1617 1.82109 14.0117 2.625 14.5961V15.9375C2.625 16.5252 3.21152 17 3.9375 17C4.66348 17 5.25 16.5252 5.25 15.9375V15.4062H15.75V15.9375C15.75 16.5252 16.3365 17 17.0625 17C17.7885 17 18.375 16.5252 18.375 15.9375V14.5961C19.1789 14.0117 19.6875 13.165 19.6875 12.2188V11.6875H1.3125Z" fill="#6A6A6A"/>
</g>
<defs>
<clipPath id="clip0_779_11367">
<rect width="21" height="17" fill="white"/>
</clipPath>
</defs>
</svg>
