<svg width="45" height="39" viewBox="0 0 45 39" fill="none" xmlns="http://www.w3.org/2000/svg">
<path d="M44.4904 21.647C44.256 20.1204 42.9974 19.5024 41.8857 18.9579C40.8029 18.4267 39.6834 17.8774 39.1045 16.5118C39.0446 16.3704 38.9445 16.2498 38.8165 16.165C38.6886 16.0801 38.5384 16.0349 38.3849 16.0349C38.2314 16.0349 38.0813 16.0801 37.9533 16.165C37.8253 16.2498 37.7252 16.3704 37.6654 16.5118C37.0873 17.8774 35.9677 18.4267 34.8849 18.9579C34.8513 18.9735 34.8177 18.9915 34.7841 19.0079V16.3751H36.3466C36.5538 16.3751 36.7526 16.2928 36.8991 16.1463C37.0456 15.9998 37.1279 15.801 37.1279 15.5938C37.1279 15.3866 37.0456 15.1879 36.8991 15.0414C36.7526 14.8949 36.5538 14.8126 36.3466 14.8126H30.6951C31.3149 14.1495 31.7647 13.346 32.006 12.471C32.2472 11.5959 32.2727 10.6754 32.0802 9.78838C31.7287 7.48447 29.8146 6.54697 27.9693 5.64072C26.0474 4.69854 24.063 3.72354 23.0037 1.22666C22.9439 1.08526 22.8437 0.964623 22.7158 0.879806C22.5878 0.794989 22.4377 0.749756 22.2841 0.749756C22.1306 0.749756 21.9805 0.794989 21.8525 0.879806C21.7246 0.964623 21.6244 1.08526 21.5646 1.22666C20.5076 3.72666 18.5177 4.69854 16.599 5.64072C14.7505 6.54697 12.8396 7.48447 12.488 9.78838C12.2956 10.6754 12.321 11.5959 12.5623 12.471C12.8035 13.346 13.2534 14.1495 13.8732 14.8126H8.22164C8.01444 14.8126 7.81573 14.8949 7.66922 15.0414C7.5227 15.1879 7.44039 15.3866 7.44039 15.5938C7.44039 15.801 7.5227 15.9998 7.66922 16.1463C7.81573 16.2928 8.01444 16.3751 8.22164 16.3751H9.78414V19.0079C9.75055 18.9915 9.71696 18.9735 9.68336 18.9579C8.60055 18.4267 7.48102 17.8774 6.90289 16.5118C6.84309 16.3704 6.74294 16.2498 6.61498 16.165C6.48701 16.0801 6.33689 16.0349 6.18336 16.0349C6.02984 16.0349 5.87972 16.0801 5.75175 16.165C5.62378 16.2498 5.52364 16.3704 5.46383 16.5118C4.88492 17.8774 3.76539 18.4267 2.68258 18.9579C1.57086 19.5048 0.311487 20.1204 0.0778934 21.647C-0.0330635 22.177 -0.0253935 22.7251 0.100354 23.2519C0.226101 23.7786 0.466812 24.271 0.805237 24.6938C0.713537 24.819 0.662288 24.9692 0.658362 25.1243V26.9993C0.659041 27.1596 0.709459 27.3158 0.802658 27.4462C0.895856 27.5766 1.02724 27.6749 1.17867 27.7274V37.4688C1.17867 37.676 1.26098 37.8748 1.4075 38.0213C1.55401 38.1678 1.75272 38.2501 1.95992 38.2501H10.4091C10.4355 38.2462 10.4616 38.2407 10.4873 38.2337C10.513 38.2407 10.5391 38.2462 10.5654 38.2501H34.0029C34.0276 38.2397 34.0542 38.2343 34.081 38.2343C34.1078 38.2343 34.1344 38.2397 34.1591 38.2501H42.6084C42.8156 38.2501 43.0143 38.1678 43.1608 38.0213C43.3073 37.8748 43.3896 37.676 43.3896 37.4688V27.5806C43.4721 27.5086 43.5384 27.4199 43.5841 27.3204C43.6298 27.2208 43.6537 27.1127 43.6545 27.0032V25.1251C43.652 25.0379 43.6348 24.9518 43.6037 24.8704C43.9999 24.4441 44.2874 23.9285 44.4418 23.3673C44.5961 22.8061 44.6128 22.216 44.4904 21.647ZM14.0326 10.0251C14.2505 8.59775 15.3545 7.99385 17.2873 7.04385C18.938 6.23447 20.9256 5.25869 22.2873 3.1876C23.6459 5.25869 25.6334 6.23447 27.2873 7.04385C29.2201 7.9915 30.324 8.59775 30.542 10.0251C31.1123 13.8087 28.2295 14.6782 27.656 14.8126H16.913C16.3295 14.6751 13.456 13.8024 14.0326 10.0251ZM3.62242 36.6876H2.74117V27.7813H3.62242V36.6876ZM7.1818 36.6876H5.18492V27.7813H7.1818V36.6876ZM9.62789 36.6876H8.7443V27.7813H9.62789V36.6876ZM9.8943 26.2188H2.22086V25.9063H9.89117L9.8943 26.2188ZM9.32242 24.3438H3.04821C2.78987 24.2813 2.5469 24.167 2.33396 24.0079C2.12102 23.8488 1.94254 23.6481 1.80929 23.4181C1.67603 23.1881 1.59077 22.9335 1.55866 22.6697C1.52654 22.4058 1.54823 22.1382 1.62242 21.8829C1.72789 21.1954 2.2943 20.8876 3.37086 20.3595C4.45167 19.9139 5.41439 19.2236 6.18336 18.3431C6.95212 19.2239 7.9149 19.9141 8.99586 20.3595C10.0724 20.8876 10.6365 21.1954 10.7451 21.8829C10.8193 22.1382 10.841 22.4058 10.8088 22.6697C10.7767 22.9335 10.6915 23.1881 10.5582 23.4181C10.425 23.6481 10.2465 23.8488 10.0335 24.0079C9.82061 24.167 9.57764 24.2813 9.3193 24.3438H9.32242ZM33.2216 36.6876H11.3466V35.1251H33.2216V36.6876ZM14.606 33.5626V25.3103C14.5886 24.7951 14.6777 24.2819 14.8678 23.8028C15.0579 23.3237 15.3448 22.889 15.7107 22.5259C16.0766 22.889 16.3635 23.3237 16.5536 23.8028C16.7437 24.2819 16.8328 24.7951 16.8154 25.3103V33.5626H14.606ZM21.1795 33.5626V25.3103C21.162 24.7951 21.2512 24.2819 21.4412 23.8028C21.6313 23.3237 21.9183 22.889 22.2841 22.5259C22.65 22.889 22.937 23.3237 23.127 23.8028C23.3171 24.2819 23.4063 24.7951 23.3888 25.3103V33.5626H21.1795ZM27.7529 33.5626V25.3103C27.7355 24.7951 27.8246 24.2819 28.0147 23.8028C28.2048 23.3237 28.4917 22.889 28.8576 22.5259C29.2234 22.889 29.5104 23.3237 29.7005 23.8028C29.8906 24.2819 29.9797 24.7951 29.9623 25.3103V33.5626H27.7529ZM33.3779 33.5626H31.5248V25.3103C31.5584 24.4348 31.3663 23.5655 30.9671 22.7857C30.5679 22.0058 29.9749 21.3417 29.2451 20.8571C29.1271 20.7897 28.9935 20.7543 28.8576 20.7543C28.7217 20.7543 28.5881 20.7897 28.4701 20.8571C27.7402 21.3417 27.1473 22.0058 26.748 22.7857C26.3488 23.5655 26.1568 24.4348 26.1904 25.3103V33.5626H24.9513V25.3103C24.9849 24.4348 24.7929 23.5655 24.3937 22.7857C23.9945 22.0058 23.4015 21.3417 22.6716 20.8571C22.5536 20.7897 22.4201 20.7543 22.2841 20.7543C22.1482 20.7543 22.0147 20.7897 21.8966 20.8571C21.1668 21.3417 20.5738 22.0058 20.1746 22.7857C19.7754 23.5655 19.5834 24.4348 19.617 25.3103V33.5626H18.3779V25.3103C18.4115 24.4348 18.2195 23.5655 17.8202 22.7857C17.421 22.0058 16.828 21.3417 16.0982 20.8571C15.9802 20.7897 15.8466 20.7543 15.7107 20.7543C15.5748 20.7543 15.4412 20.7897 15.3232 20.8571C14.5934 21.3417 14.0004 22.0058 13.6012 22.7857C13.202 23.5655 13.0099 24.4348 13.0435 25.3103V33.5626H11.1904V27.5806C11.2733 27.5088 11.3399 27.4202 11.3858 27.3206C11.4317 27.2211 11.4559 27.1129 11.4568 27.0032V25.1251C11.4542 25.0379 11.4368 24.9518 11.4052 24.8704C11.8 24.4433 12.086 23.9273 12.239 23.3662C12.392 22.8051 12.4075 22.2154 12.2841 21.647C12.187 20.9919 11.8536 20.395 11.3466 19.9688V16.3751H33.2216V19.9688C32.7139 20.396 32.3803 20.9944 32.2841 21.6509C32.1735 22.1809 32.1812 22.7288 32.3068 23.2555C32.4324 23.7822 32.6728 24.2747 33.0107 24.6978C32.9196 24.8232 32.8687 24.9733 32.8646 25.1282V27.0032C32.8653 27.1635 32.9157 27.3197 33.0089 27.4501C33.1021 27.5805 33.2335 27.6788 33.3849 27.7313L33.3779 33.5626ZM35.8209 36.6876H34.9404V27.7813H35.8209V36.6876ZM39.3802 36.6876H37.3865V27.7813H39.3834L39.3802 36.6876ZM41.824 36.6876H40.9459V27.7813H41.8271L41.824 36.6876ZM42.0888 26.2188H34.4232V25.9063H42.092L42.0888 26.2188ZM41.5177 24.3438H35.2459C34.9876 24.2813 34.7447 24.167 34.5319 24.0078C34.3191 23.8487 34.1408 23.648 34.0079 23.4179C33.875 23.1878 33.7901 22.9331 33.7585 22.6693C33.7269 22.4054 33.7492 22.1379 33.824 21.8829C33.9295 21.1954 34.4966 20.8876 35.5732 20.3595C36.6542 19.9141 37.6169 19.2239 38.3857 18.3431C39.1547 19.2236 40.1174 19.9139 41.1982 20.3595C42.2748 20.8876 42.8388 21.1954 42.9466 21.8829C43.021 22.1382 43.0427 22.4058 43.0107 22.6697C42.9786 22.9336 42.8934 23.1883 42.7601 23.4183C42.6268 23.6483 42.4483 23.849 42.2353 24.008C42.0223 24.1671 41.7793 24.2814 41.5209 24.3438H41.5177Z" fill="#393939"/>
</svg>
