<svg width="23" height="19" viewBox="0 0 23 19" fill="none" xmlns="http://www.w3.org/2000/svg">
<path fill-rule="evenodd" clip-rule="evenodd" d="M2.02317 6.78973L2.01072 6.79803C1.43113 7.18442 1.08301 7.8349 1.08301 8.53147V16.7915C1.08301 17.3668 1.54938 17.8332 2.12467 17.8332H3.16634C3.74164 17.8332 4.20801 17.3668 4.20801 16.7915V15.7498H18.7913V16.7915C18.7913 17.3668 19.2577 17.8332 19.833 17.8332H20.8747C21.45 17.8332 21.9163 17.3668 21.9163 16.7915V8.53147C21.9163 7.8349 21.5682 7.18442 20.9886 6.79803L20.9762 6.78973C21.3558 6.57047 21.6997 6.35508 21.7665 6.2591C21.9276 6.02762 22.0016 5.33317 21.7665 5.33317H19.833L18.6134 2.89396C18.0841 1.83526 17.002 1.1665 15.8183 1.1665H7.18103C5.99737 1.1665 4.9153 1.83526 4.38595 2.89396L3.16634 5.33317H1.23288C0.997734 5.33317 1.07176 6.02762 1.23288 6.2591C1.29969 6.35508 1.64353 6.57047 2.02317 6.78973ZM5.35588 3.31111L3.57484 6.65057C3.38981 6.9975 3.64121 7.4165 4.0344 7.4165H18.965C19.3581 7.4165 19.6095 6.9975 19.4245 6.65057L17.6435 3.31111C17.2814 2.63223 16.5746 2.20817 15.8052 2.20817H7.19412C6.42472 2.20817 5.71796 2.63223 5.35588 3.31111ZM2.12467 10.6247V9.36496C2.12467 8.96299 2.56072 8.71253 2.90794 8.91508L6.38589 10.9439C6.8652 11.2235 6.63319 11.9589 6.0802 11.9128L3.07984 11.6628C2.53995 11.6178 2.12467 11.1665 2.12467 10.6247ZM20.8747 9.36496V10.6247C20.8747 11.1665 20.4594 11.6178 19.9195 11.6628L16.9191 11.9128C16.3662 11.9589 16.1341 11.2235 16.6135 10.9439L20.0914 8.91508C20.4386 8.71253 20.8747 8.96299 20.8747 9.36496Z" fill="#6A6A6A" stroke="#6A6A6A"/>
</svg>
