<svg width="50" height="50" viewBox="0 0 50 50" fill="none" xmlns="http://www.w3.org/2000/svg">
<rect width="50" height="50" rx="25" fill="#EFEFEF"/>
<path d="M30.1868 15.7955C30.0567 15.7314 29.8995 15.6953 29.7368 15.692H27.6132C27.9493 15.5466 28.2546 15.3727 28.5211 15.1748H32.8947C33.1041 15.1748 33.3049 15.1203 33.453 15.0234C33.601 14.9264 33.6842 14.7948 33.6842 14.6576V13.6233H39.2105C39.4199 13.6233 39.6207 13.5688 39.7688 13.4718C39.9168 13.3748 40 13.2432 40 13.1061C40 12.9689 39.9168 12.8374 39.7688 12.7404C39.6207 12.6434 39.4199 12.5889 39.2105 12.5889H33.6842V12.0717C33.6866 11.9477 33.621 11.8273 33.4993 11.7324C33.3776 11.6374 33.2079 11.5743 33.0211 11.5545L28.5763 11.0683C28.1317 10.7329 27.5823 10.464 26.9653 10.2797C26.3483 10.0954 25.6781 10 25 10C24.3219 10 23.6517 10.0954 23.0347 10.2797C22.4177 10.464 21.8683 10.7329 21.4237 11.0683L16.9789 11.5545C16.7921 11.5743 16.6224 11.6374 16.5007 11.7324C16.379 11.8273 16.3134 11.9477 16.3158 12.0717V12.5889H10.7895C10.5801 12.5889 10.3793 12.6434 10.2312 12.7404C10.0832 12.8374 10 12.9689 10 13.1061C10 13.2432 10.0832 13.3748 10.2312 13.4718C10.3793 13.5688 10.5801 13.6233 10.7895 13.6233H16.3158V14.6576C16.3158 14.7948 16.399 14.9264 16.547 15.0234C16.6951 15.1203 16.8959 15.1748 17.1053 15.1748H21.4789C21.7454 15.3727 22.0507 15.5466 22.3868 15.692H20.2632C20.1005 15.6953 19.9433 15.7314 19.8132 15.7955C14.2474 16.3437 10 19.0745 10 22.3638V31.5956C10 33.0955 12.1237 34.3109 14.7368 34.3109H17.1053V36.3797H20.2632V37.414C20.2632 38.0999 20.679 38.7576 21.4193 39.2426C22.1596 39.7276 23.1636 40 24.2105 40H25.7895C26.8364 40 27.8404 39.7276 28.5807 39.2426C29.321 38.7576 29.7368 38.0999 29.7368 37.414V36.3797H32.8947V34.3109H35.2632C37.8763 34.3109 40 33.0955 40 31.5956V22.3638C40 19.0745 35.7526 16.3437 30.1868 15.7955ZM32.1053 12.5113V14.1405H29.4605C29.6417 13.8084 29.7351 13.4586 29.7368 13.1061C29.7367 12.81 29.6702 12.5155 29.5395 12.232L32.1053 12.5113ZM25 11.0373C25.6246 11.0373 26.2351 11.1586 26.7544 11.386C27.2737 11.6133 27.6785 11.9364 27.9175 12.3144C28.1565 12.6924 28.2191 13.1084 28.0972 13.5097C27.9754 13.911 27.6746 14.2796 27.233 14.5689C26.7913 14.8582 26.2286 15.0553 25.6161 15.1351C25.0035 15.2149 24.3686 15.1739 23.7915 15.0174C23.2145 14.8608 22.7213 14.5956 22.3743 14.2554C22.0273 13.9152 21.8421 13.5152 21.8421 13.1061C21.8421 12.5574 22.1748 12.0312 22.767 11.6432C23.3593 11.2553 24.1625 11.0373 25 11.0373ZM17.8947 14.1405V12.5113L20.4605 12.232C20.3298 12.5155 20.2633 12.81 20.2632 13.1061C20.2649 13.4586 20.3583 13.8084 20.5395 14.1405H17.8947ZM28.1579 16.7264C28.3947 16.7264 28.6316 16.7264 28.8605 16.7264L28.2289 20.8639H21.7711L21.1395 16.7264C21.3684 16.7264 21.6053 16.7264 21.8421 16.7264H28.1579ZM28.1579 37.414C28.1579 37.8255 27.9084 38.2202 27.4642 38.5112C27.02 38.8021 26.4176 38.9656 25.7895 38.9656H24.2105C23.5824 38.9656 22.98 38.8021 22.5358 38.5112C22.0916 38.2202 21.8421 37.8255 21.8421 37.414V32.2421C21.8421 31.8306 22.0916 31.436 22.5358 31.145C22.98 30.854 23.5824 30.6906 24.2105 30.6906H25.7895C26.4176 30.6906 27.02 30.854 27.4642 31.145C27.9084 31.436 28.1579 31.8306 28.1579 32.2421V37.414ZM31.3158 35.3453H29.7368V32.2421C29.7368 31.5563 29.321 30.8985 28.5807 30.4136C27.8404 29.9286 26.8364 29.6562 25.7895 29.6562H24.2105C23.1636 29.6562 22.1596 29.9286 21.4193 30.4136C20.679 30.8985 20.2632 31.5563 20.2632 32.2421V35.3453H18.6842V30.1734C18.6876 29.2324 19.1805 28.3202 20.0816 27.5874H29.9105C30.8201 28.3174 31.3166 29.231 31.3158 30.1734V35.3453ZM31.3158 26.553H18.6842V24.4843H31.3158V26.553ZM38.4211 31.5956C38.4211 32.5214 37.0079 33.2765 35.2632 33.2765H32.8947V30.1734C32.8936 29.2642 32.5231 28.3717 31.8211 27.5874H32.8947V23.4499H17.1053V27.5874H18.1711C17.4753 28.3731 17.1077 29.265 17.1053 30.1734V33.2765H14.7368C12.9921 33.2765 11.5789 32.5214 11.5789 31.5956V22.3638C11.5789 19.6847 15.0053 17.4401 19.5684 16.8712L20.2632 21.4328C20.2828 21.5609 20.3746 21.6795 20.5205 21.7656C20.6665 21.8516 20.8562 21.899 21.0526 21.8983H28.9474C29.1438 21.899 29.3335 21.8516 29.4795 21.7656C29.6254 21.6795 29.7172 21.5609 29.7368 21.4328L30.4316 16.8712C34.9947 17.4401 38.4211 19.6847 38.4211 22.3638V31.5956Z" fill="#6A6A6A"/>
</svg>
