<svg width="22" height="18" viewBox="0 0 22 18" fill="none" xmlns="http://www.w3.org/2000/svg">
<path d="M14.8037 3.47728C14.7083 3.43885 14.593 3.41717 14.4737 3.41521H12.9163C13.1628 3.32798 13.3867 3.22364 13.5821 3.1049H16.7895C16.943 3.1049 17.0903 3.07221 17.1989 3.01401C17.3074 2.95582 17.3684 2.87689 17.3684 2.79458V2.17396H21.4211C21.5746 2.17396 21.7219 2.14126 21.8304 2.08307C21.939 2.02487 22 1.94594 22 1.86364C22 1.78134 21.939 1.70241 21.8304 1.64422C21.7219 1.58602 21.5746 1.55333 21.4211 1.55333H17.3684V1.24301C17.3702 1.16863 17.3221 1.09638 17.2328 1.03943C17.1436 0.982469 17.0191 0.944593 16.8821 0.932697L13.6226 0.641002C13.2966 0.439765 12.8937 0.278399 12.4412 0.167813C11.9888 0.0572273 11.4973 0 11 0C10.5027 0 10.0112 0.0572273 9.55879 0.167813C9.10633 0.278399 8.70344 0.439765 8.37737 0.641002L5.11789 0.932697C4.9809 0.944593 4.85644 0.982469 4.76718 1.03943C4.67791 1.09638 4.62979 1.16863 4.63158 1.24301V1.55333H0.578947C0.425401 1.55333 0.278144 1.58602 0.16957 1.64422C0.0609962 1.70241 0 1.78134 0 1.86364C0 1.94594 0.0609962 2.02487 0.16957 2.08307C0.278144 2.14126 0.425401 2.17396 0.578947 2.17396H4.63158V2.79458C4.63158 2.87689 4.69257 2.95582 4.80115 3.01401C4.90972 3.07221 5.05698 3.1049 5.21053 3.1049H8.4179C8.6133 3.22364 8.83717 3.32798 9.08368 3.41521H7.52632C7.40701 3.41717 7.29175 3.43885 7.19632 3.47728C3.11474 3.80621 0 5.44467 0 7.41827V12.9574C0 13.8573 1.55737 14.5865 3.47368 14.5865H5.21053V15.8278H7.52632V16.4484C7.52632 16.8599 7.8313 17.2546 8.37416 17.5456C8.91703 17.8365 9.65332 18 10.4211 18H11.5789C12.3467 18 13.083 17.8365 13.6258 17.5456C14.1687 17.2546 14.4737 16.8599 14.4737 16.4484V15.8278H16.7895V14.5865H18.5263C20.4426 14.5865 22 13.8573 22 12.9574V7.41827C22 5.44467 18.8853 3.80621 14.8037 3.47728ZM16.2105 1.50678V2.48427H14.2711C14.4039 2.28507 14.4724 2.07519 14.4737 1.86364C14.4736 1.68598 14.4248 1.50928 14.3289 1.33921L16.2105 1.50678ZM11 0.622383C11.458 0.622383 11.9058 0.695181 12.2866 0.831573C12.6674 0.967964 12.9642 1.16182 13.1395 1.38863C13.3148 1.61544 13.3606 1.86502 13.2713 2.1058C13.1819 2.34658 12.9614 2.56775 12.6375 2.74134C12.3136 2.91494 11.901 3.03316 11.4518 3.08105C11.0026 3.12894 10.5369 3.10436 10.1138 3.01041C9.69063 2.91647 9.32895 2.75737 9.07449 2.55325C8.82003 2.34912 8.68421 2.10914 8.68421 1.86364C8.68421 1.53444 8.92819 1.21872 9.36249 0.985939C9.79678 0.753158 10.3858 0.622383 11 0.622383ZM5.78947 2.48427V1.50678L7.67105 1.33921C7.57519 1.50928 7.52642 1.68598 7.52632 1.86364C7.52759 2.07519 7.59611 2.28507 7.72895 2.48427H5.78947ZM13.3158 4.03584C13.4895 4.03584 13.6632 4.03584 13.8311 4.03584L13.3679 6.51836H8.6321L8.16895 4.03584C8.33684 4.03584 8.51053 4.03584 8.68421 4.03584H13.3158ZM13.3158 16.4484C13.3158 16.6953 13.1328 16.9321 12.8071 17.1067C12.4814 17.2813 12.0396 17.3794 11.5789 17.3794H10.4211C9.96041 17.3794 9.51864 17.2813 9.19292 17.1067C8.8672 16.9321 8.68421 16.6953 8.68421 16.4484V13.3453C8.68421 13.0984 8.8672 12.8616 9.19292 12.687C9.51864 12.5124 9.96041 12.4143 10.4211 12.4143H11.5789C12.0396 12.4143 12.4814 12.5124 12.8071 12.687C13.1328 12.8616 13.3158 13.0984 13.3158 13.3453V16.4484ZM15.6316 15.2072H14.4737V13.3453C14.4737 12.9338 14.1687 12.5391 13.6258 12.2482C13.083 11.9572 12.3467 11.7937 11.5789 11.7937H10.4211C9.65332 11.7937 8.91703 11.9572 8.37416 12.2482C7.8313 12.5391 7.52632 12.9338 7.52632 13.3453V15.2072H6.36842V12.104C6.37088 11.5394 6.73234 10.9921 7.39316 10.5524H14.6011C15.2681 10.9905 15.6322 11.5386 15.6316 12.104V15.2072ZM15.6316 9.93182H6.36842V8.69056H15.6316V9.93182ZM20.8421 12.9574C20.8421 13.5129 19.8058 13.9659 18.5263 13.9659H16.7895V12.104C16.7887 11.5585 16.5169 11.023 16.0021 10.5524H16.7895V8.06993H5.21053V10.5524H5.99211C5.4819 11.0239 5.21233 11.559 5.21053 12.104V13.9659H3.47368C2.19421 13.9659 1.15789 13.5129 1.15789 12.9574V7.41827C1.15789 5.81084 3.67053 4.46408 7.01684 4.12273L7.52632 6.85971C7.54072 6.93652 7.60801 7.00769 7.71507 7.05933C7.82212 7.11098 7.96124 7.13938 8.10526 7.13899H13.8947C14.0388 7.13938 14.1779 7.11098 14.2849 7.05933C14.392 7.00769 14.4593 6.93652 14.4737 6.85971L14.9832 4.12273C18.3295 4.46408 20.8421 5.81084 20.8421 7.41827V12.9574Z" fill="#6A6A6A"/>
</svg>
