<svg width="21" height="21" viewBox="0 0 21 21" fill="none" xmlns="http://www.w3.org/2000/svg">
<path d="M8.31465 3.72507C8.04889 3.06066 7.4054 2.625 6.68982 2.625H4.28289C3.36726 2.625 2.625 3.36708 2.625 4.28271C2.625 12.0656 8.93443 18.375 16.7173 18.375C17.6329 18.375 18.375 17.6327 18.375 16.717L18.3754 14.3097C18.3754 13.5941 17.9399 12.9507 17.2755 12.685L14.9686 11.7626C14.3718 11.5238 13.6923 11.6313 13.1985 12.0428L12.6031 12.5393C11.9078 13.1188 10.8847 13.0727 10.2447 12.4327L8.56819 10.7547C7.92819 10.1147 7.88089 9.09242 8.46033 8.3971L8.95679 7.80176C9.36829 7.30796 9.47668 6.62826 9.23796 6.03145L8.31465 3.72507Z" stroke="#C9C9C9" stroke-width="2" stroke-linecap="round" stroke-linejoin="round"/>
</svg>
