<svg width="34" height="40" viewBox="0 0 34 40" fill="none" xmlns="http://www.w3.org/2000/svg">
<path d="M12.8333 28.3333H2.41665V38.75M21.1666 11.6667H31.5833V1.25M1.54791 13.7571C2.71601 10.866 4.67173 8.3605 7.19279 6.52547C9.71386 4.69045 12.7018 3.599 15.812 3.37606C18.9222 3.15312 22.0307 3.80709 24.7877 5.26378C27.5447 6.72046 29.8359 8.92195 31.4044 11.6169M32.4532 26.2439C31.2851 29.135 29.3294 31.6405 26.8083 33.4755C24.2873 35.3105 21.3024 36.4006 18.1922 36.6235C15.082 36.8465 11.9709 36.1926 9.21393 34.7359C6.45691 33.2792 4.16419 31.0781 2.59568 28.3832" stroke="#6A6A6A" stroke-width="2" stroke-linecap="round" stroke-linejoin="round"/>
</svg>
