<svg width="550" height="420" viewBox="0 0 550 420" fill="none" xmlns="http://www.w3.org/2000/svg">
<path d="M281.913 420C429.788 420 549.664 413.31 549.664 405.057C549.664 396.804 429.788 390.114 281.913 390.114C134.039 390.114 14.1626 396.804 14.1626 405.057C14.1626 413.31 134.039 420 281.913 420Z" fill="#BEB9FA"/>
<path d="M251.888 26.2398C251.888 27.5175 251.297 28.6832 250.335 29.5264C249.385 30.375 248.064 30.896 246.615 30.896H133.777C130.878 30.896 128.504 28.8016 128.504 26.2398C128.504 24.961 129.094 23.7964 130.057 22.9531C131.006 22.1045 132.327 21.5836 133.777 21.5836H139.11C141.216 17.2658 146.081 14.2482 151.742 14.2482C155.553 14.2482 159 15.6177 161.496 17.8241C164.82 12.8509 170.951 9.51088 177.971 9.51088C179.901 9.51088 181.758 9.76814 183.511 10.2357C187.183 4.14593 194.44 0 202.804 0C212.85 0 221.3 5.983 223.851 14.1244C225.702 13.3078 227.79 12.8402 230.006 12.8402C236.271 12.8402 241.556 16.5293 243.217 21.5826H246.615C249.514 21.5836 251.888 23.679 251.888 26.2398Z" fill="#BEB9FA"/>
<path d="M364.519 47.0506C364.519 48.1671 364.004 49.1844 363.163 49.9209C362.333 50.6617 361.179 51.1175 359.914 51.1175H261.355C258.823 51.1175 256.75 49.2879 256.75 47.0506C256.75 45.934 257.266 44.9157 258.107 44.1802C258.936 43.4384 260.09 42.9836 261.356 42.9836H266.015C267.854 39.2124 272.103 36.5769 277.049 36.5769C280.378 36.5769 283.388 37.7724 285.568 39.7002C288.472 35.3568 293.826 32.4395 299.958 32.4395C301.644 32.4395 303.266 32.6647 304.798 33.0725C308.004 27.7534 314.343 24.1316 321.65 24.1316C330.425 24.1316 337.806 29.3567 340.033 36.468C341.65 35.7549 343.474 35.3472 345.41 35.3472C350.882 35.3472 355.498 38.5698 356.95 42.9836H359.917C362.445 42.9836 364.519 44.8132 364.519 47.0506Z" fill="#BEB9FA"/>
<path d="M464.633 282.672L467.307 283.18L468.726 283.449L472.744 284.21C472.744 284.21 525.547 237.493 507.745 214.319C502.266 207.186 488.536 208.958 483.875 234.981C479.555 259.103 464.633 282.672 464.633 282.672Z" fill="#ABD3F2"/>
<path d="M467.308 283.18L468.726 283.449C479.03 271.565 486.445 257.971 490.983 248.278C496.372 236.769 498.987 228.117 499.012 228.032C499.105 227.723 498.897 227.406 498.546 227.326C498.197 227.244 497.837 227.428 497.744 227.736C497.719 227.823 495.122 236.414 489.762 247.855C485.2 257.595 477.716 271.297 467.308 283.18Z" fill="#90C3EF"/>
<path d="M124.746 100.309L121.549 100.363L119.854 100.391L115.05 100.468C115.05 100.468 66.3545 36.4179 92.6715 13.3548C100.773 6.25415 116.076 11.0064 114.801 41.7839C113.623 70.3144 124.746 100.309 124.746 100.309Z" fill="#BEB9FA"/>
<path d="M121.549 100.362L119.854 100.389C111.055 84.7163 106.007 67.6511 103.266 55.6328C100.011 41.3612 99.2125 30.9184 99.2064 30.8149C99.1774 30.4423 99.4981 30.1199 99.9204 30.0965C100.343 30.0708 100.708 30.3537 100.736 30.7252C100.743 30.8298 101.537 41.2 104.776 55.3873C107.531 67.4664 112.631 84.6693 121.549 100.362Z" fill="#695CFF"/>
<path d="M151.421 109.784L147.57 112.051L145.526 113.253L139.738 116.658C139.738 116.658 23.668 72.1205 35.3326 25.8758C38.9231 11.6394 61.7839 6.89142 87.4813 45.2893C111.304 80.882 151.421 109.784 151.421 109.784Z" fill="#BEB9FA"/>
<path d="M147.57 112.051L145.526 113.253C120.924 100.207 99.6617 82.8824 85.6785 70.118C69.0753 54.9625 58.8544 42.7819 58.7564 42.6602C58.3909 42.2258 58.4962 41.612 58.9911 41.2928C59.4837 40.9705 60.1795 41.0633 60.5425 41.4978C60.6442 41.6205 70.7925 53.7157 87.3025 68.7805C101.356 81.6047 122.803 99.0637 147.57 112.051Z" fill="#7D74F5"/>
<path d="M444.585 293.55L447.722 295.683L449.387 296.813L454.102 300.016C454.102 300.016 556.097 267.964 549.193 227.898C547.068 215.564 527.871 210.339 503.407 241.789C480.729 270.944 444.585 293.55 444.585 293.55Z" fill="#CAE6FE"/>
<path d="M447.722 295.683L449.387 296.813C471.244 286.943 490.533 273.249 503.307 263.073C518.476 250.99 528.003 241.121 528.095 241.021C528.435 240.669 528.385 240.14 527.985 239.843C527.585 239.543 526.985 239.586 526.647 239.938C526.552 240.037 517.093 249.84 502.01 261.848C489.172 272.072 469.716 285.871 447.722 295.683Z" fill="#ABD3F2"/>
<path d="M534.128 79.6577C529.564 91.0985 516.439 90.1655 516.192 99.6038C515.945 109.04 508.832 115.904 499.7 113.776C490.566 111.647 483.979 109.629 479.244 118.822C474.511 128.015 460.824 132.118 455.923 124.485C454.701 122.586 453.383 120.527 452.094 118.507C451.742 117.955 451.391 117.406 451.046 116.864C450.965 116.739 450.884 116.615 450.805 116.49C445.619 108.366 448.061 98.0048 456.677 92.6057C460.166 90.4207 464.256 89.2849 468.745 90.6651C482.803 94.985 478.369 82.1064 487.167 77.1214C497.299 71.3775 505.306 78.7247 512.306 73.7611C522.044 66.8591 538.691 68.2168 534.128 79.6577Z" fill="#BEB9FA"/>
<path d="M516.828 83.9381L452.094 118.508C451.742 117.956 451.391 117.407 451.046 116.865L515.721 82.3263C516.226 82.0573 516.883 82.1982 517.188 82.6433C517.494 83.0884 517.333 83.6681 516.828 83.9381Z" fill="#9E97F7"/>
<path d="M525.736 20.2835C527.618 35.7112 511.879 41.0175 517.493 52.0345C523.106 63.0494 519.182 74.4337 507.308 76.418C495.431 78.4003 486.565 79.2745 486.844 92.1916C487.124 105.107 473.887 116.5 463.458 110.07C460.859 108.471 458.052 106.735 455.301 105.031C454.551 104.564 453.801 104.101 453.064 103.644C452.892 103.54 452.72 103.434 452.552 103.328C441.486 96.4709 437.829 83.3212 444.404 72.8976C447.066 68.678 451.078 65.3775 457.125 64.7893C476.056 62.9405 462.888 50.2263 469.931 40.1934C478.04 28.6341 491.877 33.2241 496.856 24.0879C503.786 11.3822 523.855 4.85583 525.736 20.2835Z" fill="#BEB9FA"/>
<path d="M508.438 33.6372L455.302 105.031C454.552 104.564 453.801 104.101 453.064 103.644L506.152 32.3157C506.566 31.7596 507.414 31.6037 508.045 31.9688C508.675 32.3338 508.852 33.081 508.438 33.6372Z" fill="#9E97F7"/>
<path d="M369.56 96.361C378.128 75.4669 386.88 58.0943 395.623 44.6467C407.044 27.0778 418.5 16.207 429.669 12.3343C430.41 12.0781 431.246 12.3994 431.536 13.0527C431.827 13.7059 431.463 14.4435 430.722 14.6997C411.198 21.4684 390.255 51.8488 370.096 102.608L369.56 96.361Z" fill="#9E97F7"/>
<path d="M407.285 29.7346C407.285 29.7346 396.269 25.4457 405.574 8.65698C405.574 8.65698 420.326 19.4392 407.285 29.7346Z" fill="#BEB9FA"/>
<path d="M401.98 38.1706C401.98 38.1706 406.222 28.2295 425.744 35.4903C425.744 35.4903 414.36 49.083 401.98 38.1706Z" fill="#BEB9FA"/>
<path d="M422.356 17.4591C422.356 17.4591 422.597 6.84018 443.747 7.94391C443.747 7.94391 438.151 24.1071 422.356 17.4591Z" fill="#BEB9FA"/>
<path d="M390.715 54.8536C390.715 54.8536 378.703 54.1043 381.021 35.5287C381.021 35.5287 399.038 41.2747 390.715 54.8536Z" fill="#BEB9FA"/>
<path d="M386.787 64.1702C386.787 64.1702 389.015 53.7328 409.667 57.9054C409.667 57.9054 401.118 73.03 386.787 64.1702Z" fill="#BEB9FA"/>
<path d="M379.97 76.4554C379.97 76.4554 367.944 75.9078 369.863 57.2959C369.863 57.2959 388 62.7398 379.97 76.4554Z" fill="#BEB9FA"/>
<path d="M93.507 295.716C71.2282 285.347 52.9308 275.302 39.0384 265.808C20.8886 253.405 10.2623 241.897 7.45599 231.604C7.27084 230.922 7.74642 230.236 8.51971 230.072C9.29299 229.907 10.0711 230.328 10.2575 231.01C15.1622 249.002 46.3827 271.491 100.595 296.11L93.507 295.716Z" fill="#ABD3F2"/>
<path d="M23.9028 253.561C23.9028 253.561 17.5665 262.592 0 252.146C0 252.146 14.1442 240.747 23.9028 253.561Z" fill="#CAE6FE"/>
<path d="M32.6434 259.36C32.6434 259.36 22.0679 254.282 32.9144 238.23C32.9144 238.23 46.6048 250.052 32.6434 259.36Z" fill="#CAE6FE"/>
<path d="M12.202 238.7C12.202 238.7 0.312304 237.023 4.47157 218.698C4.47157 218.698 21.8456 225.819 12.202 238.7Z" fill="#CAE6FE"/>
<path d="M49.8215 271.505C49.8215 271.505 47.3225 281.896 26.7852 277.306C26.7852 277.306 35.7233 262.359 49.8215 271.505Z" fill="#CAE6FE"/>
<path d="M59.7402 276.223C59.7402 276.223 48.3273 272.835 55.8641 255.37C55.8641 255.37 71.6662 264.926 59.7402 276.223Z" fill="#CAE6FE"/>
<path d="M72.5926 283.874C72.5926 283.874 70.3175 294.304 49.6846 290.059C49.6846 290.059 58.3008 274.965 72.5926 283.874Z" fill="#CAE6FE"/>
<path d="M485.911 70.3037V301.25C485.911 305.114 482.36 308.246 477.98 308.246H80.527C76.1463 308.246 72.5957 305.114 72.5957 301.25V70.3037C72.5957 66.4395 76.1463 63.3077 80.527 63.3077H477.98C482.36 63.3077 485.911 66.4385 485.911 70.3037Z" fill="#2A3554"/>
<path d="M474.949 80.1999V291.352C474.949 295.278 471.345 298.457 466.895 298.457H91.6029C90.6179 298.457 89.6824 298.303 88.8099 298.007C85.7422 297.017 83.5615 294.41 83.5615 291.353V80.1999C83.5615 76.2739 87.1641 73.095 91.6029 73.095H466.895C467.968 73.095 469.002 73.2818 469.938 73.6234C472.88 74.6791 474.949 77.2303 474.949 80.1999Z" fill="#ACACAC"/>
<path d="M474.949 80.1967V90.7078H83.5571V80.1967C83.5571 76.275 87.1597 73.0961 91.607 73.0961H466.9C471.347 73.0961 474.949 76.2739 474.949 80.1967Z" fill="#CAE6FE"/>
<path d="M440.332 85.3514C442.492 85.3514 444.242 83.8073 444.242 81.9025C444.242 79.9977 442.492 78.4536 440.332 78.4536C438.173 78.4536 436.422 79.9977 436.422 81.9025C436.422 83.8073 438.173 85.3514 440.332 85.3514Z" fill="#61B3FF"/>
<path d="M425.865 85.3514C428.024 85.3514 429.775 83.8073 429.775 81.9025C429.775 79.9977 428.024 78.4536 425.865 78.4536C423.706 78.4536 421.955 79.9977 421.955 81.9025C421.955 83.8073 423.706 85.3514 425.865 85.3514Z" fill="#007CE6"/>
<path d="M458.71 81.9025C458.71 83.8068 456.959 85.3514 454.8 85.3514C452.641 85.3514 450.89 83.8068 450.89 81.9025C450.89 79.9982 452.641 78.4536 454.8 78.4536C456.96 78.4536 458.71 79.9971 458.71 81.9025Z" fill="#009EF3"/>
<path d="M178.647 115.15H156.784V136.903H178.647V115.15Z" fill="#695CFF"/>
<path d="M178.647 115.15H156.784V120.739H178.647V115.15Z" fill="#5D51F2"/>
<path d="M183.212 107.789V110.373C183.212 110.749 183.162 111.117 183.066 111.469C182.506 113.578 180.358 115.15 177.797 115.15H157.634C155.074 115.15 152.925 113.578 152.365 111.469C152.269 111.117 152.218 110.749 152.218 110.373V107.789H183.212Z" fill="#445279"/>
<path d="M183.066 111.469C182.505 113.578 180.357 115.15 177.797 115.15H157.633C155.074 115.15 152.925 113.578 152.364 111.469H183.066Z" fill="#2A3554"/>
<path d="M358.092 169.507H110.692L110.757 169.431L116.493 162.459L145.474 127.238H323.309L352.292 162.459L358.028 169.431L358.092 169.507Z" fill="#2A3554"/>
<path d="M358.092 169.507H110.692V257.673H358.092V169.507Z" fill="#695CFF"/>
<path d="M358.093 169.507H110.691V175.092H358.093V169.507Z" fill="white" fill-opacity="0.5"/>
<path opacity="0.2" d="M358.093 172.3H110.691V175.092H358.093V172.3Z" fill="black"/>
<path d="M283.406 237.33V242.125H358.091V257.673H110.691V242.125H186.993V237.33H110.691V231.675H186.993V182.05H110.691V175.092H195.155V231.675H275.243V175.092H358.091V182.05H283.406V231.675H358.093V237.33H283.406Z" fill="#5D51F2"/>
<path d="M275.243 175.092H195.155V182.05H275.243V175.092Z" fill="#007CE6"/>
<path d="M275.244 151.239V257.776H195.147V151.239L201.337 147.53L205.394 145.098L207.615 143.767L210.263 142.181L216.23 138.604L222.51 134.841L235.197 127.237L247.881 134.841L254.162 138.604L260.129 142.181L262.776 143.767L264.997 145.098L269.054 147.53L275.244 151.239Z" fill="#695CFF"/>
<path d="M298.952 157.811L287.348 157.784L275.281 157.754L235.194 133.917L195.107 157.754L183.041 157.784L171.437 157.811L235.194 119.901L298.952 157.811Z" fill="#445279"/>
<path d="M287.348 157.784L275.281 157.754L235.194 133.917L195.107 157.754L183.041 157.784L235.194 126.772L287.348 157.784Z" fill="#2A3554"/>
<path d="M122.749 220.721V199.223C122.749 194.27 127.317 190.24 132.932 190.24C138.547 190.24 143.116 194.27 143.116 199.223V220.721H122.749Z" fill="#445279"/>
<path d="M123.941 219.669V199.221C123.941 194.848 127.974 191.29 132.932 191.29C137.89 191.29 141.924 194.848 141.924 199.221V219.669H123.941Z" fill="#2A3554"/>
<path d="M140.435 199.22V218.355H125.431V199.22C125.431 195.568 128.791 192.603 132.931 192.603C134.849 192.603 136.595 193.236 137.921 194.285C138.028 194.364 138.135 194.453 138.236 194.542C139.1 195.304 139.755 196.253 140.119 197.312C140.325 197.917 140.435 198.559 140.435 199.22Z" fill="#CAE6FE"/>
<path d="M140.12 197.313L125.43 210.267V205.304L137.921 194.286C138.029 194.365 138.135 194.454 138.237 194.543C139.101 195.306 139.757 196.254 140.12 197.313Z" fill="white" fill-opacity="0.5"/>
<path d="M140.436 205.422V208.016L128.713 218.355H125.773L140.436 205.422Z" fill="white" fill-opacity="0.5"/>
<path d="M141.44 205.48H124.425V207.094H141.44V205.48Z" fill="#2A3554"/>
<path opacity="0.2" d="M140.434 199.22V200.833C140.434 200.171 140.325 199.53 140.121 198.927C139.756 197.867 139.1 196.919 138.238 196.157C138.135 196.066 138.029 195.977 137.921 195.901C136.594 194.851 134.85 194.217 132.932 194.217C128.791 194.217 125.431 197.182 125.431 200.834V199.222C125.431 195.569 128.791 192.604 132.932 192.604C134.85 192.604 136.593 193.239 137.921 194.286C138.029 194.365 138.135 194.454 138.238 194.545C139.1 195.306 139.756 196.254 140.121 197.315C140.325 197.917 140.434 198.558 140.434 199.22Z" fill="black"/>
<path d="M154.871 220.721V199.223C154.871 194.27 159.439 190.24 165.054 190.24C170.67 190.24 175.238 194.27 175.238 199.223V220.721H154.871Z" fill="#445279"/>
<path d="M156.063 219.669V199.221C156.063 194.848 160.096 191.29 165.054 191.29C170.012 191.29 174.046 194.848 174.046 199.221V219.669H156.063Z" fill="#2A3554"/>
<path d="M172.558 199.22V218.355H157.552V199.22C157.552 195.568 160.912 192.603 165.053 192.603C166.972 192.603 168.718 193.236 170.043 194.285C170.151 194.364 170.257 194.453 170.359 194.542C171.223 195.304 171.877 196.253 172.242 197.312C172.447 197.917 172.558 198.559 172.558 199.22Z" fill="#CAE6FE"/>
<path d="M172.242 197.313L157.552 210.267V205.304L170.043 194.286C170.151 194.365 170.257 194.454 170.359 194.543C171.223 195.306 171.879 196.254 172.242 197.313Z" fill="white" fill-opacity="0.5"/>
<path d="M172.558 205.422V208.016L160.836 218.355H157.896L172.558 205.422Z" fill="white" fill-opacity="0.5"/>
<path d="M173.562 205.48H156.547V207.094H173.562V205.48Z" fill="#2A3554"/>
<path opacity="0.2" d="M172.556 199.22V200.833C172.556 200.171 172.447 199.53 172.243 198.927C171.878 197.867 171.223 196.919 170.36 196.157C170.257 196.066 170.152 195.977 170.043 195.901C168.716 194.851 166.974 194.217 165.054 194.217C160.913 194.217 157.553 197.182 157.553 200.834V199.222C157.553 195.569 160.913 192.604 165.054 192.604C166.973 192.604 168.715 193.239 170.043 194.286C170.152 194.365 170.257 194.454 170.36 194.545C171.223 195.306 171.878 196.254 172.243 197.315C172.447 197.917 172.556 198.558 172.556 199.22Z" fill="black"/>
<path d="M295.3 220.721V199.223C295.3 194.27 299.868 190.24 305.483 190.24C311.098 190.24 315.667 194.27 315.667 199.223V220.721H295.3Z" fill="#445279"/>
<path d="M296.492 219.669V199.221C296.492 194.848 300.526 191.29 305.484 191.29C310.442 191.29 314.475 194.848 314.475 199.221V219.669H296.492Z" fill="#2A3554"/>
<path d="M312.986 199.22V218.355H297.98V199.22C297.98 195.568 301.341 192.603 305.482 192.603C307.4 192.603 309.147 193.236 310.472 194.285C310.579 194.364 310.686 194.453 310.787 194.542C311.651 195.304 312.306 196.253 312.67 197.312C312.876 197.917 312.986 198.559 312.986 199.22Z" fill="#CAE6FE"/>
<path d="M312.67 197.313L297.98 210.267V205.304L310.472 194.286C310.579 194.365 310.686 194.454 310.787 194.543C311.653 195.306 312.307 196.254 312.67 197.313Z" fill="white" fill-opacity="0.5"/>
<path d="M312.986 205.422V208.016L301.265 218.355H298.324L312.986 205.422Z" fill="white" fill-opacity="0.5"/>
<path d="M313.991 205.48H296.976V207.094H313.991V205.48Z" fill="#2A3554"/>
<path opacity="0.2" d="M312.985 199.22V200.833C312.985 200.171 312.876 199.53 312.671 198.927C312.307 197.867 311.651 196.919 310.788 196.157C310.686 196.066 310.58 195.977 310.471 195.901C309.144 194.851 307.401 194.217 305.483 194.217C301.342 194.217 297.981 197.182 297.981 200.834V199.222C297.981 195.569 301.342 192.604 305.483 192.604C307.401 192.604 309.144 193.239 310.471 194.286C310.58 194.365 310.686 194.454 310.788 194.545C311.651 195.306 312.307 196.254 312.671 197.315C312.877 197.917 312.985 198.558 312.985 199.22Z" fill="black"/>
<path d="M327.423 220.721V199.223C327.423 194.27 331.992 190.24 337.607 190.24C343.222 190.24 347.79 194.27 347.79 199.223V220.721H327.423Z" fill="#445279"/>
<path d="M328.614 219.669V199.221C328.614 194.848 332.648 191.29 337.606 191.29C342.564 191.29 346.597 194.848 346.597 199.221V219.669H328.614Z" fill="#2A3554"/>
<path d="M345.109 199.22V218.355H330.104V199.22C330.104 195.568 333.464 192.603 337.604 192.603C339.522 192.603 341.268 193.236 342.593 194.285C342.701 194.364 342.808 194.453 342.909 194.542C343.773 195.304 344.428 196.253 344.792 197.312C344.999 197.917 345.109 198.559 345.109 199.22Z" fill="#CAE6FE"/>
<path d="M344.793 197.313L330.104 210.267V205.304L342.595 194.286C342.702 194.365 342.809 194.454 342.91 194.543C343.775 195.306 344.429 196.254 344.793 197.313Z" fill="white" fill-opacity="0.5"/>
<path d="M345.11 205.422V208.016L333.387 218.355H330.446L345.11 205.422Z" fill="white" fill-opacity="0.5"/>
<path d="M346.113 205.48H329.099V207.094H346.113V205.48Z" fill="#2A3554"/>
<path opacity="0.2" d="M345.108 199.22V200.833C345.108 200.171 344.999 199.53 344.795 198.927C344.431 197.867 343.775 196.919 342.912 196.157C342.809 196.066 342.704 195.977 342.595 195.901C341.269 194.851 339.526 194.217 337.607 194.217C333.466 194.217 330.105 197.182 330.105 200.834V199.222C330.105 195.569 333.466 192.604 337.607 192.604C339.525 192.604 341.267 193.239 342.595 194.286C342.704 194.365 342.809 194.454 342.912 194.545C343.775 195.306 344.431 196.254 344.795 197.315C344.999 197.917 345.108 198.558 345.108 199.22Z" fill="black"/>
<path d="M369.957 261.395H99.5902C98.3885 261.395 97.4155 260.535 97.4155 259.476V258.446C97.4155 257.386 98.3897 256.528 99.5902 256.528H369.958C371.16 256.528 372.133 257.387 372.133 258.446V259.476C372.133 260.535 371.159 261.395 369.957 261.395Z" fill="#2A3554"/>
<path d="M248.719 212.054H221.934V252.745H248.719V212.054Z" fill="#2A3554"/>
<path d="M246.481 250.771V214.029H224.172V250.771H246.481Z" fill="#445279"/>
<path d="M244.858 233.119C244.858 234.082 243.974 234.861 242.883 234.861C241.793 234.861 240.908 234.081 240.908 233.119C240.908 232.157 241.793 231.377 242.883 231.377C243.974 231.377 244.858 232.157 244.858 233.119Z" fill="#2A3554"/>
<path d="M251.475 249.97H219.178V252.746H251.475V249.97Z" fill="#2A3554"/>
<path d="M248.559 212.987H222.094C220.782 212.987 219.719 212.049 219.719 210.892V210.329H250.934V210.892C250.934 212.049 249.871 212.987 248.559 212.987Z" fill="#2A3554"/>
<path d="M255.072 252.746H215.583V256.472H255.072V252.746Z" fill="#2A3554"/>
<path d="M195.107 157.754V166.819L235.196 142.278L275.244 166.819L275.282 157.754L235.195 133.917L195.107 157.754Z" fill="#5D51F2"/>
<path d="M254.601 170.269H215.894V194.117H254.601V170.269Z" fill="#445279"/>
<path d="M253.298 192.967V171.419H217.196V192.967H253.298Z" fill="#2A3554"/>
<path d="M251.831 172.713H218.662V191.675H251.831V172.713Z" fill="#CAE6FE"/>
<path d="M251.832 172.712V174.453L232.307 191.675H227.24L248.737 172.712H251.832Z" fill="white" fill-opacity="0.5"/>
<path d="M235.326 172.713L218.662 187.41V182.942L230.258 172.713H235.326Z" fill="white" fill-opacity="0.5"/>
<path d="M251.831 181.186H218.661V183.006H251.831V181.186Z" fill="#445279"/>
<path d="M251.831 182.097H218.661V183.006H251.831V182.097Z" fill="#2A3554"/>
<path opacity="0.2" d="M254.601 170.269H215.894V175.237H254.601V170.269Z" fill="black"/>
<path d="M254.685 170.269H215.969C214.928 170.269 214.086 169.525 214.086 168.608V168.162H256.568V168.608C256.568 169.526 255.725 170.269 254.685 170.269Z" fill="#445279"/>
<path d="M183.654 256.43V235.885H183.656V233.765C183.656 232.113 182.137 230.773 180.264 230.773C178.39 230.773 176.872 232.113 176.872 233.765V244.688H171.56V233.765C171.56 232.113 170.041 230.773 168.168 230.773C166.295 230.773 164.776 232.113 164.776 233.765V244.688H159.465V233.765C159.465 232.113 157.946 230.773 156.073 230.773C154.199 230.773 152.681 232.113 152.681 233.765V244.688H147.369V233.765C147.369 232.113 145.851 230.773 143.977 230.773C142.104 230.773 140.585 232.113 140.585 233.765V244.688H135.274V233.765C135.274 232.113 133.755 230.773 131.882 230.773C130.009 230.773 128.49 232.113 128.49 233.765V244.688H123.179V233.765C123.179 232.113 121.66 230.773 119.787 230.773C117.913 230.773 116.395 232.113 116.395 233.765V256.43H123.179V250.559H128.49V256.43H135.274V250.559H140.585V256.43H147.369V250.559H152.681V256.43H159.465V250.559H164.776V256.43H171.56V250.559H176.872V256.43H183.654Z" fill="white" fill-opacity="0.5"/>
<path d="M354.08 256.43V235.885H354.081V233.765C354.081 232.113 352.563 230.773 350.689 230.773C348.816 230.773 347.297 232.113 347.297 233.765V244.688H341.986V233.765C341.986 232.113 340.467 230.773 338.594 230.773C336.721 230.773 335.202 232.113 335.202 233.765V244.688H329.891V233.765C329.891 232.113 328.372 230.773 326.499 230.773C324.625 230.773 323.106 232.113 323.106 233.765V244.688H317.795V233.765C317.795 232.113 316.276 230.773 314.403 230.773C312.53 230.773 311.011 232.113 311.011 233.765V244.688H305.7V233.765C305.7 232.113 304.181 230.773 302.308 230.773C300.434 230.773 298.916 232.113 298.916 233.765V244.688H293.604V233.765C293.604 232.113 292.086 230.773 290.212 230.773C288.339 230.773 286.82 232.113 286.82 233.765V256.43H293.604V250.559H298.916V256.43H305.7V250.559H311.011V256.43H317.795V250.559H323.106V256.43H329.891V250.559H335.202V256.43H341.986V250.559H347.297V256.43H354.08Z" fill="white" fill-opacity="0.5"/>
<path d="M345.564 112.769V137.793C345.564 139.395 344.095 140.681 342.29 140.681H313.909C312.664 140.681 311.588 140.078 311.028 139.178C310.972 139.079 310.916 138.981 310.883 138.881C310.827 138.733 310.77 138.585 310.715 138.427C310.715 138.406 310.704 138.397 310.704 138.378C310.704 138.358 310.693 138.328 310.693 138.308C310.659 138.139 310.637 137.972 310.637 137.794V112.77C310.637 111.267 311.927 110.05 313.563 109.892C313.676 109.892 313.799 109.882 313.911 109.882H342.29C342.626 109.882 342.952 109.922 343.254 110.01C343.254 110.01 343.254 110.01 343.265 110.01C344.6 110.375 345.564 111.463 345.564 112.769Z" fill="#7D74F5"/>
<path d="M330.171 133.77L330.148 136.266L326.554 136.24L326.576 133.858C324.029 133.704 321.562 133.08 320.04 132.238L322.013 128.385C323.686 129.274 325.925 129.852 327.887 129.866C329.594 129.879 330.209 129.568 330.214 129.028C330.232 127.05 320.353 128.575 320.408 122.708C320.431 120.167 322.541 118.046 326.726 117.559L326.749 115.108L330.343 115.134L330.321 117.54C332.206 117.711 334.038 118.152 335.484 118.881L333.638 122.712C331.887 121.912 330.234 121.518 328.679 121.507C326.921 121.494 326.356 121.94 326.351 122.479C326.334 124.367 336.211 122.864 336.158 128.665C336.135 131.093 334.127 133.192 330.171 133.77Z" fill="white"/>
<path d="M444.158 143.598H384.874C379.605 143.598 375.333 139.83 375.333 135.183V130.665C375.333 126.018 379.605 122.25 384.874 122.25H444.158C449.427 122.25 453.698 126.018 453.698 130.665V135.183C453.698 139.83 449.428 143.598 444.158 143.598Z" fill="#695CFF"/>
<path d="M389.311 138.554V127.458H393.06C393.927 127.458 394.639 127.606 395.195 127.902C395.751 128.195 396.163 128.598 396.43 129.111C396.698 129.624 396.831 130.207 396.831 130.861C396.831 131.514 396.698 132.094 396.43 132.6C396.163 133.106 395.753 133.503 395.201 133.792C394.648 134.077 393.942 134.22 393.082 134.22H390.048V133.006H393.039C393.631 133.006 394.108 132.92 394.469 132.746C394.834 132.573 395.098 132.327 395.26 132.009C395.426 131.688 395.509 131.305 395.509 130.861C395.509 130.416 395.426 130.028 395.26 129.696C395.094 129.363 394.828 129.107 394.464 128.926C394.099 128.742 393.617 128.65 393.017 128.65H390.655V138.554H389.311ZM394.534 133.57L397.265 138.554H395.704L393.017 133.57H394.534ZM399.07 138.554V127.458H405.767V128.65H400.414V132.399H405.42V133.591H400.414V137.362H405.854V138.554H399.07ZM416.988 127.458V138.554H415.688L409.641 129.842H409.533V138.554H408.189V127.458H409.49L415.558 136.192H415.666V127.458H416.988ZM419.07 128.65V127.458H427.392V128.65H423.903V138.554H422.559V128.65H419.07Z" fill="#5D51F2"/>
<path d="M389.311 137.326V126.229H393.06C393.927 126.229 394.639 126.377 395.195 126.673C395.751 126.966 396.163 127.369 396.43 127.882C396.698 128.395 396.831 128.978 396.831 129.632C396.831 130.286 396.698 130.865 396.43 131.371C396.163 131.877 395.753 132.274 395.201 132.563C394.648 132.848 393.942 132.991 393.082 132.991H390.048V131.777H393.039C393.631 131.777 394.108 131.691 394.469 131.517C394.834 131.344 395.098 131.098 395.26 130.78C395.426 130.459 395.509 130.076 395.509 129.632C395.509 129.187 395.426 128.799 395.26 128.467C395.094 128.135 394.828 127.878 394.464 127.697C394.099 127.513 393.617 127.421 393.017 127.421H390.655V137.326H389.311ZM394.534 132.341L397.265 137.326H395.704L393.017 132.341H394.534ZM399.07 137.326V126.229H405.767V127.421H400.414V131.17H405.42V132.362H400.414V136.134H405.854V137.326H399.07ZM416.988 126.229V137.326H415.688L409.641 128.613H409.533V137.326H408.189V126.229H409.49L415.558 134.963H415.666V126.229H416.988ZM419.07 127.421V126.229H427.392V127.421H423.903V137.326H422.559V127.421H419.07Z" fill="white" fill-opacity="0.5"/>
<path d="M450.525 165.502H378.507C376.755 165.502 375.333 164.249 375.333 162.702C375.333 161.156 376.754 159.902 378.507 159.902H450.525C452.278 159.902 453.7 161.156 453.7 162.702C453.698 164.249 452.278 165.502 450.525 165.502Z" fill="#CAE6FE"/>
<path d="M450.525 179.282H378.507C376.755 179.282 375.333 178.029 375.333 176.482C375.333 174.936 376.754 173.682 378.507 173.682H450.525C452.278 173.682 453.7 174.935 453.7 176.482C453.698 178.029 452.278 179.282 450.525 179.282Z" fill="#CAE6FE"/>
<path d="M450.525 193.061H378.507C376.755 193.061 375.333 191.808 375.333 190.261C375.333 188.715 376.754 187.462 378.507 187.462H450.525C452.278 187.462 453.7 188.715 453.7 190.261C453.698 191.808 452.278 193.061 450.525 193.061Z" fill="#CAE6FE"/>
<path d="M450.525 206.842H378.507C376.755 206.842 375.333 205.589 375.333 204.042C375.333 202.496 376.754 201.242 378.507 201.242H450.525C452.278 201.242 453.7 202.495 453.7 204.042C453.698 205.589 452.278 206.842 450.525 206.842Z" fill="#CAE6FE"/>
<path d="M450.525 220.622H378.507C376.755 220.622 375.333 219.368 375.333 217.822C375.333 216.276 376.754 215.022 378.507 215.022H450.525C452.278 215.022 453.7 216.275 453.7 217.822C453.698 219.368 452.278 220.622 450.525 220.622Z" fill="#CAE6FE"/>
<path d="M450.525 234.402H378.507C376.755 234.402 375.333 233.149 375.333 231.602C375.333 230.057 376.754 228.802 378.507 228.802H450.525C452.278 228.802 453.7 230.056 453.7 231.602C453.698 233.148 452.278 234.402 450.525 234.402Z" fill="#CAE6FE"/>
<path d="M312.692 308.245H251.068V385.667H312.692V308.245Z" fill="#16162F"/>
<path d="M348.736 399.61H215.023V396.095C215.023 388.862 221.671 382.998 229.871 382.998H333.887C342.087 382.998 348.735 388.862 348.735 396.095V399.61H348.736Z" fill="#2A3554"/>
<path d="M408.909 312.467H391.726C389.642 312.467 387.953 310.977 387.953 309.139V308.245H412.682V309.139C412.682 310.977 410.993 312.467 408.909 312.467Z" fill="#16162F"/>
<path d="M446.833 312.467H429.65C427.566 312.467 425.877 310.977 425.877 309.139V308.245H450.606V309.139C450.606 310.977 448.917 312.467 446.833 312.467Z" fill="#16162F"/>
<path d="M370.982 312.467H353.8C351.716 312.467 350.026 310.977 350.026 309.139V308.245H374.756V309.139C374.757 310.977 373.066 312.467 370.982 312.467Z" fill="#16162F"/>
<path opacity="0.3" d="M474.95 80.1999V291.352C474.95 295.278 471.346 298.457 466.896 298.457H91.6036C90.6185 298.457 89.6831 298.303 88.8105 298.007L469.937 73.6245C472.88 74.6791 474.95 77.2303 474.95 80.1999Z" fill="white" fill-opacity="0.5"/>
<path d="M361.461 137.945C363.385 137.449 371.752 141.286 372.107 141.339C372.463 141.391 374.068 140.908 375.71 140.718C377.352 140.529 378.336 140.986 379.69 142.93C381.044 144.881 382.228 148.268 382.228 148.268C383.019 148.549 383.902 148.847 384.844 149.158C383.626 151.4 382.328 153.606 380.937 155.771C379.494 155.054 378.195 154.398 377.101 153.835C376.302 154.116 375.487 154.22 374.718 154.07C372.698 153.672 370.974 153.202 369.968 152.907C369.369 152.725 369.02 152.614 369.02 152.614C369.02 152.614 369.006 152.62 368.991 152.633C368.806 152.711 367.889 153.064 366.031 152.633C363.945 152.143 362.532 150.819 362.503 149.919C362.465 149.011 363.657 148.496 363.657 148.496C363.657 148.496 362.776 147.837 362.821 146.884C362.864 145.924 364.729 144.998 364.729 144.998C364.729 144.998 363.834 144.019 364.618 143.053C365.359 142.12 367.895 142.948 368.11 143.013C367.75 142.82 359.581 138.428 361.461 137.945Z" fill="#FDA893"/>
<path d="M377.182 146.42C377.256 146.42 377.33 146.404 377.399 146.371C377.62 146.265 377.704 146.02 377.584 145.825L376.569 144.168C376.508 144.069 376.403 143.997 376.278 143.969C376.153 143.941 376.023 143.961 375.915 144.023C375.894 144.035 373.819 145.217 371.913 144.797C371.33 144.668 370.938 144.454 370.779 144.179C370.6 143.867 370.75 143.534 370.751 143.53C370.846 143.325 370.737 143.09 370.506 143.005C370.276 142.919 370.011 143.011 369.91 143.214C369.878 143.281 369.598 143.89 369.955 144.528C370.237 145.033 370.822 145.386 371.69 145.578C373.435 145.964 375.196 145.289 375.988 144.916L376.779 146.207C376.863 146.343 377.02 146.42 377.182 146.42Z" fill="#FD896B"/>
<path d="M368.989 152.635C369.011 152.623 369.023 152.616 369.023 152.616C369.023 152.616 369.367 152.729 369.971 152.906C370.772 152.074 370.83 151.077 370.881 150.239C370.923 149.511 370.963 148.88 371.399 148.421C371.849 147.948 372.032 147.424 372.065 146.925C372.105 146.444 372.001 145.982 371.867 145.608C371.819 145.469 371.767 145.339 371.715 145.229C371.58 144.939 371.456 144.754 371.44 144.73C371.309 144.539 371.028 144.475 370.813 144.59C370.596 144.703 370.526 144.95 370.654 145.141C370.657 145.144 370.676 145.173 370.706 145.227C370.837 145.447 371.154 146.063 371.154 146.726C371.154 147.126 371.039 147.546 370.698 147.906C370.067 148.569 370.015 149.396 369.967 150.196C369.913 151.105 369.861 151.969 368.989 152.635Z" fill="#FD896B"/>
<path d="M375.341 149.646C375.513 149.646 375.676 149.561 375.755 149.415C375.863 149.213 375.765 148.974 375.536 148.879C375.508 148.867 372.8 147.711 372.527 145.434C372.501 145.213 372.274 145.052 372.025 145.076C371.775 145.099 371.593 145.297 371.619 145.519C371.945 148.252 375.017 149.554 375.146 149.608C375.21 149.634 375.276 149.646 375.341 149.646Z" fill="#FD896B"/>
<path d="M384.742 149.063C401.857 154.167 414.775 157.56 428.139 160.444C452.061 165.606 464.794 162.569 464.794 162.569L455.806 177.138L454.208 179.73C451.583 180.356 448.504 180.412 445.381 180.149C436.426 179.405 427.109 176.058 427.109 176.058C402.583 167.606 386.535 160.829 379.893 156.778L384.742 149.063Z" fill="#9E97F7"/>
<path d="M385.181 147.996L389.301 149.701L383.655 159.253L379.4 157.092L385.181 147.996Z" fill="#695CFF"/>
<path d="M445.381 180.151C448.504 180.413 451.583 180.358 454.208 179.731L455.806 177.139C455.471 175.839 454.619 174.773 452.956 174.201C452.956 174.201 450.846 177.988 445.381 180.151Z" fill="#695CFF"/>
<path d="M525.218 372.677L532.234 380.635C532.234 380.635 530.952 384.193 525.758 386.934L517.368 377.777L525.218 372.677Z" fill="#FDA893"/>
<path d="M526.921 384.468C526.921 384.468 523.639 383.868 522.516 384.831C521.393 385.793 518.576 398.884 515.939 401.748C513.302 404.612 515.957 406.134 517.58 406.714C519.203 407.294 542.456 387.593 542.456 387.593C542.456 387.593 536.708 380.858 533.935 379.549C531.164 378.243 529.864 383.083 526.921 384.468Z" fill="#007CE6"/>
<path d="M526.379 391.715C526.521 391.663 526.638 391.564 526.695 391.43C526.806 391.172 526.65 390.887 526.346 390.793C526.245 390.761 523.835 390.024 521.962 390.406C519.469 390.911 518.941 392.727 518.921 392.804C518.847 393.071 519.043 393.339 519.358 393.401C519.672 393.464 519.988 393.297 520.062 393.029C520.077 392.98 520.461 391.734 522.235 391.372C523.761 391.062 525.923 391.719 525.943 391.727C526.091 391.772 526.247 391.764 526.379 391.715Z" fill="white" fill-opacity="0.5"/>
<path d="M526.647 389.689C526.788 389.637 526.905 389.537 526.962 389.404C527.074 389.146 526.918 388.861 526.614 388.767C526.512 388.735 524.103 387.998 522.23 388.379C519.734 388.885 519.209 390.7 519.188 390.777C519.115 391.044 519.311 391.312 519.625 391.373C519.94 391.436 520.256 391.27 520.33 391.002C520.344 390.953 520.729 389.706 522.503 389.344C524.036 389.033 526.189 389.692 526.211 389.699C526.359 389.746 526.513 389.738 526.647 389.689Z" fill="white" fill-opacity="0.5"/>
<path d="M525.438 393.88C525.579 393.828 525.696 393.728 525.753 393.595C525.865 393.336 525.709 393.051 525.405 392.956C525.303 392.924 522.894 392.188 521.021 392.569C518.525 393.075 518 394.89 517.979 394.968C517.906 395.234 518.102 395.502 518.417 395.564C518.732 395.627 519.048 395.461 519.122 395.193C519.136 395.144 519.522 393.897 521.295 393.536C522.828 393.224 524.981 393.883 525.003 393.89C525.15 393.936 525.304 393.929 525.438 393.88Z" fill="white" fill-opacity="0.5"/>
<path d="M480.889 264.627L487.221 317.676C487.221 317.676 495.524 326.407 501.585 336.142C506.67 344.313 528.321 373.525 528.321 373.525L517.963 380.997L463.931 327.506L451.979 264.086L480.889 264.627Z" fill="#16162F"/>
<path d="M471.003 387.947L469.939 398.238C469.939 398.238 466.181 400.232 460.158 399.286L461.145 387.256L471.003 387.947Z" fill="#FDA893"/>
<path d="M462.283 397.84C462.283 397.84 460.23 395.335 458.567 395.419C456.904 395.503 443.938 404.332 439.533 405.019C435.129 405.705 435.935 408.569 436.716 410.037C437.498 411.504 471.591 410.663 471.591 410.663C471.591 410.663 472.847 400.956 471.774 398.192C470.702 395.429 465.707 398.534 462.283 397.84Z" fill="#007CE6"/>
<path d="M455.654 403.127C455.799 403.174 455.965 403.171 456.115 403.107C456.405 402.981 456.526 402.672 456.383 402.415C456.336 402.33 455.199 400.305 453.536 399.448C451.325 398.303 449.463 399.344 449.384 399.389C449.113 399.545 449.035 399.865 449.212 400.104C449.387 400.343 449.752 400.412 450.023 400.256C450.074 400.228 451.369 399.528 452.944 400.34C454.299 401.039 455.321 402.853 455.331 402.871C455.399 402.994 455.517 403.083 455.654 403.127Z" fill="white" fill-opacity="0.5"/>
<path d="M457.5 401.77C457.646 401.817 457.811 401.814 457.961 401.749C458.252 401.623 458.373 401.313 458.23 401.057C458.183 400.971 457.045 398.947 455.383 398.089C453.169 396.944 451.309 397.985 451.231 398.03C450.959 398.186 450.882 398.506 451.059 398.745C451.234 398.984 451.598 399.053 451.87 398.897C451.92 398.869 453.216 398.169 454.791 398.981C456.151 399.683 457.166 401.494 457.176 401.512C457.246 401.637 457.364 401.727 457.5 401.77Z" fill="white" fill-opacity="0.5"/>
<path d="M453.205 404.176C453.351 404.223 453.516 404.22 453.666 404.156C453.957 404.03 454.078 403.721 453.935 403.464C453.888 403.379 452.75 401.354 451.088 400.496C448.874 399.352 447.014 400.392 446.936 400.437C446.665 400.593 446.587 400.913 446.764 401.152C446.939 401.391 447.303 401.46 447.575 401.304C447.625 401.276 448.921 400.576 450.496 401.388C451.856 402.091 452.871 403.9 452.881 403.919C452.951 404.043 453.07 404.132 453.205 404.176Z" fill="white" fill-opacity="0.5"/>
<path d="M513.791 266.159C513.791 266.159 501.157 305.793 484.723 327.173C484.723 327.173 482.267 347.978 478.08 359.058C476.24 363.904 471.581 392.778 471.581 392.778L469.56 392.522L468.362 392.362L459.395 391.22L463.425 322.498L483.174 268.229L508.672 266.5L510.027 266.415L513.791 266.159Z" fill="#2A3554"/>
<path d="M510.028 266.415L482.073 327.205C482.061 327.28 477.898 343.783 475.551 355.386C473.445 365.708 470.383 383.684 469.56 392.522L468.362 392.362C469.197 383.438 472.198 365.761 474.353 355.194C476.712 343.58 480.887 327.056 480.924 326.885L508.672 266.5L510.028 266.415Z" fill="#16162F"/>
<path d="M450.104 263.169C450.104 265.417 450.11 267.199 450.128 268.403C456.165 269.838 462.2 270.877 468.235 271.514C468.394 271.53 468.555 271.549 468.717 271.565C468.988 271.595 469.253 271.622 469.52 271.648C469.587 271.654 469.651 271.659 469.721 271.664C470.769 271.767 471.81 271.855 472.86 271.93C478.048 272.306 483.237 272.389 488.425 272.177C488.881 272.158 489.333 272.136 489.789 272.113C490.194 272.093 490.605 272.072 491.016 272.045C491.199 272.037 491.385 272.026 491.57 272.013C491.918 271.992 492.259 271.968 492.605 271.946C500.229 271.401 507.853 270.224 515.474 268.403C515.514 265.755 515.551 260.36 515.563 253.4C515.563 253.019 515.566 252.632 515.563 252.24C515.572 244.564 515.539 235.143 515.434 225.442C515.425 224.675 515.416 223.908 515.404 223.138C515.394 222.248 515.386 221.354 515.374 220.457C515.37 220.307 515.37 220.154 515.368 220.003C515.362 219.794 515.358 219.585 515.356 219.373C515.352 218.951 515.346 218.526 515.338 218.108C515.328 217.493 515.319 216.88 515.307 216.271C515.301 215.806 515.292 215.341 515.286 214.877C515.27 213.952 515.252 213.029 515.237 212.11C514.869 192.851 514.132 175.152 512.729 170.648C512.598 170.232 512.461 169.929 512.323 169.748C512.174 169.547 511.988 169.346 511.781 169.136C511.52 168.872 511.215 168.601 510.873 168.328C508.535 166.429 504.479 164.224 500.366 162.131C499.888 161.887 499.404 161.646 498.928 161.403C498.855 161.368 487.751 158.065 487.681 158.027L476.065 158.744C474.671 159.467 463.681 162.762 462.333 163.503C461.934 163.723 461.542 163.944 461.155 164.16C457.994 165.957 455.308 167.744 454.137 169.261C452.448 171.452 451.424 191.114 450.833 212.506C450.819 213 450.805 213.491 450.791 213.983C450.73 216.247 450.675 218.522 450.624 220.797C450.572 223.041 450.526 225.282 450.483 227.505C450.417 231.144 450.355 234.728 450.307 238.179C450.301 238.571 450.297 238.96 450.292 239.35C450.246 242.714 450.21 245.94 450.182 248.954C450.179 249.348 450.176 249.738 450.173 250.125C450.133 254.647 450.108 258.651 450.106 261.866V261.87C450.104 262.322 450.104 262.749 450.104 263.169Z" fill="#695CFF"/>
<path d="M503.938 195.722C503.938 195.213 504.673 194.99 505.022 195.396C509.69 200.819 512.507 206.732 514.172 211.406C514.598 212.607 514.967 213.77 515.287 214.877C515.293 215.341 515.302 215.805 515.309 216.271C515.321 216.88 515.33 217.493 515.339 218.108C515.348 218.526 515.354 218.951 515.357 219.373C515.359 219.585 515.363 219.794 515.369 220.003C515.373 220.154 515.373 220.307 515.375 220.457C514.937 218.115 514.208 215.059 513.013 211.697C511.382 207.124 508.621 201.339 504.061 196.043C503.98 195.95 503.938 195.838 503.938 195.722Z" fill="#5D51F2"/>
<path d="M501.573 251.62H501.571C489.028 251.571 478.321 246.537 471.549 242.322C464.224 237.764 459.786 233.144 459.742 233.098C459.528 232.873 459.56 232.536 459.816 232.347C460.071 232.158 460.451 232.187 460.667 232.411C460.709 232.456 465.068 236.988 472.273 241.468C478.899 245.587 489.36 250.507 501.577 250.554C501.91 250.555 502.179 250.794 502.177 251.088C502.176 251.384 501.906 251.62 501.573 251.62Z" fill="#5D51F2"/>
<path d="M488.501 255.38C477.617 255.38 466.763 249.909 466.27 249.657C465.982 249.51 465.882 249.184 466.049 248.93C466.216 248.676 466.585 248.59 466.874 248.736C467.001 248.801 479.772 255.234 491.096 254.201C491.432 254.168 491.724 254.384 491.758 254.676C491.793 254.969 491.551 255.23 491.22 255.26C490.319 255.341 489.41 255.38 488.501 255.38Z" fill="#5D51F2"/>
<path d="M536.33 279.745C536.616 282.479 532.84 280.996 533.909 275.456C534.974 269.916 531.948 264.899 530.644 265.059C529.336 265.222 531.724 271.109 530.563 273.231C529.403 275.352 527.904 271.23 526.411 268.73C524.863 266.133 524.954 260.467 525.658 256.424C526.362 252.378 518.052 227.814 518.01 220.695L516.997 217.678L513.29 206.629L507.486 189.325C507.486 189.325 510.963 176.229 516.826 177.354C516.826 177.354 519.929 186.476 523.247 196.764C523.809 198.511 524.378 200.292 524.939 202.067C527.302 209.527 529.522 216.891 530.555 221.26C533.282 232.796 533.492 256.776 533.492 256.776C533.492 256.776 538.303 265.586 538.416 269.506C538.535 273.686 536.048 277.011 536.33 279.745Z" fill="#FDA893"/>
<path d="M511.735 169.588C511.835 169.786 512.14 169.176 512.322 169.548C513.001 170.931 516.013 174.347 517.503 177.674C517.694 178.098 517.889 178.539 518.091 178.988C520.234 183.848 532.047 215.842 534.463 243.142L522.952 245.046C519.306 227.182 517.02 221.785 514.777 212.972C513.616 209.539 512.412 206.243 511.281 203.214C511.278 203.205 511.274 203.2 511.272 203.191C510.82 201.98 510.378 200.812 509.957 199.696C509.951 199.675 509.944 199.655 509.934 199.639C509.788 199.246 509.645 198.86 509.5 198.482V198.479C507.815 193.986 506.511 190.415 506.137 188.334C505.13 182.731 507.872 171.752 511.735 169.588Z" fill="#9E97F7"/>
<path d="M535.154 241.185L535.933 245.332L522.298 247.221L521.347 243.102L535.154 241.185Z" fill="#7D74F5"/>
<path d="M534.213 247.677C534.213 247.677 526.678 247.184 523.481 249.198L524.15 253.089C524.15 253.089 532.956 252.219 535.011 252.32C535.011 252.32 535.213 248.476 534.213 247.677Z" fill="#16162F"/>
<path d="M530.417 250.299C530.417 252.082 531.778 253.528 533.456 253.528C535.135 253.528 536.496 252.082 536.496 250.299C536.496 248.516 535.135 247.07 533.456 247.07C531.778 247.071 530.417 248.516 530.417 250.299Z" fill="#2A3554"/>
<path d="M531.75 250.186C531.75 251.491 532.745 252.548 533.973 252.548C535.201 252.548 536.196 251.491 536.196 250.186C536.196 248.882 535.201 247.825 533.973 247.825C532.746 247.824 531.75 248.882 531.75 250.186Z" fill="#445379"/>
<path d="M501.08 132.39C501.08 141.744 494.551 148.192 483.945 148.192C473.34 148.192 465.949 141.261 465.949 131.906C465.949 122.552 472.229 115.464 482.833 115.464C495.553 115.465 501.08 123.036 501.08 132.39Z" fill="#2A3554"/>
<path d="M501.08 132.39C501.08 132.39 500.984 128.649 502.584 127.346C503.395 126.685 503.806 125.017 502.584 123.043C501.362 121.068 500.219 120.679 501.439 117.928C502.659 115.177 500.12 112.743 498.281 112.531C496.441 112.319 492.004 114.505 489.765 111.895C487.526 109.286 484.68 108.015 481.584 108.862C478.489 109.708 474.254 110.104 472.373 108.601C470.491 107.098 465.052 109.286 465.452 112.248C465.852 115.211 468.699 118.173 467.156 119.443C465.613 120.714 463.501 124.541 467.156 125.237C470.81 125.935 501.08 132.39 501.08 132.39Z" fill="#2A3554"/>
<path d="M498.697 136.419C498.697 136.419 501.644 132.954 503.834 135.819C506.025 138.684 502.928 147.148 497.563 145.082L498.697 136.419Z" fill="#FD896B"/>
<path d="M498.736 142.466C498.935 142.466 499.116 142.35 499.173 142.173C500.004 139.56 503.073 138.501 503.104 138.491C503.337 138.412 503.454 138.181 503.366 137.975C503.278 137.769 503.016 137.665 502.783 137.742C502.639 137.79 499.258 138.949 498.299 141.957C498.231 142.169 498.372 142.39 498.614 142.45C498.654 142.461 498.695 142.466 498.736 142.466Z" fill="#D65C48"/>
<path d="M501.833 141.15C501.916 141.15 502.002 141.129 502.077 141.086C502.288 140.966 502.348 140.718 502.213 140.533C502.19 140.502 501.648 139.772 500.511 139.323C500.284 139.233 500.015 139.323 499.912 139.525C499.811 139.727 499.912 139.963 500.141 140.053C501.02 140.4 501.447 140.961 501.451 140.966C501.539 141.086 501.684 141.15 501.833 141.15Z" fill="#D65C48"/>
<path d="M468.334 136.419C468.334 136.419 465.387 132.954 463.196 135.819C461.006 138.684 464.103 147.148 469.467 145.082L468.334 136.419Z" fill="#FD896B"/>
<path d="M468.295 142.466C468.096 142.466 467.915 142.35 467.858 142.173C467.026 139.56 463.958 138.501 463.927 138.491C463.694 138.412 463.576 138.181 463.665 137.975C463.753 137.769 464.014 137.665 464.248 137.742C464.392 137.79 467.773 138.949 468.73 141.957C468.798 142.169 468.658 142.39 468.416 142.45C468.377 142.461 468.336 142.466 468.295 142.466Z" fill="#D65C48"/>
<path d="M465.197 141.15C465.113 141.15 465.027 141.129 464.951 141.086C464.74 140.966 464.68 140.718 464.815 140.533C464.838 140.502 465.381 139.772 466.517 139.323C466.744 139.233 467.013 139.323 467.116 139.525C467.219 139.727 467.116 139.963 466.887 140.053C466.009 140.4 465.581 140.961 465.578 140.966C465.492 141.086 465.346 141.15 465.197 141.15Z" fill="#D65C48"/>
<path d="M476.263 152.26V161.164C476.263 161.164 477.343 165.781 480.505 166.111C484.93 166.573 490.218 159.908 490.218 159.908V152.851L476.263 152.26Z" fill="#FDA893"/>
<path d="M476.263 152.26V155.995C478.845 158.522 483.43 159.153 490.217 158.269V152.851L476.263 152.26Z" fill="#FD896B"/>
<path d="M500.262 136.26C500.223 136.748 500.177 137.241 500.122 137.739C499.979 138.992 499.787 140.281 499.526 141.563C499.517 141.609 499.511 141.651 499.5 141.692C498.218 147.899 495.338 153.999 489.13 155.955C475.067 160.384 470.046 149.748 468.037 143.547C467.816 142.859 467.615 142.093 467.439 141.276C467.433 141.244 467.426 141.209 467.416 141.172C467.222 140.254 467.052 139.276 466.909 138.27C466.802 137.524 466.711 136.767 466.63 136.004C466.425 134.15 466.292 132.292 466.204 130.643C465.999 126.874 468.558 123.407 472.561 122.052C478.329 120.095 487.086 118.548 495.384 122.698C498.451 124.23 500.372 127.069 500.44 130.175C500.476 131.891 500.447 133.997 500.262 136.26Z" fill="#FDA893"/>
<path d="M498.531 136.489C498.531 136.489 497.225 141.285 495.752 144.586C492.656 141.738 483.516 144.603 483.516 144.603C483.516 144.603 473.264 141.325 471.421 145.293C470.243 143.386 469.339 139.296 468.738 136.488L466.631 136.004C466.712 136.767 466.804 137.524 466.91 138.27C467.053 139.276 467.223 140.255 467.417 141.172C467.427 141.209 467.434 141.244 467.44 141.276C467.616 142.093 467.818 142.859 468.038 143.547C470.047 149.748 475.068 160.384 489.131 155.955C495.338 154 498.219 147.898 499.501 141.692C499.51 141.652 499.518 141.609 499.527 141.563C499.788 140.281 499.98 138.992 500.123 137.739C500.178 137.24 500.223 136.746 500.263 136.26L498.531 136.489ZM491.941 149.964C488.198 152.565 483.071 152.611 480.538 152.104C478.485 151.696 476.252 150.626 474.252 148.771C474.597 146.843 476.431 145.18 483.809 146.072C492.743 144.087 492.317 148.464 491.941 149.964Z" fill="#2A3554"/>
<path d="M488.295 136.913C488.295 137.812 488.82 138.54 489.468 138.54C490.115 138.54 490.64 137.812 490.64 136.913C490.64 136.014 490.115 135.286 489.468 135.286C488.82 135.286 488.295 136.014 488.295 136.913Z" fill="#2A3554"/>
<path d="M474.693 136.913C474.693 137.812 475.218 138.54 475.865 138.54C476.513 138.54 477.038 137.812 477.038 136.913C477.038 136.014 476.513 135.286 475.865 135.286C475.218 135.286 474.693 136.014 474.693 136.913Z" fill="#2A3554"/>
<path d="M472.546 131.33C472.546 131.33 476.246 130.041 479.094 131.126L478.809 132.524C478.809 132.524 474.629 132.212 472.522 132.965C472.333 132.427 472.305 131.883 472.546 131.33Z" fill="#2A3554"/>
<path d="M494.1 131.33C494.1 131.33 490.4 130.041 487.552 131.126L487.836 132.524C487.836 132.524 492.017 132.212 494.123 132.965C494.313 132.427 494.341 131.883 494.1 131.33Z" fill="#2A3554"/>
<path d="M483.055 143.966C483.813 144.048 484.602 143.868 484.725 143.839C484.966 143.781 485.108 143.561 485.043 143.348C484.978 143.134 484.728 143.008 484.486 143.067C484.06 143.168 483.052 143.292 482.661 143.023C482.586 142.971 482.486 142.874 482.491 142.629C482.52 141.225 483.594 136.627 483.605 136.58C483.656 136.363 483.498 136.152 483.253 136.108C483.006 136.063 482.768 136.202 482.717 136.419C482.672 136.611 481.615 141.138 481.584 142.615C481.572 143.171 481.86 143.487 482.105 143.655C482.372 143.837 482.71 143.928 483.055 143.966Z" fill="#FD896B"/>
<path d="M489.252 146.364C488.882 148.008 487.651 151.033 483.503 151.033C479.344 151.033 478.178 148.269 477.777 146.364H489.252Z" fill="white" fill-opacity="0.5"/>
<path d="M466.682 136.489H468.736C468.51 134.67 469.259 132.471 469.878 131.007C471.281 127.685 468.293 126.22 470.71 124.556C473.127 122.889 479.14 123.603 483.322 123.484C487.53 123.363 494.293 123.416 495.934 123.751C497.58 124.083 496.677 126.493 496.075 128.361C495.467 130.224 498.092 132.288 498.531 134.219C498.657 134.773 498.632 135.597 498.53 136.489H500.242C500.446 134.139 500.476 131.95 500.44 130.177C500.372 127.071 498.449 124.232 495.385 122.7C487.086 118.55 478.328 120.097 472.562 122.052C468.56 123.408 465.998 126.874 466.202 130.645C466.299 132.437 466.449 134.475 466.682 136.489Z" fill="#2A3554"/>
<path d="M475.879 142.482C472.901 142.482 470.478 140.345 470.478 137.718C470.478 135.091 472.901 132.954 475.879 132.954C478.857 132.954 481.28 135.091 481.28 137.718C481.28 140.345 478.856 142.482 475.879 142.482ZM475.879 133.697C473.365 133.697 471.32 135.501 471.32 137.718C471.32 139.935 473.365 141.739 475.879 141.739C478.392 141.739 480.438 139.935 480.438 137.718C480.438 135.501 478.392 133.697 475.879 133.697Z" fill="white" fill-opacity="0.5"/>
<path d="M490.64 142.482C487.662 142.482 485.239 140.345 485.239 137.718C485.239 135.091 487.662 132.954 490.64 132.954C493.618 132.954 496.041 135.091 496.041 137.718C496.041 140.345 493.618 142.482 490.64 142.482ZM490.64 133.697C488.127 133.697 486.082 135.501 486.082 137.718C486.082 139.935 488.127 141.739 490.64 141.739C493.154 141.739 495.199 139.935 495.199 137.718C495.199 135.501 493.155 133.697 490.64 133.697Z" fill="white" fill-opacity="0.5"/>
<path d="M471.391 136.183C471.284 136.183 471.176 136.148 471.094 136.075C471.07 136.054 468.617 133.954 465.398 134.616C465.173 134.663 464.945 134.539 464.892 134.338C464.839 134.139 464.98 133.939 465.207 133.892C468.888 133.135 471.574 135.448 471.688 135.547C471.853 135.692 471.854 135.927 471.689 136.072C471.607 136.147 471.498 136.183 471.391 136.183Z" fill="white" fill-opacity="0.5"/>
<path d="M495.228 136.183C495.09 136.183 494.956 136.123 494.875 136.014C494.748 135.842 494.802 135.613 494.997 135.501C495.158 135.408 498.98 133.234 502.231 133.705C502.461 133.738 502.616 133.93 502.579 134.132C502.541 134.334 502.326 134.471 502.094 134.439C499.167 134.014 495.494 136.102 495.457 136.122C495.387 136.164 495.307 136.183 495.228 136.183Z" fill="white" fill-opacity="0.5"/>
<path d="M485.537 136.647C485.527 136.635 484.528 135.442 483.212 135.442C481.91 135.442 481.006 136.633 480.998 136.645L480.293 136.238C480.339 136.175 481.45 134.699 483.214 134.699C484.963 134.699 486.171 136.15 486.221 136.212L485.537 136.647Z" fill="white" fill-opacity="0.5"/>
<path d="M525.144 156.902C525.144 159.733 522.533 162.037 519.322 162.037C516.111 162.037 513.5 159.734 513.5 156.902C513.5 154.071 516.111 151.766 519.322 151.766C522.533 151.767 525.144 154.071 525.144 156.902ZM515.327 156.902C515.327 158.845 517.12 160.425 519.322 160.425C521.524 160.425 523.317 158.845 523.317 156.902C523.317 154.959 521.524 153.378 519.322 153.378C517.12 153.378 515.327 154.959 515.327 156.902Z" fill="#007CE6"/>
<path d="M531.066 130.804C531.066 133.635 528.455 135.939 525.245 135.939C522.035 135.939 519.423 133.636 519.423 130.804C519.423 127.973 522.035 125.669 525.245 125.669C528.455 125.67 531.066 127.973 531.066 130.804ZM521.249 130.804C521.249 132.747 523.042 134.328 525.244 134.328C527.447 134.328 529.239 132.747 529.239 130.804C529.239 128.861 527.447 127.28 525.244 127.28C523.042 127.28 521.249 128.861 521.249 130.804Z" fill="#61B3FF"/>
<path d="M542.952 118.438C542.952 118.883 542.543 119.244 542.04 119.244H538.013C537.508 119.244 537.1 118.883 537.1 118.438C537.1 117.993 537.509 117.632 538.013 117.632H542.04C542.543 117.633 542.952 117.993 542.952 118.438Z" fill="#007CE6"/>
<path d="M550 118.438C550 118.883 549.591 119.244 549.088 119.244H545.061C544.556 119.244 544.147 118.883 544.147 118.438C544.147 117.993 544.556 117.632 545.061 117.632H549.088C549.591 117.633 550 117.993 550 118.438Z" fill="#007CE6"/>
<path d="M544.463 113.452V116.642C544.463 117.087 544.054 117.448 543.549 117.448C543.045 117.448 542.637 117.087 542.637 116.642V113.452C542.637 113.007 543.046 112.646 543.549 112.646C544.054 112.647 544.463 113.008 544.463 113.452Z" fill="#007CE6"/>
<path d="M544.463 120.233V123.424C544.463 123.869 544.054 124.23 543.549 124.23C543.045 124.23 542.637 123.869 542.637 123.424V120.233C542.637 119.788 543.046 119.427 543.549 119.427C544.054 119.427 544.463 119.788 544.463 120.233Z" fill="#007CE6"/>
<path d="M536.386 145.863C536.386 146.309 535.977 146.669 535.473 146.669H531.445C530.941 146.669 530.533 146.309 530.533 145.863C530.533 145.418 530.942 145.058 531.445 145.058H535.473C535.977 145.059 536.386 145.419 536.386 145.863Z" fill="#0065D6"/>
<path d="M543.433 145.863C543.433 146.309 543.024 146.669 542.519 146.669H538.493C537.988 146.669 537.579 146.309 537.579 145.863C537.579 145.418 537.988 145.058 538.493 145.058H542.519C543.024 145.059 543.433 145.419 543.433 145.863Z" fill="#0065D6"/>
<path d="M537.896 140.879V144.069C537.896 144.514 537.487 144.875 536.983 144.875C536.478 144.875 536.069 144.514 536.069 144.069V140.879C536.069 140.433 536.478 140.073 536.983 140.073C537.487 140.073 537.896 140.433 537.896 140.879Z" fill="#0065D6"/>
<path d="M537.896 147.659V150.849C537.896 151.295 537.487 151.655 536.983 151.655C536.478 151.655 536.069 151.295 536.069 150.849V147.659C536.069 147.214 536.478 146.853 536.983 146.853C537.487 146.853 537.896 147.214 537.896 147.659Z" fill="#0065D6"/>
<path d="M51.0232 119.94C54.2337 119.94 56.8452 122.243 56.8452 125.075C56.8452 127.906 54.2337 130.209 51.0232 130.209C47.8127 130.209 45.2012 127.906 45.2012 125.075C45.2024 122.243 47.8139 119.94 51.0232 119.94ZM51.0232 121.55C48.8207 121.55 47.0285 123.131 47.0285 125.074C47.0285 127.017 48.8207 128.598 51.0232 128.598C53.2256 128.598 55.0179 127.017 55.0179 125.074C55.0191 123.131 53.2269 121.55 51.0232 121.55Z" fill="#007CE6"/>
<path d="M45.1011 93.8418C48.3116 93.8418 50.9231 96.1453 50.9231 98.9772C50.9231 101.808 48.3116 104.113 45.1011 104.113C41.8906 104.113 39.2803 101.809 39.2803 98.9772C39.2803 96.1453 41.8918 93.8418 45.1011 93.8418ZM45.1011 95.4525C42.8986 95.4525 41.1064 97.0334 41.1064 98.9762C41.1064 100.919 42.8986 102.5 45.1011 102.5C47.3047 102.5 49.097 100.919 49.097 98.9762C49.097 97.0334 47.3047 95.4525 45.1011 95.4525Z" fill="#61B3FF"/>
<path d="M27.3926 86.6099C27.3926 87.0551 27.8016 87.4159 28.3062 87.4159H32.3336C32.8382 87.4159 33.2473 87.0551 33.2473 86.6099C33.2473 86.1648 32.8382 85.804 32.3336 85.804H28.3062C27.8016 85.8051 27.3926 86.1659 27.3926 86.6099Z" fill="#007CE6"/>
<path d="M20.3462 86.6099C20.3462 87.0551 20.7552 87.4159 21.2599 87.4159H25.2872C25.7918 87.4159 26.2009 87.0551 26.2009 86.6099C26.2009 86.1648 25.7918 85.804 25.2872 85.804H21.2599C20.7552 85.8051 20.3462 86.1659 20.3462 86.6099Z" fill="#007CE6"/>
<path d="M25.8838 81.6239V84.8145C25.8838 85.2596 26.2928 85.6204 26.7974 85.6204C27.3021 85.6204 27.7111 85.2596 27.7111 84.8145V81.6239C27.7111 81.1788 27.3021 80.818 26.7974 80.818C26.2916 80.8191 25.8838 81.1798 25.8838 81.6239Z" fill="#007CE6"/>
<path d="M25.8838 88.4053V91.5959C25.8838 92.041 26.2928 92.4018 26.7974 92.4018C27.3021 92.4018 27.7111 92.041 27.7111 91.5959V88.4053C27.7111 87.9602 27.3021 87.5994 26.7974 87.5994C26.2916 87.5994 25.8838 87.9602 25.8838 88.4053Z" fill="#007CE6"/>
<path d="M33.96 114.037C33.96 114.482 34.369 114.843 34.8736 114.843H38.901C39.4056 114.843 39.8134 114.482 39.8134 114.037C39.8134 113.592 39.4044 113.231 38.901 113.231H34.8736C34.369 113.231 33.96 113.592 33.96 114.037Z" fill="#0065D6"/>
<path d="M26.9121 114.037C26.9121 114.482 27.3211 114.843 27.8258 114.843H31.8519C32.3566 114.843 32.7656 114.482 32.7656 114.037C32.7656 113.592 32.3566 113.231 31.8519 113.231H27.8258C27.3211 113.231 26.9121 113.592 26.9121 114.037Z" fill="#0065D6"/>
<path d="M32.4497 109.051V112.241C32.4497 112.686 32.8587 113.047 33.3634 113.047C33.868 113.047 34.2758 112.686 34.2758 112.241V109.051C34.2758 108.606 33.8668 108.245 33.3634 108.245C32.8587 108.245 32.4497 108.606 32.4497 109.051Z" fill="#0065D6"/>
<path d="M32.4497 115.831V119.022C32.4497 119.467 32.8587 119.826 33.3634 119.826C33.868 119.826 34.2758 119.466 34.2758 119.022V115.831C34.2758 115.386 33.8668 115.025 33.3634 115.025C32.8587 115.026 32.4497 115.387 32.4497 115.831Z" fill="#0065D6"/>
<path d="M202.45 361.888H162.44C159.372 361.888 156.884 359.694 156.884 356.987V321.695C156.884 318.989 159.371 316.795 162.44 316.795H202.45C205.518 316.795 208.006 318.988 208.006 321.695V356.987C208.006 359.694 205.519 361.888 202.45 361.888Z" fill="#5D51F2"/>
<path d="M198.973 361.888H158.963C155.896 361.888 153.408 359.694 153.408 356.987V321.695C153.408 318.989 155.895 316.795 158.963 316.795H198.973C202.041 316.795 204.529 318.988 204.529 321.695V356.987C204.529 359.694 202.042 361.888 198.973 361.888Z" fill="#7D74F5"/>
<path d="M179.734 324.391C173.206 324.006 167.777 328.567 167.777 334.238C167.777 336.075 168.348 337.795 169.343 339.272C170.824 341.473 172.35 343.649 173.757 345.888L179.059 354.316L187.145 341.449C187.62 340.698 188.133 339.967 188.626 339.225C189.648 337.697 190.212 335.905 190.157 333.997C190.022 328.942 185.452 324.725 179.734 324.391ZM178.967 337.224C176.36 337.224 174.244 335.361 174.244 333.058C174.244 330.756 176.36 328.892 178.967 328.892C181.577 328.892 183.69 330.756 183.69 333.058C183.69 335.361 181.577 337.224 178.967 337.224Z" fill="white" fill-opacity="0.99"/>
<path d="M175.151 406.98H135.141C132.074 406.98 129.587 404.787 129.587 402.08V366.788C129.587 364.082 132.074 361.888 135.141 361.888H175.151C178.219 361.888 180.707 364.081 180.707 366.788V402.08C180.707 404.786 178.219 406.98 175.151 406.98Z" fill="#5D51F2"/>
<path d="M171.675 406.98H131.665C128.597 406.98 126.11 404.787 126.11 402.08V366.788C126.11 364.082 128.597 361.888 131.665 361.888H171.675C174.742 361.888 177.231 364.081 177.231 366.788V402.08C177.231 404.786 174.742 406.98 171.675 406.98Z" fill="#7D74F5"/>
<path d="M151.668 369.623C142.409 369.623 134.877 376.267 134.877 384.434C134.877 392.601 142.41 399.245 151.668 399.245C160.927 399.245 168.458 392.6 168.458 384.434C168.46 376.267 160.927 369.623 151.668 369.623ZM152.344 389.904V384.714H159.934C159.887 386.548 159.586 388.293 159.038 389.904H152.344ZM157.1 395.815C158.333 394.435 159.315 392.848 160.018 391.095H165.132C162.97 394.486 159.344 396.871 155.078 397.719C155.799 397.15 156.477 396.512 157.1 395.815ZM158.579 391.095C157.946 392.552 157.104 393.879 156.073 395.041C154.463 396.855 152.854 397.776 152.344 398.041V391.095H158.579ZM152.344 377.142V370.828C152.544 370.836 152.745 370.848 152.944 370.862C153.784 371.489 156.418 373.642 158.209 377.142H152.344ZM159.685 377.142C159.083 375.867 158.322 374.643 157.422 373.503C156.77 372.678 156.057 371.903 155.297 371.195C159.159 372.02 162.551 374.162 164.701 377.142H159.685ZM152.344 383.522V378.334H158.76C159.455 380.005 159.847 381.75 159.926 383.522H152.344ZM161.277 383.522C161.204 381.76 160.839 380.016 160.194 378.334H165.472C166.399 379.959 166.939 381.705 167.075 383.522H161.277ZM167.104 384.714C167.063 386.518 166.628 388.262 165.808 389.904H160.444C160.958 388.281 161.24 386.537 161.285 384.714H167.104ZM143.049 389.904H137.528C136.709 388.262 136.273 386.518 136.232 384.714H142.209C142.253 386.537 142.536 388.281 143.049 389.904ZM145.281 377.142C145.801 376.12 146.431 375.136 147.159 374.211C148.57 372.417 149.983 371.281 150.565 370.849C150.707 370.84 150.85 370.833 150.992 370.827V377.141L145.281 377.142ZM150.994 378.334V383.522H143.568C143.647 381.756 144.039 380.011 144.732 378.334H150.994ZM138.636 377.142C140.828 374.104 144.292 371.947 148.239 371.154C147.464 371.873 146.735 372.662 146.071 373.503C145.17 374.643 144.41 375.867 143.809 377.142H138.636ZM150.994 384.714V389.904H144.455C143.908 388.299 143.607 386.554 143.56 384.714H150.994ZM136.263 383.522C136.399 381.706 136.938 379.961 137.867 378.334H143.301C142.655 380.016 142.29 381.76 142.218 383.522H136.263ZM143.475 391.095C144.179 392.846 145.161 394.435 146.393 395.815C147.03 396.528 147.725 397.18 148.463 397.758C144.162 396.95 140.376 394.497 138.204 391.095H143.475ZM150.994 391.095V397.956C149.972 397.394 146.782 395.364 144.918 391.095H150.994Z" fill="white" fill-opacity="0.86"/>
<path d="M235.644 406.98H195.634C192.567 406.98 190.079 404.787 190.079 402.08V366.788C190.079 364.082 192.565 361.888 195.634 361.888H235.644C238.712 361.888 241.2 364.081 241.2 366.788V402.08C241.199 404.786 238.712 406.98 235.644 406.98Z" fill="#7D74F5"/>
<path d="M232.166 406.98H192.156C189.089 406.98 186.601 404.787 186.601 402.08V366.788C186.601 364.082 189.087 361.888 192.156 361.888H232.166C235.234 361.888 237.722 364.081 237.722 366.788V402.08C237.722 404.786 235.235 406.98 232.166 406.98Z" fill="#9E97F7"/>
<path d="M228.295 382.119L227.484 381.497L213.404 370.684L199.324 381.497L198.371 382.231L196.232 383.871V397.719H208.876V388.716H217.734V397.719H230.376V383.718L228.295 382.119Z" fill="white"/>
<path d="M213.404 366.086L192.354 382.252L195.594 382.241L196.232 381.747L196.559 381.497L213.404 368.562L230.249 381.497L230.376 381.596L231.048 382.108L234.255 382.097L213.404 366.086Z" fill="white"/>
<path d="M396.084 364.912C396.084 364.912 395.052 365.802 392.936 365.939C392.297 365.985 391.562 365.959 390.716 365.809C389.817 365.665 388.8 365.383 387.671 364.912C387.671 364.912 388.161 346.559 379.749 333.917C371.336 321.276 360.197 303.815 369.108 294.861C378.018 285.907 392.372 298.351 397.072 319.312C401.779 340.272 396.084 364.912 396.084 364.912Z" fill="#7D74F5"/>
<path d="M392.935 365.941C392.296 365.986 391.562 365.96 390.716 365.81C393.418 333.231 376.652 308.066 376.481 307.811C376.161 307.346 376.332 306.744 376.86 306.462C377.387 306.186 378.07 306.338 378.389 306.802C378.567 307.057 395.691 332.72 392.935 365.941Z" fill="#5D51F2"/>
<path d="M424.938 335.293C405.253 363.366 406.613 369.857 406.613 369.857L404.028 369.45L401.831 369.11L398.697 368.619C396.951 356.167 407.793 303.54 427.122 303.54C446.8 303.54 431.644 325.738 424.938 335.293Z" fill="#7D74F5"/>
<path d="M424.197 319.141C424.011 319.416 407.527 345.354 404.029 369.45L401.831 369.11C405.425 344.626 422.073 318.453 422.251 318.172C422.555 317.7 423.239 317.536 423.773 317.804C424.308 318.074 424.493 318.67 424.197 319.141Z" fill="#5D51F2"/>
<path d="M381.679 368.783L381.763 368.764C381.747 368.815 381.679 368.783 381.679 368.783Z" fill="#7D74F5"/>
<path d="M387.492 367.401L385.227 367.938L383.058 368.456L381.758 368.763C381.841 368.514 380.852 366.365 367.004 350.043C361.286 343.297 346.035 325.154 360.017 322.108C372.842 319.319 387.864 358.002 387.492 367.401Z" fill="#7D74F5"/>
<path d="M385.228 367.938L383.06 368.456C379.065 352.729 362.855 333.428 362.677 333.217C362.313 332.785 362.417 332.17 362.907 331.842C363.397 331.521 364.095 331.606 364.467 332.045C365.18 332.896 381.115 351.852 385.228 367.938Z" fill="#5D51F2"/>
<path d="M414.918 408.931H370.89V366.235C370.89 363.834 373.096 361.887 375.818 361.887H409.989C412.71 361.887 414.916 363.833 414.916 366.234V408.931H414.918Z" fill="#9E97F7"/>
<path d="M113.318 387.648L113.32 397.371L105.429 397.23L104.912 386.925L113.318 387.648Z" fill="#FBA691"/>
<path d="M111.177 396.491C111.177 396.491 112.974 394.26 114.447 394.325C115.92 394.39 127.467 402.125 131.372 402.705C135.276 403.286 134.585 405.825 133.905 407.13C133.225 408.434 102.883 407.253 102.883 407.253C102.883 407.253 101.851 399.314 102.779 396.862C103.707 394.409 108.152 397.127 111.177 396.491Z" fill="#007CE6"/>
<path d="M117.59 401.921C117.453 401.959 117.3 401.951 117.163 401.887C116.898 401.761 116.8 401.469 116.943 401.236C116.99 401.158 118.132 399.315 119.711 398.574C121.813 397.585 123.498 398.613 123.568 398.658C123.814 398.81 123.872 399.11 123.698 399.327C123.525 399.544 123.184 399.595 122.938 399.441C122.892 399.413 121.72 398.722 120.222 399.423C118.934 400.027 117.909 401.677 117.9 401.693C117.832 401.806 117.718 401.883 117.59 401.921Z" fill="#FEFDFF"/>
<path d="M115.932 400.6C115.795 400.639 115.641 400.631 115.505 400.566C115.24 400.44 115.142 400.149 115.284 399.915C115.333 399.837 116.474 397.995 118.053 397.253C120.156 396.263 121.84 397.291 121.911 397.336C122.157 397.489 122.214 397.789 122.041 398.005C121.868 398.222 121.526 398.273 121.282 398.12C121.236 398.092 120.063 397.399 118.566 398.101C117.274 398.709 116.254 400.355 116.244 400.372C116.174 400.485 116.06 400.563 115.932 400.6Z" fill="#FEFDFF"/>
<path d="M119.817 402.975C119.681 403.015 119.527 403.006 119.39 402.941C119.125 402.815 119.027 402.524 119.17 402.29C119.218 402.212 120.36 400.37 121.939 399.628C124.042 398.638 125.725 399.666 125.797 399.71C126.042 399.864 126.101 400.164 125.926 400.379C125.753 400.596 125.412 400.647 125.166 400.494C125.12 400.466 123.947 399.774 122.451 400.475C121.157 401.083 120.138 402.73 120.128 402.746C120.06 402.86 119.946 402.938 119.817 402.975Z" fill="#FEFDFF"/>
<path d="M114.931 389.42L106.899 388.817L105.942 388.751L103.991 388.604C103.991 388.604 101.343 335.992 100.418 321.979C99.6116 309.805 94.558 282.481 91.2447 265.481C90.3056 260.655 89.5057 256.661 88.9781 254.081C88.5775 252.051 88.3379 250.897 88.3379 250.897L115.414 247.758C115.414 247.758 115.46 248.419 115.532 249.608C115.688 252.042 115.987 256.705 116.339 262.567C117.323 278.521 118.796 303.347 119.234 315.989C120.351 348.538 114.931 389.42 114.931 389.42Z" fill="#2A365C"/>
<path d="M116.339 262.567L91.2446 265.481C90.3056 260.655 89.5057 256.66 88.978 254.08L115.532 249.608C115.687 252.043 115.987 256.705 116.339 262.567Z" fill="#16162F"/>
<path d="M106.899 388.817L105.942 388.751C106.186 372.472 106.536 331.82 104.37 314.605C101.651 292.905 94.5968 261.334 94.5254 261.015L95.456 260.702C95.5286 261.021 102.593 292.648 105.315 314.401C107.495 331.726 107.15 372.573 106.899 388.817Z" fill="#16162F"/>
<path d="M49.8362 384.528L46.6221 393.83L39.1216 391.664L42.0344 381.675L49.8362 384.528Z" fill="#FBA691"/>
<path d="M44.4921 392.453C44.4921 392.453 47.06 390.918 48.4142 391.433C49.7683 391.949 57.5169 402.76 60.9428 404.508C64.37 406.258 62.7145 408.423 61.56 409.435C60.4055 410.446 32.4512 399.972 32.4512 399.972C32.4512 399.972 34.6343 392.217 36.4761 390.206C38.3204 388.197 41.4062 392.114 44.4921 392.453Z" fill="#007CE6"/>
<path d="M48.3438 399.519C48.1998 399.514 48.0594 399.458 47.9578 399.355C47.7605 399.155 47.7835 398.852 48.0098 398.677C48.0861 398.618 49.8856 397.245 51.6596 397.038C54.0206 396.761 55.1908 398.244 55.2392 398.306C55.4087 398.525 55.3433 398.824 55.0952 398.974C54.8471 399.123 54.5083 399.065 54.3389 398.846C54.3074 398.805 53.4833 397.795 51.8024 397.991C50.3563 398.159 48.742 399.388 48.7262 399.401C48.6161 399.486 48.4782 399.524 48.3438 399.519Z" fill="#FEFDFF"/>
<path d="M47.3155 397.771C47.1727 397.765 47.0311 397.71 46.9295 397.606C46.731 397.407 46.7552 397.102 46.9815 396.928C47.0577 396.87 48.8572 395.497 50.6313 395.29C52.9947 395.012 54.1625 396.495 54.2121 396.558C54.3815 396.777 54.3162 397.076 54.0669 397.225C53.8188 397.375 53.4788 397.318 53.3106 397.097C53.2779 397.057 52.455 396.046 50.7741 396.242C49.3219 396.412 47.7136 397.639 47.6979 397.652C47.589 397.737 47.451 397.776 47.3155 397.771Z" fill="#FEFDFF"/>
<path d="M50.0128 401.194C49.8688 401.189 49.7284 401.133 49.6267 401.031C49.4295 400.831 49.4525 400.527 49.6788 400.353C49.755 400.294 51.5545 398.921 53.3286 398.714C55.692 398.437 56.8598 399.919 56.9094 399.982C57.0788 400.201 57.0135 400.5 56.7654 400.65C56.5173 400.798 56.1773 400.741 56.009 400.521C55.9764 400.481 55.1523 399.471 53.4726 399.666C52.0204 399.836 50.4121 401.064 50.3964 401.077C50.2851 401.161 50.1471 401.2 50.0128 401.194Z" fill="#FEFDFF"/>
<path d="M50.6432 386.562L43.0943 384.07L42.1927 383.779L40.3594 383.172C40.3594 383.172 53.9057 331.882 57.3014 318.168C60.2493 306.255 63.743 278.74 65.7531 261.582C66.3255 256.713 66.7768 252.676 67.0576 250.066C67.2924 248.016 67.4158 246.849 67.4158 246.849L94.4468 250.271C94.4468 250.271 94.2895 250.918 93.9942 252.08C93.3988 254.46 92.2613 259.023 90.8067 264.749C86.8737 280.346 80.6959 304.602 77.2506 316.878C68.3694 348.488 50.6432 386.562 50.6432 386.562Z" fill="#2A365C"/>
<path d="M90.8078 264.75L65.7529 261.583C66.3253 256.714 66.7767 252.677 67.0575 250.067L93.9941 252.081C93.3999 254.461 92.2624 259.023 90.8078 264.75Z" fill="#16162F"/>
<path d="M43.093 384.07L42.1914 383.779C47.4071 368.163 60.1802 329.101 63.3617 312.009C67.3818 290.467 70.2486 258.387 70.2764 258.063L71.2688 257.984C71.2409 258.309 68.3693 290.444 64.3334 312.038C61.1338 329.239 48.3038 368.487 43.093 384.07Z" fill="#16162F"/>
<path d="M110.899 193.28C118.316 203.932 139.377 213.833 139.377 213.833C147.377 212.681 152.511 210.791 157.625 208.578C156.315 205.397 155.846 202.201 155.247 198.051C147.791 199.549 141.386 200.248 141.386 200.248C126.194 193.249 109.676 160.46 109.676 160.46C104.156 169.38 110.899 193.28 110.899 193.28Z" fill="#7D74F5"/>
<path d="M62.8175 174.443C69.0037 179.771 76.6966 177.818 86.569 173.898C96.445 169.976 89.8073 178.222 99.192 180.065C108.577 181.909 108.575 161.204 109.772 150.911C110.523 144.457 113.869 136.434 114.044 133.159L114.047 133.114C114.125 132.573 114.182 132.032 114.216 131.497C114.711 123.645 109.99 109.068 90.5564 110.543C90.5564 110.543 74.4458 111.487 71.8802 125.223C71.8802 125.223 70.779 131.564 70.0263 136.157C67.8952 149.164 62.7981 142.125 63.6936 158.122C63.9889 163.413 55.5832 168.212 62.8175 174.443Z" fill="#2A3554"/>
<path d="M117.602 255.041C101.295 264.629 65.3572 253.402 65.3572 253.402C61.4908 248.806 67.7291 238.931 70.038 227.164C71.9815 217.256 71.0836 203.668 69.537 193.583C69.2502 191.697 68.938 189.931 68.6173 188.333C66.5915 178.214 67.2329 161.483 67.2329 161.483C69.2599 160.669 72.5116 159.599 75.8068 158.576C77.8568 157.939 79.9237 157.32 81.7256 156.787C84.9252 155.84 87.3056 155.174 87.3056 155.174L100.212 157.474L102.737 158.272L106.903 159.588L109.675 160.461C109.675 160.461 111.064 171.866 112.598 178.82C113.021 180.724 113.453 182.298 113.871 183.21C115.818 187.455 115.172 189.444 112.598 194.847C111.99 196.128 111.559 197.497 111.292 198.993C111.222 199.366 111.165 199.746 111.116 200.135C110.534 204.767 111.259 210.574 112.552 218.448C114.061 227.636 117.992 245.404 119.345 251.443C119.659 252.848 118.951 254.248 117.602 255.041Z" fill="#695CFF"/>
<path d="M111.292 198.995C111.222 199.368 111.165 199.748 111.116 200.137C104.387 204.699 92.8794 210.825 80.1571 210.294C79.9066 210.283 79.7106 210.094 79.7227 209.872C79.7348 209.651 79.949 209.479 80.2007 209.489C93.1275 210.028 104.805 203.521 111.292 198.995Z" fill="#009EF3"/>
<path d="M99.1903 180.065C92.727 179.795 87.0889 173.487 86.8457 173.21C86.6908 173.035 86.7271 172.782 86.9255 172.645C87.124 172.509 87.4108 172.54 87.5657 172.716C87.625 172.782 93.5293 179.39 99.7906 179.268C100.041 179.263 100.252 179.44 100.258 179.662C100.264 179.884 100.064 180.068 99.8112 180.073C99.6042 180.076 99.3961 180.074 99.1903 180.065Z" fill="#009EF3"/>
<path d="M80.9899 237.106C80.7612 237.096 80.5724 236.937 80.5567 236.73C80.5398 236.508 80.7298 236.316 80.9815 236.301C97.7686 235.303 106.052 210.101 106.133 209.846C106.202 209.631 106.454 209.507 106.697 209.568C106.94 209.629 107.081 209.851 107.012 210.066C106.67 211.127 98.4644 236.07 81.042 237.105C81.025 237.107 81.0069 237.107 80.9899 237.106Z" fill="#009EF3"/>
<path d="M88.0523 229.67C87.8998 229.664 87.7534 229.59 87.6735 229.463C87.5513 229.269 87.6311 229.023 87.8514 228.916C96.9904 224.457 98.6931 217.394 98.7088 217.323C98.7584 217.105 98.9968 216.961 99.2461 217.007C99.493 217.051 99.6539 217.262 99.6043 217.48C99.5365 217.784 97.8205 224.972 88.2931 229.62C88.2168 229.657 88.1333 229.673 88.0523 229.67Z" fill="#009EF3"/>
<path d="M107.437 133.792C107.437 133.792 110.361 130.824 112.275 133.459C114.19 136.093 110.886 143.501 105.962 141.454L107.437 133.792Z" fill="#FD896B"/>
<path d="M108.237 141.024C108.213 141.471 108.605 141.85 109.111 141.871C109.616 141.893 110.047 141.547 110.071 141.101C110.096 140.653 109.705 140.274 109.198 140.253C108.692 140.232 108.261 140.578 108.237 141.024Z" fill="white" fill-opacity="0.5"/>
<path d="M107.184 139.173C107.369 139.18 107.545 139.085 107.606 138.929C108.509 136.638 111.432 135.816 111.463 135.807C111.685 135.746 111.806 135.546 111.733 135.359C111.66 135.172 111.42 135.07 111.198 135.129C111.061 135.167 107.839 136.064 106.8 138.703C106.726 138.89 106.847 139.092 107.071 139.154C107.106 139.165 107.145 139.172 107.184 139.173Z" fill="#D65C48"/>
<path d="M110.147 138.123C110.225 138.127 110.306 138.112 110.379 138.076C110.581 137.978 110.65 137.761 110.533 137.59C110.513 137.562 110.039 136.891 108.997 136.448C108.789 136.358 108.532 136.428 108.427 136.603C108.322 136.778 108.407 136.993 108.616 137.082C109.422 137.424 109.795 137.94 109.798 137.945C109.874 138.054 110.008 138.117 110.147 138.123Z" fill="#D65C48"/>
<path d="M85.3277 148.653L84.8823 156.956C84.8823 156.956 89.522 161.404 93.3025 161.85C97.0794 162.301 98.603 158.407 98.603 158.407L99.064 149.811L85.3277 148.653Z" fill="#FDA893"/>
<path d="M85.2793 149.558L85.082 153.243C87.4963 155.843 91.9714 156.916 98.7131 156.322L99.0156 150.716L85.2793 149.558Z" fill="#FD896B"/>
<path d="M108.906 137.372C108.737 138.259 108.545 139.16 108.315 140.057C106.791 146.012 102.135 152.319 96.6387 153.182C84.7696 155.042 80.3296 146.703 78.7746 140.623C78.6027 139.948 79.0335 139.2 78.9113 138.404C78.6221 136.518 77.8803 134.357 77.798 132.254C77.7423 130.795 77.723 129.36 77.7242 128.063C77.7302 124.405 80.3054 121.151 84.1222 119.997C89.6223 118.329 97.8997 117.172 105.449 121.512C108.237 123.115 109.889 125.938 109.793 128.947C109.716 131.244 109.49 134.244 108.906 137.372Z" fill="#FDA893"/>
<path d="M94.3262 141.421C94.1072 141.411 93.922 141.265 93.8954 141.066C93.8652 140.845 94.0443 140.645 94.2948 140.618L95.874 140.452L93.9874 135.292C93.9099 135.08 94.0419 134.853 94.2815 134.784C94.5211 134.717 94.7788 134.833 94.8563 135.044L97.0829 141.135L94.4037 141.418C94.3771 141.421 94.3516 141.422 94.3262 141.421Z" fill="#FD896B"/>
<path d="M104.927 127.066C109.418 129.105 107.702 133.854 109.124 136.331C109.216 136.492 109.319 136.524 109.433 136.449C110.042 133.261 110.275 130.203 110.35 127.86C110.445 124.792 108.699 121.914 105.757 120.275C97.7922 115.838 89.0682 117.006 83.2741 118.699C79.254 119.869 76.5432 123.184 76.5444 126.912C76.5469 128.235 76.5686 129.699 76.6304 131.185C77.371 131.616 79.2225 131.877 79.2419 132.96C79.2951 135.825 79.3483 137.787 80.0345 137.645C81.1902 137.403 82.0845 133.972 80.8997 131.681C80.8997 131.681 82.0288 130.219 86.3841 128.943C91.9702 127.308 97.3989 124.768 97.3989 124.768C97.3989 124.768 99.5408 123.748 100.405 122.575C100.405 122.575 101.506 125.513 104.927 127.066Z" fill="#2A3554"/>
<path d="M100.03 134.936C99.9824 135.822 100.462 136.563 101.101 136.59C101.74 136.616 102.296 135.919 102.343 135.033C102.391 134.147 101.911 133.406 101.272 133.38C100.633 133.352 100.077 134.049 100.03 134.936Z" fill="#2A3554"/>
<path d="M87.5276 134.414C87.4804 135.3 87.9596 136.041 88.5986 136.068C89.2376 136.094 89.7942 135.397 89.8414 134.511C89.8886 133.625 89.4094 132.884 88.7704 132.858C88.1315 132.831 87.5748 133.527 87.5276 134.414Z" fill="#2A3554"/>
<path d="M104.527 130.905C103.606 130.707 101.738 130.364 99.732 130.343C99.2043 130.337 98.7626 130.671 98.8159 131.043L98.8171 131.053C98.8595 131.35 99.208 131.564 99.6303 131.553C101 131.519 104.57 131.688 106.209 132.194C106.267 131.983 106.118 131.751 105.893 131.544C105.555 131.23 105.065 131.021 104.527 130.905Z" fill="#2A3554"/>
<path d="M85.9193 130.322C86.8559 130.189 88.7474 129.981 90.749 130.103C91.2754 130.135 91.6844 130.498 91.5985 130.866L91.5961 130.876C91.5271 131.169 91.1604 131.358 90.7405 131.317C89.3779 131.186 85.8043 131.1 84.1246 131.487C84.0859 131.274 84.2565 131.053 84.4986 130.862C84.8652 130.572 85.3723 130.398 85.9193 130.322Z" fill="#2A3554"/>
<path d="M99.2548 144.027C98.841 145.424 97.5788 147.972 93.7922 147.814C89.9972 147.656 89.0606 145.239 88.7822 143.59L99.2548 144.027Z" fill="white" fill-opacity="0.5"/>
<path d="M93.716 150.241C94.8088 150.287 95.8011 149.808 95.8423 149.787C96.0589 149.682 96.1363 149.441 96.0165 149.25C95.8967 149.06 95.6256 148.991 95.409 149.096C95.4006 149.1 94.591 149.486 93.7584 149.451C92.8568 149.414 92.0715 148.959 92.0642 148.954C91.8585 148.833 91.5801 148.881 91.4434 149.063C91.3054 149.243 91.3599 149.488 91.5656 149.609C91.6055 149.635 92.5591 150.193 93.716 150.241Z" fill="#FD896B"/>
<path d="M79.1525 132.586C79.1525 132.586 76.1296 129.018 74.1038 131.415C72.078 133.811 74.3615 141.234 79.0908 139.642L79.1525 132.586Z" fill="#FDA893"/>
<path d="M76.169 139.685C76.1448 140.132 76.5369 140.511 77.0428 140.533C77.5498 140.554 77.9794 140.208 78.0036 139.762C78.0278 139.315 77.6357 138.936 77.1299 138.914C76.6228 138.893 76.1932 139.238 76.169 139.685Z" fill="white" fill-opacity="0.5"/>
<path d="M78.1998 137.341C78.0291 137.334 77.8767 137.228 77.8367 137.073C77.2401 134.786 74.6383 133.76 74.6117 133.75C74.4132 133.673 74.3225 133.47 74.4084 133.295C74.4943 133.12 74.7254 133.04 74.9239 133.116C75.0461 133.163 77.913 134.285 78.6015 136.918C78.6499 137.104 78.518 137.29 78.3075 137.334C78.2712 137.34 78.2349 137.343 78.1998 137.341Z" fill="#FD896B"/>
<path d="M75.5849 136.092C75.5123 136.089 75.4397 136.069 75.3768 136.028C75.2001 135.917 75.1601 135.701 75.2848 135.546C75.3054 135.52 75.8088 134.908 76.8108 134.562C77.0117 134.492 77.2392 134.581 77.319 134.758C77.3977 134.936 77.2985 135.137 77.0964 135.206C76.3219 135.474 75.9274 135.943 75.9237 135.947C75.8427 136.047 75.7144 136.097 75.5849 136.092Z" fill="#FD896B"/>
<path d="M139.699 211.446L150.559 219.541C151.932 220.564 153.986 220.411 155.144 219.2L178.39 194.935L188.004 184.901L172.175 173.099L166.48 179.044L139.314 207.401C138.154 208.611 138.326 210.421 139.699 211.446Z" fill="#695CFF"/>
<path d="M166.48 179.044C168.507 183.881 172.111 190.006 178.391 194.935L188.005 184.901L172.175 173.099L166.48 179.044Z" fill="#695CFF"/>
<path d="M102.824 257.793L104.903 259.343C107.043 260.938 110.243 260.701 112.051 258.813L150.043 219.156L140.215 211.831L102.223 251.49C100.416 253.376 100.685 256.198 102.824 257.793Z" fill="#2A3554"/>
<path d="M169.653 110.233C148.751 131.828 151.65 164.283 176.135 182.723C200.619 201.162 237.413 198.601 258.316 177.006C279.22 155.41 276.32 122.954 251.837 104.514C227.352 86.074 190.558 88.6359 169.653 110.233ZM176.452 115.353C194.123 97.0975 225.336 94.9242 246.032 110.511C266.729 126.098 269.188 153.63 251.517 171.885C233.849 190.139 202.636 192.312 181.94 176.725C161.243 161.139 158.783 133.607 176.452 115.353Z" fill="#2A3554"/>
<path opacity="0.5" d="M166.962 130.405C158.702 153.274 173.074 177.81 199.003 185.097C201.228 185.722 203.466 186.201 205.708 186.538C211.51 187.412 217.315 187.342 222.889 186.43C228.7 185.48 234.259 183.62 239.29 180.967C247.203 176.804 253.825 170.691 258.125 163.1C259.252 161.112 260.219 159.019 261.008 156.835C269.269 133.963 254.898 109.426 228.968 102.139C226.492 101.443 223.997 100.928 221.502 100.588C211.996 99.291 202.508 100.52 194.083 103.806C188.718 105.893 183.783 108.815 179.545 112.447C175.479 115.93 172.056 120.067 169.507 124.747C168.523 126.555 167.672 128.443 166.962 130.405Z" fill="white" fill-opacity="0.5"/>
<path opacity="0.5" d="M194.084 103.806L239.29 180.966C247.203 176.803 253.825 170.69 258.125 163.099L221.503 100.588C211.997 99.291 202.508 100.52 194.084 103.806Z" fill="white" fill-opacity="0.5"/>
<path opacity="0.5" d="M169.508 124.747L205.707 186.537C211.51 187.411 217.315 187.341 222.889 186.429L179.546 112.447C175.48 115.931 172.057 120.067 169.508 124.747Z" fill="white" fill-opacity="0.5"/>
<path d="M114.584 232.11L116.567 232.194C118.34 232.267 119.736 231.404 120.608 230.04C120.992 229.436 121.531 228.326 121.882 227.952C122.868 226.899 125.495 225.174 126.447 225.158C127.398 225.142 127.139 226.69 126.433 227.344C125.727 227.999 124.624 228.822 124.006 229.762C123.387 230.703 128.487 232.874 130.574 233.417C132.663 233.959 136.427 233.115 136.704 234.674C136.982 236.235 134.187 236.346 134.187 236.346C134.187 236.346 134.927 237.772 132.555 238.829C132.555 238.829 132.894 240.21 131.361 240.874C131.361 240.874 131.438 242.609 129.68 242.991C127.922 243.373 122.437 244.531 112.127 238.407L114.584 232.11Z" fill="#FDA893"/>
<path d="M79.257 191.031C80.5349 202.385 86.0653 210.917 86.0653 210.917C86.0653 210.917 91.3681 216.684 100.301 222.803C106.506 227.054 116.567 232.193 116.567 232.193C114.678 234.159 113.205 238.139 113.828 239.374C94.385 234.667 75.5297 219.246 75.5297 219.246C61.0165 202.897 63.1947 167.85 63.1947 167.85C63.1947 167.85 63.9728 162.67 67.2318 161.482C67.2318 161.482 73.5499 163.865 75.4281 170.614C77.3062 177.365 79.257 191.031 79.257 191.031Z" fill="#7D74F5"/>
<path d="M177.287 197.125C177.287 197.125 172.598 195.439 170.363 196.152C168.128 196.865 174.046 200.02 174.046 200.02C174.046 200.02 166.868 196.256 165.522 197.596C164.175 198.935 171.031 202.769 171.031 202.769C171.031 202.769 165.728 200.872 164.579 201.808C163.431 202.744 168.31 205.727 168.31 205.727C168.31 205.727 163.934 204.598 162.975 205.224C162.016 205.848 165.791 208.792 168.241 209.633C170.692 210.473 171.259 207.397 171.259 207.397C171.259 207.397 173.699 205.675 173.456 204.399C173.456 204.399 175.965 203.055 176.215 201.584C176.215 201.584 179.789 199.063 177.287 197.125Z" fill="#FDA893"/>
</svg>
