<svg width="41" height="41" viewBox="0 0 41 41" fill="none" xmlns="http://www.w3.org/2000/svg">
<g clip-path="url(#clip0_1218_5235)">
<path d="M40.1509 10.67H28.5742V5.1625H30.5434C30.7091 5.1625 30.8681 5.09665 30.9853 4.97944C31.1025 4.86223 31.1684 4.70326 31.1684 4.5375V0.6875C31.1684 0.52174 31.1025 0.362769 30.9853 0.245558C30.8681 0.128348 30.7091 0.0625 30.5434 0.0625L11.0084 0.0625C10.8426 0.0625 10.6836 0.128348 10.5664 0.245558C10.4492 0.362769 10.3834 0.52174 10.3834 0.6875V4.5375C10.3834 4.70326 10.4492 4.86223 10.5664 4.97944C10.6836 5.09665 10.8426 5.1625 11.0084 5.1625H12.9775V10.67H1.40085C1.23617 10.6702 1.0782 10.7353 0.9612 10.8512C0.844203 10.9671 0.777608 11.1245 0.775853 11.2892L0.75002 14.1142C0.74936 14.1967 0.765034 14.2786 0.796137 14.355C0.827241 14.4315 0.87316 14.501 0.931252 14.5596C0.989343 14.6183 1.05846 14.6648 1.13462 14.6966C1.21078 14.7285 1.29248 14.7449 1.37502 14.745H12.9775V39.4375C12.9775 39.6033 13.0434 39.7622 13.1606 39.8794C13.2778 39.9967 13.4368 40.0625 13.6025 40.0625C13.7683 40.0625 13.9273 39.9967 14.0445 39.8794C14.1617 39.7622 14.2275 39.6033 14.2275 39.4375V5.1625H15.9775C16.1433 5.1625 16.3023 5.09665 16.4195 4.97944C16.5367 4.86223 16.6025 4.70326 16.6025 4.5375C16.6025 4.37174 16.5367 4.21277 16.4195 4.09556C16.3023 3.97835 16.1433 3.9125 15.9775 3.9125H11.6334V1.3125H29.9184V3.9125H18.2417C18.0759 3.9125 17.917 3.97835 17.7997 4.09556C17.6825 4.21277 17.6167 4.37174 17.6167 4.5375C17.6167 4.70326 17.6825 4.86223 17.7997 4.97944C17.917 5.09665 18.0759 5.1625 18.2417 5.1625H27.325V39.4375C27.325 39.6033 27.3909 39.7622 27.5081 39.8794C27.6253 39.9967 27.7843 40.0625 27.95 40.0625C28.1158 40.0625 28.2748 39.9967 28.392 39.8794C28.5092 39.7622 28.575 39.6033 28.575 39.4375V14.745H40.1509C40.3166 14.745 40.4756 14.6792 40.5928 14.5619C40.71 14.4447 40.7759 14.2858 40.7759 14.12V11.295C40.7759 11.1292 40.71 10.9703 40.5928 10.8531C40.4756 10.7358 40.3166 10.67 40.1509 10.67ZM2.00585 13.495L2.02002 11.92H12.9775V13.495H2.00585ZM39.5259 13.495H28.5742V11.92H39.5259V13.495Z" fill="#393939"/>
<path d="M24.823 9.28505H22.7742V7.23755C22.7742 7.07179 22.7083 6.91282 22.591 6.79561C22.4738 6.6784 22.3147 6.61255 22.1488 6.61255H19.377C19.2112 6.61255 19.0521 6.6784 18.9348 6.79561C18.8175 6.91282 18.7516 7.07179 18.7516 7.23755V9.28505H16.7028C16.5369 9.28505 16.3779 9.3509 16.2606 9.46811C16.1433 9.58532 16.0774 9.74429 16.0774 9.91005V12.68C16.0774 12.8458 16.1433 13.0048 16.2606 13.122C16.3779 13.2392 16.5369 13.305 16.7028 13.305H18.7516V15.3534C18.7516 15.5191 18.8175 15.6781 18.9348 15.7953C19.0521 15.9125 19.2112 15.9784 19.377 15.9784H22.1488C22.3147 15.9784 22.4738 15.9125 22.591 15.7953C22.7083 15.6781 22.7742 15.5191 22.7742 15.3534V13.305H24.823C24.9889 13.305 25.148 13.2392 25.2653 13.122C25.3826 13.0048 25.4484 12.8458 25.4484 12.68V9.91005C25.4484 9.74429 25.3826 9.58532 25.2653 9.46811C25.148 9.3509 24.9889 9.28505 24.823 9.28505ZM24.1976 12.055H22.1488C21.9829 12.055 21.8239 12.1209 21.7066 12.2381C21.5893 12.3553 21.5234 12.5143 21.5234 12.68V14.7292H20.0024V12.68C20.0024 12.5143 19.9365 12.3553 19.8193 12.2381C19.702 12.1209 19.5429 12.055 19.377 12.055H17.3282V10.535H19.377C19.5429 10.535 19.702 10.4692 19.8193 10.352C19.9365 10.2348 20.0024 10.0758 20.0024 9.91005V7.86255H21.5234V9.91005C21.5234 10.0758 21.5893 10.2348 21.7066 10.352C21.8239 10.4692 21.9829 10.535 22.1488 10.535H24.1976V12.055Z" fill="#393939"/>
<path d="M2.59985 15.2576C2.43409 15.2576 2.27512 15.3234 2.15791 15.4406C2.0407 15.5578 1.97485 15.7168 1.97485 15.8826V39.4376C1.97485 39.6033 2.0407 39.7623 2.15791 39.8795C2.27512 39.9967 2.43409 40.0626 2.59985 40.0626C2.76561 40.0626 2.92459 39.9967 3.0418 39.8795C3.15901 39.7623 3.22485 39.6033 3.22485 39.4376V15.8826C3.22485 15.7168 3.15901 15.5578 3.0418 15.4406C2.92459 15.3234 2.76561 15.2576 2.59985 15.2576Z" fill="#393939"/>
<path d="M10.628 16.3508H5.13444C4.96857 16.3508 4.8095 16.4167 4.69221 16.5339C4.57492 16.6511 4.50903 16.8101 4.50903 16.9758V19.3092C4.50903 19.4749 4.57492 19.6339 4.69221 19.7511C4.8095 19.8683 4.96857 19.9342 5.13444 19.9342H10.628C10.7939 19.9342 10.9529 19.8683 11.0702 19.7511C11.1875 19.6339 11.2534 19.4749 11.2534 19.3092V16.9792C11.2538 16.8968 11.238 16.8152 11.2067 16.739C11.1755 16.6627 11.1295 16.5935 11.0714 16.5351C11.0133 16.4767 10.9442 16.4303 10.8681 16.3987C10.792 16.3671 10.7104 16.3508 10.628 16.3508ZM10.0026 18.6842H5.75984V17.6008H10.0059L10.0026 18.6842Z" fill="#393939"/>
<path d="M10.628 22.1043H5.13444C4.96857 22.1043 4.8095 22.1701 4.69221 22.2873C4.57492 22.4045 4.50903 22.5635 4.50903 22.7293V25.0626C4.50903 25.2284 4.57492 25.3873 4.69221 25.5045C4.8095 25.6217 4.96857 25.6876 5.13444 25.6876H10.628C10.7104 25.688 10.7921 25.6722 10.8683 25.641C10.9446 25.6098 11.0139 25.5638 11.0724 25.5057C11.1308 25.4476 11.1772 25.3786 11.2088 25.3025C11.2404 25.2265 11.2567 25.1449 11.2567 25.0626V22.7293C11.2567 22.6469 11.2404 22.5654 11.2088 22.4893C11.1772 22.4133 11.1308 22.3442 11.0724 22.2861C11.0139 22.2281 10.9446 22.1821 10.8683 22.1509C10.7921 22.1197 10.7104 22.1038 10.628 22.1043ZM10.0026 24.4376H5.75984V23.3543H10.0059L10.0026 24.4376Z" fill="#393939"/>
<path d="M23.5098 25.2292H18.0163C17.8504 25.2292 17.6913 25.2951 17.574 25.4123C17.4568 25.5295 17.3909 25.6885 17.3909 25.8542V39.4376C17.3909 39.6033 17.4568 39.7623 17.574 39.8795C17.6913 39.9967 17.8504 40.0626 18.0163 40.0626C18.1821 40.0626 18.3412 39.9967 18.4585 39.8795C18.5758 39.7623 18.6417 39.6033 18.6417 39.4376V26.4792H22.8844V39.4376C22.8844 39.6033 22.9503 39.7623 23.0676 39.8795C23.1849 39.9967 23.344 40.0626 23.5098 40.0626C23.6757 40.0626 23.8348 39.9967 23.952 39.8795C24.0693 39.7623 24.1352 39.6033 24.1352 39.4376V25.8542C24.1352 25.6885 24.0693 25.5295 23.952 25.4123C23.8348 25.2951 23.6757 25.2292 23.5098 25.2292Z" fill="#393939"/>
<path d="M10.628 27.8574H5.13444C4.96857 27.8574 4.8095 27.9233 4.69221 28.0405C4.57492 28.1577 4.50903 28.3167 4.50903 28.4824V30.8158C4.50903 30.9815 4.57492 31.1405 4.69221 31.2577C4.8095 31.3749 4.96857 31.4408 5.13444 31.4408H10.628C10.7939 31.4408 10.9529 31.3749 11.0702 31.2577C11.1875 31.1405 11.2534 30.9815 11.2534 30.8158V28.4791C11.2525 28.3139 11.1862 28.1558 11.069 28.0393C10.9518 27.9228 10.7933 27.8574 10.628 27.8574ZM10.0026 30.1908H5.75984V29.1074H10.0059L10.0026 30.1908Z" fill="#393939"/>
<path d="M10.628 33.6101H5.13444C4.96857 33.6101 4.8095 33.676 4.69221 33.7932C4.57492 33.9104 4.50903 34.0693 4.50903 34.2351V36.5684C4.50903 36.7342 4.57492 36.8932 4.69221 37.0104C4.8095 37.1276 4.96857 37.1934 5.13444 37.1934H10.628C10.7939 37.1934 10.9529 37.1276 11.0702 37.0104C11.1875 36.8932 11.2534 36.7342 11.2534 36.5684V34.2351C11.2534 34.0693 11.1875 33.9104 11.0702 33.7932C10.9529 33.676 10.7939 33.6101 10.628 33.6101ZM10.0026 35.9434H5.75984V34.8601H10.0059L10.0026 35.9434Z" fill="#393939"/>
<path d="M38.925 15.2576C38.7593 15.2576 38.6003 15.3234 38.4831 15.4406C38.3659 15.5578 38.3 15.7168 38.3 15.8826V39.4376C38.3 39.6033 38.3659 39.7623 38.4831 39.8795C38.6003 39.9967 38.7593 40.0626 38.925 40.0626C39.0908 40.0626 39.2498 39.9967 39.367 39.8795C39.4842 39.7623 39.55 39.6033 39.55 39.4376V15.8826C39.55 15.7168 39.4842 15.5578 39.367 15.4406C39.2498 15.3234 39.0908 15.2576 38.925 15.2576Z" fill="#393939"/>
<path d="M36.3914 16.3508H30.8979C30.732 16.3508 30.5729 16.4167 30.4556 16.5339C30.3384 16.6511 30.2725 16.8101 30.2725 16.9758V19.3092C30.2725 19.4749 30.3384 19.6339 30.4556 19.7511C30.5729 19.8683 30.732 19.9342 30.8979 19.9342H36.3914C36.5573 19.9342 36.7164 19.8683 36.8336 19.7511C36.9509 19.6339 37.0168 19.4749 37.0168 19.3092V16.9792C37.0173 16.8968 37.0014 16.8152 36.9702 16.739C36.9389 16.6627 36.8929 16.5935 36.8348 16.5351C36.7767 16.4767 36.7076 16.4303 36.6315 16.3987C36.5554 16.3671 36.4738 16.3508 36.3914 16.3508ZM35.766 18.6842H31.5199V17.6008H35.7627L35.766 18.6842Z" fill="#393939"/>
<path d="M36.3914 22.1042H30.8979C30.732 22.1042 30.5729 22.1701 30.4556 22.2873C30.3384 22.4045 30.2725 22.5635 30.2725 22.7292V25.0626C30.2725 25.2283 30.3384 25.3873 30.4556 25.5045C30.5729 25.6217 30.732 25.6876 30.8979 25.6876H36.3914C36.5573 25.6876 36.7164 25.6217 36.8336 25.5045C36.9509 25.3873 37.0168 25.2283 37.0168 25.0626V22.7292C37.0168 22.6472 37.0006 22.5659 36.9692 22.4901C36.9378 22.4142 36.8917 22.3453 36.8336 22.2873C36.7756 22.2293 36.7066 22.1832 36.6307 22.1518C36.5549 22.1204 36.4735 22.1042 36.3914 22.1042ZM35.766 24.4376H31.5199V23.3542H35.7627L35.766 24.4376Z" fill="#393939"/>
<path d="M36.3914 27.8574H30.8979C30.732 27.8574 30.5729 27.9233 30.4556 28.0405C30.3384 28.1577 30.2725 28.3167 30.2725 28.4824V30.8158C30.2725 30.9815 30.3384 31.1405 30.4556 31.2577C30.5729 31.3749 30.732 31.4408 30.8979 31.4408H36.3914C36.5573 31.4408 36.7164 31.3749 36.8336 31.2577C36.9509 31.1405 37.0168 30.9815 37.0168 30.8158V28.4791C37.0159 28.3139 36.9497 28.1558 36.8325 28.0393C36.7153 27.9228 36.5567 27.8574 36.3914 27.8574ZM35.766 30.1908H31.5199V29.1074H35.7627L35.766 30.1908Z" fill="#393939"/>
<path d="M36.3914 33.6101H30.8979C30.732 33.6101 30.5729 33.676 30.4556 33.7932C30.3384 33.9104 30.2725 34.0693 30.2725 34.2351V36.5684C30.2725 36.7342 30.3384 36.8932 30.4556 37.0104C30.5729 37.1276 30.732 37.1934 30.8979 37.1934H36.3914C36.5573 37.1934 36.7164 37.1276 36.8336 37.0104C36.9509 36.8932 37.0168 36.7342 37.0168 36.5684V34.2351C37.0168 34.153 37.0006 34.0718 36.9692 33.9959C36.9378 33.9201 36.8917 33.8512 36.8336 33.7932C36.7756 33.7351 36.7066 33.6891 36.6307 33.6577C36.5549 33.6263 36.4735 33.6101 36.3914 33.6101ZM35.766 35.9434H31.5199V34.8601H35.7627L35.766 35.9434Z" fill="#393939"/>
<path d="M23.5098 18.6858H18.0163C17.8504 18.6858 17.6913 18.7516 17.574 18.8689C17.4568 18.9861 17.3909 19.145 17.3909 19.3108C17.3909 19.4766 17.4568 19.6355 17.574 19.7527C17.6913 19.8699 17.8504 19.9358 18.0163 19.9358H23.5098C23.6757 19.9358 23.8348 19.8699 23.952 19.7527C24.0693 19.6355 24.1352 19.4766 24.1352 19.3108C24.1352 19.145 24.0693 18.9861 23.952 18.8689C23.8348 18.7516 23.6757 18.6858 23.5098 18.6858Z" fill="#393939"/>
<path d="M23.5098 21.9568H18.0163C17.8504 21.9568 17.6913 22.0226 17.574 22.1398C17.4568 22.2571 17.3909 22.416 17.3909 22.5818C17.3909 22.7475 17.4568 22.9065 17.574 23.0237C17.6913 23.1409 17.8504 23.2068 18.0163 23.2068H23.5098C23.6757 23.2068 23.8348 23.1409 23.952 23.0237C24.0693 22.9065 24.1352 22.7475 24.1352 22.5818C24.1352 22.416 24.0693 22.2571 23.952 22.1398C23.8348 22.0226 23.6757 21.9568 23.5098 21.9568Z" fill="#393939"/>
</g>
<defs>
<clipPath id="clip0_1218_5235">
<rect width="40.0259" height="40" fill="white" transform="translate(0.75 0.0625)"/>
</clipPath>
</defs>
</svg>
