<svg width="35" height="38" viewBox="0 0 35 38" fill="none" xmlns="http://www.w3.org/2000/svg">
<path d="M4.375 33.7913H7L23.1719 16.182L20.5469 13.3236L4.375 30.933V33.7913ZM31.1875 13.2215L23.2188 4.64655L25.8438 1.78822C26.5625 1.00558 27.4453 0.614258 28.4922 0.614258C29.5391 0.614258 30.4219 1.00558 31.1406 1.78822L33.7656 4.64655C34.4844 5.42919 34.8594 6.37346 34.8906 7.47936C34.9219 8.58526 34.5781 9.52953 33.8594 10.3122L31.1875 13.2215ZM28.4688 16.233L8.59375 37.8747H0.625V29.1976L20.5 7.55592L28.4688 16.233ZM21.8594 14.7528L20.5469 13.3236L23.1719 16.182L21.8594 14.7528Z" fill="#6A6A6A"/>
</svg>
