<svg width="46" height="37" viewBox="0 0 46 37" fill="none" xmlns="http://www.w3.org/2000/svg">
<path d="M23.5 1.625H38.5V10.375H1V1.625H16" stroke="#393939" stroke-width="2" stroke-linejoin="round"/>
<path d="M44.25 10.375H35.5L36.75 1.625H43L44.25 10.375Z" stroke="#393939" stroke-width="2" stroke-linejoin="round"/>
<path d="M1 10.375V35.375H33.5V10.375" stroke="#393939" stroke-width="2" stroke-linejoin="round"/>
<path d="M7.25 30.066V22.4817H17.25V30.066" stroke="#393939" stroke-width="2" stroke-linejoin="round"/>
<path d="M12.25 22.4817V30.066" stroke="#393939" stroke-width="2" stroke-linejoin="round"/>
<path d="M22.25 30.066V22.4817H32.25V30.066" stroke="#393939" stroke-width="2" stroke-linejoin="round"/>
<path d="M27.25 22.4817V30.066" stroke="#393939" stroke-width="2" stroke-linejoin="round"/>
<path d="M3.5 20.5857H36" stroke="#393939" stroke-width="2" stroke-linejoin="round"/>
<path d="M3.5 13.0015H36" stroke="#393939" stroke-width="2" stroke-linejoin="round"/>
<path d="M8.5 18.6896L13.5 14.8975" stroke="#393939" stroke-width="2" stroke-linejoin="round"/>
<path d="M17.25 18.6896L22.25 14.8975" stroke="#393939" stroke-width="2" stroke-linejoin="round"/>
<path d="M26 18.6896L31 14.8975" stroke="#393939" stroke-width="2" stroke-linejoin="round"/>
<path d="M18.5 3.04712V3.99515C18.5 4.24659 18.6317 4.48772 18.8661 4.66551C19.1005 4.8433 19.4185 4.94319 19.75 4.94319C20.0815 4.94319 20.3995 4.8433 20.6339 4.66551C20.8683 4.48772 21 4.24659 21 3.99515V3.04712" stroke="#393939" stroke-width="2" stroke-linejoin="round"/>
</svg>
