<svg width="21" height="15" viewBox="0 0 21 15" fill="none" xmlns="http://www.w3.org/2000/svg">
<path d="M0.0830078 14.7918V8.54183C0.0830078 8.07308 0.178494 7.64773 0.369466 7.26579C0.560438 6.88384 0.812174 6.5453 1.12467 6.25016V3.3335C1.12467 2.46544 1.42849 1.72759 2.03613 1.11995C2.64377 0.512315 3.38162 0.208496 4.24967 0.208496H8.41634C8.81565 0.208496 9.18891 0.282281 9.53613 0.42985C9.88335 0.57742 10.2045 0.781413 10.4997 1.04183C10.7948 0.781413 11.116 0.57742 11.4632 0.42985C11.8104 0.282281 12.1837 0.208496 12.583 0.208496H16.7497C17.6177 0.208496 18.3556 0.512315 18.9632 1.11995C19.5709 1.72759 19.8747 2.46544 19.8747 3.3335V6.25016C20.1872 6.5453 20.4389 6.88384 20.6299 7.26579C20.8209 7.64773 20.9163 8.07308 20.9163 8.54183V14.7918H18.833V12.7085H2.16634V14.7918H0.0830078ZM11.5413 5.41683H17.7913V3.3335C17.7913 3.03836 17.6915 2.79096 17.4919 2.59131C17.2922 2.39166 17.0448 2.29183 16.7497 2.29183H12.583C12.2879 2.29183 12.0405 2.39166 11.8408 2.59131C11.6412 2.79096 11.5413 3.03836 11.5413 3.3335V5.41683ZM3.20801 5.41683H9.45801V3.3335C9.45801 3.03836 9.35818 2.79096 9.15853 2.59131C8.95888 2.39166 8.71148 2.29183 8.41634 2.29183H4.24967C3.95454 2.29183 3.70714 2.39166 3.50749 2.59131C3.30783 2.79096 3.20801 3.03836 3.20801 3.3335V5.41683ZM2.16634 10.6252H18.833V8.54183C18.833 8.24669 18.7332 7.99929 18.5335 7.79964C18.3339 7.59999 18.0865 7.50016 17.7913 7.50016H3.20801C2.91287 7.50016 2.66547 7.59999 2.46582 7.79964C2.26617 7.99929 2.16634 8.24669 2.16634 8.54183V10.6252Z" fill="#6A6A6A"/>
</svg>
