<svg width="37" height="37" viewBox="0 0 37 37" fill="none" xmlns="http://www.w3.org/2000/svg">
<path d="M11.3176 28.3226C11.5356 28.529 11.8249 28.6383 12.1218 28.6264C12.4186 28.6146 12.6987 28.4826 12.9005 28.2595C13.1022 28.0363 13.209 27.7404 13.1975 27.4366C13.1859 27.1329 13.0569 26.8463 12.8388 26.6399C11.9447 25.7832 11.2328 24.7471 10.7475 23.5963C10.2623 22.4455 10.014 21.2048 10.0183 19.9515C10.0316 19.7947 10.0128 19.6368 9.96321 19.4878C9.91364 19.3388 9.83434 19.202 9.73035 19.086C9.62636 18.97 9.49995 18.8774 9.35913 18.8141C9.21832 18.7507 9.06617 18.718 8.91234 18.718C8.75852 18.718 8.60637 18.7507 8.46555 18.8141C8.32474 18.8774 8.19832 18.97 8.09433 19.086C7.99034 19.202 7.91105 19.3388 7.86147 19.4878C7.8119 19.6368 7.79313 19.7947 7.80636 19.9515C7.79425 21.5193 8.10002 23.0727 8.70437 24.5136C9.30872 25.9544 10.1985 27.2514 11.3176 28.3226Z" fill="#393939"/>
<path d="M35.6905 6.65843L16.0212 4.63086C15.3305 3.73906 16.5146 3.2511 16.7942 2.33406H35.6658C35.9602 2.33406 36.2426 2.2144 36.4507 2.0014C36.6589 1.7884 36.7759 1.49951 36.7759 1.19828C36.7759 0.897052 36.6589 0.608162 36.4507 0.395162C36.2426 0.182162 35.9602 0.0625 35.6658 0.0625L1.88597 0.0625C1.59156 0.0625 1.3092 0.182162 1.10102 0.395162C0.892835 0.608162 0.775879 0.897052 0.775879 1.19828C0.775879 1.49951 0.892835 1.7884 1.10102 2.0014C1.3092 2.2144 1.59156 2.33406 1.88597 2.33406H5.8741C5.6235 2.6881 5.45735 3.09723 5.38894 3.52873L2.09977 3.1922C1.81663 3.17742 1.5387 3.27403 1.32297 3.46223C1.10723 3.65042 0.970047 3.91594 0.939547 4.20432C0.909047 4.4927 0.987543 4.78209 1.15894 5.01315C1.33033 5.2442 1.58163 5.39941 1.86131 5.44694L5.89877 5.86759C6.40859 6.507 6.8773 6.94448 6.19479 7.66802C5.65594 8.25463 5.35596 9.02938 5.35596 9.83441C5.35596 10.6394 5.65594 11.4142 6.19479 12.0008C6.30211 12.084 6.38914 12.1914 6.44906 12.3148C6.50899 12.4381 6.54017 12.574 6.54017 12.7117C6.54017 12.8495 6.50899 12.9853 6.44906 13.1087C6.38914 13.232 6.30211 13.3395 6.19479 13.4226C5.67048 13.9988 5.37698 14.7555 5.3725 15.5428H3.17698C3.03089 15.5416 2.88605 15.5702 2.75087 15.6269C2.61569 15.6836 2.49288 15.7672 2.38958 15.8729C2.28628 15.9786 2.20455 16.1043 2.14915 16.2426C2.09375 16.3809 2.06578 16.5291 2.06688 16.6785C2.07135 19.8885 2.9441 23.0345 4.58847 25.7683C6.23283 28.502 8.58465 30.7167 11.3835 32.1672V33.5385C11.3835 34.2079 11.6434 34.8499 12.106 35.3232C12.5686 35.7966 13.1961 36.0625 13.8503 36.0625H24.1783C24.8326 36.0625 25.4601 35.7966 25.9227 35.3232C26.3853 34.8499 26.6452 34.2079 26.6452 33.5385V32.1672C29.4477 30.7198 31.8034 28.5063 33.4509 25.7722C35.0984 23.0381 35.9732 19.8904 35.9783 16.6785C35.9783 16.3773 35.8613 16.0884 35.6531 15.8754C35.4449 15.6624 35.1626 15.5428 34.8682 15.5428H15.8238C15.8238 15.2904 15.9061 15.181 16.1528 14.8865C16.6958 14.3004 16.9986 13.5235 16.9986 12.7159C16.9986 11.9083 16.6958 11.1314 16.1528 10.5453C15.8896 10.2256 15.8156 10.1331 15.8156 9.83862C15.8156 9.54415 15.8896 9.4432 16.1528 9.1235C16.6752 8.54947 16.9685 7.79609 16.9751 7.01179L35.4438 8.92158C35.7371 8.95505 36.0314 8.86793 36.2619 8.67938C36.4925 8.49084 36.6404 8.21632 36.6731 7.9162C36.7058 7.61609 36.6207 7.31498 36.4364 7.0791C36.2521 6.84322 35.9838 6.6919 35.6905 6.65843ZM13.6119 4.37846L11.6959 4.18496C11.6384 3.4446 12.4278 3.13331 12.6662 2.33406H14.1299C13.7271 2.93173 13.5436 3.65582 13.6119 4.37846ZM7.89694 3.36888C8.16507 3.06251 8.3818 2.71284 8.53833 2.33406H10.002C9.67179 2.80609 9.48838 3.36905 9.47574 3.94939L7.61736 3.7643C7.69128 3.61929 7.78546 3.48608 7.89694 3.36888ZM7.89694 10.5453C7.78962 10.4622 7.70259 10.3547 7.64267 10.2314C7.58274 10.108 7.55156 9.97215 7.55156 9.83441C7.55156 9.69667 7.58274 9.5608 7.64267 9.43746C7.70259 9.31412 7.78962 9.20666 7.89694 9.1235C8.25059 8.72777 8.50378 8.24921 8.63426 7.72988C8.76474 7.21056 8.76851 6.66639 8.64523 6.14523L10.3885 6.33032C10.4793 6.4141 10.5506 6.51754 10.5974 6.6331C10.6442 6.74867 10.6652 6.87344 10.6589 6.99836C10.6526 7.12327 10.6191 7.24517 10.561 7.35519C10.5028 7.46521 10.4214 7.56058 10.3227 7.63436C9.7783 8.21809 9.47457 8.99392 9.47457 9.80076C9.47457 10.6076 9.7783 11.3834 10.3227 11.9672C10.5858 12.2869 10.6516 12.3878 10.6516 12.6823C10.6516 12.9767 10.5858 13.0693 10.3227 13.389C9.7984 13.9651 9.50489 14.7219 9.50041 15.5091H7.56802C7.56802 15.2567 7.65025 15.1473 7.89694 14.8529C8.42689 14.2667 8.72125 13.4976 8.72125 12.6991C8.72125 11.9006 8.42689 11.1315 7.89694 10.5453ZM25.0911 30.4257C24.8972 30.5138 24.7325 30.6578 24.6171 30.8401C24.5018 31.0223 24.4408 31.235 24.4415 31.4521V33.5385C24.4394 33.6093 24.411 33.6765 24.3621 33.7266C24.3132 33.7766 24.2475 33.8057 24.1783 33.8078H13.8668C13.7977 33.8057 13.7319 33.7766 13.683 33.7266C13.6341 33.6765 13.6057 33.6093 13.6037 33.5385V31.4521C13.6044 31.235 13.5434 31.0223 13.428 30.8401C13.3127 30.6578 13.148 30.5138 12.954 30.4257C10.5458 29.3043 8.47531 27.5429 6.95824 25.3249C5.44118 23.1069 4.53298 20.5134 4.32819 17.8143H33.6841C33.4823 20.5098 32.579 23.1009 31.068 25.3186C29.5569 27.5362 27.4932 29.2996 25.0911 30.4257ZM14.7713 6.95289C14.7713 7.24736 14.7055 7.34831 14.4424 7.66802C13.898 8.25174 13.5943 9.02758 13.5943 9.83441C13.5943 10.6412 13.898 11.4171 14.4424 12.0008C14.7055 12.3205 14.7713 12.4215 14.7713 12.7159C14.7713 13.0104 14.7055 13.1029 14.4424 13.4226C13.9181 13.9988 13.6246 14.7555 13.6201 15.5428H11.6959C11.6959 15.2904 11.7782 15.181 12.0249 14.8865C12.5679 14.3004 12.8707 13.5235 12.8707 12.7159C12.8707 11.9083 12.5679 11.1314 12.0249 10.5453C11.7617 10.2256 11.6877 10.1331 11.6877 9.83862C11.6877 9.54415 11.7617 9.4432 12.0249 9.1235C12.3288 8.78634 12.5592 8.38699 12.701 7.95188C12.8427 7.51678 12.8925 7.05583 12.8471 6.59954L14.7713 6.79304C14.7748 6.84627 14.7748 6.89967 14.7713 6.95289Z" fill="#393939"/>
</svg>
