<svg width="50" height="50" viewBox="0 0 50 50" fill="none" xmlns="http://www.w3.org/2000/svg">
<rect width="50" height="50" rx="25" fill="#EFEFEF"/>
<g clip-path="url(#clip0_1218_4014)">
<path d="M16.4062 33.5938C16.4062 33.3865 16.4886 33.1878 16.6351 33.0413C16.7816 32.8948 16.9803 32.8125 17.1875 32.8125H32.8125C33.0197 32.8125 33.2184 32.8948 33.3649 33.0413C33.5114 33.1878 33.5938 33.3865 33.5938 33.5938C33.5938 33.801 33.5114 33.9997 33.3649 34.1462C33.2184 34.2927 33.0197 34.375 32.8125 34.375H17.1875C16.9803 34.375 16.7816 34.2927 16.6351 34.1462C16.4886 33.9997 16.4062 33.801 16.4062 33.5938ZM34.3609 17.1875L34.3984 17.1891C34.6904 17.2089 34.9758 17.2848 35.2391 17.4125C35.4287 17.5007 35.5915 17.6377 35.7109 17.8094C35.8156 17.9656 35.9375 18.2422 35.9375 18.75V28.1109L35.9359 28.1484C35.9159 28.4404 35.8401 28.7257 35.7125 28.9891C35.6242 29.1786 35.4873 29.3414 35.3156 29.4609C35.1594 29.5656 34.8828 29.6875 34.375 29.6875H15.6391L15.6016 29.6859C15.3096 29.6659 15.0243 29.5901 14.7609 29.4625C14.5714 29.3742 14.4086 29.2373 14.2891 29.0656C14.1844 28.9094 14.0625 28.6328 14.0625 28.125V18.7641L14.0641 18.7266C14.0839 18.4346 14.1598 18.1492 14.2875 17.8859C14.3758 17.6964 14.5127 17.5336 14.6844 17.4141C14.8406 17.3094 15.1172 17.1875 15.625 17.1875H34.3609ZM34.375 15.625H15.625C12.5 15.625 12.5 18.75 12.5 18.75V28.125C12.5 31.25 15.625 31.25 15.625 31.25H34.375C37.5 31.25 37.5 28.125 37.5 28.125V18.75C37.5 15.625 34.375 15.625 34.375 15.625Z" fill="#393939"/>
</g>
<rect x="13" y="13" width="24" height="24" stroke="#6A6A6A"/>
<defs>
<clipPath id="clip0_1218_4014">
<rect x="12.5" y="12.5" width="25" height="25" fill="white"/>
</clipPath>
</defs>
</svg>
