<svg width="25" height="25" viewBox="0 0 25 25" fill="none" xmlns="http://www.w3.org/2000/svg">
<rect x="0.5" y="0.5" width="24" height="24" stroke="#6A6A6A"/>
<path d="M3.90625 21.0938C3.90625 20.8865 3.98856 20.6878 4.13507 20.5413C4.28159 20.3948 4.4803 20.3125 4.6875 20.3125H20.3125C20.5197 20.3125 20.7184 20.3948 20.8649 20.5413C21.0114 20.6878 21.0938 20.8865 21.0938 21.0938C21.0938 21.301 21.0114 21.4997 20.8649 21.6462C20.7184 21.7927 20.5197 21.875 20.3125 21.875H4.6875C4.4803 21.875 4.28159 21.7927 4.13507 21.6462C3.98856 21.4997 3.90625 21.301 3.90625 21.0938ZM21.8609 4.6875L21.8984 4.68906C22.1904 4.70894 22.4758 4.7848 22.7391 4.9125C22.9287 5.00075 23.0915 5.13769 23.2109 5.30938C23.3156 5.46563 23.4375 5.74219 23.4375 6.25V15.6109L23.4359 15.6484C23.4159 15.9404 23.3401 16.2257 23.2125 16.4891C23.1242 16.6786 22.9873 16.8414 22.8156 16.9609C22.6594 17.0656 22.3828 17.1875 21.875 17.1875H3.13906L3.10156 17.1859C2.80964 17.1659 2.52428 17.0901 2.26094 16.9625C2.07137 16.8742 1.90856 16.7373 1.78906 16.5656C1.68437 16.4094 1.5625 16.1328 1.5625 15.625V6.26406L1.56406 6.22656C1.58394 5.93462 1.6598 5.64922 1.7875 5.38594C1.87581 5.19637 2.01274 5.03356 2.18438 4.91406C2.34063 4.80937 2.61719 4.6875 3.125 4.6875H21.8609ZM21.875 3.125H3.125C0 3.125 0 6.25 0 6.25V15.625C0 18.75 3.125 18.75 3.125 18.75H21.875C25 18.75 25 15.625 25 15.625V6.25C25 3.125 21.875 3.125 21.875 3.125Z" fill="#6A6A6A"/>
</svg>
