<svg width="40" height="41" viewBox="0 0 40 41" fill="none" xmlns="http://www.w3.org/2000/svg">
<path fill-rule="evenodd" clip-rule="evenodd" d="M2.06897 40.5H37.931C38.3117 40.5 38.6207 40.191 38.6207 39.8103V22.569H39.3103C39.691 22.569 40 22.26 40 21.8793V9.46552C40 9.08483 39.691 8.77586 39.3103 8.77586H21.2179L20.6897 7.89517V6.01724H26.2069C26.5876 6.01724 26.8966 5.70828 26.8966 5.32759V1.18966C26.8966 0.808966 26.5876 0.5 26.2069 0.5H20C19.6372 0.5 19.3393 0.780693 19.3124 1.13655C19.3117 1.14621 19.311 1.15655 19.3103 1.16621V1.18552V1.18966V7.89517L18.782 8.77586H0.689655C0.308966 8.77586 0 9.08483 0 9.46552V21.8793C0 22.26 0.308966 22.569 0.689655 22.569H1.37931V39.8103C1.37931 40.191 1.68828 40.5 2.06897 40.5ZM11.0345 22.569V39.1207H2.75862V22.569H11.0345ZM28.9655 22.569H37.2414V39.1207H28.9655V22.569ZM12.4138 22.0704V39.1207H13.7931V31.5345C13.7931 31.1538 14.1021 30.8448 14.4828 30.8448H25.5172C25.8979 30.8448 26.2069 31.1538 26.2069 31.5345V39.1207H27.5862V22.0704L20 9.4269L12.4138 22.0704ZM15.1724 39.1207H19.3103V32.2241H15.1724V39.1207ZM20.6897 32.2241V39.1207H24.8276V32.2241H20.6897ZM22.0455 10.1552L28.6662 21.1897H37.931H37.9331H38.6207V10.1552H22.0455ZM17.9545 10.1552H1.37931V21.1897H11.3338L17.9545 10.1552ZM20.6897 1.87931V4.63793H25.5172V1.87931H20.6897Z" fill="#393939"/>
<path fill-rule="evenodd" clip-rule="evenodd" d="M20.0001 17.0518C18.2874 17.0518 16.8965 18.4426 16.8965 20.1554C16.8965 21.8681 18.2874 23.259 20.0001 23.259C21.7128 23.259 23.1037 21.8681 23.1037 20.1554C23.1037 18.4426 21.7128 17.0518 20.0001 17.0518ZM20.0001 18.4314C20.9517 18.4314 21.7241 19.2038 21.7241 20.1554C21.7241 21.1069 20.9517 21.8793 20.0001 21.8793C19.0485 21.8793 18.2761 21.1069 18.2761 20.1554C18.2761 19.2038 19.0485 18.4314 20.0001 18.4314Z" fill="#393939"/>
<path fill-rule="evenodd" clip-rule="evenodd" d="M35.8623 24.6386C35.8623 24.2575 35.5532 23.949 35.1725 23.949H31.0345C30.6539 23.949 30.3447 24.2575 30.3447 24.6386V27.397C30.3447 27.7782 30.6539 28.0866 31.0345 28.0866H35.1725C35.5532 28.0866 35.8623 27.7782 35.8623 27.397V24.6386ZM34.4828 25.3282V26.7074H31.7243V25.3282H34.4828Z" fill="#393939"/>
<path fill-rule="evenodd" clip-rule="evenodd" d="M9.6553 24.6386C9.6553 24.2575 9.34617 23.949 8.96552 23.949H4.82748C4.44682 23.949 4.1377 24.2575 4.1377 24.6386V27.397C4.1377 27.7782 4.44682 28.0866 4.82748 28.0866H8.96552C9.34617 28.0866 9.6553 27.7782 9.6553 27.397V24.6386ZM8.27574 25.3282V26.7074H5.51726V25.3282H8.27574Z" fill="#393939"/>
<path fill-rule="evenodd" clip-rule="evenodd" d="M19.3106 25.3283C19.3106 24.9472 19.0014 24.6387 18.6208 24.6387H14.4827C14.1021 24.6387 13.793 24.9472 13.793 25.3283V28.0867C13.793 28.4678 14.1021 28.7763 14.4827 28.7763H18.6208C19.0014 28.7763 19.3106 28.4678 19.3106 28.0867V25.3283ZM17.931 26.0179V27.3971H15.1725V26.0179H17.931Z" fill="#393939"/>
<path fill-rule="evenodd" clip-rule="evenodd" d="M26.2071 25.3283C26.2071 24.9472 25.8979 24.6387 25.5173 24.6387H21.3792C20.9986 24.6387 20.6895 24.9472 20.6895 25.3283V28.0867C20.6895 28.4678 20.9986 28.7763 21.3792 28.7763H25.5173C25.8979 28.7763 26.2071 28.4678 26.2071 28.0867V25.3283ZM24.8275 26.0179V27.3971H22.069V26.0179H24.8275Z" fill="#393939"/>
<path fill-rule="evenodd" clip-rule="evenodd" d="M35.8623 29.4662C35.8623 29.0851 35.5532 28.7766 35.1725 28.7766H31.0345C30.6539 28.7766 30.3447 29.0851 30.3447 29.4662V32.2247C30.3447 32.6058 30.6539 32.9143 31.0345 32.9143H35.1725C35.5532 32.9143 35.8623 32.6058 35.8623 32.2247V29.4662ZM34.4828 30.1558V31.5351H31.7243V30.1558H34.4828Z" fill="#393939"/>
<path fill-rule="evenodd" clip-rule="evenodd" d="M9.6553 29.4662C9.6553 29.0851 9.34617 28.7766 8.96552 28.7766H4.82748C4.44682 28.7766 4.1377 29.0851 4.1377 29.4662V32.2247C4.1377 32.6058 4.44682 32.9143 4.82748 32.9143H8.96552C9.34617 32.9143 9.6553 32.6058 9.6553 32.2247V29.4662ZM8.27574 30.1558V31.5351H5.51726V30.1558H8.27574Z" fill="#393939"/>
<path fill-rule="evenodd" clip-rule="evenodd" d="M35.8623 34.2936C35.8623 33.9125 35.5532 33.604 35.1725 33.604H31.0345C30.6539 33.604 30.3447 33.9125 30.3447 34.2936V37.0521C30.3447 37.4332 30.6539 37.7417 31.0345 37.7417H35.1725C35.5532 37.7417 35.8623 37.4332 35.8623 37.0521V34.2936ZM34.4828 34.9832V36.3624H31.7243V34.9832H34.4828Z" fill="#393939"/>
<path fill-rule="evenodd" clip-rule="evenodd" d="M9.6553 34.2936C9.6553 33.9125 9.34617 33.604 8.96552 33.604H4.82748C4.44682 33.604 4.1377 33.9125 4.1377 34.2936V37.0521C4.1377 37.4332 4.44682 37.7417 4.82748 37.7417H8.96552C9.34617 37.7417 9.6553 37.4332 9.6553 37.0521V34.2936ZM8.27574 34.9832V36.3624H5.51726V34.9832H8.27574Z" fill="#393939"/>
<path fill-rule="evenodd" clip-rule="evenodd" d="M3.44827 12.9137H5.51723C5.89792 12.9137 6.20671 12.6048 6.20671 12.2241C6.20671 11.8434 5.89792 11.5344 5.51723 11.5344H3.44827C3.06758 11.5344 2.75879 11.8434 2.75879 12.2241C2.75879 12.6048 3.06758 12.9137 3.44827 12.9137Z" fill="#393939"/>
<path fill-rule="evenodd" clip-rule="evenodd" d="M36.5517 11.5344H34.4828C34.1021 11.5344 33.7933 11.8434 33.7933 12.2241C33.7933 12.6048 34.1021 12.9137 34.4828 12.9137H36.5517C36.9324 12.9137 37.2412 12.6048 37.2412 12.2241C37.2412 11.8434 36.9324 11.5344 36.5517 11.5344Z" fill="#393939"/>
<path fill-rule="evenodd" clip-rule="evenodd" d="M3.44827 16.362H5.51723C5.89792 16.362 6.20671 16.053 6.20671 15.6723C6.20671 15.2916 5.89792 14.9827 5.51723 14.9827H3.44827C3.06758 14.9827 2.75879 15.2916 2.75879 15.6723C2.75879 16.053 3.06758 16.362 3.44827 16.362Z" fill="#393939"/>
<path fill-rule="evenodd" clip-rule="evenodd" d="M36.5517 14.9827H34.4828C34.1021 14.9827 33.7933 15.2916 33.7933 15.6723C33.7933 16.053 34.1021 16.362 34.4828 16.362H36.5517C36.9324 16.362 37.2412 16.053 37.2412 15.6723C37.2412 15.2916 36.9324 14.9827 36.5517 14.9827Z" fill="#393939"/>
<path fill-rule="evenodd" clip-rule="evenodd" d="M3.44827 19.8105H5.51723C5.89792 19.8105 6.20671 19.5015 6.20671 19.1208C6.20671 18.7401 5.89792 18.4312 5.51723 18.4312H3.44827C3.06758 18.4312 2.75879 18.7401 2.75879 19.1208C2.75879 19.5015 3.06758 19.8105 3.44827 19.8105Z" fill="#393939"/>
<path fill-rule="evenodd" clip-rule="evenodd" d="M36.5517 18.4312H34.4828C34.1021 18.4312 33.7933 18.7401 33.7933 19.1208C33.7933 19.5015 34.1021 19.8105 34.4828 19.8105H36.5517C36.9324 19.8105 37.2412 19.5015 37.2412 19.1208C37.2412 18.7401 36.9324 18.4312 36.5517 18.4312Z" fill="#393939"/>
<path fill-rule="evenodd" clip-rule="evenodd" d="M8.2759 12.9137H10.3449C10.7256 12.9137 11.0343 12.6048 11.0343 12.2241C11.0343 11.8434 10.7256 11.5344 10.3449 11.5344H8.2759C7.89522 11.5344 7.58643 11.8434 7.58643 12.2241C7.58643 12.6048 7.89522 12.9137 8.2759 12.9137Z" fill="#393939"/>
<path fill-rule="evenodd" clip-rule="evenodd" d="M31.7241 11.5344H29.6551C29.2744 11.5344 28.9657 11.8434 28.9657 12.2241C28.9657 12.6048 29.2744 12.9137 29.6551 12.9137H31.7241C32.1048 12.9137 32.4136 12.6048 32.4136 12.2241C32.4136 11.8434 32.1048 11.5344 31.7241 11.5344Z" fill="#393939"/>
<path fill-rule="evenodd" clip-rule="evenodd" d="M8.27608 16.362H11.7244C12.1054 16.362 12.414 16.053 12.414 15.6723C12.414 15.2916 12.1054 14.9827 11.7244 14.9827H8.27608C7.89505 14.9827 7.58643 15.2916 7.58643 15.6723C7.58643 16.053 7.89505 16.362 8.27608 16.362Z" fill="#393939"/>
<path fill-rule="evenodd" clip-rule="evenodd" d="M31.7239 14.9827H28.2756C27.8946 14.9827 27.586 15.2916 27.586 15.6723C27.586 16.053 27.8946 16.362 28.2756 16.362H31.7239C32.105 16.362 32.4136 16.053 32.4136 15.6723C32.4136 15.2916 32.105 14.9827 31.7239 14.9827Z" fill="#393939"/>
<path fill-rule="evenodd" clip-rule="evenodd" d="M8.27608 19.8105H9.65539C10.0361 19.8105 10.345 19.5015 10.345 19.1208C10.345 18.7401 10.0361 18.4312 9.65539 18.4312H8.27608C7.89539 18.4312 7.58643 18.7401 7.58643 19.1208C7.58643 19.5015 7.89539 19.8105 8.27608 19.8105Z" fill="#393939"/>
<path fill-rule="evenodd" clip-rule="evenodd" d="M31.7239 18.4312H30.3446C29.9639 18.4312 29.655 18.7401 29.655 19.1208C29.655 19.5015 29.9639 19.8105 30.3446 19.8105H31.7239C32.1046 19.8105 32.4136 19.5015 32.4136 19.1208C32.4136 18.7401 32.1046 18.4312 31.7239 18.4312Z" fill="#393939"/>
<path fill-rule="evenodd" clip-rule="evenodd" d="M13.1032 12.9137H13.7929C14.1736 12.9137 14.4825 12.6048 14.4825 12.2241C14.4825 11.8434 14.1736 11.5344 13.7929 11.5344H13.1032C12.7225 11.5344 12.4136 11.8434 12.4136 12.2241C12.4136 12.6048 12.7225 12.9137 13.1032 12.9137Z" fill="#393939"/>
<path fill-rule="evenodd" clip-rule="evenodd" d="M26.8968 11.5344H26.2071C25.8264 11.5344 25.5175 11.8434 25.5175 12.2241C25.5175 12.6048 25.8264 12.9137 26.2071 12.9137H26.8968C27.2775 12.9137 27.5864 12.6048 27.5864 12.2241C27.5864 11.8434 27.2775 11.5344 26.8968 11.5344Z" fill="#393939"/>
</svg>
