<svg width="56" height="50" viewBox="0 0 56 50" fill="none" xmlns="http://www.w3.org/2000/svg">
<path d="M0 50L3.87815 37.1604C1.48505 33.4021 0.227586 29.1417 0.229885 24.7729C0.236781 11.1146 12.5011 0 27.5701 0C34.8827 0.00208333 41.747 2.58333 46.9102 7.26667C52.0711 11.95 54.9125 18.175 54.9102 24.7958C54.9033 38.4562 42.639 49.5708 27.5701 49.5708C22.9953 49.5687 18.4873 48.5292 14.4942 46.5542L0 50ZM15.1655 42.0687C19.0183 44.1417 22.6965 45.3833 27.5609 45.3854C40.085 45.3854 50.2872 36.1479 50.2941 24.7917C50.2987 13.4125 40.1447 4.1875 27.5792 4.18333C15.0459 4.18333 4.85056 13.4208 4.84597 24.775C4.84367 29.4104 6.34251 32.8812 8.85975 36.5125L6.5632 44.1125L15.1655 42.0687ZM41.3424 30.6854C41.1723 30.4271 40.7172 30.2729 40.0321 29.9625C39.3493 29.6521 35.9907 28.1542 35.3631 27.9479C34.7379 27.7417 34.2827 27.6375 33.8252 28.2583C33.37 28.8771 32.0597 30.2729 31.662 30.6854C31.2643 31.0979 30.8643 31.15 30.1815 30.8396C29.4988 30.5292 27.2965 29.8771 24.6873 27.7667C22.6574 26.125 21.285 24.0979 20.8873 23.4771C20.4896 22.8583 20.8459 22.5229 21.1862 22.2146C21.4942 21.9375 21.8689 21.4917 22.2114 21.1292C22.5586 20.7708 22.6712 20.5125 22.9011 20.0979C23.1287 19.6854 23.016 19.3229 22.8436 19.0125C22.6712 18.7042 21.3057 15.6562 20.7379 14.4167C20.1816 13.2104 19.6183 13.3729 19.2 13.3542L17.8896 13.3333C17.4344 13.3333 16.6942 13.4875 16.0689 14.1083C15.4436 14.7292 13.6781 16.225 13.6781 19.2729C13.6781 22.3208 16.1264 25.2646 16.4666 25.6771C16.8092 26.0896 21.2827 32.3438 28.1356 35.025C29.7654 35.6625 31.039 36.0437 32.0298 36.3292C33.6666 36.8 35.1562 36.7333 36.3333 36.575C37.6459 36.3979 40.3746 35.0771 40.9447 33.6312C41.5149 32.1833 41.5149 30.9437 41.3424 30.6854Z" fill="#25D366"/>
</svg>
