<svg width="24" height="20" viewBox="0 0 24 20" fill="none" xmlns="http://www.w3.org/2000/svg">
<path d="M7.42822 13.2373C8.01052 12.6129 8.7146 12.1144 9.497 11.7726C10.2794 11.4307 11.1242 11.2531 11.978 11.2501C12.8318 11.2471 13.6771 11.4192 14.4618 11.7555C15.2466 12.0919 15.9544 12.5854 16.541 13.2057M4.68652 9.42992C5.61821 8.43081 6.74472 7.63319 7.99657 7.08627C9.24842 6.53935 10.5988 6.25486 11.9649 6.25009C13.331 6.24532 14.683 6.52063 15.9386 7.0588C17.1942 7.59696 18.3269 8.38678 19.2656 9.37935M1.0293 6.02044C2.42682 4.52178 4.11659 3.32535 5.99437 2.50497C7.87214 1.68459 9.89715 1.25724 11.9463 1.25009C13.9954 1.24294 16.0258 1.6559 17.9092 2.46315C19.7927 3.2704 21.4911 4.45573 22.8991 5.9446M11.9998 18.7501C11.3094 18.7501 10.7498 18.1904 10.7498 17.5001C10.7498 16.8097 11.3094 16.2501 11.9998 16.2501C12.6901 16.2501 13.2498 16.8097 13.2498 17.5001C13.2498 18.1904 12.6901 18.7501 11.9998 18.7501Z" stroke="#6A6A6A" stroke-width="2" stroke-linecap="round" stroke-linejoin="round"/>
</svg>
