<svg width="50" height="50" viewBox="0 0 50 50" fill="none" xmlns="http://www.w3.org/2000/svg">
<rect width="50" height="50" rx="25" fill="#EFEFEF"/>
<path d="M20.4285 28.2373C21.0108 27.6129 21.7148 27.1144 22.4972 26.7726C23.2797 26.4307 24.1244 26.2531 24.9782 26.2501C25.832 26.2471 26.6773 26.4192 27.4621 26.7555C28.2469 27.0919 28.9546 27.5854 29.5413 28.2057M17.6868 24.4299C18.6185 23.4308 19.745 22.6332 20.9968 22.0863C22.2487 21.5394 23.5991 21.2549 24.9652 21.2501C26.3313 21.2453 27.6832 21.5206 28.9388 22.0588C30.1945 22.597 31.3272 23.3868 32.2658 24.3794M14.0295 21.0204C15.4271 19.5218 17.1168 18.3254 18.9946 17.505C20.8724 16.6846 22.8974 16.2572 24.9465 16.2501C26.9957 16.2429 29.026 16.6559 30.9095 17.4632C32.7929 18.2704 34.4914 19.4557 35.8993 20.9446M25 33.7501C24.3096 33.7501 23.75 33.1904 23.75 32.5001C23.75 31.8097 24.3096 31.2501 25 31.2501C25.6904 31.2501 26.25 31.8097 26.25 32.5001C26.25 33.1904 25.6904 33.7501 25 33.7501Z" stroke="#6A6A6A" stroke-width="2" stroke-linecap="round" stroke-linejoin="round"/>
</svg>
