<svg width="58" height="76" viewBox="0 0 58 76" fill="none" xmlns="http://www.w3.org/2000/svg">
<g clip-path="url(#clip0_131_5657)">
<mask id="mask0_131_5657" style="mask-type:luminance" maskUnits="userSpaceOnUse" x="0" y="16" width="58" height="52">
<path d="M0 16.217H57.9477V67.8302H0V16.217Z" fill="white"/>
</mask>
<g mask="url(#mask0_131_5657)">
<mask id="mask1_131_5657" style="mask-type:luminance" maskUnits="userSpaceOnUse" x="0" y="16" width="58" height="52">
<path d="M3.58139 16.217H54.3663C56.3435 16.217 57.9477 17.7277 57.9477 19.5898V64.4574C57.9477 66.3195 56.3435 67.8302 54.3663 67.8302H3.58139C1.60417 67.8302 0 66.3195 0 64.4574V19.5898C0 17.7277 1.60417 16.217 3.58139 16.217Z" fill="white"/>
</mask>
<g mask="url(#mask1_131_5657)">
<path d="M0 16.217H57.9477V67.8302H0V16.217Z" fill="#695CFF"/>
</g>
</g>
<mask id="mask2_131_5657" style="mask-type:luminance" maskUnits="userSpaceOnUse" x="17" y="0" width="24" height="23">
<path d="M17.2616 0H40.8988V22.2599H17.2616V0Z" fill="white"/>
</mask>
<g mask="url(#mask2_131_5657)">
<mask id="mask3_131_5657" style="mask-type:luminance" maskUnits="userSpaceOnUse" x="17" y="0" width="24" height="23">
<path d="M25.1742 0.80102C26.3867 0.316193 27.7745 0 29.1287 0C30.4866 0 31.7923 0.27052 32.9973 0.758861C33.0234 0.772914 33.0496 0.772914 33.0757 0.786967C37.5934 2.72628 40.9212 7.85211 40.9883 13.5752V22.3969H17.2616V13.5822C17.325 7.82049 20.6042 2.69817 25.1742 0.80102Z" fill="white"/>
</mask>
<g mask="url(#mask3_131_5657)">
<path d="M25.1742 0.80102C26.3867 0.316192 27.7745 0 29.1287 0C30.4866 0 31.7923 0.27052 32.9973 0.758861C33.0234 0.772914 33.0495 0.772914 33.0757 0.786967C37.5934 2.72628 40.9212 7.85211 40.9883 13.5752V22.3969H17.2616V13.5822C17.325 7.82049 20.6042 2.69817 25.1742 0.80102Z" stroke="#FFE366" stroke-width="5.56078"/>
</g>
</g>
<mask id="mask4_131_5657" style="mask-type:luminance" maskUnits="userSpaceOnUse" x="15" y="18" width="29" height="5">
<path d="M15.3589 18.7046H43.3087V22.404H15.3589V18.7046Z" fill="white"/>
</mask>
<g mask="url(#mask4_131_5657)">
<path d="M15.3589 18.7046H43.3087V22.404H15.3589V18.7046Z" fill="#695CFF"/>
</g>
<path d="M19.7987 61.5013H36.4821C38.172 61.5013 39.0823 60.5212 39.0823 59.4602C39.0823 58.48 38.172 57.419 36.4821 57.419H22.2684V37.5867C22.2684 36.1989 20.9701 35.5068 19.754 35.5068C18.4557 35.5068 17.1985 36.1989 17.1985 37.5867V59.2985C17.1985 60.7249 17.9371 61.5013 19.7987 61.5013Z" fill="white"/>
<path d="M24.6686 51.3822C25.7019 54.9552 30.5294 55.9846 33.6855 55.9846C37.4832 55.9846 42.7956 54.7268 42.7956 50.1807C42.7956 45.6345 38.2406 45.4624 34.0212 45.09C31.0442 44.8932 28.4924 44.6614 28.4924 42.8028C28.4924 40.8038 31.7717 40.2593 33.4131 40.2593C35.2635 40.2593 37.9981 40.4876 38.7255 42.2618C38.968 42.7747 39.606 43.0628 40.2737 43.0628C41.3071 43.0628 42.3405 42.2618 42.0047 41.2043C40.5797 38.0565 36.5394 37.1992 33.3833 37.1992C29.5855 37.1992 24.8514 38.8575 24.8514 42.7747C24.8514 47.1206 29.5557 47.6652 33.6855 47.9814C36.3902 48.1781 39.1508 48.41 39.1508 50.2088C39.1508 52.4678 35.8119 52.9842 33.6855 52.9842C31.6523 52.9842 28.858 52.5556 28.1903 50.6971C28.0373 49.9523 27.3098 49.5799 26.5189 49.5799C25.4595 49.5799 24.3664 50.2685 24.6686 51.3822Z" fill="white"/>
<path d="M10.6024 36.4851L27.6401 23.6161" stroke="#FFE366" stroke-width="2.78278" stroke-linecap="round"/>
<path d="M47.6661 35.7332L28.3005 23.2682" stroke="#FFE366" stroke-width="2.78257" stroke-linecap="round"/>
<mask id="mask5_131_5657" style="mask-type:luminance" maskUnits="userSpaceOnUse" x="16" y="22" width="6" height="9">
<path d="M16.8997 22.4041H21.3466V30.3721H16.8997V22.4041Z" fill="white"/>
</mask>
<g mask="url(#mask5_131_5657)">
<mask id="mask6_131_5657" style="mask-type:luminance" maskUnits="userSpaceOnUse" x="16" y="22" width="6" height="9">
<path d="M17.616 22.4041H20.6303C21.0258 22.4041 21.3466 22.7027 21.3466 23.0786V29.6976C21.3466 30.07 21.0258 30.3721 20.6303 30.3721H17.616C17.2206 30.3721 16.8997 30.07 16.8997 29.6976V23.0786C16.8997 22.7027 17.2206 22.4041 17.616 22.4041Z" fill="white"/>
</mask>
<g mask="url(#mask6_131_5657)">
<path d="M16.8997 22.4041H21.3466V30.3721H16.8997V22.4041Z" fill="#FFE366"/>
</g>
</g>
<path d="M5.23647 70.8398V74.4234H7.29578V75.1401H4.34113V70.8398H5.23647Z" fill="#272727"/>
<path d="M12.1299 75.1401H11.1749L10.8317 74.1423H9.08576L8.74255 75.1401H7.81735L9.38421 70.8398H10.5482L12.1299 75.1401ZM9.92142 71.7392L9.32452 73.4396H10.578L9.99603 71.7392H9.92142Z" fill="#272727"/>
<path d="M14.8517 70.8398C15.18 70.8398 15.456 70.8961 15.6873 71.0085C15.9261 71.1209 16.1052 71.2825 16.2245 71.4863C16.3439 71.683 16.4036 71.9184 16.4036 72.1889C16.4036 72.463 16.3439 72.7019 16.2245 72.9056C16.1052 73.1024 15.9261 73.257 15.6873 73.3694C15.456 73.4818 15.18 73.538 14.8517 73.538H13.9862V75.1401H13.0908V70.8398H14.8517ZM14.7323 72.8635C15.2397 72.8635 15.4933 72.6386 15.4933 72.1889C15.4933 71.7392 15.2397 71.5144 14.7323 71.5144H13.9862V72.8635H14.7323Z" fill="#272727"/>
<path d="M21.3544 75.1401H20.3993L20.0561 74.1423H18.3102L17.967 75.1401H17.0418L18.6086 70.8398H19.7726L21.3544 75.1401ZM19.1458 71.7392L18.5489 73.4396H19.8024L19.2205 71.7392H19.1458Z" fill="#272727"/>
<path d="M22.3152 75.1401V70.8398H23.2106V72.5965H23.3151L24.8371 70.8398H25.7623V70.9101L24.091 72.8635L25.9414 75.0698V75.1401H24.9267L23.3151 73.2851H23.2106V75.1401H22.3152Z" fill="#272727"/>
<path d="M30.077 75.1965C29.7561 75.1965 29.4726 75.1613 29.2264 75.0981C28.9764 75.0243 28.7675 74.9259 28.5997 74.803C28.4392 74.6835 28.3161 74.55 28.2266 74.4095L28.734 73.8333H28.8086C28.9466 74.0301 29.1219 74.1847 29.3309 74.2971C29.5398 74.4095 29.786 74.4657 30.077 74.4657C30.3157 74.4657 30.4948 74.42 30.6142 74.3252C30.741 74.2338 30.8082 74.0968 30.8082 73.9176C30.8082 73.8263 30.7858 73.7455 30.7485 73.6787C30.7075 73.605 30.6366 73.5452 30.5396 73.4961C30.45 73.4398 30.3307 73.3977 30.1814 73.3696L29.5845 73.2431C29.1742 73.1518 28.872 73.0007 28.6743 72.7934C28.4728 72.5896 28.3758 72.3226 28.3758 71.9924C28.3758 71.7605 28.4392 71.5497 28.5698 71.36C28.6967 71.1738 28.8832 71.0298 29.1219 70.9244C29.3682 70.8225 29.6666 70.7698 30.0173 70.7698C30.3642 70.7698 30.6627 70.819 30.9126 70.9103C31.1701 70.9946 31.3827 71.1281 31.5543 71.3038L31.1066 71.88H31.032C30.9014 71.7605 30.7522 71.6657 30.5843 71.5989C30.4127 71.5357 30.2262 71.5005 30.0173 71.5005C29.7673 71.5005 29.5771 71.5427 29.4502 71.627C29.3197 71.7113 29.2562 71.8237 29.2562 71.9643C29.2562 72.1048 29.301 72.2172 29.3905 72.3016C29.4801 72.3788 29.633 72.4386 29.8531 72.4842L30.465 72.5967C30.9014 72.681 31.2185 72.8321 31.42 73.0464C31.6289 73.2536 31.7334 73.5312 31.7334 73.8755C31.7334 74.139 31.6662 74.3744 31.5394 74.5781C31.42 74.7749 31.2335 74.9295 30.9873 75.0419C30.7373 75.1438 30.4351 75.1965 30.077 75.1965Z" fill="#272727"/>
<path d="M33.7631 73.257V74.4234H35.9568V75.1401H32.8678V70.8398H35.8971V71.5425H33.7631V72.5543H35.6285V73.257H33.7631Z" fill="#272727"/>
<path d="M37.9598 75.1401H37.0943V70.8398H38.124L39.9594 73.6083L40.049 73.5942V70.8398H40.9145V75.1401H39.9893L38.0494 72.1749L37.9598 72.1889V75.1401Z" fill="#272727"/>
<path d="M45.4755 70.8398V71.5565H44.1474V75.1401H43.252V71.5565H41.9239V70.8398H45.4755Z" fill="#272727"/>
<path d="M46.4874 75.1401V70.8398H48.3228C48.7892 70.8398 49.1436 70.9452 49.3823 71.149C49.6285 71.3563 49.7554 71.6374 49.7554 71.9922C49.7554 72.2557 49.6808 72.47 49.5316 72.6386C49.3898 72.8073 49.1809 72.9337 48.9048 73.0181V73.0743C49.054 73.141 49.1734 73.2289 49.2629 73.3413C49.3525 73.4537 49.4346 73.6294 49.5166 73.8612L49.9643 75.1401H49.0391L48.5914 73.8472C48.5392 73.7277 48.487 73.6294 48.4273 73.5521C48.3751 73.4783 48.3079 73.4256 48.2184 73.3975C48.1288 73.3624 48.0132 73.3413 47.8752 73.3413H47.3827V75.1401H46.4874ZM48.2035 72.6667C48.6399 72.6667 48.86 72.477 48.86 72.0906C48.86 71.7076 48.6399 71.5144 48.2035 71.5144H47.3827V72.6667H48.2035Z" fill="#272727"/>
<path d="M54.8477 75.1401H53.8927L53.5495 74.1423H51.8035L51.4603 75.1401H50.5351L52.102 70.8398H53.2659L54.8477 75.1401ZM52.6392 71.7392L52.0423 73.4396H53.2958L52.7138 71.7392H52.6392Z" fill="#272727"/>
</g>
<defs>
<clipPath id="clip0_131_5657">
<rect width="57.9477" height="75.1964" fill="white"/>
</clipPath>
</defs>
</svg>
