<svg width="46" height="37" viewBox="0 0 46 37" fill="none" xmlns="http://www.w3.org/2000/svg">
<rect width="46" height="37" fill="#5D51F2"/>
<path d="M5.75 13.875V29.9083C5.75 30.7717 5.75 31.2032 5.9589 31.5329C6.14266 31.823 6.43566 32.0593 6.79631 32.2071C7.2059 32.375 7.74237 32.375 8.81371 32.375H28.7502M26.8333 20.0417V15.4167M26.8333 15.4167V10.7917M26.8333 15.4167H21.0833M26.8333 15.4167H32.5833M13.4167 21.2753V9.55863C13.4167 7.83181 13.4167 6.96775 13.8345 6.30819C14.202 5.72802 14.788 5.25667 15.5093 4.96106C16.3293 4.625 17.4035 4.625 19.5504 4.625H34.117C36.2639 4.625 37.3368 4.625 38.1568 4.96106C38.8781 5.25667 39.4651 5.72802 39.8326 6.30819C40.2504 6.96774 40.2504 7.83119 40.2504 9.55799L40.2504 21.2747C40.2504 23.0015 40.2504 23.8649 39.8326 24.5245C39.4651 25.1047 38.8781 25.577 38.1568 25.8726C37.3376 26.2083 36.2662 26.2083 34.1235 26.2083H19.5441C17.4014 26.2083 16.3285 26.2083 15.5093 25.8726C14.788 25.577 14.202 25.1048 13.8345 24.5247C13.4167 23.8651 13.4167 23.0021 13.4167 21.2753Z" stroke="#1A1A1A" stroke-width="2" stroke-linecap="round" stroke-linejoin="round"/>
</svg>
