<svg width="47" height="49" viewBox="0 0 47 49" fill="none" xmlns="http://www.w3.org/2000/svg">
<path d="M5.85352 12.6583C5.85352 10.3715 5.85352 9.22801 6.27883 8.35454C6.65294 7.58621 7.24989 6.96154 7.98413 6.57006C8.81885 6.125 9.91156 6.125 12.097 6.125H34.7295C36.9149 6.125 38.0076 6.125 38.8424 6.57006C39.5766 6.96154 40.1736 7.58621 40.5477 8.35454C40.973 9.22801 40.973 10.3715 40.973 12.6583V36.3417C40.973 38.6285 40.973 39.772 40.5477 40.6455C40.1736 41.4138 39.5766 42.0385 38.8424 42.4299C38.0076 42.875 36.9149 42.875 34.7295 42.875H12.097C9.91156 42.875 8.81885 42.875 7.98413 42.4299C7.24989 42.0385 6.65294 41.4138 6.27883 40.6455C5.85352 39.772 5.85352 38.6285 5.85352 36.3417V12.6583Z" fill="#695CFF"/>
<path d="M29.2665 42.875V31.85C29.2665 30.7066 29.2665 30.1348 29.0538 29.6981C28.8668 29.3139 28.5683 29.0016 28.2012 28.8059C27.7838 28.5833 27.2375 28.5833 26.1448 28.5833H20.6817C19.589 28.5833 19.0427 28.5833 18.6253 28.8059C18.2582 29.0016 17.9597 29.3139 17.7727 29.6981C17.56 30.1348 17.56 30.7066 17.56 31.85V42.875M5.85352 14.2917C5.85352 17.6744 8.4741 20.4167 11.7068 20.4167C14.9394 20.4167 17.56 17.6744 17.56 14.2917C17.56 17.6744 20.1806 20.4167 23.4132 20.4167C26.6459 20.4167 29.2665 17.6744 29.2665 14.2917C29.2665 17.6744 31.8871 20.4167 35.1197 20.4167C38.3524 20.4167 40.973 17.6744 40.973 14.2917M12.097 42.875H34.7295C36.9149 42.875 38.0076 42.875 38.8424 42.4299C39.5766 42.0385 40.1736 41.4138 40.5477 40.6455C40.973 39.772 40.973 38.6285 40.973 36.3417V12.6583C40.973 10.3715 40.973 9.22801 40.5477 8.35454C40.1736 7.58621 39.5766 6.96154 38.8424 6.57006C38.0076 6.125 36.9149 6.125 34.7295 6.125H12.097C9.91156 6.125 8.81885 6.125 7.98413 6.57006C7.24989 6.96154 6.65294 7.58621 6.27883 8.35454C5.85352 9.22801 5.85352 10.3715 5.85352 12.6583V36.3417C5.85352 38.6285 5.85352 39.772 6.27883 40.6455C6.65294 41.4138 7.24989 42.0385 7.98413 42.4299C8.81885 42.875 9.91156 42.875 12.097 42.875Z" stroke="black" stroke-width="2" stroke-linecap="round" stroke-linejoin="round"/>
</svg>
