<svg width="53" height="48" viewBox="0 0 53 48" fill="none" xmlns="http://www.w3.org/2000/svg">
<path d="M26.5003 44C38.6966 44 48.5837 35.0457 48.5837 24C48.5837 12.9543 38.6966 4 26.5003 4C14.304 4 4.41699 12.9543 4.41699 24C4.41699 35.0457 14.304 44 26.5003 44Z" fill="#695CFF"/>
<path d="M18.7712 29.3333C18.7712 31.9107 21.0781 34 23.9239 34H28.7087C31.7577 34 34.2295 31.7614 34.2295 29C34.2295 26.2386 31.7577 24 28.7087 24H24.292C21.2429 24 18.7712 21.7614 18.7712 19C18.7712 16.2386 21.2429 14 24.292 14H29.0767C31.9225 14 34.2295 16.0893 34.2295 18.6667M26.5003 11V14M26.5003 34V37M48.5837 24C48.5837 35.0457 38.6966 44 26.5003 44C14.304 44 4.41699 35.0457 4.41699 24C4.41699 12.9543 14.304 4 26.5003 4C38.6966 4 48.5837 12.9543 48.5837 24Z" stroke="black" stroke-width="2" stroke-linecap="round" stroke-linejoin="round"/>
</svg>
