<svg width="45" height="44" viewBox="0 0 45 44" fill="none" xmlns="http://www.w3.org/2000/svg">
<path d="M17.2211 37.7683C17.8345 37.6889 18.4541 37.8519 18.9427 38.2206L21.1945 39.9133C21.9389 40.4735 22.9743 40.4735 23.7166 39.9133L26.0536 38.1554C26.4902 37.8274 27.0412 37.6828 27.586 37.7541L30.5094 38.1309C31.4388 38.2511 32.3349 37.7439 32.6946 36.8945L33.8195 34.2301C34.0295 33.731 34.4328 33.3359 34.9422 33.1301L37.6618 32.0281C38.5289 31.6778 39.0466 30.7978 38.9239 29.8873L38.5538 27.1272C38.4727 26.5263 38.6391 25.9192 39.0154 25.4405L40.7432 23.2345C41.315 22.5053 41.315 21.4908 40.7432 20.7636L38.9489 18.4741C38.6141 18.0463 38.4665 17.5065 38.5393 16.9728L38.9239 14.1088C39.0466 13.1983 38.5289 12.3203 37.6618 11.968L34.9422 10.8659C34.4328 10.6602 34.0295 10.265 33.8195 9.76598L32.6946 7.10161C32.337 6.25219 31.4388 5.74498 30.5094 5.86516L27.586 6.242C27.0412 6.31533 26.4902 6.17071 26.0557 5.84479L23.7187 4.08688C22.9743 3.52671 21.9389 3.52671 21.1966 4.08688L18.8595 5.84479C18.4229 6.17071 17.8719 6.31533 17.3272 6.24607L14.4038 5.86923C13.4744 5.74905 12.5782 6.25626 12.2185 7.10568L11.0958 9.77005C10.8837 10.2671 10.4803 10.6622 9.973 10.87L7.25339 11.97C6.38636 12.3224 5.86864 13.2003 5.99131 14.1109L6.37596 16.9748C6.44666 17.5085 6.29903 18.0483 5.96636 18.4741L4.172 20.7636C3.60022 21.4929 3.60022 22.5073 4.172 23.2345L5.96636 25.5241C6.30111 25.9518 6.44874 26.4916 6.37596 27.0253L5.99131 29.8893C5.86864 30.7998 6.38636 31.6778 7.25339 32.0302L9.973 33.1322C10.4824 33.3379 10.8858 33.7331 11.0958 34.2321L12.2206 36.8965C12.5782 37.7459 13.4765 38.2532 14.4059 38.133L17.2211 37.7683Z" fill="#695CFF"/>
<path d="M17.779 16.5001C17.779 17.0063 17.3601 17.4167 16.8433 17.4167C16.3265 17.4167 15.9076 17.0063 15.9076 16.5001C15.9076 15.9938 16.3265 15.5834 16.8433 15.5834C17.3601 15.5834 17.779 15.9938 17.779 16.5001Z" fill="#695CFF"/>
<path d="M29.0077 27.5001C29.0077 28.0063 28.5887 28.4167 28.0719 28.4167C27.5552 28.4167 27.1362 28.0063 27.1362 27.5001C27.1362 26.9938 27.5552 26.5834 28.0719 26.5834C28.5887 26.5834 29.0077 26.9938 29.0077 27.5001Z" fill="#695CFF"/>
<path d="M16.8433 16.5001H16.862M28.0719 27.5001H28.0907M29.9434 14.6667L14.9718 29.3334M17.2211 37.7683C17.8345 37.6889 18.4541 37.8519 18.9427 38.2206L21.1945 39.9133C21.9389 40.4735 22.9743 40.4735 23.7166 39.9133L26.0536 38.1554C26.4902 37.8274 27.0412 37.6828 27.586 37.7541L30.5094 38.1309C31.4388 38.2511 32.3349 37.7439 32.6946 36.8945L33.8195 34.2301C34.0295 33.731 34.4328 33.3359 34.9422 33.1301L37.6618 32.0281C38.5289 31.6778 39.0466 30.7978 38.9239 29.8873L38.5538 27.1272C38.4727 26.5263 38.6391 25.9192 39.0154 25.4405L40.7432 23.2345C41.315 22.5053 41.315 21.4908 40.7432 20.7636L38.9489 18.4741C38.6141 18.0463 38.4665 17.5065 38.5393 16.9728L38.9239 14.1088C39.0466 13.1983 38.5289 12.3203 37.6618 11.968L34.9422 10.8659C34.4328 10.6602 34.0295 10.265 33.8195 9.76598L32.6946 7.10161C32.337 6.25219 31.4388 5.74498 30.5094 5.86516L27.586 6.242C27.0412 6.31533 26.4902 6.17071 26.0557 5.84479L23.7187 4.08688C22.9743 3.52671 21.9389 3.52671 21.1966 4.08688L18.8595 5.84479C18.4229 6.17071 17.8719 6.31533 17.3272 6.24607L14.4038 5.86923C13.4744 5.74905 12.5782 6.25626 12.2185 7.10568L11.0958 9.77005C10.8837 10.2671 10.4803 10.6622 9.973 10.87L7.25339 11.97C6.38636 12.3224 5.86864 13.2003 5.99131 14.1109L6.37596 16.9748C6.44666 17.5085 6.29903 18.0483 5.96636 18.4741L4.172 20.7636C3.60022 21.4929 3.60022 22.5073 4.172 23.2345L5.96636 25.5241C6.30111 25.9518 6.44874 26.4916 6.37596 27.0253L5.99131 29.8893C5.86864 30.7998 6.38636 31.6778 7.25339 32.0302L9.973 33.1322C10.4824 33.3379 10.8858 33.7331 11.0958 34.2321L12.2206 36.8965C12.5782 37.7459 13.4765 38.2531 14.4059 38.133L17.2211 37.7683ZM17.779 16.5001C17.779 17.0063 17.3601 17.4167 16.8433 17.4167C16.3265 17.4167 15.9076 17.0063 15.9076 16.5001C15.9076 15.9938 16.3265 15.5834 16.8433 15.5834C17.3601 15.5834 17.779 15.9938 17.779 16.5001ZM29.0077 27.5001C29.0077 28.0063 28.5887 28.4167 28.0719 28.4167C27.5552 28.4167 27.1362 28.0063 27.1362 27.5001C27.1362 26.9938 27.5552 26.5834 28.0719 26.5834C28.5887 26.5834 29.0077 26.9938 29.0077 27.5001Z" stroke="black" stroke-width="2" stroke-linecap="round" stroke-linejoin="round"/>
</svg>
