<svg width="53" height="44" viewBox="0 0 53 44" fill="none" xmlns="http://www.w3.org/2000/svg">
<path d="M42.8417 11.0001C43.9789 11.0001 44.5475 11.0001 44.8474 10.8052C45.1083 10.6355 45.2637 10.3776 45.2706 10.1025C45.2785 9.78635 44.9373 9.40871 44.255 8.65341L40.81 4.84008C40.4213 4.40986 40.227 4.19475 39.9807 4.0396C39.7626 3.90219 39.5156 3.79966 39.2523 3.73723C38.955 3.66675 38.6311 3.66675 37.9833 3.66675H15.0167C14.3689 3.66675 14.045 3.66675 13.7477 3.73723C13.4844 3.79966 13.2374 3.90219 13.0193 4.0396C12.773 4.19475 12.5787 4.40986 12.19 4.84008L8.745 8.65341C8.06266 9.40871 7.72149 9.78635 7.72941 10.1025C7.73629 10.3776 7.89166 10.6355 8.15262 10.8052C8.45248 11.0001 9.0211 11.0001 10.1583 11.0001H42.8417Z" fill="#695CFF"/>
<path d="M39.3083 40.3334C41.7819 40.3334 43.0187 40.3334 43.9635 39.9338C44.7945 39.5822 45.4702 39.0213 45.8936 38.3314C46.375 37.547 46.375 36.5203 46.375 34.4667V12.9556C46.375 12.2301 46.375 11.8673 46.293 11.5188C46.2201 11.2097 46.0997 10.9096 45.9344 10.6259C45.7483 10.3063 45.4861 10.0161 44.9617 9.43564L40.81 4.84008C40.4213 4.40986 40.227 4.19475 39.9807 4.0396C39.7626 3.90219 39.5156 3.79966 39.2523 3.73723C38.955 3.66675 38.6311 3.66675 37.9833 3.66675H15.0167C14.3689 3.66675 14.045 3.66675 13.7477 3.73723C13.4844 3.79966 13.2374 3.90219 13.0193 4.0396C12.773 4.19475 12.5787 4.40986 12.19 4.84008L8.03833 9.43563C7.51394 10.0161 7.25174 10.3063 7.06556 10.6259C6.90035 10.9095 6.77985 11.2097 6.70705 11.5188C6.625 11.8673 6.625 12.2301 6.625 12.9556L6.625 34.4667C6.625 36.5203 6.625 37.547 7.10639 38.3314C7.52983 39.0213 8.20549 39.5822 9.03654 39.9338C9.98132 40.3334 11.2181 40.3334 13.6917 40.3334L39.3083 40.3334Z" fill="#695CFF"/>
<path d="M35.3333 18.3334C35.3333 20.2783 34.4027 22.1436 32.7461 23.5189C31.0895 24.8941 28.8427 25.6667 26.5 25.6667C24.1573 25.6667 21.9105 24.8941 20.2539 23.5189C18.5973 22.1436 17.6667 20.2783 17.6667 18.3334" fill="#695CFF"/>
<path d="M12.19 4.84008L8.745 8.65341C8.06266 9.40871 7.72149 9.78635 7.72941 10.1025C7.7363 10.3776 7.89166 10.6355 8.15262 10.8052C8.45248 11.0001 9.0211 11.0001 10.1583 11.0001H42.8417C43.9789 11.0001 44.5475 11.0001 44.8474 10.8052C45.1083 10.6355 45.2637 10.3776 45.2706 10.1025C45.2785 9.78635 44.9373 9.40871 44.255 8.65341L40.81 4.84008M12.19 4.84008C12.5787 4.40986 12.773 4.19475 13.0193 4.0396C13.2374 3.90219 13.4844 3.79966 13.7477 3.73723C14.045 3.66675 14.3689 3.66675 15.0167 3.66675H37.9833C38.6311 3.66675 38.955 3.66675 39.2523 3.73723C39.5156 3.79966 39.7626 3.90219 39.9807 4.0396C40.227 4.19475 40.4213 4.40986 40.81 4.84008M12.19 4.84008L8.03833 9.43563C7.51394 10.0161 7.25174 10.3063 7.06556 10.6259C6.90035 10.9095 6.77985 11.2097 6.70705 11.5188C6.625 11.8673 6.625 12.2301 6.625 12.9556L6.625 34.4667C6.625 36.5203 6.625 37.547 7.10639 38.3314C7.52983 39.0213 8.20549 39.5822 9.03654 39.9338C9.98132 40.3334 11.2181 40.3334 13.6917 40.3334L39.3083 40.3334C41.7819 40.3334 43.0187 40.3334 43.9635 39.9338C44.7945 39.5822 45.4702 39.0213 45.8936 38.3314C46.375 37.547 46.375 36.5203 46.375 34.4667V12.9556C46.375 12.2301 46.375 11.8673 46.293 11.5188C46.2201 11.2097 46.0997 10.9096 45.9344 10.6259C45.7483 10.3063 45.4861 10.0161 44.9617 9.43564L40.81 4.84008M35.3333 18.3334C35.3333 20.2783 34.4027 22.1436 32.7461 23.5189C31.0895 24.8941 28.8427 25.6667 26.5 25.6667C24.1573 25.6667 21.9105 24.8941 20.2539 23.5189C18.5973 22.1436 17.6667 20.2783 17.6667 18.3334" stroke="black" stroke-width="2" stroke-linecap="round" stroke-linejoin="round"/>
</svg>
