<svg width="53" height="47" viewBox="0 0 53 47" fill="none" xmlns="http://www.w3.org/2000/svg">
<path d="M35.8393 43.0834C39.8755 43.0834 41.8935 43.0834 43.3764 42.3662C44.6791 41.7362 45.7056 40.7366 46.2914 39.5276C46.9582 38.1514 46.7698 36.3696 46.3931 32.806L45.0681 20.2727C44.7499 17.2635 44.5909 15.7589 43.8277 14.6213C43.1556 13.6195 42.1626 12.8176 40.9751 12.3177C39.6267 11.7501 37.9226 11.7501 34.5143 11.7501L18.4865 11.7501C15.0782 11.7501 13.3741 11.7501 12.0257 12.3177C10.8382 12.8176 9.84517 13.6195 9.17308 14.6213C8.40994 15.7589 8.25088 17.2635 7.93275 20.2727L6.60775 32.806C6.23101 36.3696 6.04265 38.1514 6.70944 39.5276C7.29519 40.7366 8.32167 41.7362 9.62437 42.3662C11.1073 43.0834 13.1253 43.0834 17.1615 43.0834H35.8393Z" fill="#695CFF"/>
<path d="M35.3337 17.6251V11.7501C35.3337 7.42385 31.3789 3.91675 26.5004 3.91675C21.6219 3.91675 17.6671 7.42385 17.6671 11.7501V17.6251M7.93275 20.2727L6.60775 32.806C6.23101 36.3696 6.04265 38.1514 6.70944 39.5276C7.29519 40.7366 8.32167 41.7362 9.62437 42.3662C11.1073 43.0834 13.1253 43.0834 17.1615 43.0834H35.8393C39.8755 43.0834 41.8935 43.0834 43.3764 42.3662C44.6791 41.7362 45.7056 40.7366 46.2914 39.5276C46.9582 38.1514 46.7698 36.3696 46.3931 32.806L45.0681 20.2727C44.7499 17.2635 44.5909 15.7589 43.8277 14.6213C43.1556 13.6195 42.1626 12.8176 40.9751 12.3177C39.6267 11.7501 37.9226 11.7501 34.5143 11.7501L18.4865 11.7501C15.0782 11.7501 13.3741 11.7501 12.0257 12.3177C10.8382 12.8176 9.84517 13.6195 9.17308 14.6213C8.40994 15.7589 8.25088 17.2635 7.93275 20.2727Z" stroke="black" stroke-width="2" stroke-linecap="round" stroke-linejoin="round"/>
</svg>
