<svg width="51" height="48" viewBox="0 0 51 48" fill="none" xmlns="http://www.w3.org/2000/svg">
<path d="M39.95 8H11.05C8.66978 8 7.47967 8 6.57054 8.43597C5.77085 8.81947 5.12068 9.43139 4.71322 10.184C4.25 11.0397 4.25 12.1598 4.25 14.4V17C8.35762 17 11.6875 20.134 11.6875 24C11.6875 27.866 8.35762 31 4.25 31V33.6C4.25 35.8402 4.25 36.9603 4.71322 37.816C5.12068 38.5686 5.77085 39.1805 6.57054 39.564C7.47967 40 8.66978 40 11.05 40H39.95C42.3302 40 43.5203 40 44.4295 39.564C45.2291 39.1805 45.8793 38.5686 46.2868 37.816C46.75 36.9603 46.75 35.8402 46.75 33.6V31C42.6424 31 39.3125 27.866 39.3125 24C39.3125 20.134 42.6424 17 46.75 17V14.4C46.75 12.1598 46.75 11.0397 46.2868 10.184C45.8793 9.43139 45.2291 8.81947 44.4295 8.43597C43.5203 8 42.3302 8 39.95 8Z" fill="#695CFF"/>
<path d="M21.25 16V14M21.25 25V23M21.25 34V32M11.05 8H39.95C42.3302 8 43.5203 8 44.4295 8.43597C45.2291 8.81947 45.8793 9.43139 46.2868 10.184C46.75 11.0397 46.75 12.1598 46.75 14.4V17C42.6424 17 39.3125 20.134 39.3125 24C39.3125 27.866 42.6424 31 46.75 31V33.6C46.75 35.8402 46.75 36.9603 46.2868 37.816C45.8793 38.5686 45.2291 39.1805 44.4295 39.564C43.5203 40 42.3302 40 39.95 40H11.05C8.66978 40 7.47967 40 6.57054 39.564C5.77085 39.1805 5.12068 38.5686 4.71322 37.816C4.25 36.9603 4.25 35.8402 4.25 33.6V31C8.35762 31 11.6875 27.866 11.6875 24C11.6875 20.134 8.35762 17 4.25 17V14.4C4.25 12.1598 4.25 11.0397 4.71322 10.184C5.12068 9.43139 5.77085 8.81947 6.57054 8.43597C7.47967 8 8.66978 8 11.05 8Z" stroke="black" stroke-width="2" stroke-linecap="round" stroke-linejoin="round"/>
</svg>
