<svg width="51" height="42" viewBox="0 0 51 42" fill="none" xmlns="http://www.w3.org/2000/svg">
<path d="M27.2 5.25H11.05C8.66978 5.25 7.47967 5.25 6.57054 5.63148C5.77085 5.96703 5.12068 6.50247 4.71322 7.16103C4.25 7.90972 4.25 8.88982 4.25 10.85V22.4C4.25 24.3602 4.25 25.3403 4.71322 26.089C5.12068 26.7475 5.77085 27.283 6.57054 27.6185C7.47967 28 8.66978 28 11.05 28H34V10.85C34 8.88982 34 7.90972 33.5368 7.16103C33.1293 6.50247 32.4791 5.96703 31.6795 5.63148C30.7703 5.25 29.5802 5.25 27.2 5.25Z" fill="#695CFF"/>
<path d="M13.8125 36.75C16.7465 36.75 19.125 34.7912 19.125 32.375C19.125 29.9588 16.7465 28 13.8125 28C10.8785 28 8.5 29.9588 8.5 32.375C8.5 34.7912 10.8785 36.75 13.8125 36.75Z" fill="#695CFF"/>
<path d="M37.1875 36.75C40.1215 36.75 42.5 34.7912 42.5 32.375C42.5 29.9588 40.1215 28 37.1875 28C34.2535 28 31.875 29.9588 31.875 32.375C31.875 34.7912 34.2535 36.75 37.1875 36.75Z" fill="#695CFF"/>
<path d="M34 28V10.85C34 8.88982 34 7.90972 33.5368 7.16103C33.1293 6.50247 32.4791 5.96703 31.6795 5.63148C30.7703 5.25 29.5802 5.25 27.2 5.25H11.05C8.66978 5.25 7.47967 5.25 6.57054 5.63148C5.77085 5.96703 5.12068 6.50247 4.71322 7.16103C4.25 7.90972 4.25 8.88982 4.25 10.85V22.4C4.25 24.3602 4.25 25.3403 4.71322 26.089C5.12068 26.7475 5.77085 27.283 6.57054 27.6185C7.47967 28 8.66978 28 11.05 28H34ZM34 28H43.35C44.5401 28 45.1352 28 45.5897 27.8093C45.9896 27.6415 46.3147 27.3738 46.5184 27.0445C46.75 26.6701 46.75 26.1801 46.75 25.2V20.4098C46.75 19.9818 46.75 19.7677 46.6913 19.5663C46.6392 19.3878 46.5534 19.2171 46.4369 19.0605C46.3054 18.8839 46.1217 18.7326 45.7542 18.4299L41.3708 14.8201C41.0033 14.5174 40.8196 14.3661 40.6051 14.2579C40.415 14.1619 40.2077 14.0912 39.9909 14.0484C39.7463 14 39.4864 14 38.9667 14H34M19.125 32.375C19.125 34.7912 16.7465 36.75 13.8125 36.75C10.8785 36.75 8.5 34.7912 8.5 32.375C8.5 29.9588 10.8785 28 13.8125 28C16.7465 28 19.125 29.9588 19.125 32.375ZM42.5 32.375C42.5 34.7912 40.1215 36.75 37.1875 36.75C34.2535 36.75 31.875 34.7912 31.875 32.375C31.875 29.9588 34.2535 28 37.1875 28C40.1215 28 42.5 29.9588 42.5 32.375Z" stroke="black" stroke-width="2" stroke-linecap="round" stroke-linejoin="round"/>
</svg>
