<svg width="82" height="62" viewBox="0 0 82 62" fill="none" xmlns="http://www.w3.org/2000/svg">
<rect x="0.5" y="0.5" width="81" height="61" rx="6.5" stroke="#6A6A6A"/>
<rect x="1" y="1" width="80" height="60" rx="5.76117" fill="#0060AF"/>
<path fill-rule="evenodd" clip-rule="evenodd" d="M17.4574 36.7496C17.4574 35.9444 17.4662 33.792 17.4462 33.5268C17.4636 30.324 15.111 28.0647 13.6246 28.2408C12.5961 28.3292 11.734 28.7443 11.2714 29.9384C10.8423 31.0513 11.2259 32.5316 12.6521 32.8789C14.1769 33.2519 15.0675 33.5623 15.712 34.0002C16.5016 34.5362 17.1462 35.5604 17.1633 36.7509" fill="white"/>
<path fill-rule="evenodd" clip-rule="evenodd" d="M16.8169 36.751C16.8219 35.7188 16.2398 34.8061 15.4791 34.3156C14.8043 33.8821 13.8984 33.5974 12.4369 33.2304C11.9851 33.116 11.5126 32.8619 11.3663 32.5381C10.9793 32.924 10.909 33.7918 10.9771 34.299C11.0562 34.8857 11.749 35.8529 12.7922 35.8908C13.4293 35.9161 14.2348 35.7551 14.621 35.6739C15.2873 35.5314 16.3416 35.9445 16.5094 36.7498" fill="white"/>
<path fill-rule="evenodd" clip-rule="evenodd" d="M17.9926 23.2493C16.2236 23.2493 14.6958 24.4039 14.7012 26.4018C14.7067 28.0819 16.0718 28.9813 16.559 29.6237C17.2951 30.5918 17.6935 31.7377 17.7347 33.491C17.7671 34.8864 17.7655 36.2643 17.7727 36.7526H18.163C18.1563 36.2417 18.1387 34.7789 18.1587 33.4478C18.1852 31.694 18.598 30.5918 19.3344 29.6237C19.8259 28.9813 21.1897 28.0819 21.1927 26.4018C21.1995 24.4039 19.6723 23.2493 17.9051 23.2493" fill="white"/>
<path fill-rule="evenodd" clip-rule="evenodd" d="M18.4445 36.7496C18.4445 35.9444 18.4353 33.792 18.455 33.5268C18.4377 30.324 20.7889 28.0647 22.2766 28.2408C23.305 28.3292 24.1661 28.7443 24.6302 29.9384C25.0587 31.0513 24.673 32.5316 23.2487 32.8789C21.7228 33.2519 20.8335 33.5623 20.1874 34.0002C19.3987 34.5362 18.7991 35.5604 18.7807 36.7509" fill="white"/>
<path fill-rule="evenodd" clip-rule="evenodd" d="M19.0782 36.751C19.0726 35.7188 19.6545 34.8061 20.413 34.3156C21.0908 33.8821 21.9976 33.5974 23.4578 33.2304C23.9105 33.116 24.3825 32.8619 24.5262 32.5381C24.9151 32.924 24.9854 33.7918 24.9171 34.299C24.8365 34.8857 24.1453 35.8529 23.104 35.8908C22.4672 35.9161 21.6574 35.7551 21.2728 35.6739C20.609 35.5314 19.5518 35.9445 19.3833 36.7498" fill="white"/>
<path fill-rule="evenodd" clip-rule="evenodd" d="M19.6236 40.0827L19.3975 38.448L19.9438 38.366C20.0767 38.3482 20.2386 38.3711 20.3034 38.4535C20.375 38.5396 20.3969 38.6108 20.4107 38.7238C20.4315 38.8636 20.3906 39.025 20.2316 39.1055V39.1104C20.409 39.1104 20.5163 39.2367 20.5476 39.4498C20.552 39.495 20.5656 39.6035 20.552 39.6942C20.5159 39.9101 20.386 39.9796 20.1663 40.0101L19.6236 40.0827ZM19.9776 39.79C20.0424 39.7808 20.1081 39.7773 20.1594 39.7449C20.2382 39.6941 20.231 39.5855 20.22 39.5046C20.1927 39.3274 20.146 39.2598 19.9559 39.2877L19.8363 39.3059L19.9121 39.799L19.9776 39.79ZM19.8633 39.0348C19.9356 39.0234 20.0335 39.0146 20.0744 38.9467C20.0959 38.9013 20.1232 38.8653 20.1051 38.7643C20.0829 38.6449 20.0429 38.5705 19.8893 38.5993L19.7463 38.6221L19.8028 39.041L19.8633 39.0348Z" fill="white"/>
<path fill-rule="evenodd" clip-rule="evenodd" d="M21.9924 39.1003C21.9967 39.1307 22.0016 39.1646 22.0035 39.195C22.0477 39.493 21.9924 39.74 21.6538 39.8079C21.1531 39.9032 21.0573 39.5955 20.9693 39.1646L20.9224 38.9313C20.8534 38.5191 20.8237 38.2069 21.3118 38.1105C21.5869 38.061 21.7687 38.1693 21.8443 38.4404C21.8561 38.4808 21.8708 38.5207 21.8763 38.5615L21.5769 38.6227C21.5423 38.5207 21.4965 38.3387 21.3618 38.354C21.12 38.383 21.1999 38.6806 21.2247 38.8052L21.3147 39.2527C21.3418 39.3881 21.3955 39.6043 21.6047 39.5626C21.7746 39.5289 21.7004 39.2669 21.6853 39.1595" fill="white"/>
<path fill-rule="evenodd" clip-rule="evenodd" d="M22.4735 39.5947L22.3701 37.903L22.7722 37.7815L23.6156 39.2528L23.2989 39.3466L23.099 38.9727L22.7474 39.0773L22.7928 39.5024L22.4735 39.5947ZM22.7179 38.804L22.972 38.7311L22.6345 38.0466L22.7179 38.804Z" fill="white"/>
<path fill-rule="evenodd" clip-rule="evenodd" d="M12.5348 38.3154C12.6607 37.9166 12.7733 37.6229 13.2538 37.7533C13.5108 37.8245 13.6702 37.9365 13.6627 38.2321C13.6614 38.2979 13.6395 38.3651 13.6251 38.4299L13.3261 38.3483C13.3653 38.1849 13.3901 38.0554 13.187 37.9935C12.9522 37.9298 12.8949 38.2117 12.8625 38.3334L12.7409 38.7767C12.7023 38.9084 12.6559 39.1261 12.8625 39.1824C13.0333 39.2277 13.1367 39.062 13.1986 38.8197L12.9895 38.7647L13.0618 38.5082L13.5537 38.6647L13.3202 39.5195L13.0939 39.4587L13.1448 39.278H13.1384C13.034 39.4259 12.9071 39.4414 12.7957 39.4201C12.3039 39.2885 12.3552 38.9703 12.4726 38.5452" fill="white"/>
<path fill-rule="evenodd" clip-rule="evenodd" d="M14.3673 39.0372L14.2192 39.7326L13.8857 39.6614L14.2411 38.0376L14.8095 38.1646C15.1422 38.2358 15.2427 38.3822 15.1956 38.6842C15.1687 38.8574 15.0824 39.0439 14.8717 39.0288L14.8695 39.0261C15.0476 39.0877 15.0627 39.1767 15.0316 39.3303C15.0182 39.3958 14.9256 39.7925 14.9895 39.8567L14.9917 39.9055L14.6467 39.8162C14.6323 39.7064 14.6813 39.5086 14.7006 39.3989C14.7199 39.302 14.751 39.1654 14.6516 39.1142C14.574 39.0731 14.5449 39.0751 14.4569 39.0552L14.3673 39.0372ZM14.4259 38.7858L14.6504 38.8457C14.7867 38.8654 14.8625 38.7955 14.8894 38.6323C14.9137 38.4827 14.8822 38.4244 14.7598 38.3955L14.5191 38.347L14.4259 38.7858Z" fill="white"/>
<path fill-rule="evenodd" clip-rule="evenodd" d="M16.5059 38.4007L16.8357 38.4386L16.6936 39.5803C16.6246 39.9422 16.4833 40.1003 16.081 40.0509C15.6718 39.9996 15.5746 39.8152 15.5993 39.4504L15.7424 38.3098L16.0748 38.3473L15.9322 39.4624C15.9169 39.5835 15.8887 39.7629 16.1062 39.7848C16.2993 39.7994 16.3431 39.6726 16.365 39.5152" fill="white"/>
<path fill-rule="evenodd" clip-rule="evenodd" d="M17.1973 40.1131L17.2966 38.4807L17.93 38.5079C18.2296 38.5226 18.3078 38.7645 18.2986 38.9954C18.2898 39.1359 18.2456 39.2927 18.122 39.3778C18.0206 39.4501 17.8901 39.4672 17.7694 39.4614L17.5629 39.4501L17.5217 40.1342L17.1973 40.1131ZM17.5742 39.2011L17.742 39.2104C17.8784 39.2153 17.9688 39.1619 17.9805 38.9637C17.9873 38.7736 17.9145 38.7412 17.7378 38.7335L17.6049 38.729L17.5742 39.2011Z" fill="white"/>
<path fill-rule="evenodd" clip-rule="evenodd" d="M61.8834 24.8264L59.3653 29.3504C58.4149 28.5863 57.2544 28.0242 55.7736 28.0242C52.2694 28.0242 50.8458 30.6096 50.8458 32.4308C50.8458 33.7829 51.7401 35.7773 54.8581 35.7773C56.1671 35.7773 58.0275 34.8763 58.563 34.4661L56.0727 39.7147C54.8856 39.9491 54.4954 40.0945 53.4907 40.1253C47.9098 40.2901 45.6548 36.8966 45.6563 33.4293C45.6601 28.8453 49.7774 23.2707 56.6032 23.2707C57.0213 23.2707 57.5329 23.414 57.9703 23.5727L58.4125 23.0129" fill="white"/>
<path fill-rule="evenodd" clip-rule="evenodd" d="M72.2797 23.1548L72.9928 39.597H67.686L67.6831 36.7773H64.0643L62.8736 39.597H57.1182L63.1352 27.8559L61.7785 27.8471L64.3562 23.1548H72.2797ZM67.6481 28.1846L65.6024 32.9671H67.71L67.6481 28.1846Z" fill="white"/>
<path fill-rule="evenodd" clip-rule="evenodd" d="M42.3108 23.1549C44.9388 23.1695 46.4239 24.5815 46.4239 26.6209C46.4239 28.5014 44.8577 30.1656 43.1384 31.0262C44.9085 31.6705 45.0616 33.2515 45.0616 34.3698C45.0616 37.0723 42.3222 39.5971 38.7613 39.5971H30.9951L34.0244 28.0196L32.7801 28.0125L35.3238 23.1549C35.3238 23.1549 40.1738 23.1403 42.3108 23.1549ZM39.7348 29.8214C40.2784 29.8214 41.2383 29.6852 41.4782 28.6439C41.7412 27.5133 40.8404 27.4829 40.4083 27.4829L38.8644 27.4763L38.326 29.8214H39.7348ZM37.5515 32.7269L36.8407 35.4292H38.6588C39.3739 35.4292 40.3486 35.0777 40.5875 34.1983C40.8234 33.3165 40.142 32.7269 39.4295 32.7269H37.5515Z" fill="white"/>
<path fill-rule="evenodd" clip-rule="evenodd" d="M18.0651 41.6177C15.376 41.6177 12.6128 40.9621 9.85304 39.6656L9.78532 39.6327L9.75293 39.5644C8.51448 36.9768 7.85938 34.1469 7.85938 31.3779C7.85938 28.613 8.48762 25.904 9.7268 23.3199L9.76103 23.2513L9.83004 23.217C12.3829 22.02 15.1291 21.4138 17.9952 21.4138C20.6647 21.4138 23.5161 22.0887 26.2392 23.3691L26.309 23.3999L26.3414 23.4698C27.6034 26.1051 28.269 28.9345 28.269 31.6577C28.269 34.37 27.6299 37.0816 26.3662 39.7152L26.3331 39.7842L26.2628 39.8163C23.7487 40.9942 20.9139 41.6177 18.0651 41.6177ZM10.109 39.3106C12.7898 40.559 15.4638 41.1892 18.0657 41.1892C20.8245 41.1892 23.568 40.5923 26.0105 39.4608C27.2238 36.9088 27.8388 34.2823 27.8388 31.6575C27.8388 29.0217 27.1969 26.2803 25.9827 23.7224C23.34 22.4928 20.5801 21.8407 17.9957 21.8407C15.2211 21.8407 12.5615 22.4232 10.0859 23.5725C8.89746 26.077 8.29259 28.7015 8.29259 31.3777C8.29259 34.0587 8.92101 36.8014 10.109 39.3106Z" fill="white"/>
</svg>
