<svg width="82" height="62" viewBox="0 0 82 62" fill="none" xmlns="http://www.w3.org/2000/svg">
<rect x="0.5" y="0.5" width="81" height="61" rx="6.5" stroke="#6A6A6A"/>
<rect x="1" y="1" width="80" height="60" rx="5.76117" fill="white"/>
<path fill-rule="evenodd" clip-rule="evenodd" d="M13.975 36.6289L16.69 40.1591H9.9682L13.975 36.6289ZM13.1187 35.5382L7.86055 40.1696L7.8584 28.779L13.1187 35.5382ZM25.7718 24.0685C25.7718 24.0685 24.6175 23.4948 23.2765 23.5786C21.7434 23.6734 20.4608 24.2907 19.7235 25.1053C19.2595 25.6171 18.7466 26.2414 18.489 26.9194C18.1154 27.9002 18.0356 29.1962 18.0356 29.1962C18.0356 29.1962 17.4994 28.7184 16.8276 27.326C16.0465 25.7065 15.8329 24.7254 15.727 23.6062C15.6328 22.624 15.7807 21.6528 15.7807 21.6528H25.7718V24.0685ZM25.7715 27.2978V34.4799C25.7715 34.4799 25.1504 34.7304 24.6438 34.7304C24.1371 34.7304 23.2743 34.6515 22.2722 34.0731C21.2775 33.4993 20.7268 32.8051 20.3 32.1761C19.867 31.5363 19.5096 30.6493 19.4033 30.0102C19.3179 29.4989 19.2259 28.2235 19.7232 27.187C19.9932 26.6245 20.7176 25.6603 22.1122 25.6054C23.2491 25.5596 23.8795 25.8735 24.4573 26.2064C25.5568 26.8413 25.7715 27.2978 25.7715 27.2978ZM14.8937 33.9755L16.6958 32.3982C16.1215 31.6279 15.9697 31.3376 15.3277 30.3431C14.6703 29.3252 14.1197 28.2053 13.6488 26.8913C13.1392 25.4679 13.0161 24.6688 13.0723 23.6062C13.1428 22.2542 13.4356 21.6528 13.4356 21.6528H7.8584L7.86099 24.809C7.86099 24.809 12.1302 30.4266 14.8937 33.9755ZM20.0413 40.1538H25.7712V35.767C25.7712 35.767 24.35 36.4515 23.4262 36.5068C22.8762 36.5405 22.3424 36.5627 21.4811 36.3221C20.5236 36.055 19.9797 35.7947 19.0923 35.0261C18.3795 34.4097 17.5646 33.4994 17.5646 33.4994L15.7519 35.0863C16.5929 36.1665 17.214 36.9527 17.4042 37.1644C18.2217 38.0715 18.5682 38.4049 19.1188 38.7282C19.6692 39.0521 21.5082 39.0346 21.5082 39.0346L20.0413 40.1538Z" fill="#E94E0F"/>
<path fill-rule="evenodd" clip-rule="evenodd" d="M69.1046 36.2509C69.1046 37.522 69.2678 39.6113 67.9122 40.1199V40.2046H73.061V40.1199C71.7062 39.5834 71.8687 37.522 71.8687 36.2509V25.6053C71.8687 24.3349 71.7062 22.2452 73.061 21.7087V21.624H67.9122V21.7087C69.2943 22.2452 69.1046 24.3066 69.1046 25.6053V36.2509ZM50.2238 25.6053L59.5192 37.8891C60.7112 39.4983 61.5518 40.4306 63.4758 41.1079V25.2665C63.4758 23.6854 63.4758 22.5557 64.8853 21.7087V21.624H60.1153V21.7087C61.5518 22.5557 61.5242 23.6854 61.5242 25.2665V35.9688L51.6062 22.9227L51.2263 22.358C51.0371 22.1322 50.9288 21.9911 50.8204 21.6523V21.624H46.8631V21.7087C48.2725 22.5557 48.2725 23.6854 48.2725 25.2665V36.534C48.2725 38.1149 48.2725 39.2442 46.8366 40.1199V40.2046H51.6334V40.1199C50.1969 39.2442 50.2238 38.1149 50.2238 36.534V25.6053ZM35.0724 29.1071V23.5726L36.8877 23.3744C38.5139 23.205 40.2479 24.2218 40.2479 26.1704C40.2479 28.4859 37.7276 29.1071 35.9667 29.1071H35.0724ZM35.0724 37.9457V30.9707L36.9689 30.8579C39.3539 30.7166 41.9011 31.903 41.9011 34.642C41.9011 37.3245 39.6524 38.3975 37.4297 38.1717L35.0724 37.9457ZM32.3099 36.2228C32.3099 37.522 32.4726 39.5834 31.1172 40.1199V40.2046H35.5888C37.6212 40.2046 39.7627 40.2895 41.6593 39.3293C43.475 38.4256 44.9115 36.5616 44.9115 34.3872C44.9115 31.6204 42.9328 29.9258 40.4938 29.3889C42.0388 28.6833 43.2036 27.6103 43.2036 25.7183C43.2036 23.2051 41.1175 21.624 37.5406 21.624H31.1172V21.7087C32.5 22.2452 32.3099 24.3066 32.3099 25.577V36.2228Z" fill="#005B6A"/>
</svg>
