<svg width="80" height="60" viewBox="0 0 80 60" fill="none" xmlns="http://www.w3.org/2000/svg">
<rect width="80" height="60" rx="5.76117" fill="#00529C"/>
<path fill-rule="evenodd" clip-rule="evenodd" d="M23.7168 26.0293H27.5297C29.0737 26.0293 30.2248 26.7466 30.2248 28.2567C30.2248 29.3639 29.6912 29.9805 28.7643 30.3072V30.3321C29.8691 30.5718 30.4392 31.201 30.4392 32.2699C30.4392 34.3717 28.6927 34.8118 27.2083 34.8118H23.7168V26.0293ZM25.9248 29.5022H26.543C27.2675 29.5022 28.0162 29.3134 28.0162 28.5705C28.0162 27.7662 27.3033 27.69 26.5661 27.69H25.9248V29.5022ZM25.9248 33.151H26.5791C27.3861 33.151 28.2291 33.025 28.2291 32.1315C28.2291 31.176 27.3626 31.0872 26.6023 31.0872H25.9248V33.151Z" fill="white"/>
<path fill-rule="evenodd" clip-rule="evenodd" d="M33.3388 26.0288H36.0469L39.242 34.8113H36.8187L36.2016 32.937H33.0897L32.4361 34.8113H30.1914L33.3388 26.0288ZM34.6933 27.8407H34.6684L33.6001 31.2761H35.6785L34.6933 27.8407Z" fill="white"/>
<path fill-rule="evenodd" clip-rule="evenodd" d="M39.5488 26.0293H42.3636L45.1668 31.9938H45.1899L45.1549 26.0293H47.1746V34.8118H44.4307L41.5317 28.8101H41.509L41.5798 34.8118H39.5488V26.0293Z" fill="white"/>
<path fill-rule="evenodd" clip-rule="evenodd" d="M47.9248 26.0293H50.1337V29.6163H50.1575L52.6509 26.0293H55.3124L52.2475 30.1184L55.5499 34.8118H52.7341L50.1575 30.8234H50.1337V34.8118H47.9248V26.0293Z" fill="white"/>
<path fill-rule="evenodd" clip-rule="evenodd" d="M58.2891 26.0293H62.102C63.6456 26.0293 64.7982 26.7466 64.7982 28.2567C64.7982 29.3639 64.2646 29.9805 63.3376 30.3072V30.3321C64.4421 30.5718 65.0122 31.201 65.0122 32.2699C65.0122 34.3717 63.2661 34.8118 61.782 34.8118H58.2891V26.0293ZM60.4985 29.5017H61.1156C61.8405 29.5017 62.5881 29.3129 62.5881 28.57C62.5881 27.7657 61.8763 27.6895 61.1402 27.6895H60.4985V29.5017ZM60.4985 33.151H61.1522C61.9591 33.151 62.8028 33.025 62.8028 32.1315C62.8028 31.176 61.9359 31.0872 61.1757 31.0872H60.4985V33.151Z" fill="white"/>
<path fill-rule="evenodd" clip-rule="evenodd" d="M65.502 26.0288H69.4454C70.9178 26.0288 72.1181 26.7331 72.1181 28.244C72.1181 29.414 71.5953 30.1941 70.5267 30.458V30.4829C71.2378 30.6847 71.2862 31.3511 71.702 32.4207L72.5099 34.8113H70.206L69.7306 33.2269C69.2791 31.7168 68.9938 31.3384 68.1743 31.3384H67.7108V34.8113H65.502V26.0288ZM67.7104 29.6779H68.2929C69.0054 29.6779 69.9085 29.6523 69.9085 28.6584C69.9085 27.8412 69.1355 27.6895 68.2929 27.6895H67.7104V29.6779Z" fill="white"/>
<mask id="mask0_2404_7496" style="mask-type:luminance" maskUnits="userSpaceOnUse" x="4" y="21" width="72" height="19">
<path fill-rule="evenodd" clip-rule="evenodd" d="M4.57227 39.247H75.3267V21.6001H4.57227V39.247Z" fill="white"/>
</mask>
<g mask="url(#mask0_2404_7496)">
<path fill-rule="evenodd" clip-rule="evenodd" d="M73.1182 34.8118H75.327V26.0293H73.1182V34.8118Z" fill="white"/>
<path fill-rule="evenodd" clip-rule="evenodd" d="M18.6754 21.6001H7.11336C5.70996 21.6001 4.57227 22.8352 4.57227 24.3591V24.3882V36.4888C4.57227 37.9977 5.68899 39.2244 7.07432 39.247H18.6692C20.073 39.247 21.211 38.0119 21.211 36.4888L21.2165 24.3591C21.2165 22.8352 20.0791 21.6001 18.6754 21.6001ZM8.4876 37.8329L7.85676 37.8402C7.09323 37.8402 6.47432 37.1757 6.47432 36.3557L6.4707 36.2389V25.0368L6.47468 24.4336C6.50324 23.6401 7.07227 23.0013 7.81771 23.0013H9.10001C10.2619 23.0013 11.2044 24.0717 11.2044 25.3347C11.2044 25.959 10.9734 26.5258 10.5992 26.9379L7.3275 30.4548L10.3939 33.7626C10.7894 34.1942 11.0283 34.7618 11.0283 35.3833C11.0283 36.7364 9.89064 37.8329 8.4876 37.8329ZM17.9149 37.8218L12.1979 37.8191C12.1979 37.8191 12.8591 36.3056 12.8591 35.3688C12.8591 34.2267 12.4983 33.2061 11.934 32.5309L9.97852 30.4192L11.9744 28.2347C12.5684 27.643 12.9632 26.5928 12.9632 25.3968C12.9632 24.4497 12.7159 23.6106 12.3179 23.0013H13.7032C14.8655 23.0013 15.808 24.0717 15.808 25.3347C15.808 25.959 15.5773 26.5258 15.2031 26.9379L11.994 30.418L18.6592 37.6184C18.4481 37.7593 18.1817 37.8218 17.9149 37.8218ZM19.3104 35.5738L14.5337 30.4166L16.8087 27.9671C17.2722 27.3539 17.5657 26.4298 17.5657 25.3969C17.5657 24.4437 17.3148 23.5843 16.9132 22.9746L17.9316 23.0067C18.6951 23.0067 19.314 23.6724 19.314 24.4919L19.3104 35.5738Z" fill="white"/>
</g>
</svg>
