<svg width="82" height="62" viewBox="0 0 82 62" fill="none" xmlns="http://www.w3.org/2000/svg">
<rect x="1" y="1" width="80" height="60" rx="5.76117" fill="#003D79" stroke="#6A6A6A"/>
<path fill-rule="evenodd" clip-rule="evenodd" d="M6.78605 32.7781C6.78605 31.7021 6.768 30.799 6.71387 29.9939H8.592L8.68006 31.3772H8.73275C9.15844 30.6462 9.9369 29.7817 11.389 29.7817C12.5224 29.7817 13.4077 30.4748 13.7789 31.5114H13.8153C14.1169 30.993 14.4698 30.6092 14.8768 30.3393C15.3553 29.9749 15.9044 29.7817 16.6127 29.7817C18.0466 29.7817 19.4976 30.8378 19.4976 33.8341V39.3451H17.3731V34.1803C17.3731 32.625 16.8781 31.7021 15.834 31.7021C15.0891 31.7021 14.5397 32.2792 14.311 32.9517C14.2573 33.1814 14.2042 33.4697 14.2042 33.7367V39.3451H12.079V33.9298C12.079 32.625 11.6017 31.7021 10.5923 31.7021C9.77775 31.7021 9.22954 32.3945 9.03429 33.046C8.94515 33.2779 8.90942 33.546 8.90942 33.8144V39.3451H6.78605V32.7781Z" fill="white" stroke="#6A6A6A"/>
<path fill-rule="evenodd" clip-rule="evenodd" d="M27.7736 37.0986C27.7736 37.9431 27.809 38.7674 27.8976 39.3451H25.9316L25.7905 38.3085H25.7367C25.2058 39.0389 24.3028 39.5565 23.1874 39.5565C21.4519 39.5565 20.4785 38.1942 20.4785 36.7723C20.4785 34.4095 22.4077 33.22 25.595 33.239V33.0847C25.595 32.47 25.3646 31.4529 23.8421 31.4529C22.9918 31.4529 22.1062 31.7412 21.5222 32.1438L21.0967 30.6088C21.7354 30.1855 22.8518 29.7817 24.214 29.7817C26.9773 29.7817 27.7736 31.684 27.7736 33.7187V37.0986ZM25.6481 34.7748C24.1079 34.736 22.6387 35.1008 22.6387 36.5221C22.6387 37.4429 23.1874 37.8662 23.8782 37.8662C24.7447 37.8662 25.3832 37.2515 25.5773 36.5796C25.63 36.4068 25.6481 36.214 25.6481 36.061V34.7748Z" fill="white"/>
<path d="M27.8976 39.3451V39.8451H28.4801L28.3918 39.2694L27.8976 39.3451ZM25.9316 39.3451L25.4361 39.4126L25.495 39.8451H25.9316V39.3451ZM25.7905 38.3085L26.2859 38.241L26.227 37.8085H25.7905V38.3085ZM25.7367 38.3085V37.8085H25.482L25.3322 38.0145L25.7367 38.3085ZM25.595 33.239L25.592 33.739L26.095 33.742V33.239H25.595ZM21.5222 32.1438L21.0404 32.2773L21.228 32.954L21.806 32.5554L21.5222 32.1438ZM21.0967 30.6088L20.8205 30.1921L20.518 30.3926L20.6149 30.7424L21.0967 30.6088ZM25.6481 34.7748H26.1481V34.2872L25.6606 34.2749L25.6481 34.7748ZM25.5773 36.5796L25.099 36.4338L25.097 36.4408L25.5773 36.5796ZM27.2736 37.0986C27.2736 37.9497 27.3088 38.8046 27.4034 39.4209L28.3918 39.2694C28.3091 38.7302 28.2736 37.9365 28.2736 37.0986H27.2736ZM27.8976 38.8451H25.9316V39.8451H27.8976V38.8451ZM26.427 39.2777L26.2859 38.241L25.295 38.3759L25.4361 39.4126L26.427 39.2777ZM25.7905 37.8085H25.7367V38.8085H25.7905V37.8085ZM25.3322 38.0145C24.8947 38.6164 24.1416 39.0565 23.1874 39.0565V40.0565C24.4641 40.0565 25.5169 39.4613 26.1411 38.6024L25.3322 38.0145ZM23.1874 39.0565C21.7822 39.0565 20.9785 37.9755 20.9785 36.7723H19.9785C19.9785 38.4128 21.1216 40.0565 23.1874 40.0565V39.0565ZM20.9785 36.7723C20.9785 35.7496 21.3843 35.0209 22.1199 34.5278C22.884 34.0156 24.0488 33.7298 25.592 33.739L25.598 32.739C23.9539 32.7292 22.5605 33.0286 21.5631 33.6972C20.5374 34.3847 19.9785 35.4322 19.9785 36.7723H20.9785ZM26.095 33.239V33.0847H25.095V33.239H26.095ZM26.095 33.0847C26.095 32.7294 26.031 32.1944 25.6897 31.7386C25.3282 31.2557 24.7257 30.9529 23.8421 30.9529V31.9529C24.481 31.9529 24.755 32.1587 24.8893 32.338C25.0439 32.5445 25.095 32.8254 25.095 33.0847H26.095ZM23.8421 30.9529C22.8942 30.9529 21.9089 31.2699 21.2384 31.7321L21.806 32.5554C22.3035 32.2125 23.0894 31.9529 23.8421 31.9529V30.9529ZM22.0041 32.0102L21.5786 30.4752L20.6149 30.7424L21.0404 32.2773L22.0041 32.0102ZM21.373 31.0256C21.9241 30.6602 22.9432 30.2817 24.214 30.2817V29.2817C22.7605 29.2817 21.5466 29.7107 20.8205 30.1921L21.373 31.0256ZM24.214 30.2817C25.4681 30.2817 26.1959 30.7052 26.6293 31.2862C27.0824 31.8936 27.2736 32.7531 27.2736 33.7187H28.2736C28.2736 32.6496 28.0667 31.5406 27.4308 30.6883C26.7752 29.8094 25.7232 29.2817 24.214 29.2817V30.2817ZM27.2736 33.7187V37.0986H28.2736V33.7187H27.2736ZM25.6606 34.2749C24.8631 34.2549 24.0176 34.3351 23.3525 34.6487C23.0132 34.8088 22.7044 35.0373 22.4814 35.3592C22.2556 35.6849 22.1387 36.0759 22.1387 36.5221H23.1387C23.1387 36.2576 23.2054 36.0701 23.3033 35.9289C23.4038 35.7838 23.5586 35.6571 23.7791 35.5532C24.2337 35.3388 24.8929 35.2559 25.6355 35.2746L25.6606 34.2749ZM22.1387 36.5221C22.1387 37.0834 22.3083 37.5595 22.6479 37.8951C22.9849 38.2281 23.432 38.3662 23.8782 38.3662V37.3662C23.6336 37.3662 23.461 37.2927 23.3509 37.1839C23.2434 37.0776 23.1387 36.8816 23.1387 36.5221H22.1387ZM23.8782 38.3662C24.9984 38.3662 25.8107 37.5729 26.0577 36.7184L25.097 36.4408C24.9556 36.9301 24.4911 37.3662 23.8782 37.3662V38.3662ZM26.0556 36.7255C26.127 36.4912 26.1481 36.2461 26.1481 36.061H25.1481C25.1481 36.182 25.133 36.3224 25.0991 36.4338L26.0556 36.7255ZM26.1481 36.061V34.7748H25.1481V36.061H26.1481Z" fill="#6A6A6A"/>
<path fill-rule="evenodd" clip-rule="evenodd" d="M29.2801 32.7781C29.2801 31.7021 29.2606 30.799 29.209 29.9939H31.1196L31.2264 31.3956H31.2788C31.651 30.6667 32.5894 29.7817 34.0232 29.7817C35.5287 29.7817 37.0868 30.8378 37.0868 33.7958V39.3451H34.9093V34.0653C34.9093 32.7201 34.4489 31.7021 33.2625 31.7021C32.3948 31.7021 31.793 32.3743 31.5622 33.0851C31.4926 33.2969 31.4742 33.5856 31.4742 33.8525V39.3451H29.2801V32.7781Z" fill="white" stroke="#6A6A6A"/>
<path fill-rule="evenodd" clip-rule="evenodd" d="M46.5283 26.2361V36.7135C46.5283 37.6734 46.5631 38.7123 46.5987 39.3452H44.6509L44.5637 37.8668H44.5277C44.0139 38.9042 42.9677 39.5566 41.7119 39.5566C39.6589 39.5566 38.0294 37.6558 38.0294 34.7753C38.0114 31.6449 39.8173 29.7818 41.8887 29.7818C43.0747 29.7818 43.9253 30.3202 44.3142 31.012H44.3501V26.2361H46.5283ZM44.3495 33.8904C44.3495 33.7004 44.3313 33.4689 44.2972 33.2775C44.1021 32.3557 43.4111 31.6063 42.4196 31.6063C41.0209 31.6063 40.2417 32.9512 40.2417 34.6987C40.2417 36.4073 41.0209 37.6557 42.4019 37.6557C43.2868 37.6557 44.0664 37.003 44.2786 35.9855C44.3313 35.7734 44.3495 35.5432 44.3495 35.2927V33.8904Z" fill="white"/>
<path d="M46.5283 26.2361H47.0283V25.7361H46.5283V26.2361ZM46.5987 39.3452V39.8452H47.1276L47.0979 39.3171L46.5987 39.3452ZM44.6509 39.3452L44.1518 39.3746L44.1795 39.8452H44.6509V39.3452ZM44.5637 37.8668L45.0629 37.8374L45.0351 37.3668H44.5637V37.8668ZM44.5277 37.8668V37.3668H44.2173L44.0796 37.6449L44.5277 37.8668ZM38.0294 34.7753H38.5294L38.5294 34.7725L38.0294 34.7753ZM44.3142 31.012L43.8783 31.257L44.0217 31.512H44.3142V31.012ZM44.3501 31.012V31.512H44.8501V31.012H44.3501ZM44.3501 26.2361V25.7361H43.8501V26.2361H44.3501ZM44.2972 33.2775L44.7894 33.1898L44.788 33.1818L44.7863 33.174L44.2972 33.2775ZM44.2786 35.9855L43.7933 35.865L43.791 35.8742L43.7891 35.8834L44.2786 35.9855ZM46.0283 26.2361V36.7135H47.0283V26.2361H46.0283ZM46.0283 36.7135C46.0283 37.6832 46.0634 38.7314 46.0995 39.3732L47.0979 39.3171C47.0629 38.6931 47.0283 37.6637 47.0283 36.7135H46.0283ZM46.5987 38.8452H44.6509V39.8452H46.5987V38.8452ZM45.15 39.3158L45.0629 37.8374L44.0646 37.8962L44.1518 39.3746L45.15 39.3158ZM44.5637 37.3668H44.5277V38.3668H44.5637V37.3668ZM44.0796 37.6449C43.6538 38.5048 42.7858 39.0566 41.7119 39.0566V40.0566C43.1495 40.0566 44.3741 39.3037 44.9757 38.0887L44.0796 37.6449ZM41.7119 39.0566C40.036 39.0566 38.5294 37.4928 38.5294 34.7753H37.5294C37.5294 37.8189 39.2819 40.0566 41.7119 40.0566V39.0566ZM38.5294 34.7725C38.5125 31.8285 40.1775 30.2818 41.8887 30.2818V29.2818C39.4572 29.2818 37.5103 31.4614 37.5294 34.7782L38.5294 34.7725ZM41.8887 30.2818C42.9213 30.2818 43.5906 30.7451 43.8783 31.257L44.75 30.767C44.26 29.8952 43.2281 29.2818 41.8887 29.2818V30.2818ZM44.3142 31.512H44.3501V30.512H44.3142V31.512ZM44.8501 31.012V26.2361H43.8501V31.012H44.8501ZM44.3501 26.7361H46.5283V25.7361H44.3501V26.7361ZM44.8495 33.8904C44.8495 33.6743 44.8292 33.4132 44.7894 33.1898L43.8049 33.3652C43.8333 33.5246 43.8495 33.7265 43.8495 33.8904H44.8495ZM44.7863 33.174C44.5562 32.0865 43.7084 31.1063 42.4196 31.1063V32.1063C43.1139 32.1063 43.648 32.6249 43.808 33.381L44.7863 33.174ZM42.4196 31.1063C41.5341 31.1063 40.8414 31.5426 40.3901 32.2199C39.9499 32.8804 39.7417 33.7592 39.7417 34.6987H40.7417C40.7417 33.8908 40.9231 33.2234 41.2222 32.7745C41.5101 32.3425 41.9063 32.1063 42.4196 32.1063V31.1063ZM39.7417 34.6987C39.7417 35.6209 39.9509 36.4702 40.3941 37.1044C40.8494 37.7557 41.5384 38.1557 42.4019 38.1557V37.1557C41.8844 37.1557 41.4933 36.9315 41.2137 36.5315C40.9221 36.1143 40.7417 35.4851 40.7417 34.6987H39.7417ZM42.4019 38.1557C43.5538 38.1557 44.5139 37.306 44.768 36.0876L43.7891 35.8834C43.6188 36.7 43.0198 37.1557 42.4019 37.1557V38.1557ZM44.7638 36.1061C44.83 35.8396 44.8495 35.565 44.8495 35.2927H43.8495C43.8495 35.5215 43.8325 35.7071 43.7933 35.865L44.7638 36.1061ZM44.8495 35.2927V33.8904H43.8495V35.2927H44.8495Z" fill="#6A6A6A"/>
<path fill-rule="evenodd" clip-rule="evenodd" d="M48.0684 39.3448H50.2661V29.9941H48.0684V39.3448Z" fill="white" stroke="#6A6A6A"/>
<path fill-rule="evenodd" clip-rule="evenodd" d="M51.8047 33.0085C51.8047 31.7417 51.7863 30.8379 51.7334 29.9938H53.6283L53.6976 31.7791H53.7711C54.1953 30.4541 55.2047 29.9938 56.125 29.9938C56.3371 29.9938 56.4609 29.9545 56.6384 29.9938V32.0683C56.4609 32.03 56.2665 31.9916 56.0009 31.9916C54.9564 31.9916 54.2476 32.7206 54.0531 33.7761C54.0186 33.9875 53.9829 34.2382 53.9829 34.5083V39.3456H51.8047V33.0085Z" fill="white" stroke="#6A6A6A"/>
<path fill-rule="evenodd" clip-rule="evenodd" d="M57.6484 39.3448H59.8429V29.9941H57.6484V39.3448Z" fill="white" stroke="#6A6A6A"/>
<path fill-rule="evenodd" clip-rule="evenodd" d="M57.1288 18.6879C55.8106 19.5157 52.7015 21.4497 51.5408 22.17C50.8334 22.5608 49.1951 22.7314 48.2685 21.3763C48.2519 21.3519 47.036 19.7042 46.9864 19.6422C46.9516 19.5983 46.1655 18.3338 44.4141 18.2943C44.1553 18.2876 42.8687 18.2802 41.6133 19.054C39.9446 20.088 36.0639 22.4942 36.0639 22.4942C36.0628 22.4942 36.0628 22.4964 36.0608 22.4964C34.4656 23.4863 33.2227 24.257 33.2227 24.257L34.6912 26.2131C35.3781 27.1383 36.9273 27.854 38.2708 27.0175C38.2708 27.0175 43.2348 23.8998 43.253 23.8908C45.3999 22.6138 47.0564 22.6138 48.1559 23.089C49.1428 23.5413 50.0014 24.6682 50.0014 24.6682C50.0014 24.6682 51.1234 26.1764 51.3214 26.4402C51.9598 27.2925 53.0165 26.9576 53.0165 26.9576C53.0165 26.9576 53.4081 26.9095 53.9984 26.5294C53.9984 26.5294 58.8067 23.5057 58.8097 23.5047C60.3365 22.5332 61.7368 22.3518 62.4525 22.4232C64.6941 22.6442 65.3904 24.3425 66.3623 25.5274C66.9347 26.2243 67.4512 26.62 68.241 26.6001C68.76 26.5881 69.3463 26.2468 69.4327 26.1852L75.1905 22.5813C75.1905 22.5813 74.5997 21.6163 73.3898 20.1148C72.3069 18.7752 71.1567 19.3813 70.2397 19.8739C69.8544 20.0805 68.4584 21.0877 67.0755 21.7903C66.09 22.2907 64.6746 22.1402 63.8988 21.1006C63.8524 21.0374 62.5974 19.3895 62.4655 19.1867C61.959 18.4986 60.9706 17.8823 59.704 17.8823C58.9339 17.8823 58.0599 18.1101 57.1288 18.6879Z" fill="url(#paint0_linear_2404_7526)"/>
<path d="M57.1288 18.6879C55.8106 19.5157 52.7015 21.4497 51.5408 22.17V22.17C50.8334 22.5608 49.1951 22.7314 48.2685 21.3763V21.3763C48.2519 21.3519 47.036 19.7042 46.9864 19.6422V19.6422C46.9516 19.5983 46.1655 18.3338 44.4141 18.2943V18.2943C44.1553 18.2876 42.8687 18.2802 41.6133 19.054V19.054C39.9446 20.088 36.0639 22.4942 36.0639 22.4942V22.4942C36.0628 22.4942 36.0628 22.4964 36.0608 22.4964V22.4964C34.4656 23.4863 33.2227 24.257 33.2227 24.257V24.257L34.6912 26.2131C35.3781 27.1383 36.9273 27.854 38.2708 27.0175V27.0175C38.2708 27.0175 43.2348 23.8998 43.253 23.8908V23.8908C45.3999 22.6138 47.0564 22.6138 48.1559 23.089V23.089C49.1428 23.5413 50.0014 24.6682 50.0014 24.6682V24.6682C50.0014 24.6682 51.1234 26.1764 51.3214 26.4402V26.4402C51.9598 27.2925 53.0165 26.9576 53.0165 26.9576V26.9576C53.0165 26.9576 53.4081 26.9095 53.9984 26.5294V26.5294C53.9984 26.5294 58.8067 23.5057 58.8097 23.5047V23.5047C60.3365 22.5332 61.7368 22.3518 62.4525 22.4232V22.4232C64.6941 22.6442 65.3904 24.3425 66.3623 25.5274V25.5274C66.9347 26.2243 67.4512 26.62 68.241 26.6001V26.6001C68.76 26.5881 69.3463 26.2468 69.4327 26.1852V26.1852L75.1905 22.5813C75.1905 22.5813 74.5997 21.6163 73.3898 20.1148V20.1148C72.3069 18.7752 71.1567 19.3813 70.2397 19.8739V19.8739C69.8544 20.0805 68.4584 21.0877 67.0755 21.7903V21.7903C66.09 22.2907 64.6746 22.1402 63.8988 21.1006V21.1006C63.8524 21.0374 62.5974 19.3895 62.4655 19.1867V19.1867C61.959 18.4986 60.9706 17.8823 59.704 17.8823V17.8823C58.9339 17.8823 58.0599 18.1101 57.1288 18.6879" stroke="#6A6A6A"/>
<defs>
<linearGradient id="paint0_linear_2404_7526" x1="33.2227" y1="27.3879" x2="75.1905" y2="27.3879" gradientUnits="userSpaceOnUse">
<stop stop-color="#FFCA06"/>
<stop offset="0.330844" stop-color="#FBAA18"/>
<stop offset="0.694742" stop-color="#FFC907"/>
<stop offset="1" stop-color="#FAA619"/>
</linearGradient>
</defs>
</svg>
