<svg width="550" height="369" viewBox="0 0 550 369" fill="none" xmlns="http://www.w3.org/2000/svg">
<path d="M535.968 316.09H431.488V349.453H535.968V316.09Z" fill="#6D777C"/>
<path d="M498.587 347.753C479.547 336.877 459.871 327.347 441.023 316.09H431.488V349.453H501.536C500.554 348.884 499.572 348.316 498.587 347.753Z" fill="#43494A"/>
<path d="M535.968 228.74H427.556V316.997H535.968V228.74Z" fill="#BEB9FA"/>
<path d="M435.693 232.119C434.405 231.125 434.98 229.165 436.077 228.74H427.556V316.997H535.968V312.987C502.8 285.661 469.636 258.329 435.693 232.119Z" fill="#7D74F5"/>
<path d="M538.215 230.201H397.784V178.567L516.765 178.631L538.215 230.201Z" fill="#414D5B"/>
<path d="M471.09 194.888H443.003C440.995 194.888 439.352 193.12 439.352 190.959C439.352 188.798 440.995 187.029 443.003 187.029H471.09C473.098 187.029 474.741 188.798 474.741 190.959C474.741 193.12 473.098 194.888 471.09 194.888Z" fill="#695CFF"/>
<path d="M523.33 191.866H495.244C493.235 191.866 491.592 190.098 491.592 187.936C491.592 185.775 493.235 184.007 495.244 184.007H523.33C525.338 184.007 526.981 185.775 526.981 187.936C526.981 190.098 525.338 191.866 523.33 191.866Z" fill="#695CFF"/>
<path d="M492.108 208.286H461.867C460.451 208.286 459.294 207.04 459.294 205.517C459.294 203.993 460.451 202.747 461.867 202.747H492.108C493.524 202.747 494.682 203.994 494.682 205.517C494.682 207.04 493.523 208.286 492.108 208.286Z" fill="#695CFF"/>
<path d="M490.962 224.051H459.642C458.523 224.051 457.608 223.065 457.608 221.862C457.608 220.658 458.523 219.673 459.642 219.673H490.962C492.081 219.673 492.996 220.658 492.996 221.862C492.996 223.065 492.081 224.051 490.962 224.051Z" fill="#695CFF"/>
<path d="M531.474 221.486H503.388C501.38 221.486 499.737 219.718 499.737 217.556C499.737 215.395 501.38 213.627 503.388 213.627H531.474C533.482 213.627 535.125 215.395 535.125 217.556C535.125 219.718 533.482 221.486 531.474 221.486Z" fill="#695CFF"/>
<path d="M539.058 234.181H437.947C436.551 234.181 435.419 232.963 435.419 231.46C435.419 229.958 436.551 228.74 437.947 228.74H539.058C540.454 228.74 541.586 229.957 541.586 231.46C541.586 232.962 540.454 234.181 539.058 234.181Z" fill="#7272B5"/>
<path d="M338.991 322.034V214.837L389.92 155.998L442.348 212.418V322.437C442.348 322.437 337.867 320.825 338.991 322.034Z" fill="#BEB9FA"/>
<path d="M331.5 228.975C330.497 228.975 329.492 228.587 328.695 227.799C327.007 226.132 326.894 223.306 328.443 221.489L386.863 152.979C387.628 152.082 388.7 151.56 389.831 151.534C390.961 151.505 392.055 151.979 392.855 152.841L452.023 216.514C453.644 218.258 453.644 221.086 452.023 222.831C450.403 224.575 447.775 224.575 446.154 222.831L390.049 162.453L334.559 227.528C333.74 228.488 332.622 228.975 331.5 228.975Z" fill="#695CFF"/>
<path d="M399.682 198.37H377.028V247.127H399.682V198.37Z" fill="#FFFFFC" stroke="#FFFFFC" stroke-width="2.3816" stroke-miterlimit="10" stroke-linecap="round" stroke-linejoin="round"/>
<path d="M396.786 201.191H380.014V244.766H396.786V201.191Z" fill="#F7D286"/>
<path d="M385.137 199.688V245.809" stroke="#FFFFFC" stroke-width="2.3816" stroke-miterlimit="10" stroke-linecap="round" stroke-linejoin="round"/>
<path d="M391.49 199.029V245.15" stroke="#FFFFFC" stroke-width="2.3816" stroke-miterlimit="10" stroke-linecap="round" stroke-linejoin="round"/>
<path d="M379.477 212.206H399.069" stroke="#FFFFFC" stroke-width="2.3816" stroke-miterlimit="10" stroke-linecap="round" stroke-linejoin="round"/>
<path d="M377.641 224.725H398.458" stroke="#FFFFFC" stroke-width="2.3816" stroke-miterlimit="10" stroke-linecap="round" stroke-linejoin="round"/>
<path d="M378.865 235.926H399.069" stroke="#FFFFFC" stroke-width="2.3816" stroke-miterlimit="10" stroke-linecap="round" stroke-linejoin="round"/>
<path d="M399.682 263.875H377.028V310.801H399.682V263.875Z" fill="#FFFFFC" stroke="#FFFFFC" stroke-width="2.3816" stroke-miterlimit="10" stroke-linecap="round" stroke-linejoin="round"/>
<path d="M396.786 266.59H380.014V308.53H396.786V266.59Z" fill="#F7D286"/>
<path d="M385.518 265.143V309.533" stroke="#FFFFFC" stroke-width="2.3816" stroke-miterlimit="10" stroke-linecap="round" stroke-linejoin="round"/>
<path d="M391.11 264.509V308.899" stroke="#FFFFFC" stroke-width="2.3816" stroke-miterlimit="10" stroke-linecap="round" stroke-linejoin="round"/>
<path d="M379.477 277.191H399.069" stroke="#FFFFFC" stroke-width="2.3816" stroke-miterlimit="10" stroke-linecap="round" stroke-linejoin="round"/>
<path d="M377.641 289.24H398.458" stroke="#FFFFFC" stroke-width="2.3816" stroke-miterlimit="10" stroke-linecap="round" stroke-linejoin="round"/>
<path d="M378.865 300.02H399.069" stroke="#FFFFFC" stroke-width="2.3816" stroke-miterlimit="10" stroke-linecap="round" stroke-linejoin="round"/>
<path d="M348.634 241.435H341.331C339.323 241.435 337.68 239.667 337.68 237.505C337.68 235.344 339.323 233.576 341.331 233.576H348.634C350.642 233.576 352.285 235.344 352.285 237.505C352.285 239.667 350.642 241.435 348.634 241.435Z" fill="#7D74F5"/>
<path d="M348.072 256.547H337.961C335.953 256.547 334.31 254.779 334.31 252.618C334.31 250.456 335.953 248.688 337.961 248.688H348.072C350.08 248.688 351.723 250.456 351.723 252.618C351.723 254.779 350.08 256.547 348.072 256.547Z" fill="#7D74F5"/>
<path d="M353.127 271.055H348.072C346.373 271.055 344.983 269.559 344.983 267.73C344.983 265.902 346.373 264.406 348.072 264.406H353.127C354.826 264.406 356.217 265.902 356.217 267.73C356.217 269.559 354.826 271.055 353.127 271.055Z" fill="#7D74F5"/>
<path d="M345.825 281.936H338.522C337.132 281.936 335.995 280.711 335.995 279.216C335.995 277.72 337.132 276.495 338.522 276.495H345.825C347.215 276.495 348.353 277.72 348.353 279.216C348.353 280.712 347.215 281.936 345.825 281.936Z" fill="#7D74F5"/>
<path d="M340.77 266.824H337.4C336.009 266.824 334.872 265.599 334.872 264.103C334.872 262.607 336.009 261.382 337.4 261.382H340.77C342.16 261.382 343.298 262.607 343.298 264.103C343.298 265.599 342.16 266.824 340.77 266.824Z" fill="#7D74F5"/>
<path d="M347.791 295.84H338.803C337.259 295.84 335.995 294.479 335.995 292.817C335.995 291.155 337.259 289.794 338.803 289.794H347.791C349.335 289.794 350.599 291.155 350.599 292.817C350.599 294.479 349.335 295.84 347.791 295.84Z" fill="#7D74F5"/>
<path d="M346.668 310.952H341.05C339.505 310.952 338.241 309.591 338.241 307.929C338.241 306.267 339.505 304.906 341.05 304.906H346.668C348.212 304.906 349.476 306.267 349.476 307.929C349.476 309.592 348.212 310.952 346.668 310.952Z" fill="#7D74F5"/>
<path d="M350.6 225.717H345.544C344.308 225.717 343.298 224.629 343.298 223.299C343.298 221.969 344.309 220.882 345.544 220.882H350.6C351.836 220.882 352.846 221.97 352.846 223.299C352.846 224.63 351.836 225.717 350.6 225.717Z" fill="#7D74F5"/>
<path d="M443.846 229.949H437.105C435.56 229.949 434.296 228.589 434.296 226.927C434.296 225.265 435.56 223.904 437.105 223.904H443.846C445.39 223.904 446.654 225.265 446.654 226.927C446.653 228.589 445.39 229.949 443.846 229.949Z" fill="#A9BCFF"/>
<path d="M441.599 245.666H434.297C432.289 245.666 430.646 243.898 430.646 241.737C430.646 239.575 432.289 237.807 434.297 237.807H441.599C443.607 237.807 445.25 239.575 445.25 241.737C445.25 243.898 443.607 245.666 441.599 245.666Z" fill="#7D74F5"/>
<path d="M441.038 260.778H430.927C428.919 260.778 427.276 259.01 427.276 256.849C427.276 254.687 428.919 252.919 430.927 252.919H441.038C443.046 252.919 444.689 254.687 444.689 256.849C444.688 259.01 443.045 260.778 441.038 260.778Z" fill="#7D74F5"/>
<path d="M446.093 275.286H441.038C439.339 275.286 437.948 273.79 437.948 271.962C437.948 270.133 439.339 268.637 441.038 268.637H446.093C447.792 268.637 449.182 270.133 449.182 271.962C449.182 273.79 447.792 275.286 446.093 275.286Z" fill="#7D74F5"/>
<path d="M438.79 286.168H431.488C430.097 286.168 428.96 284.944 428.96 283.447C428.96 281.951 430.097 280.727 431.488 280.727H438.79C440.18 280.727 441.318 281.951 441.318 283.447C441.318 284.944 440.18 286.168 438.79 286.168Z" fill="#7D74F5"/>
<path d="M433.734 271.055H430.363C428.973 271.055 427.835 269.831 427.835 268.334C427.835 266.838 428.973 265.614 430.363 265.614H433.734C435.125 265.614 436.262 266.838 436.262 268.334C436.262 269.831 435.125 271.055 433.734 271.055Z" fill="#7D74F5"/>
<path d="M440.756 300.071H431.768C430.224 300.071 428.96 298.711 428.96 297.048C428.96 295.386 430.224 294.026 431.768 294.026H440.756C442.3 294.026 443.564 295.386 443.564 297.048C443.564 298.711 442.3 300.071 440.756 300.071Z" fill="#7D74F5"/>
<path d="M439.633 315.184H434.015C432.471 315.184 431.207 313.824 431.207 312.161C431.207 310.499 432.471 309.139 434.015 309.139H439.633C441.178 309.139 442.442 310.499 442.442 312.161C442.442 313.824 441.178 315.184 439.633 315.184Z" fill="#7D74F5"/>
<path d="M443.565 229.949H438.509C437.273 229.949 436.263 228.861 436.263 227.532C436.263 226.202 437.274 225.114 438.509 225.114H443.565C444.801 225.114 445.811 226.202 445.811 227.532C445.812 228.861 444.801 229.949 443.565 229.949Z" fill="#7D74F5"/>
<path d="M442.722 319.717H338.241V350.244H442.722V319.717Z" fill="#6D777C"/>
<path d="M446.093 317.602H332.625V323.647H446.093V317.602Z" fill="#4B5665"/>
<path d="M415.76 241.435H364.081V248.241H415.76V241.435Z" fill="#889BF2"/>
<path d="M413.513 307.93H365.204V313.975H413.513V307.93Z" fill="#889BF2"/>
<path d="M406.772 241.435H371.945C369.473 241.435 367.451 239.259 367.451 236.599C367.451 233.939 369.473 231.762 371.945 231.762H406.772C409.243 231.762 411.266 233.938 411.266 236.599C411.266 239.258 409.244 241.435 406.772 241.435Z" fill="#4B5665"/>
<path d="M519.678 308.906H484.851C482.38 308.906 480.357 306.731 480.357 304.07C480.357 301.411 482.379 299.234 484.851 299.234H519.678C522.15 299.234 524.172 301.41 524.172 304.07C524.172 306.731 522.15 308.906 519.678 308.906Z" fill="#7272B5"/>
<path d="M405.649 307.93H370.822C368.351 307.93 366.328 305.754 366.328 303.094C366.328 300.434 368.35 298.257 370.822 298.257H405.649C408.12 298.257 410.143 300.433 410.143 303.094C410.143 305.753 408.12 307.93 405.649 307.93Z" fill="#4B5665"/>
<path d="M406.391 193.095H371.564V199.14H406.391V193.095Z" fill="#889BF2"/>
<path d="M404.525 258.361H369.698V264.406H404.525V258.361Z" fill="#889BF2"/>
<path d="M447.778 326.064H333.186C332.259 326.064 331.501 325.248 331.501 324.251C331.501 323.254 332.259 322.437 333.186 322.437H447.778C448.705 322.437 449.463 323.254 449.463 324.251C449.463 325.248 448.705 326.064 447.778 326.064Z" fill="#D4EDFD"/>
<path d="M476.426 251.711H453.396V316.997H476.426V251.711Z" fill="#4B5665"/>
<path d="M473.055 255.943H456.765V313.37H473.055V255.943Z" stroke="#ACC4DE" stroke-width="1.7302" stroke-miterlimit="10"/>
<path d="M481.481 248.084H447.216V254.129H481.481V248.084Z" fill="#7272B5"/>
<path d="M535.968 307.93H476.425V317.602H535.968V307.93Z" fill="#D4EDFD"/>
<path d="M432.611 326.669H429.802V350.245H432.611V326.669Z" fill="#43494A"/>
<path d="M482.043 317.602H479.234V341.177H482.043V317.602Z" fill="#43494A"/>
<path d="M501.703 318.206H498.895V341.781H501.703V318.206Z" fill="#43494A"/>
<path d="M512.938 318.811H510.129V342.386H512.938V318.811Z" fill="#43494A"/>
<path d="M525.296 318.206H522.487V341.781H525.296V318.206Z" fill="#43494A"/>
<path d="M492.154 318.811H489.345V342.386H492.154V318.811Z" fill="#43494A"/>
<path d="M420.815 326.669H418.006V350.245H420.815V326.669Z" fill="#43494A"/>
<path d="M409.019 326.669H406.21V350.245H409.019V326.669Z" fill="#43494A"/>
<path d="M397.223 326.669H394.414V350.245H397.223V326.669Z" fill="#43494A"/>
<path d="M371.945 350.244H374.538V326.668H371.945V350.244Z" fill="#43494A"/>
<path d="M363.518 349.64H366.111V326.064H363.518V349.64Z" fill="#43494A"/>
<path d="M352.847 350.244H355.439V326.668H352.847V350.244Z" fill="#43494A"/>
<path d="M343.859 350.849H346.451V327.273H343.859V350.849Z" fill="#43494A"/>
<path d="M382.833 350.244H385.426V326.668H382.833V350.244Z" fill="#43494A"/>
<path d="M498.894 169.5H464.629V217.255H498.894V169.5Z" fill="#DFECFF"/>
<path d="M535.883 338.847H446.093V342.665H535.883V338.847Z" fill="#43494A"/>
<path d="M500.833 169.888H461.989C460.208 169.888 458.752 168.32 458.752 166.404C458.752 164.488 460.208 162.92 461.989 162.92H500.833C502.614 162.92 504.071 164.488 504.071 166.404C504.071 168.32 502.614 169.888 500.833 169.888Z" fill="#695CFF"/>
<path d="M287.971 343.689C281.158 343.689 275.584 337.69 275.584 330.359V247.178C275.584 239.847 281.158 233.848 287.971 233.848C294.784 233.848 300.358 239.847 300.358 247.178V330.359C300.358 337.69 294.784 343.689 287.971 343.689Z" fill="#9E97F7"/>
<path d="M318.618 343.728C312.956 343.728 308.323 338.743 308.323 332.65V263.52C308.323 257.426 312.956 252.441 318.618 252.441C324.28 252.441 328.913 257.426 328.913 263.52V332.65C328.913 338.743 324.28 343.728 318.618 343.728Z" fill="#7D74F5"/>
<path d="M287.372 290.891L288.024 352.699" stroke="#343E49" stroke-width="2.2768" stroke-miterlimit="10" stroke-linecap="round" stroke-linejoin="round"/>
<path d="M319.26 320.474L319.272 350.414" stroke="#343E49" stroke-width="2.2768" stroke-miterlimit="10" stroke-linecap="round" stroke-linejoin="round"/>
<path d="M490.615 173.235H471.981V213.34H490.615V173.235Z" fill="#FFFFFC" stroke="#FFFFFC" stroke-width="1.9591" stroke-miterlimit="10" stroke-linecap="round" stroke-linejoin="round"/>
<path d="M488.232 175.554H474.436V211.398H488.232V175.554Z" fill="#F7D286"/>
<path d="M478.651 174.318V212.256" stroke="#FFFFFC" stroke-width="1.9591" stroke-miterlimit="10" stroke-linecap="round" stroke-linejoin="round"/>
<path d="M483.878 173.776V211.714" stroke="#FFFFFC" stroke-width="1.9591" stroke-miterlimit="10" stroke-linecap="round" stroke-linejoin="round"/>
<path d="M473.995 184.616H490.111" stroke="#FFFFFC" stroke-width="1.9591" stroke-miterlimit="10" stroke-linecap="round" stroke-linejoin="round"/>
<path d="M472.484 194.913H489.608" stroke="#FFFFFC" stroke-width="1.9591" stroke-miterlimit="10" stroke-linecap="round" stroke-linejoin="round"/>
<path d="M473.492 204.126H490.111" stroke="#FFFFFC" stroke-width="1.9591" stroke-miterlimit="10" stroke-linecap="round" stroke-linejoin="round"/>
<path d="M509.91 250.281H491.276V290.387H509.91V250.281Z" fill="#FFFFFC" stroke="#FFFFFC" stroke-width="1.9591" stroke-miterlimit="10" stroke-linecap="round" stroke-linejoin="round"/>
<path d="M507.527 252.602H493.731V288.446H507.527V252.602Z" fill="#F7D286"/>
<path d="M497.945 251.366V289.304" stroke="#FFFFFC" stroke-width="1.9591" stroke-miterlimit="10" stroke-linecap="round" stroke-linejoin="round"/>
<path d="M503.172 250.824V288.762" stroke="#FFFFFC" stroke-width="1.9591" stroke-miterlimit="10" stroke-linecap="round" stroke-linejoin="round"/>
<path d="M493.29 261.663H509.406" stroke="#FFFFFC" stroke-width="1.9591" stroke-miterlimit="10" stroke-linecap="round" stroke-linejoin="round"/>
<path d="M491.779 271.96H508.903" stroke="#FFFFFC" stroke-width="1.9591" stroke-miterlimit="10" stroke-linecap="round" stroke-linejoin="round"/>
<path d="M492.786 281.174H509.406" stroke="#FFFFFC" stroke-width="1.9591" stroke-miterlimit="10" stroke-linecap="round" stroke-linejoin="round"/>
<path d="M540.444 368.697H258.291C253.035 368.697 248.734 364.069 248.734 358.413C248.734 352.756 253.035 348.128 258.291 348.128H540.443C545.699 348.128 550 352.756 550 358.413C550.001 364.069 545.7 368.697 540.444 368.697Z" fill="#414D5B"/>
<path d="M309.338 179.131H397.37V53.0974H319.492C313.884 53.0974 309.338 57.9905 309.338 64.0253V179.131Z" fill="#9E97F7"/>
<path d="M396.846 67.3395H412.472V65.864C412.472 58.6581 407.043 52.816 400.348 52.816H396.846V67.3395Z" fill="#695CFF"/>
<path d="M379.292 165.597H295.189C295.189 165.597 298.381 177.285 311.277 178.698C315.051 179.111 387.938 179.131 387.938 179.131C387.938 179.131 378.506 172.364 379.292 165.597Z" fill="#695CFF"/>
<path d="M390.394 83.6896H317.041" stroke="#695CFF" stroke-width="2.846" stroke-miterlimit="10" stroke-linecap="round" stroke-linejoin="round"/>
<path d="M390.394 90.4557H317.041" stroke="#695CFF" stroke-width="2.846" stroke-miterlimit="10" stroke-linecap="round" stroke-linejoin="round"/>
<path d="M390.394 96.9397H317.041" stroke="#695CFF" stroke-width="2.846" stroke-miterlimit="10" stroke-linecap="round" stroke-linejoin="round"/>
<path d="M390.394 102.86H317.041" stroke="#695CFF" stroke-width="2.846" stroke-miterlimit="10" stroke-linecap="round" stroke-linejoin="round"/>
<path d="M390.394 109.063H317.041" stroke="#695CFF" stroke-width="2.846" stroke-miterlimit="10" stroke-linecap="round" stroke-linejoin="round"/>
<path d="M390.917 122.032H317.564" stroke="#695CFF" stroke-width="2.846" stroke-miterlimit="10" stroke-linecap="round" stroke-linejoin="round"/>
<path d="M390.917 128.798H317.564" stroke="#695CFF" stroke-width="2.846" stroke-miterlimit="10" stroke-linecap="round" stroke-linejoin="round"/>
<path d="M390.917 135.282H317.564" stroke="#695CFF" stroke-width="2.846" stroke-miterlimit="10" stroke-linecap="round" stroke-linejoin="round"/>
<path d="M390.917 141.202H317.564" stroke="#695CFF" stroke-width="2.846" stroke-miterlimit="10" stroke-linecap="round" stroke-linejoin="round"/>
<path d="M390.917 147.405H317.564" stroke="#695CFF" stroke-width="2.846" stroke-miterlimit="10" stroke-linecap="round" stroke-linejoin="round"/>
<path d="M365.507 159.528H390.394V155.862H365.507V159.528Z" fill="#695CFF"/>
<path d="M335.641 78.3331H388.822V66.4923H335.641V78.3331Z" fill="#695CFF"/>
<path d="M410.529 127.745C424.678 127.745 436.148 115.508 436.148 100.412C436.148 85.3167 424.678 73.0792 410.529 73.0792C396.379 73.0792 384.909 85.3167 384.909 100.412C384.909 115.508 396.379 127.745 410.529 127.745Z" fill="#F9A813"/>
<path d="M431.081 103.39C433.187 89.4288 424.377 76.2745 411.404 74.0087C398.431 71.743 386.207 81.2237 384.102 95.1847C381.997 109.146 390.807 122.3 403.78 124.566C416.753 126.832 428.976 117.351 431.081 103.39Z" fill="#FFC05A"/>
<path d="M431.636 101.275H437.038C437.347 101.275 437.597 101.006 437.597 100.674C437.597 100.342 437.347 100.072 437.038 100.072H431.636C431.327 100.072 431.077 100.342 431.077 100.674C431.077 101.006 431.327 101.275 431.636 101.275Z" fill="#BC5406"/>
<path d="M431.056 95.6688H436.651C436.96 95.6688 437.21 95.3995 437.21 95.0674C437.21 94.7353 436.96 94.466 436.651 94.466H431.056C430.748 94.466 430.497 94.7353 430.497 95.0674C430.497 95.3995 430.748 95.6688 431.056 95.6688Z" fill="#BC5406"/>
<path d="M430.091 108.542H436.458C436.767 108.542 437.017 108.273 437.017 107.941C437.017 107.609 436.767 107.339 436.458 107.339H430.091C429.783 107.339 429.532 107.609 429.532 107.941C429.532 108.273 429.783 108.542 430.091 108.542Z" fill="#BC5406"/>
<path d="M407.285 80.0519C410.841 80.0519 414.154 81.1893 416.935 83.1424C417.129 82.9136 417.326 82.6873 417.523 82.4619C414.583 80.3599 411.064 79.133 407.284 79.133C397.007 79.133 388.645 88.1809 388.645 99.3024C388.645 105.835 391.532 111.649 395.994 115.338L396.704 114.765C392.335 111.254 389.498 105.631 389.498 99.3024C389.499 88.6877 397.478 80.0519 407.285 80.0519Z" fill="#BC5406"/>
<path d="M395.858 115.529C391.132 111.622 388.42 105.708 388.42 99.3024C388.42 88.0476 396.882 78.8912 407.284 78.8912C410.98 78.8912 414.564 80.0562 417.647 82.2606L417.868 82.4189L417.686 82.6279C417.489 82.8525 417.293 83.0779 417.101 83.3051L416.972 83.4565L416.812 83.3446C413.969 81.3494 410.674 80.2937 407.284 80.2937C397.601 80.2937 389.723 88.8211 389.723 99.3024C389.723 105.282 392.383 110.99 396.838 114.571L397.078 114.765L395.993 115.641L395.858 115.529ZM389.274 99.3024C389.274 88.5544 397.354 79.811 407.285 79.811C410.699 79.811 414.018 80.8538 416.898 82.8293C416.99 82.7217 417.083 82.6142 417.177 82.5075C414.218 80.458 410.804 79.3756 407.285 79.3756C397.131 79.3756 388.87 88.3152 388.87 99.3033C388.87 105.496 391.465 111.22 395.997 115.034L396.332 114.764C391.907 111.082 389.274 105.327 389.274 99.3024Z" fill="#BC5406"/>
<path d="M422.883 90.0721C424.275 92.8142 425.07 95.9581 425.07 99.3016C425.07 109.916 417.092 118.552 407.284 118.552C404.811 118.552 402.455 118.001 400.313 117.009L399.534 117.637C401.896 118.811 404.52 119.471 407.284 119.471C417.563 119.471 425.924 110.423 425.924 99.3016C425.924 95.743 425.065 92.3995 423.563 89.4939C423.335 89.6849 423.108 89.8785 422.883 90.0721Z" fill="#BC5406"/>
<path d="M399.44 117.858L399.098 117.688L400.282 116.732L400.401 116.787C402.583 117.798 404.899 118.31 407.284 118.31C416.967 118.31 424.845 109.783 424.845 99.3015C424.845 96.1241 424.098 92.9724 422.685 90.1873L422.594 90.0092L422.742 89.8827C422.968 89.6883 423.196 89.4938 423.424 89.3028L423.631 89.1299L423.758 89.376C425.321 92.4011 426.147 95.8332 426.147 99.3015C426.147 110.556 417.685 119.713 407.283 119.713C404.557 119.714 401.918 119.089 399.44 117.858ZM423.17 90.1357C424.561 92.9475 425.295 96.112 425.295 99.3024C425.295 110.05 417.216 118.794 407.285 118.794C404.882 118.794 402.547 118.287 400.344 117.286L399.974 117.586C402.292 118.677 404.749 119.23 407.285 119.23C417.439 119.23 425.7 110.29 425.7 99.3024C425.7 96.0113 424.938 92.7522 423.493 89.8604C423.385 89.9516 423.277 90.0436 423.17 90.1357Z" fill="#BC5406"/>
<path d="M405.867 83.8977H408.028V86.7493H405.867V83.8977ZM405.867 102.904H408.028V105.756H405.867V102.904ZM407.111 86.2845C408.141 86.2845 409.041 86.3976 409.812 86.6237C410.582 86.8498 411.202 87.0885 411.671 87.3397C412.14 87.591 412.425 87.7585 412.525 87.8422L410.716 90.8697C410.582 90.7692 410.352 90.6226 410.025 90.43C409.707 90.2374 409.326 90.0657 408.882 89.9149C408.447 89.7642 407.99 89.6888 407.513 89.6888C406.868 89.6888 406.345 89.8061 405.943 90.0406C405.549 90.2667 405.352 90.6059 405.352 91.0581C405.352 91.368 405.457 91.6485 405.666 91.8997C405.884 92.1426 406.211 92.3771 406.646 92.6032C407.09 92.821 407.651 93.0596 408.329 93.3193C408.949 93.5454 409.531 93.8134 410.076 94.1232C410.62 94.4331 411.097 94.8016 411.508 95.2287C411.926 95.6474 412.257 96.1332 412.5 96.6859C412.743 97.2386 412.864 97.8667 412.864 98.5702C412.864 99.4077 412.693 100.136 412.349 100.756C412.006 101.367 411.537 101.874 410.942 102.276C410.356 102.678 409.686 102.975 408.932 103.168C408.187 103.369 407.412 103.469 406.608 103.469C405.469 103.469 404.448 103.34 403.543 103.08C402.647 102.82 401.923 102.54 401.37 102.238C400.817 101.937 400.486 101.736 400.378 101.635L402.249 98.4823C402.35 98.5576 402.542 98.6791 402.827 98.8466C403.12 99.0141 403.476 99.1899 403.895 99.3742C404.314 99.55 404.758 99.7008 405.227 99.8264C405.704 99.952 406.173 100.015 406.634 100.015C407.404 100.015 407.982 99.8683 408.367 99.5752C408.752 99.2737 408.945 98.8801 408.945 98.3943C408.945 98.0342 408.824 97.7118 408.581 97.4271C408.338 97.1423 407.973 96.8743 407.488 96.6231C407.002 96.3635 406.395 96.0913 405.666 95.8065C404.938 95.5134 404.255 95.1575 403.619 94.7388C402.991 94.32 402.48 93.7966 402.086 93.1685C401.692 92.5404 401.496 91.7616 401.496 90.832C401.496 89.9024 401.755 89.0984 402.274 88.4201C402.802 87.7333 403.493 87.2057 404.347 86.8372C405.21 86.4688 406.131 86.2845 407.111 86.2845Z" fill="#FFF8F3"/>
<path d="M472.412 147.335C482.046 147.335 489.856 139.003 489.856 128.724C489.856 118.446 482.046 110.114 472.412 110.114C462.778 110.114 454.969 118.446 454.969 128.724C454.969 139.003 462.778 147.335 472.412 147.335Z" fill="#F9A813"/>
<path d="M481.859 140.292C488.186 133.483 488.186 122.443 481.859 115.634C475.532 108.825 465.273 108.825 458.946 115.634C452.619 122.443 452.619 133.483 458.946 140.292C465.273 147.101 475.532 147.101 481.859 140.292Z" fill="#FFC05A"/>
<path d="M486.783 129.312H490.461C490.672 129.312 490.842 129.129 490.842 128.903C490.842 128.676 490.672 128.493 490.461 128.493H486.783C486.573 128.493 486.402 128.676 486.402 128.903C486.402 129.129 486.573 129.312 486.783 129.312Z" fill="#BC5406"/>
<path d="M486.389 125.495H490.199C490.409 125.495 490.579 125.312 490.579 125.086C490.579 124.86 490.409 124.676 490.199 124.676H486.389C486.179 124.676 486.009 124.86 486.009 125.086C486.009 125.311 486.179 125.495 486.389 125.495Z" fill="#BC5406"/>
<path d="M485.732 134.26H490.067C490.277 134.26 490.447 134.077 490.447 133.851C490.447 133.624 490.277 133.441 490.067 133.441H485.732C485.521 133.441 485.351 133.624 485.351 133.851C485.351 134.077 485.521 134.26 485.732 134.26Z" fill="#BC5406"/>
<path d="M470.204 114.862C472.625 114.862 474.88 115.636 476.774 116.966C476.906 116.81 477.04 116.656 477.175 116.502C475.173 115.071 472.777 114.235 470.204 114.235C463.206 114.235 457.512 120.396 457.512 127.968C457.512 132.416 459.478 136.374 462.516 138.886L462.999 138.496C460.025 136.106 458.093 132.277 458.093 127.968C458.093 120.742 463.526 114.862 470.204 114.862Z" fill="#BC5406" stroke="#BC5406" stroke-width="0.515" stroke-miterlimit="10" stroke-linecap="round" stroke-linejoin="round"/>
<path d="M462.424 139.017C459.205 136.357 457.36 132.33 457.36 127.968C457.36 120.305 463.122 114.071 470.204 114.071C472.72 114.071 475.16 114.864 477.26 116.365L477.411 116.472L477.287 116.614C477.153 116.768 477.02 116.921 476.889 117.076L476.801 117.179L476.692 117.102C474.756 115.744 472.513 115.025 470.205 115.025C463.612 115.025 458.248 120.831 458.248 127.967C458.248 132.039 460.059 135.925 463.092 138.364L463.256 138.495L462.518 139.091L462.424 139.017ZM457.941 127.969C457.941 120.651 463.442 114.697 470.204 114.697C472.528 114.697 474.788 115.407 476.75 116.752C476.812 116.679 476.875 116.606 476.939 116.533C474.925 115.137 472.6 114.401 470.204 114.401C463.291 114.401 457.666 120.487 457.666 127.969C457.666 132.186 459.433 136.083 462.519 138.68L462.746 138.496C459.734 135.989 457.941 132.071 457.941 127.969Z" fill="#BC5406" stroke="#BC5406" stroke-width="0.515" stroke-miterlimit="10" stroke-linecap="round" stroke-linejoin="round"/>
<path d="M480.824 121.685C481.772 123.552 482.314 125.693 482.314 127.969C482.314 135.197 476.881 141.076 470.204 141.076C468.519 141.076 466.915 140.701 465.456 140.026L464.926 140.454C466.535 141.253 468.321 141.702 470.203 141.702C477.201 141.702 482.894 135.542 482.894 127.969C482.894 125.546 482.309 123.27 481.286 121.292C481.132 121.421 480.979 121.552 480.824 121.685Z" fill="#BC5406" stroke="#BC5406" stroke-width="0.515" stroke-miterlimit="10" stroke-linecap="round" stroke-linejoin="round"/>
<path d="M464.862 140.602L464.63 140.487L465.436 139.837L465.517 139.874C467.003 140.563 468.58 140.911 470.204 140.911C476.797 140.911 482.161 135.105 482.161 127.969C482.161 125.805 481.653 123.66 480.69 121.764L480.629 121.643L480.729 121.557C480.883 121.424 481.037 121.292 481.193 121.162L481.334 121.044L481.42 121.212C482.484 123.271 483.047 125.608 483.047 127.969C483.047 135.632 477.285 141.866 470.203 141.866C468.347 141.866 466.549 141.441 464.862 140.602ZM481.02 121.727C481.966 123.641 482.467 125.797 482.467 127.968C482.467 135.286 476.966 141.24 470.204 141.24C468.568 141.24 466.979 140.895 465.478 140.213L465.226 140.417C466.804 141.16 468.478 141.537 470.204 141.537C477.117 141.537 482.743 135.45 482.743 127.968C482.743 125.727 482.224 123.509 481.24 121.539C481.166 121.602 481.092 121.664 481.02 121.727Z" fill="#BC5406" stroke="#BC5406" stroke-width="0.515" stroke-miterlimit="10" stroke-linecap="round" stroke-linejoin="round"/>
<path d="M469.238 117.226H470.709V119.167H469.238V117.226ZM469.238 130.167H470.709V132.108H469.238V130.167ZM470.085 118.851C470.786 118.851 471.399 118.928 471.924 119.082C472.448 119.236 472.87 119.398 473.19 119.569C473.509 119.741 473.703 119.855 473.771 119.912L472.54 121.973C472.448 121.904 472.292 121.805 472.069 121.674C471.853 121.542 471.593 121.425 471.291 121.323C470.994 121.22 470.684 121.169 470.359 121.169C469.92 121.169 469.563 121.249 469.29 121.408C469.022 121.562 468.888 121.793 468.888 122.101C468.888 122.312 468.959 122.503 469.101 122.674C469.25 122.84 469.472 122.999 469.768 123.153C470.071 123.301 470.453 123.464 470.915 123.641C471.337 123.795 471.733 123.977 472.104 124.188C472.474 124.399 472.799 124.65 473.079 124.941C473.364 125.226 473.589 125.557 473.754 125.933C473.92 126.309 474.002 126.737 474.002 127.216C474.002 127.786 473.885 128.282 473.652 128.704C473.418 129.12 473.099 129.465 472.694 129.739C472.295 130.013 471.838 130.215 471.325 130.346C470.818 130.483 470.29 130.552 469.743 130.552C468.967 130.552 468.272 130.463 467.656 130.287C467.046 130.11 466.553 129.919 466.176 129.714C465.8 129.508 465.575 129.371 465.5 129.303L466.775 127.156C466.843 127.207 466.974 127.29 467.168 127.404C467.368 127.518 467.61 127.638 467.895 127.763C468.18 127.883 468.483 127.986 468.802 128.071C469.127 128.157 469.446 128.2 469.76 128.2C470.285 128.2 470.678 128.1 470.94 127.9C471.203 127.695 471.334 127.427 471.334 127.096C471.334 126.851 471.251 126.632 471.086 126.438C470.92 126.244 470.672 126.061 470.342 125.89C470.011 125.713 469.597 125.528 469.101 125.334C468.605 125.135 468.141 124.892 467.707 124.607C467.28 124.322 466.932 123.966 466.664 123.538C466.396 123.11 466.262 122.58 466.262 121.947C466.262 121.314 466.438 120.767 466.792 120.305C467.151 119.837 467.622 119.478 468.203 119.227C468.791 118.976 469.418 118.851 470.085 118.851Z" fill="#FFF8F3"/>
<path d="M282.642 216.388C292.276 216.388 300.086 208.056 300.086 197.778C300.086 187.499 292.276 179.167 282.642 179.167C273.008 179.167 265.198 187.499 265.198 197.778C265.198 208.056 273.008 216.388 282.642 216.388Z" fill="#F9A813"/>
<path d="M280.636 214.45C289.584 214.45 296.838 206.644 296.838 197.014C296.838 187.385 289.584 179.578 280.636 179.578C271.688 179.578 264.434 187.385 264.434 197.014C264.434 206.644 271.688 214.45 280.636 214.45Z" fill="#FFC05A"/>
<path d="M297.012 198.365H300.69C300.9 198.365 301.07 198.182 301.07 197.956C301.07 197.729 300.9 197.546 300.69 197.546H297.012C296.802 197.546 296.631 197.729 296.631 197.956C296.631 198.182 296.802 198.365 297.012 198.365Z" fill="#BC5406"/>
<path d="M296.618 194.549H300.427C300.638 194.549 300.808 194.365 300.808 194.139C300.808 193.913 300.638 193.729 300.427 193.729H296.618C296.407 193.729 296.237 193.913 296.237 194.139C296.237 194.365 296.408 194.549 296.618 194.549Z" fill="#BC5406"/>
<path d="M295.962 203.313H300.297C300.507 203.313 300.677 203.13 300.677 202.904C300.677 202.678 300.507 202.494 300.297 202.494H295.962C295.752 202.494 295.581 202.678 295.581 202.904C295.581 203.13 295.752 203.313 295.962 203.313Z" fill="#BC5406"/>
<path d="M280.433 183.915C282.854 183.915 285.11 184.689 287.003 186.018C287.135 185.863 287.269 185.709 287.404 185.555C285.402 184.124 283.006 183.288 280.433 183.288C273.435 183.288 267.741 189.449 267.741 197.021C267.741 201.469 269.707 205.427 272.745 207.939L273.228 207.549C270.254 205.159 268.322 201.329 268.322 197.021C268.323 189.795 273.756 183.915 280.433 183.915Z" fill="#BC5406" stroke="#BC5406" stroke-width="0.515" stroke-miterlimit="10" stroke-linecap="round" stroke-linejoin="round"/>
<path d="M272.653 208.071C269.435 205.41 267.589 201.383 267.589 197.022C267.589 189.359 273.351 183.125 280.434 183.125C282.95 183.125 285.39 183.918 287.489 185.419L287.64 185.526L287.516 185.668C287.383 185.822 287.249 185.975 287.118 186.13L287.03 186.233L286.922 186.156C284.986 184.798 282.743 184.079 280.434 184.079C273.842 184.079 268.478 189.885 268.478 197.021C268.478 201.093 270.288 204.979 273.322 207.417L273.486 207.549L272.747 208.145L272.653 208.071ZM268.171 197.022C268.171 189.704 273.672 183.751 280.434 183.751C282.758 183.751 285.018 184.46 286.979 185.805C287.042 185.732 287.105 185.659 287.169 185.586C285.155 184.19 282.83 183.454 280.434 183.454C273.52 183.454 267.896 189.54 267.896 197.022C267.896 201.239 269.662 205.136 272.749 207.733L272.976 207.549C269.963 205.043 268.171 201.124 268.171 197.022Z" fill="#BC5406" stroke="#BC5406" stroke-width="0.515" stroke-miterlimit="10" stroke-linecap="round" stroke-linejoin="round"/>
<path d="M291.053 190.738C292.001 192.605 292.543 194.745 292.543 197.022C292.543 204.249 287.11 210.129 280.433 210.129C278.748 210.129 277.144 209.754 275.685 209.079L275.155 209.506C276.763 210.306 278.55 210.755 280.432 210.755C287.43 210.755 293.123 204.594 293.123 197.022C293.123 194.599 292.538 192.322 291.515 190.344C291.361 190.474 291.207 190.605 291.053 190.738Z" fill="#BC5406" stroke="#BC5406" stroke-width="0.515" stroke-miterlimit="10" stroke-linecap="round" stroke-linejoin="round"/>
<path d="M275.092 209.656L274.859 209.541L275.665 208.89L275.746 208.928C277.233 209.617 278.809 209.965 280.433 209.965C287.027 209.965 292.391 204.159 292.391 197.023C292.391 194.86 291.882 192.714 290.92 190.818L290.858 190.696L290.958 190.61C291.112 190.478 291.267 190.346 291.422 190.215L291.563 190.098L291.649 190.265C292.714 192.325 293.276 194.662 293.276 197.023C293.276 204.686 287.514 210.92 280.432 210.92C278.576 210.919 276.779 210.494 275.092 209.656ZM291.248 190.781C292.195 192.695 292.695 194.85 292.695 197.022C292.695 204.34 287.194 210.294 280.432 210.294C278.796 210.294 277.207 209.949 275.706 209.267L275.455 209.471C277.033 210.214 278.706 210.59 280.432 210.59C287.346 210.59 292.971 204.504 292.971 197.022C292.971 194.782 292.452 192.563 291.469 190.593C291.395 190.655 291.322 190.718 291.248 190.781Z" fill="#BC5406" stroke="#BC5406" stroke-width="0.515" stroke-miterlimit="10" stroke-linecap="round" stroke-linejoin="round"/>
<path d="M279.468 186.277H280.939V188.218H279.468V186.277ZM279.468 199.218H280.939V201.159H279.468V199.218ZM280.315 187.902C281.016 187.902 281.629 187.979 282.154 188.133C282.678 188.287 283.1 188.449 283.42 188.62C283.739 188.792 283.933 188.906 284.001 188.963L282.77 191.024C282.678 190.956 282.522 190.856 282.299 190.725C282.083 190.593 281.823 190.477 281.521 190.374C281.224 190.271 280.914 190.22 280.589 190.22C280.15 190.22 279.793 190.3 279.52 190.459C279.252 190.613 279.118 190.844 279.118 191.152C279.118 191.363 279.189 191.554 279.331 191.725C279.48 191.891 279.702 192.05 279.998 192.204C280.301 192.353 280.683 192.515 281.145 192.692C281.567 192.846 281.963 193.028 282.333 193.239C282.704 193.45 283.029 193.701 283.309 193.992C283.594 194.277 283.819 194.608 283.984 194.984C284.15 195.36 284.232 195.788 284.232 196.267C284.232 196.837 284.115 197.333 283.882 197.755C283.648 198.172 283.329 198.516 282.924 198.79C282.525 199.064 282.068 199.266 281.555 199.397C281.048 199.534 280.52 199.603 279.973 199.603C279.197 199.603 278.502 199.514 277.886 199.338C277.276 199.161 276.782 198.97 276.406 198.765C276.03 198.559 275.805 198.422 275.73 198.354L277.005 196.207C277.073 196.258 277.204 196.341 277.398 196.455C277.598 196.569 277.84 196.689 278.125 196.814C278.41 196.934 278.713 197.037 279.032 197.122C279.357 197.208 279.676 197.251 279.99 197.251C280.515 197.251 280.908 197.151 281.17 196.951C281.433 196.746 281.564 196.478 281.564 196.147C281.564 195.902 281.481 195.683 281.316 195.489C281.15 195.295 280.902 195.112 280.572 194.941C280.241 194.765 279.827 194.579 279.331 194.385C278.835 194.186 278.371 193.943 277.937 193.658C277.51 193.373 277.162 193.017 276.894 192.589C276.626 192.161 276.492 191.631 276.492 190.998C276.492 190.365 276.668 189.818 277.022 189.356C277.381 188.888 277.852 188.529 278.433 188.278C279.021 188.027 279.648 187.902 280.315 187.902Z" fill="#FFF8F3"/>
<path d="M158.315 86.9755C158.483 90.6477 161.385 93.4792 164.797 93.2994C168.211 93.1187 170.841 89.9955 170.674 86.3233C170.507 82.6503 167.604 79.8196 164.191 79.9994C160.778 80.1792 158.147 83.3025 158.315 86.9755Z" fill="#F3725F"/>
<path d="M135.935 103.013C136.629 106.97 137.031 110.986 137.136 115.011C137.294 121.035 136.573 127.607 132.668 131.926C135.089 135.51 138.761 138.452 142.75 139.548C146.738 140.643 151.078 140.191 154.798 138.294C155.813 137.776 156.78 137.157 157.745 136.539C158.929 135.78 160.113 135.022 161.297 134.263C156.165 124.751 151.78 114.227 153.154 103.328C150.592 102.814 146.965 101.652 144.405 101.139C143.293 100.916 142.171 100.692 141.042 100.745C139.249 100.827 137.702 103.339 135.935 103.013Z" fill="#F3725F"/>
<path d="M155.77 122.27C157.27 126.405 159.222 130.417 161.297 134.263C160.113 135.022 158.929 135.78 157.745 136.539C156.78 137.157 155.814 137.777 154.798 138.294C151.078 140.191 146.738 140.643 142.75 139.548C138.761 138.452 135.088 135.51 132.668 131.926C135.022 129.322 136.218 125.898 136.764 122.27H155.77Z" fill="#7D74F5"/>
<path d="M154.725 330.687L134.246 329.449C117.996 328.466 105.449 313.356 106.362 295.869L109.609 233.685C110.522 216.199 124.563 202.696 140.812 203.678L161.292 204.916C177.541 205.899 190.088 221.01 189.175 238.496L185.929 300.679C185.016 318.166 170.974 331.669 154.725 330.687Z" fill="#5D515D"/>
<path d="M139.85 367.286C143.781 341.013 145.738 314.343 145.685 287.708L105.324 281.392C103.866 308.437 103.015 337.594 102.901 367.286H139.85Z" fill="#5D515D"/>
<path d="M185.394 367.286C187.356 336.226 188.472 305.608 188.775 277.25L148.104 280.537C146.178 309.42 146.619 338.522 149.419 367.286H185.394Z" fill="#5D515D"/>
<path d="M186.782 138.202C180.88 133.865 174.213 134.559 165.079 134.001C155.182 133.396 145.331 132.079 135.416 131.768C125.926 131.47 115.597 131.88 106.931 135.819C99.31 139.283 89.4552 144.373 87.6036 153.88C85.2586 165.921 89.5536 181.154 91.3932 193.057C95.3724 218.795 103.749 257.248 105.324 281.393C105.302 281.454 128.136 284.187 129.624 284.286C144.02 285.241 158.746 285.836 173.097 283.923C180.566 282.928 188.549 278.762 188.549 278.762C190.353 267.086 194.968 248.541 196.579 236.817C199.315 216.913 203.247 195.813 201.56 175.254C200.701 164.795 198.562 154.028 192.988 145.212C190.965 142.012 188.924 139.776 186.782 138.202Z" fill="#7D74F5"/>
<path d="M140.223 330.693C147.092 329.912 153.743 327.028 159.196 322.467L140.223 330.693Z" fill="#5D515D"/>
<path d="M136.09 65.3272C140.718 67.3328 142.5 73.1689 141.043 77.834C139.585 82.4982 135.661 86.0852 131.445 88.8006C130.543 82.6161 130.068 77.2291 129.165 71.0454C128.826 68.7224 128.814 65.7617 131.012 64.7318C132.248 64.1528 134.838 64.7843 136.09 65.3272Z" fill="#2D1A14"/>
<path d="M157.727 323.556C150.59 327.167 142.923 328.235 135.166 326.703C134.152 326.503 133.717 328.174 134.738 328.376C142.941 329.996 150.994 328.871 158.541 325.054C159.479 324.579 158.662 323.082 157.727 323.556Z" fill="#3D333D"/>
<path d="M163.87 286.538C161.644 293.884 155.026 297.278 148.942 300.24C147.998 300.699 148.817 302.195 149.756 301.738C156.293 298.555 163.052 294.831 165.425 286.999C165.747 285.935 164.191 285.48 163.87 286.538Z" fill="#3D333D"/>
<path d="M148.734 301.858C148.734 310.477 147.708 318.92 145.647 327.249C145.38 328.329 146.934 328.79 147.201 327.71C149.297 319.238 150.345 310.625 150.345 301.858C150.346 300.741 148.734 300.74 148.734 301.858Z" fill="#3D333D"/>
<path d="M138.871 329.14C136.99 339.839 134.874 350.484 132.758 361.131C132.542 362.22 134.096 362.685 134.312 361.592C136.429 350.945 138.544 340.3 140.426 329.602C140.618 328.511 139.065 328.043 138.871 329.14Z" fill="#3D333D"/>
<path d="M154.504 327.236C156.324 338.596 157.98 349.983 159.29 361.426C159.416 362.52 161.029 362.533 160.902 361.426C159.575 349.83 157.903 338.288 156.058 326.774C155.883 325.677 154.329 326.142 154.504 327.236Z" fill="#3D333D"/>
<path d="M161.2 97.3382C161.2 97.5266 161.196 97.7151 161.19 97.9026C161.187 97.9973 161.184 98.0945 161.179 98.1891C161.176 98.2485 161.174 98.3079 161.169 98.3672C161.16 98.5488 161.147 98.7269 161.132 98.9067C161.127 98.9609 161.122 99.0134 161.117 99.0676C161.092 99.3283 161.062 99.5899 161.026 99.8471C160.989 100.122 160.945 100.394 160.894 100.666C160.877 100.763 160.858 100.858 160.839 100.953C160.828 101.01 160.815 101.068 160.803 101.126C160.756 101.356 160.702 101.583 160.644 101.811C160.507 102.36 160.343 102.899 160.155 103.428C160.112 103.555 160.064 103.683 160.017 103.808C159.585 104.942 159.047 106.018 158.412 107.022C158.273 107.239 158.131 107.452 157.986 107.661C157.908 107.775 157.827 107.885 157.747 107.997C157.612 108.18 157.475 108.36 157.333 108.538C156.989 108.973 156.622 109.389 156.24 109.786C156.06 109.971 155.878 110.15 155.692 110.327C154.929 111.045 154.106 111.688 153.226 112.243C152.564 112.664 151.871 113.031 151.151 113.347C150.994 113.416 150.835 113.483 150.676 113.545C150.562 113.59 150.449 113.635 150.333 113.675C150.272 113.7 150.209 113.723 150.146 113.745C150.088 113.766 150.03 113.786 149.971 113.804C149.785 113.869 149.6 113.93 149.411 113.986C148.292 114.32 147.127 114.526 145.923 114.59C145.658 114.604 145.396 114.611 145.135 114.611C142.192 114.611 139.411 113.741 137.016 112.221C132.506 109.357 129.363 104.186 129.089 98.1676L128.903 94.0833L128.356 82.0722L128.185 78.3157L127.948 73.1318C127.935 72.847 127.929 72.5622 127.929 72.2809C127.929 72.1415 127.93 72.0012 127.934 71.8619C127.935 71.75 127.938 71.6416 127.945 71.5315C127.948 71.4213 127.954 71.3095 127.962 71.1993C127.962 71.1718 127.964 71.1451 127.967 71.1193C127.97 71.0514 127.975 70.9834 127.981 70.9163C127.986 70.8345 127.993 70.7554 128.001 70.6736C128.004 70.6246 128.009 70.5756 128.013 70.5257C128.025 70.4069 128.037 70.2882 128.051 70.1695C128.062 70.0696 128.074 69.9698 128.089 69.8692C128.095 69.8098 128.103 69.7522 128.113 69.6928C128.144 69.4605 128.182 69.2316 128.225 69.0028C128.246 68.8737 128.272 68.7429 128.299 68.6164C128.323 68.4977 128.348 68.3807 128.375 68.262C128.4 68.1467 128.428 68.0314 128.455 67.9161C128.456 67.9126 128.456 67.9092 128.458 67.9058C128.486 67.7905 128.516 67.6769 128.546 67.5616C128.577 67.4463 128.609 67.331 128.642 67.2157C128.675 67.1021 128.71 66.9868 128.744 66.8733C128.815 66.6418 128.892 66.4138 128.973 66.1867C128.988 66.1437 129.005 66.1006 129.02 66.0576C129.088 65.8709 129.158 65.6851 129.231 65.5018C129.248 65.4588 129.266 65.4166 129.283 65.3745C129.361 65.1852 129.441 64.9967 129.525 64.8109C129.537 64.7816 129.551 64.7524 129.565 64.7223C132.059 59.2467 137.174 55.3353 143.207 55.017C149.992 54.6591 156.04 58.9447 158.668 65.2618C159.458 67.1606 159.94 69.2419 160.04 71.4377L161.181 96.4744C161.193 96.7617 161.2 97.05 161.2 97.3382Z" fill="#F3725F"/>
<path d="M119.793 88.5432C119.961 92.2163 122.863 95.047 126.275 94.8672C129.688 94.6865 132.319 91.5632 132.152 87.891C131.985 84.218 129.082 81.3873 125.669 81.5671C122.256 81.747 119.625 84.8702 119.793 88.5432Z" fill="#F3725F"/>
<path d="M146.238 131.031C146.238 131.031 141.147 143.358 141.139 143.376C140.97 143.737 142.085 145.146 142.271 145.369C144.762 148.375 149.544 147.338 151.337 144.072L146.238 131.031Z" fill="#443B44"/>
<path d="M121.959 86.6795L127.219 92.3409" stroke="#472A1C" stroke-width="0.911" stroke-miterlimit="10" stroke-linecap="round" stroke-linejoin="round"/>
<path d="M162.991 85.1119L168.251 90.7733" stroke="#472A1C" stroke-width="0.911" stroke-miterlimit="10" stroke-linecap="round" stroke-linejoin="round"/>
<path d="M93.0675 143.116C69.4507 165.63 55.9261 187.035 44.9952 218.886C39.6272 234.527 38.8749 255.804 46.0753 270.566C53.6227 286.041 71.0009 293.279 87.2366 293.68V253.932C82.3476 249.269 77.4922 244.622 72.6031 239.958C80.6878 225.11 89.2562 211.571 97.3417 196.723L93.0675 143.116Z" fill="#C6DAFD"/>
<path d="M108.258 135.568C71.5054 147.606 55.9253 187.035 44.9952 218.886C39.6272 234.527 38.8749 255.804 46.0753 270.566C53.6227 286.042 71.0009 293.279 87.2366 293.68V253.932C82.3476 249.269 77.4922 244.622 72.6031 239.959C80.6878 225.11 89.2562 211.572 97.3417 196.723L108.258 135.568Z" fill="#7D74F5"/>
<path d="M91.8977 179.386C89.0051 182.913 86.6537 186.899 84.8396 191.221C80.1465 202.4 78.7697 215.059 79.5613 227.612C83.5908 220.645 87.6691 213.809 91.6867 206.81C90.4154 197.671 91.9337 188.543 91.8977 179.386Z" fill="#362F36"/>
<path d="M73.6892 237.981C67.9855 236.843 62.3361 235.328 56.5253 234.967C51.2861 234.642 45.3569 235.157 41.5432 239.503C41.3385 239.737 41.1402 239.977 40.9484 240.222C40.3591 250.941 41.8398 261.881 46.0756 270.566C53.623 286.04 71.0013 293.278 87.237 293.679V253.931C82.3479 249.268 77.4925 244.621 72.6035 239.958C72.9633 239.296 73.3262 238.639 73.6892 237.981Z" fill="#F3725F"/>
<path d="M181.765 135.568C224.377 145.313 236.65 184.944 247.581 216.795C252.948 232.436 253.701 253.713 246.5 268.476C238.953 283.95 221.575 291.188 205.339 291.589L202.59 262.776C207.479 258.113 215.084 242.532 219.973 237.869C211.888 223.02 203.32 209.482 195.234 194.633L181.765 135.568Z" fill="#7D74F5"/>
<path d="M239.664 239.546C233.203 238.345 226.669 238.223 220.191 238.901C220.218 238.95 219.354 238.132 219.381 238.181C214.492 242.844 183.275 286.806 178.386 291.47L183.713 310.385C199.949 309.984 239.156 285.933 246.799 269.654C251.36 259.942 254.555 251.917 252.046 243.168C248.047 241.571 243.919 240.338 239.664 239.546Z" fill="#F3725F"/>
<path d="M71.8917 262.048C65.7123 268.199 59.8319 274.673 54.0298 281.23C62.8364 289.416 75.3408 293.386 87.2368 293.68V253.932C86.1622 252.907 85.0917 251.885 84.0195 250.861C79.8333 254.403 75.8021 258.155 71.8917 262.048Z" fill="#CC4E42"/>
<path d="M145.521 89.8218L145.702 93.5163H148.413L146.245 96.8228" stroke="#472A1C" stroke-width="0.8883" stroke-miterlimit="10" stroke-linecap="round" stroke-linejoin="round"/>
<path d="M131.721 88.5861C131.753 89.5696 133.396 90.3508 135.685 90.5977C136.356 90.6709 137.085 90.6976 137.844 90.6709C138.736 90.639 139.583 90.5349 140.343 90.3732C142.423 89.9352 143.852 89.0783 143.822 88.1473C143.795 87.2801 142.512 86.5711 140.638 86.2467C139.764 86.0944 138.762 86.0265 137.698 86.0652C136.74 86.0996 135.837 86.2175 135.037 86.3964C133.046 86.8438 131.691 87.6793 131.721 88.5861Z" fill="white"/>
<path d="M134.515 88.1361C134.515 89.1212 134.969 90.0049 135.687 90.5977C136.357 90.6708 137.086 90.6975 137.845 90.6708C138.738 90.639 139.584 90.5349 140.344 90.3731C140.918 89.7915 141.268 89.0034 141.268 88.1361C141.268 87.4323 141.036 86.7784 140.64 86.2467C139.766 86.0944 138.764 86.0264 137.7 86.0651C136.742 86.0995 135.839 86.2174 135.039 86.3964C134.707 86.9006 134.515 87.4977 134.515 88.1361Z" fill="#362F36"/>
<path d="M146.873 88.0761C146.905 89.0595 148.549 89.8407 150.838 90.0885C151.509 90.1617 152.237 90.1884 152.997 90.1617C153.889 90.1298 154.736 90.0257 155.495 89.864C157.576 89.426 159.004 88.5691 158.975 87.6381C158.948 86.7709 157.664 86.0619 155.79 85.7375C154.916 85.5852 153.915 85.5172 152.85 85.556C151.893 85.5895 150.989 85.7083 150.19 85.8872C148.198 86.3346 146.844 87.1701 146.873 88.0761Z" fill="white"/>
<path d="M149.667 87.627C149.667 88.6122 150.12 89.4958 150.838 90.0886C151.509 90.1617 152.237 90.1884 152.997 90.1617C153.889 90.1299 154.736 90.0258 155.495 89.864C156.069 89.2824 156.42 88.4943 156.42 87.627C156.42 86.9232 156.188 86.2693 155.791 85.7376C154.917 85.5853 153.916 85.5173 152.851 85.556C151.894 85.5896 150.99 85.7083 150.191 85.8873C149.86 86.3915 149.667 86.9886 149.667 87.627Z" fill="#362F36"/>
<path d="M128.289 87.7465C130.766 85.0681 132.084 81.3477 132.592 77.6084C133.099 73.8691 132.863 70.0636 132.625 66.2934C136.838 72.0072 143.683 73.4759 150.452 73.858C153.48 74.0292 156.583 74.061 159.462 73.0389C160.99 72.4968 162.42 71.6674 163.758 70.7063C171.271 65.3056 175.757 55.3715 175.059 45.6765C174.766 48.8832 171.56 50.5352 168.849 51.9032C166.138 53.2704 163.056 53.5053 160.062 53.4493C153.537 53.3272 147.006 51.9342 140.524 52.743C134.041 53.5517 127.265 57.2583 125.139 63.8989C124.267 66.6246 124.26 69.5861 124.533 72.4547C125.028 77.6472 126.094 83.09 128.289 87.7465Z" fill="#362F36"/>
<path d="M155.651 69.4123C154.048 73.0664 154.586 77.6936 156.976 80.8108C158.002 82.1487 159.31 83.1958 160.606 84.2292V64.9717" fill="#362F36"/>
<path d="M134.737 82.2296C136.233 80.4753 138.39 79.3938 140.6 79.2897" stroke="#362F36" stroke-width="2.2209" stroke-miterlimit="10" stroke-linecap="round" stroke-linejoin="round"/>
<path d="M154.805 80.9561C153.309 79.2018 151.152 78.1203 148.942 78.017" stroke="#362F36" stroke-width="2.2209" stroke-miterlimit="10" stroke-linecap="round" stroke-linejoin="round"/>
<path d="M149.597 99.4178H141.695" stroke="#472A1C" stroke-width="0.8883" stroke-miterlimit="10" stroke-linecap="round" stroke-linejoin="round"/>
<path d="M144.566 145.213L133.826 218.685L147.142 237.028L158.86 218.111L147.762 144.831L144.566 145.213Z" fill="#362F36"/>
<path d="M215.905 236.408C215.905 236.408 247.332 231.25 254.789 248.446" stroke="#5D51F2" stroke-width="8.8834" stroke-miterlimit="10" stroke-linecap="round" stroke-linejoin="round"/>
<path d="M89.2659 257.599C92.0626 253.955 91.742 248.563 90.3485 244.082C88.9557 239.599 86.6499 235.428 85.8512 230.781C85.5042 228.763 85.465 226.609 86.2382 224.732C87.0113 222.856 88.7414 221.339 90.6475 221.389C92.5799 221.441 94.2173 223.038 95.1447 224.864C96.0722 226.689 96.4655 228.763 97.1083 230.726C98.601 235.284 101.415 239.173 104.016 243.114C106.617 247.054 109.105 251.29 109.779 256.069C110.452 260.847 108.864 266.304 104.94 268.656C109.14 274.208 109.374 282.819 105.484 288.626C101.594 294.433 93.9279 296.914 87.7061 294.379L89.2659 257.599Z" fill="#CC4E42"/>
<path d="M88.528 299.223H80.7103C78.3174 299.223 76.3594 297.116 76.3594 294.541V293.564C76.3594 290.988 78.3174 288.881 80.7103 288.881H88.528C90.9209 288.881 92.8789 290.988 92.8789 293.564V294.541C92.8789 297.116 90.9209 299.223 88.528 299.223Z" fill="#F3725F"/>
<path d="M91.3275 290.488H79.9569C76.0824 290.488 72.9124 287.076 72.9124 282.907C72.9124 278.738 76.0824 275.326 79.9569 275.326H91.3275C95.202 275.326 98.3721 278.738 98.3721 282.907C98.3721 287.076 95.202 290.488 91.3275 290.488Z" fill="#F3725F"/>
<path d="M91.9491 277.64H80.5784C76.704 277.64 73.5339 274.229 73.5339 270.059C73.5339 265.89 76.704 262.478 80.5784 262.478H91.9491C95.8236 262.478 98.9936 265.89 98.9936 270.059C98.9936 274.229 95.8236 277.64 91.9491 277.64Z" fill="#F3725F"/>
<path d="M91.7006 265.327H80.3299C76.4555 265.327 73.2854 261.916 73.2854 257.746C73.2854 253.577 76.4555 250.165 80.3299 250.165H91.7006C95.575 250.165 98.7451 253.577 98.7451 257.746C98.7451 261.916 95.575 265.327 91.7006 265.327Z" fill="#F3725F"/>
<path d="M170.553 61.4217C173.778 63.1847 177.533 64.126 181.047 63.201C184.561 62.2761 187.703 59.1942 188.177 55.3344C201.483 53.0105 213.085 41.7978 216.658 27.8103C218.38 21.064 218.233 13.4348 214.732 7.53851C211.233 1.64221 203.849 -1.79422 197.876 0.971097C191.109 4.1038 188.806 12.9736 187.096 20.6845C185.386 28.3954 182.435 37.2463 175.368 39.4859C171.538 40.6999 167.458 39.5685 163.484 39.1581C159.509 38.7477 154.895 39.4059 152.637 42.9507C150.488 46.3261 150.227 52.2129 146.434 52.4934C144.928 52.6044 143.461 51.5926 141.974 51.8688C140.151 52.2077 139.063 54.4852 139.338 56.4547C139.613 58.4241 140.9 60.0597 142.324 61.3314C145.773 64.4099 152.672 67.1933 157.254 67.1064C162.196 67.0117 166.478 59.1942 170.553 61.4217Z" fill="#362F36"/>
<path d="M178.063 287.431C180.072 297.246 182.856 306.878 186.376 316.188" stroke="#3D333D" stroke-width="2.2209" stroke-miterlimit="10" stroke-linecap="round" stroke-linejoin="round"/>
<path d="M200.632 177.917C203.524 181.445 205.876 185.43 207.69 189.753C212.383 200.931 213.761 213.591 212.968 226.143C208.939 219.176 204.86 212.341 200.843 205.341C202.113 196.202 200.595 187.073 200.632 177.917Z" fill="#362F36"/>
<path d="M36.4014 247.299C36.4014 247.299 43.8632 230.383 73.6899 237.981" stroke="#5D51F2" stroke-width="8.8834" stroke-miterlimit="10" stroke-linecap="round" stroke-linejoin="round"/>
<path d="M491.667 369H53.6985C50.8195 369 48.4641 366.465 48.4641 363.367C48.4641 360.269 50.8195 357.734 53.6985 357.734H491.667C494.546 357.734 496.901 360.269 496.901 363.367C496.901 366.465 494.545 369 491.667 369Z" fill="#695CFF"/>
<path d="M265.463 300.036C265.463 281.191 251.267 265.915 233.756 265.915C216.244 265.915 202.049 281.191 202.049 300.037C202.049 321.248 223.076 341.66 234.303 357.691C245.794 340.717 265.463 322.774 265.463 300.036Z" fill="#A595FA"/>
<path d="M244.143 301.958C245.496 295.792 241.948 289.614 236.219 288.158C230.489 286.702 224.748 290.52 223.395 296.686C222.042 302.852 225.59 309.03 231.32 310.486C237.049 311.942 242.79 308.124 244.143 301.958Z" fill="#FFF8F3"/>
<path d="M100.226 78.536H74.4934C72.4362 78.536 70.7685 76.7412 70.7685 74.5274C70.7685 72.3136 72.4362 70.5188 74.4934 70.5188H77.7002C80.3986 70.5188 82.8147 68.4943 83.2673 65.6317C83.8509 61.9372 81.1885 58.7029 77.8577 58.7029H14.5219C11.8235 58.7029 9.40742 60.7275 8.9549 63.59C8.37045 67.2845 11.0336 70.5188 14.3636 70.5188H45.8828C47.94 70.5188 49.6077 72.3136 49.6077 74.5274C49.6077 76.7412 47.94 78.536 45.8828 78.536H37.0474C34.349 78.536 31.9329 80.5605 31.4804 83.423C30.8967 87.1176 33.5591 90.3518 36.8899 90.3518H100.384C103.715 90.3518 106.377 87.1167 105.794 83.423C105.34 80.5605 102.924 78.536 100.226 78.536Z" fill="#695CFF"/>
<path d="M274.287 123.344H248.555C246.498 123.344 244.83 121.55 244.83 119.336C244.83 117.122 246.498 115.327 248.555 115.327H251.762C254.46 115.327 256.876 113.303 257.329 110.44C257.913 106.746 255.25 103.511 251.919 103.511H188.582C185.884 103.511 183.468 105.536 183.015 108.398C182.431 112.093 185.094 115.327 188.425 115.327H219.944C222.001 115.327 223.669 117.122 223.669 119.336C223.669 121.55 222.001 123.344 219.944 123.344H211.108C208.41 123.344 205.993 125.369 205.541 128.231C204.956 131.926 207.62 135.16 210.95 135.16H274.445C277.775 135.16 280.438 131.925 279.854 128.231C279.402 125.369 276.985 123.344 274.287 123.344Z" fill="#695CFF"/>
<path d="M75.2808 137.911H54.0753C52.3803 137.911 51.006 136.432 51.006 134.608C51.006 132.784 52.3803 131.305 54.0753 131.305H56.7177C58.9411 131.305 60.9319 129.637 61.3053 127.277C61.7866 124.233 59.5919 121.567 56.848 121.567H4.65419C2.43074 121.567 0.439955 123.235 0.066582 125.594C-0.414725 128.639 1.77914 131.305 4.52387 131.305H30.4985C32.1934 131.305 33.5678 132.784 33.5678 134.608C33.5678 136.432 32.1934 137.911 30.4985 137.911H23.2165C20.993 137.911 19.0023 139.579 18.6289 141.939C18.1476 144.983 20.3414 147.649 23.087 147.649H75.4103C78.155 147.649 80.3489 144.984 79.8676 141.939C79.495 139.579 77.5042 137.911 75.2808 137.911Z" fill="#695CFF"/>
<path d="M301.902 54.1702H280.697C279.002 54.1702 277.627 52.6912 277.627 50.8671C277.627 49.0431 279.002 47.5641 280.697 47.5641H283.339C285.562 47.5641 287.553 45.8958 287.927 43.5366C288.408 40.4925 286.214 37.8261 283.469 37.8261H231.276C229.052 37.8261 227.061 39.4944 226.688 41.8536C226.207 44.8977 228.4 47.5641 231.145 47.5641H257.12C258.815 47.5641 260.189 49.0431 260.189 50.8671C260.189 52.6912 258.815 54.1702 257.12 54.1702H249.838C247.614 54.1702 245.624 55.8385 245.25 58.1977C244.769 61.2418 246.963 63.9082 249.708 63.9082H302.032C304.776 63.9082 306.97 61.2427 306.489 58.1977C306.116 55.8377 304.126 54.1702 301.902 54.1702Z" fill="#695CFF"/>
<path d="M257.602 120.559C264.71 120.559 270.472 114.411 270.472 106.828C270.472 99.2442 264.71 93.0966 257.602 93.0966C250.494 93.0966 244.731 99.2442 244.731 106.828C244.731 114.411 250.494 120.559 257.602 120.559Z" fill="#F9A813"/>
<path d="M264.573 115.362C269.242 110.338 269.242 102.192 264.573 97.1676C259.904 92.1434 252.335 92.1434 247.666 97.1676C242.997 102.192 242.997 110.338 247.666 115.362C252.335 120.386 259.904 120.386 264.573 115.362Z" fill="#FFC05A"/>
<path d="M268.206 107.261H270.919C271.074 107.261 271.2 107.126 271.2 106.959C271.2 106.792 271.074 106.657 270.919 106.657H268.206C268.051 106.657 267.925 106.792 267.925 106.959C267.925 107.126 268.051 107.261 268.206 107.261Z" fill="#BC5406"/>
<path d="M267.914 104.445H270.726C270.881 104.445 271.006 104.31 271.006 104.143C271.006 103.976 270.881 103.841 270.726 103.841H267.914C267.759 103.841 267.634 103.976 267.634 104.143C267.634 104.31 267.759 104.445 267.914 104.445Z" fill="#BC5406"/>
<path d="M267.43 110.912H270.629C270.784 110.912 270.909 110.777 270.909 110.61C270.909 110.443 270.784 110.308 270.629 110.308H267.43C267.275 110.308 267.149 110.443 267.149 110.61C267.149 110.777 267.275 110.912 267.43 110.912Z" fill="#BC5406"/>
<path d="M255.972 96.599C257.758 96.599 259.423 97.1703 260.821 98.1512C260.918 98.0359 261.016 97.9223 261.116 97.8096C259.639 96.7539 257.871 96.137 255.972 96.137C250.809 96.137 246.608 100.682 246.608 106.27C246.608 109.551 248.059 112.472 250.301 114.325L250.656 114.038C248.462 112.274 247.037 109.449 247.037 106.27C247.038 100.937 251.046 96.599 255.972 96.599Z" fill="#BC5406" stroke="#BC5406" stroke-width="0.38" stroke-miterlimit="10" stroke-linecap="round" stroke-linejoin="round"/>
<path d="M250.232 114.421C247.858 112.459 246.496 109.488 246.496 106.27C246.496 100.615 250.747 96.0158 255.973 96.0158C257.829 96.0158 259.63 96.6009 261.179 97.7082L261.29 97.7874L261.198 97.8923C261.099 98.005 261 98.1178 260.904 98.233L260.839 98.3096L260.759 98.2528C259.331 97.2505 257.675 96.7205 255.972 96.7205C251.107 96.7205 247.15 101.004 247.15 106.27C247.15 109.275 248.486 112.141 250.724 113.94L250.845 114.038L250.3 114.478L250.232 114.421ZM246.925 106.27C246.925 100.871 250.984 96.4778 255.973 96.4778C257.688 96.4778 259.356 97.0018 260.802 97.9939C260.848 97.9397 260.895 97.8854 260.942 97.8321C259.456 96.8022 257.741 96.2584 255.973 96.2584C250.872 96.2584 246.722 100.75 246.722 106.269C246.722 109.38 248.026 112.256 250.303 114.172L250.471 114.036C248.247 112.188 246.925 109.297 246.925 106.27Z" fill="#BC5406" stroke="#BC5406" stroke-width="0.38" stroke-miterlimit="10" stroke-linecap="round" stroke-linejoin="round"/>
<path d="M263.808 101.633C264.507 103.011 264.907 104.59 264.907 106.27C264.907 111.603 260.899 115.941 255.972 115.941C254.729 115.941 253.545 115.664 252.469 115.165L252.078 115.481C253.265 116.071 254.583 116.402 255.972 116.402C261.135 116.402 265.336 111.856 265.336 106.269C265.336 104.481 264.904 102.802 264.15 101.341C264.036 101.439 263.921 101.536 263.808 101.633Z" fill="#BC5406" stroke="#BC5406" stroke-width="0.38" stroke-miterlimit="10" stroke-linecap="round" stroke-linejoin="round"/>
<path d="M252.032 115.591L251.86 115.506L252.454 115.026L252.514 115.054C253.61 115.561 254.773 115.819 255.972 115.819C260.837 115.819 264.794 111.535 264.794 106.269C264.794 104.673 264.419 103.09 263.709 101.69L263.664 101.601L263.737 101.537C263.851 101.439 263.965 101.342 264.08 101.245L264.184 101.158L264.248 101.282C265.033 102.802 265.448 104.526 265.448 106.268C265.448 111.922 261.197 116.522 255.972 116.522C254.603 116.524 253.276 116.21 252.032 115.591ZM263.953 101.665C264.652 103.078 265.02 104.668 265.02 106.27C265.02 111.669 260.961 116.062 255.972 116.062C254.765 116.062 253.592 115.807 252.486 115.305L252.299 115.456C253.463 116.004 254.699 116.282 255.972 116.282C261.073 116.282 265.223 111.791 265.223 106.271C265.223 104.617 264.841 102.981 264.115 101.527C264.061 101.572 264.007 101.619 263.953 101.665Z" fill="#BC5406" stroke="#BC5406" stroke-width="0.38" stroke-miterlimit="10" stroke-linecap="round" stroke-linejoin="round"/>
<path d="M255.26 98.4885H256.346V99.9211H255.26V98.4885ZM255.26 108.037H256.346V109.469H255.26V108.037ZM255.885 99.6876C256.402 99.6876 256.855 99.7444 257.242 99.858C257.629 99.9716 257.94 100.091 258.176 100.218C258.411 100.344 258.554 100.428 258.605 100.47L257.696 101.991C257.629 101.941 257.513 101.867 257.349 101.77C257.189 101.673 256.998 101.587 256.775 101.511C256.556 101.436 256.327 101.398 256.087 101.398C255.763 101.398 255.5 101.457 255.298 101.575C255.1 101.688 255.001 101.859 255.001 102.086C255.001 102.241 255.054 102.382 255.159 102.509C255.269 102.631 255.433 102.748 255.651 102.862C255.874 102.971 256.156 103.091 256.497 103.222C256.808 103.335 257.101 103.47 257.374 103.626C257.648 103.781 257.888 103.966 258.094 104.181C258.304 104.391 258.47 104.635 258.592 104.913C258.714 105.191 258.775 105.506 258.775 105.86C258.775 106.28 258.689 106.646 258.517 106.958C258.344 107.265 258.108 107.519 257.81 107.721C257.515 107.923 257.179 108.073 256.8 108.169C256.426 108.27 256.036 108.321 255.633 108.321C255.06 108.321 254.547 108.256 254.093 108.125C253.643 107.995 253.279 107.854 253.001 107.702C252.723 107.551 252.557 107.45 252.502 107.399L253.443 105.815C253.493 105.853 253.59 105.914 253.733 105.998C253.88 106.083 254.059 106.171 254.269 106.263C254.48 106.352 254.703 106.428 254.938 106.491C255.178 106.554 255.414 106.585 255.645 106.585C256.032 106.585 256.323 106.512 256.516 106.364C256.71 106.213 256.806 106.015 256.806 105.771C256.806 105.59 256.745 105.428 256.623 105.285C256.501 105.142 256.318 105.008 256.074 104.881C255.83 104.751 255.525 104.614 255.159 104.471C254.793 104.324 254.45 104.145 254.131 103.935C253.815 103.724 253.558 103.461 253.361 103.146C253.163 102.83 253.064 102.439 253.064 101.972C253.064 101.505 253.194 101.101 253.455 100.76C253.72 100.415 254.067 100.15 254.497 99.9653C254.93 99.7802 255.393 99.6876 255.885 99.6876Z" fill="#FFF8F3"/>
<path d="M311.312 67.9968C320.946 67.9968 328.756 59.6647 328.756 49.3865C328.756 39.1082 320.946 30.7761 311.312 30.7761C301.678 30.7761 293.868 39.1082 293.868 49.3865C293.868 59.6647 301.678 67.9968 311.312 67.9968Z" fill="#F9A813"/>
<path d="M325.087 52.6513C327.143 43.2797 321.75 33.8887 313.042 31.6758C304.334 29.4629 295.607 35.2662 293.551 44.6377C291.495 54.0092 296.887 63.4003 305.596 65.6132C314.304 67.8261 323.03 62.0228 325.087 52.6513Z" fill="#FFC05A"/>
<path d="M325.683 49.974H329.361C329.571 49.974 329.741 49.7907 329.741 49.5645C329.741 49.3382 329.571 49.1549 329.361 49.1549H325.683C325.473 49.1549 325.302 49.3382 325.302 49.5645C325.302 49.7907 325.473 49.974 325.683 49.974Z" fill="#BC5406"/>
<path d="M325.289 46.1573H329.098C329.309 46.1573 329.479 45.974 329.479 45.7477C329.479 45.5215 329.309 45.3382 329.098 45.3382H325.289C325.079 45.3382 324.908 45.5215 324.908 45.7477C324.908 45.974 325.079 46.1573 325.289 46.1573Z" fill="#BC5406"/>
<path d="M324.632 54.9221H328.967C329.177 54.9221 329.347 54.7389 329.347 54.5126C329.347 54.2863 329.177 54.103 328.967 54.103H324.632C324.421 54.103 324.251 54.2863 324.251 54.5126C324.251 54.7389 324.422 54.9221 324.632 54.9221Z" fill="#BC5406"/>
<path d="M309.103 35.5236C311.524 35.5236 313.779 36.2979 315.674 37.6273C315.805 37.4715 315.94 37.3175 316.074 37.1635C314.072 35.7327 311.677 34.8972 309.103 34.8972C302.105 34.8972 296.412 41.0577 296.412 48.63C296.412 53.0774 298.378 57.0361 301.416 59.5476L301.899 59.1578C298.924 56.7677 296.993 52.938 296.993 48.63C296.994 41.4035 302.426 35.5236 309.103 35.5236Z" fill="#BC5406" stroke="#BC5406" stroke-width="0.515" stroke-miterlimit="10" stroke-linecap="round" stroke-linejoin="round"/>
<path d="M301.323 59.6793C298.104 57.019 296.259 52.9923 296.259 48.631C296.259 40.9674 302.021 34.7338 309.103 34.7338C311.619 34.7338 314.059 35.5271 316.159 37.0276L316.31 37.1352L316.186 37.2772C316.053 37.4303 315.919 37.5835 315.788 37.7383L315.7 37.8416L315.591 37.765C313.656 36.4064 311.412 35.688 309.104 35.688C302.511 35.688 297.147 41.494 297.147 48.6301C297.147 52.7015 298.958 56.5879 301.992 59.0263L302.155 59.1579L301.417 59.7542L301.323 59.6793ZM296.84 48.631C296.84 41.3133 302.341 35.3593 309.103 35.3593C311.427 35.3593 313.688 36.0692 315.649 37.414C315.712 37.3408 315.775 37.2677 315.838 37.1946C313.824 35.799 311.499 35.0625 309.104 35.0625C302.191 35.0625 296.566 41.1489 296.566 48.631C296.566 52.8478 298.333 56.7445 301.419 59.3412L301.647 59.1571C298.633 56.6507 296.84 52.7325 296.84 48.631Z" fill="#BC5406" stroke="#BC5406" stroke-width="0.515" stroke-miterlimit="10" stroke-linecap="round" stroke-linejoin="round"/>
<path d="M319.725 42.3464C320.672 44.2135 321.214 46.3542 321.214 48.6308C321.214 55.8581 315.782 61.7381 309.104 61.7381C307.419 61.7381 305.816 61.3629 304.356 60.6875L303.826 61.1152C305.435 61.9145 307.221 62.3636 309.103 62.3636C316.101 62.3636 321.795 56.2031 321.795 48.6308C321.795 46.2079 321.209 43.9313 320.187 41.9532C320.033 42.0823 319.878 42.2139 319.725 42.3464Z" fill="#BC5406" stroke="#BC5406" stroke-width="0.515" stroke-miterlimit="10" stroke-linecap="round" stroke-linejoin="round"/>
<path d="M303.762 61.265L303.53 61.1497L304.336 60.4992L304.417 60.5371C305.904 61.2254 307.48 61.5739 309.104 61.5739C315.698 61.5739 321.062 55.7679 321.062 48.6318C321.062 46.4679 320.553 44.322 319.59 42.4266L319.529 42.3053L319.629 42.2192C319.783 42.0867 319.937 41.9551 320.093 41.8243L320.234 41.7064L320.32 41.8742C321.385 43.934 321.947 46.2708 321.947 48.6318C321.947 56.2945 316.185 62.5289 309.103 62.5289C307.247 62.528 305.449 62.103 303.762 61.265ZM319.919 42.3896C320.866 44.304 321.366 46.4584 321.366 48.6309C321.366 55.9486 315.865 61.9025 309.103 61.9025C307.467 61.9025 305.878 61.5575 304.377 60.8761L304.125 61.08C305.704 61.8225 307.377 62.1994 309.103 62.1994C316.017 62.1994 321.642 56.1129 321.642 48.6309C321.642 46.3896 321.123 44.1715 320.14 42.202C320.065 42.264 319.993 42.3268 319.919 42.3896Z" fill="#BC5406" stroke="#BC5406" stroke-width="0.515" stroke-miterlimit="10" stroke-linecap="round" stroke-linejoin="round"/>
<path d="M308.137 37.8865H309.609V39.8281H308.137V37.8865ZM308.137 50.8275H309.609V52.769H308.137V50.8275ZM308.984 39.5116C309.685 39.5116 310.298 39.5886 310.823 39.7426C311.348 39.8965 311.77 40.059 312.089 40.2301C312.408 40.4012 312.602 40.5152 312.671 40.5722L311.439 42.6335C311.348 42.5651 311.191 42.4653 310.968 42.3342C310.752 42.203 310.492 42.0861 310.19 41.9835C309.894 41.8809 309.583 41.8295 309.258 41.8295C308.819 41.8295 308.462 41.9094 308.189 42.069C307.921 42.223 307.787 42.4539 307.787 42.7618C307.787 42.9728 307.858 43.1638 308.001 43.3349C308.149 43.5003 308.371 43.6599 308.668 43.8139C308.97 43.9621 309.352 44.1246 309.814 44.3014C310.236 44.4554 310.632 44.6378 311.003 44.8488C311.373 45.0598 311.698 45.3107 311.978 45.6015C312.263 45.8866 312.488 46.2173 312.653 46.5937C312.819 46.97 312.901 47.3977 312.901 47.8766C312.901 48.4468 312.785 48.9429 312.551 49.3649C312.317 49.7811 311.998 50.1261 311.593 50.3998C311.194 50.6735 310.738 50.8759 310.224 51.0071C309.717 51.1439 309.189 51.2124 308.642 51.2124C307.867 51.2124 307.171 51.124 306.555 50.9472C305.945 50.7704 305.452 50.5794 305.075 50.3741C304.699 50.1689 304.474 50.032 304.4 49.9636L305.674 47.8168C305.742 47.8681 305.874 47.9508 306.068 48.0648C306.267 48.1788 306.509 48.2986 306.795 48.424C307.08 48.5438 307.382 48.6464 307.701 48.7319C308.026 48.8175 308.345 48.8602 308.659 48.8602C309.184 48.8602 309.577 48.7605 309.839 48.5609C310.102 48.3556 310.233 48.0876 310.233 47.7569C310.233 47.5117 310.15 47.2922 309.985 47.0983C309.819 46.9044 309.571 46.722 309.241 46.5509C308.91 46.3741 308.497 46.1888 308.001 45.9949C307.504 45.7954 307.04 45.553 306.606 45.2679C306.179 44.9828 305.831 44.6264 305.563 44.1988C305.295 43.7711 305.161 43.2408 305.161 42.6079C305.161 41.975 305.338 41.4276 305.691 40.9657C306.05 40.4981 306.521 40.1389 307.102 39.888C307.69 39.6371 308.317 39.5116 308.984 39.5116Z" fill="#FFF8F3"/>
<path d="M523.635 31.5041H376.64C369.454 31.5041 363.574 25.1767 363.574 17.4426C363.574 9.70847 369.454 3.3811 376.64 3.3811H523.635C530.821 3.3811 536.701 9.70847 536.701 17.4426C536.701 25.1758 530.821 31.5041 523.635 31.5041Z" fill="#9E97F7"/>
<path d="M393.932 7.73035L396.59 13.5268L402.534 14.4561L398.233 18.968L399.248 25.3384L393.932 22.3304L388.616 25.3384L389.631 18.968L385.33 14.4561L391.274 13.5268L393.932 7.73035Z" fill="#FFC05A"/>
<path d="M423.772 7.73035L426.43 13.5268L432.374 14.4561L428.073 18.968L429.088 25.3384L423.772 22.3304L418.455 25.3384L419.471 18.968L415.17 14.4561L421.114 13.5268L423.772 7.73035Z" fill="#FFC05A"/>
<path d="M453.612 7.73035L456.269 13.5268L462.213 14.4561L457.912 18.968L458.927 25.3384L453.612 22.3304L448.295 25.3384L449.31 18.968L445.01 14.4561L450.953 13.5268L453.612 7.73035Z" fill="#FFC05A"/>
<path d="M483.45 7.73035L486.108 13.5268L492.052 14.4561L487.751 18.968L488.766 25.3384L483.45 22.3304L478.133 25.3384L479.149 18.968L474.848 14.4561L480.792 13.5268L483.45 7.73035Z" fill="white"/>
<path d="M513.291 7.73035L515.949 13.5268L521.893 14.4561L517.591 18.968L518.607 25.3384L513.291 22.3304L507.974 25.3384L508.989 18.968L504.689 14.4561L510.632 13.5268L513.291 7.73035Z" fill="white"/>
<path d="M25.2884 185.534C27.8017 185.534 29.8392 183.341 29.8392 180.637C29.8392 177.932 27.8017 175.739 25.2884 175.739C22.775 175.739 20.7375 177.932 20.7375 180.637C20.7375 183.341 22.775 185.534 25.2884 185.534Z" fill="#7272B5"/>
<path d="M31.6586 313.846C33.6694 313.846 35.2995 312.092 35.2995 309.928C35.2995 307.764 33.6694 306.01 31.6586 306.01C29.6477 306.01 28.0176 307.764 28.0176 309.928C28.0176 312.092 29.6477 313.846 31.6586 313.846Z" fill="#7272B5"/>
<path d="M267.847 22.9405C269.607 22.9405 271.033 21.4058 271.033 19.5127C271.033 17.6195 269.607 16.0848 267.847 16.0848C266.088 16.0848 264.662 17.6195 264.662 19.5127C264.662 21.4058 266.088 22.9405 267.847 22.9405Z" fill="#7272B5"/>
<path d="M517.689 88.5656C519.7 88.5656 521.33 86.8114 521.33 84.6474C521.33 82.4834 519.7 80.7291 517.689 80.7291C515.678 80.7291 514.048 82.4834 514.048 84.6474C514.048 86.8114 515.678 88.5656 517.689 88.5656Z" fill="#7272B5"/>
<path d="M264.662 162.517C264.662 163.869 263.644 164.965 262.387 164.965C261.13 164.965 260.112 163.869 260.112 162.517C260.112 161.164 261.13 160.068 262.387 160.068C263.644 160.067 264.662 161.164 264.662 162.517Z" fill="#7272B5"/>
<path d="M7.53927 227.651C9.29844 227.651 10.7245 226.117 10.7245 224.223C10.7245 222.33 9.29844 220.796 7.53927 220.796C5.78009 220.796 4.354 222.33 4.354 224.223C4.354 226.117 5.78009 227.651 7.53927 227.651Z" fill="#A595FA"/>
<path d="M243.273 158.108C245.032 158.108 246.458 156.573 246.458 154.68C246.458 152.787 245.032 151.252 243.273 151.252C241.514 151.252 240.088 152.787 240.088 154.68C240.088 156.573 241.514 158.108 243.273 158.108Z" fill="#A595FA"/>
<path d="M27.1081 278.585C28.1135 278.585 28.9286 277.708 28.9286 276.626C28.9286 275.544 28.1135 274.667 27.1081 274.667C26.1027 274.667 25.2876 275.544 25.2876 276.626C25.2876 277.708 26.1027 278.585 27.1081 278.585Z" fill="#A595FA"/>
<path d="M82.628 324.13C82.628 327.106 80.3869 329.517 77.6222 329.517C74.8575 329.517 72.6165 327.106 72.6165 324.13C72.6165 321.155 74.8575 318.743 77.6222 318.743C80.3869 318.743 82.628 321.155 82.628 324.13Z" fill="#A595FA"/>
<path d="M107.203 44.4891C109.214 44.4891 110.844 42.7348 110.844 40.5708C110.844 38.4068 109.214 36.6526 107.203 36.6526C105.192 36.6526 103.562 38.4068 103.562 40.5708C103.562 42.7348 105.192 44.4891 107.203 44.4891Z" fill="#A595FA"/>
<path d="M61.2397 30.7761C62.9989 30.7761 64.425 29.2414 64.425 27.3482C64.425 25.4551 62.9989 23.9204 61.2397 23.9204C59.4805 23.9204 58.0544 25.4551 58.0544 27.3482C58.0544 29.2414 59.4805 30.7761 61.2397 30.7761Z" fill="#A595FA"/>
<path d="M83.9936 111.093C85.7528 111.093 87.1789 109.559 87.1789 107.665C87.1789 105.772 85.7528 104.238 83.9936 104.238C82.2344 104.238 80.8083 105.772 80.8083 107.665C80.8083 109.559 82.2344 111.093 83.9936 111.093Z" fill="#A595FA"/>
<path d="M118.125 118.93C118.125 120.011 117.31 120.889 116.304 120.889C115.299 120.889 114.484 120.012 114.484 118.93C114.484 117.848 115.299 116.971 116.304 116.971C117.31 116.971 118.125 117.848 118.125 118.93Z" fill="#A595FA"/>
<path d="M224.614 81.709C224.614 83.8729 222.984 85.6273 220.973 85.6273C218.962 85.6273 217.332 83.8729 217.332 81.709C217.332 79.5451 218.962 77.7908 220.973 77.7908C222.985 77.7916 224.614 79.5451 224.614 81.709Z" fill="#A595FA"/>
<path d="M350.673 32.7344C352.432 32.7344 353.858 31.1997 353.858 29.3065C353.858 27.4134 352.432 25.8787 350.673 25.8787C348.914 25.8787 347.488 27.4134 347.488 29.3065C347.488 31.1997 348.914 32.7344 350.673 32.7344Z" fill="#A595FA"/>
<path d="M225.069 61.1404C225.824 61.1404 226.435 60.4824 226.435 59.6708C226.435 58.8592 225.824 58.2012 225.069 58.2012C224.315 58.2012 223.704 58.8592 223.704 59.6708C223.704 60.4824 224.315 61.1404 225.069 61.1404Z" fill="#A595FA"/>
<path d="M289.237 104.238C290.242 104.238 291.057 103.361 291.057 102.279C291.057 101.197 290.242 100.32 289.237 100.32C288.232 100.32 287.417 101.197 287.417 102.279C287.417 103.361 288.232 104.238 289.237 104.238Z" fill="#A595FA"/>
<path d="M504.148 94.7879C506.158 94.7879 507.789 93.0337 507.789 90.8697C507.789 88.7057 506.158 86.9514 504.148 86.9514C502.137 86.9514 500.507 88.7057 500.507 90.8697C500.507 93.0337 502.137 94.7879 504.148 94.7879Z" fill="#A595FA"/>
<path d="M533.162 163.985C535.173 163.985 536.803 162.231 536.803 160.067C536.803 157.903 535.173 156.149 533.162 156.149C531.151 156.149 529.521 157.903 529.521 160.067C529.521 162.231 531.151 163.985 533.162 163.985Z" fill="#A595FA"/>
<path d="M431.223 153.211C432.229 153.211 433.044 152.334 433.044 151.252C433.044 150.17 432.229 149.293 431.223 149.293C430.218 149.293 429.403 150.17 429.403 151.252C429.403 152.334 430.218 153.211 431.223 153.211Z" fill="#A595FA"/>
<path d="M447.606 71.915C449.617 71.915 451.247 70.1608 451.247 67.9968C451.247 65.8328 449.617 64.0786 447.606 64.0786C445.595 64.0786 443.965 65.8328 443.965 67.9968C443.965 70.1608 445.595 71.915 447.606 71.915Z" fill="#A595FA"/>
<path d="M524.971 58.2013C524.971 59.824 523.749 61.1395 522.241 61.1395C520.733 61.1395 519.51 59.824 519.51 58.2013C519.51 56.5785 520.733 55.263 522.241 55.263C523.749 55.263 524.971 56.5785 524.971 58.2013Z" fill="#A595FA"/>
<path d="M438.959 133.622C439.714 133.622 440.325 132.964 440.325 132.152C440.325 131.341 439.714 130.683 438.959 130.683C438.205 130.683 437.594 131.341 437.594 132.152C437.594 132.964 438.205 133.622 438.959 133.622Z" fill="#A595FA"/>
<path d="M522.24 119.42C522.24 120.772 521.221 121.868 519.964 121.868C518.707 121.868 517.689 120.772 517.689 119.42C517.689 118.067 518.707 116.971 519.964 116.971C521.221 116.971 522.24 118.067 522.24 119.42Z" fill="#A595FA"/>
<path d="M322.914 202.185C323.919 202.185 324.734 201.308 324.734 200.226C324.734 199.144 323.919 198.267 322.914 198.267C321.908 198.267 321.093 199.144 321.093 200.226C321.093 201.308 321.908 202.185 322.914 202.185Z" fill="#A595FA"/>
<path d="M312.901 225.693C314.912 225.693 316.542 223.939 316.542 221.775C316.542 219.611 314.912 217.857 312.901 217.857C310.89 217.857 309.26 219.611 309.26 221.775C309.26 223.939 310.89 225.693 312.901 225.693Z" fill="#A595FA"/>
</svg>
